%TF.GenerationSoftware,KiCad,Pcbnew,(5.1.8)-1*%
%TF.CreationDate,2022-08-16T10:20:34+02:00*%
%TF.ProjectId,Hardware,48617264-7761-4726-952e-6b696361645f,rev?*%
%TF.SameCoordinates,Original*%
%TF.FileFunction,Other,Fab,Top*%
%FSLAX46Y46*%
G04 Gerber Fmt 4.6, Leading zero omitted, Abs format (unit mm)*
G04 Created by KiCad (PCBNEW (5.1.8)-1) date 2022-08-16 10:20:34*
%MOMM*%
%LPD*%
G01*
G04 APERTURE LIST*
%ADD10C,0.100000*%
%ADD11C,0.120000*%
%ADD12C,0.150000*%
%ADD13C,0.152400*%
%ADD14C,0.200000*%
%ADD15C,0.127000*%
%ADD16C,0.110000*%
G04 APERTURE END LIST*
D10*
%TO.C,D1*%
G36*
X209550000Y-118362500D02*
G01*
X209550000Y-117791000D01*
X210820000Y-117791000D01*
X210820000Y-118362500D01*
X209550000Y-118362500D01*
G37*
X209550000Y-118362500D02*
X209550000Y-117791000D01*
X210820000Y-117791000D01*
X210820000Y-118362500D01*
X209550000Y-118362500D01*
X209550000Y-120204000D02*
X209550000Y-117791000D01*
X209550000Y-117791000D02*
X210820000Y-117791000D01*
X210820000Y-117791000D02*
X210820000Y-120204000D01*
X210820000Y-120204000D02*
X209550000Y-120204000D01*
%TO.C,F1*%
X205676500Y-97129500D02*
X207073500Y-97129500D01*
X207073500Y-97129500D02*
X207073500Y-99987000D01*
X207073500Y-99987000D02*
X205676500Y-99987000D01*
X205676500Y-99987000D02*
X205676500Y-97129500D01*
%TO.C,R16*%
X197461500Y-111696500D02*
X197461500Y-109918500D01*
X197461500Y-109918500D02*
X200763500Y-109918500D01*
X200763500Y-109918500D02*
X200763500Y-111696500D01*
X200763500Y-111696500D02*
X197461500Y-111696500D01*
%TO.C,R15*%
X200763500Y-112141000D02*
X200763500Y-113919000D01*
X200763500Y-113919000D02*
X197461500Y-113919000D01*
X197461500Y-113919000D02*
X197461500Y-112141000D01*
X197461500Y-112141000D02*
X200763500Y-112141000D01*
%TO.C,D3*%
G36*
X197626500Y-102933500D02*
G01*
X198452000Y-102933500D01*
X198452000Y-104711500D01*
X197626500Y-104711500D01*
X197626500Y-102933500D01*
G37*
X197626500Y-102933500D02*
X198452000Y-102933500D01*
X198452000Y-104711500D01*
X197626500Y-104711500D01*
X197626500Y-102933500D01*
D11*
X198505000Y-104722500D02*
X197944000Y-104711500D01*
D12*
X195605000Y-102922500D02*
X198505000Y-102922500D01*
X195605000Y-104722500D02*
X195605000Y-102922500D01*
X198505000Y-104722500D02*
X195605000Y-104722500D01*
X198505000Y-102922500D02*
X198505000Y-104722500D01*
D10*
%TO.C,D2*%
G36*
X205486000Y-101966500D02*
G01*
X205486000Y-101141000D01*
X207264000Y-101141000D01*
X207264000Y-101966500D01*
X205486000Y-101966500D01*
G37*
X205486000Y-101966500D02*
X205486000Y-101141000D01*
X207264000Y-101141000D01*
X207264000Y-101966500D01*
X205486000Y-101966500D01*
D11*
X207275000Y-101088000D02*
X207264000Y-101649000D01*
D12*
X205475000Y-103988000D02*
X205475000Y-101088000D01*
X207275000Y-103988000D02*
X205475000Y-103988000D01*
X207275000Y-101088000D02*
X207275000Y-103988000D01*
X205475000Y-101088000D02*
X207275000Y-101088000D01*
D10*
%TO.C,SW1*%
X201366400Y-111506000D02*
X201366400Y-110998000D01*
X201366400Y-110998000D02*
X201125100Y-110998000D01*
X201125100Y-110998000D02*
X201125100Y-111506000D01*
X201125100Y-111506000D02*
X201366400Y-111506000D01*
X201366400Y-112776000D02*
X201366400Y-112268000D01*
X201366400Y-112268000D02*
X201125100Y-112268000D01*
X201125100Y-112268000D02*
X201125100Y-112776000D01*
X201125100Y-112776000D02*
X201366400Y-112776000D01*
X206776600Y-112268000D02*
X206776600Y-112776000D01*
X206776600Y-112776000D02*
X207017900Y-112776000D01*
X207017900Y-112776000D02*
X207017900Y-112268000D01*
X207017900Y-112268000D02*
X206776600Y-112268000D01*
X206776600Y-110998000D02*
X206776600Y-111506000D01*
X206776600Y-111506000D02*
X207017900Y-111506000D01*
X207017900Y-111506000D02*
X207017900Y-110998000D01*
X207017900Y-110998000D02*
X206776600Y-110998000D01*
X201366400Y-113697000D02*
X206776600Y-113697000D01*
X206776600Y-113697000D02*
X206776600Y-110042300D01*
X206776600Y-110042300D02*
X201366400Y-110042300D01*
X201366400Y-110042300D02*
X201366400Y-113697000D01*
%TO.C,LED1*%
X51968400Y-111740000D02*
G75*
G03*
X51968400Y-111740000I0J0D01*
G01*
X52959000Y-112443500D02*
X52959000Y-107236500D01*
X47371000Y-112443500D02*
X52959000Y-112443500D01*
X47371000Y-107236500D02*
X47371000Y-112443500D01*
X52959000Y-107236500D02*
X47371000Y-107236500D01*
%TO.C,SW3*%
X58039000Y-123436100D02*
X57531000Y-123436100D01*
X57531000Y-123436100D02*
X57531000Y-123677400D01*
X57531000Y-123677400D02*
X58039000Y-123677400D01*
X58039000Y-123677400D02*
X58039000Y-123436100D01*
X59309000Y-123436100D02*
X58801000Y-123436100D01*
X58801000Y-123436100D02*
X58801000Y-123677400D01*
X58801000Y-123677400D02*
X59309000Y-123677400D01*
X59309000Y-123677400D02*
X59309000Y-123436100D01*
X60579000Y-123436100D02*
X60071000Y-123436100D01*
X60071000Y-123436100D02*
X60071000Y-123677400D01*
X60071000Y-123677400D02*
X60579000Y-123677400D01*
X60579000Y-123677400D02*
X60579000Y-123436100D01*
X61849000Y-123436100D02*
X61341000Y-123436100D01*
X61341000Y-123436100D02*
X61341000Y-123677400D01*
X61341000Y-123677400D02*
X61849000Y-123677400D01*
X61849000Y-123677400D02*
X61849000Y-123436100D01*
X61341000Y-118025900D02*
X61849000Y-118025900D01*
X61849000Y-118025900D02*
X61849000Y-117784600D01*
X61849000Y-117784600D02*
X61341000Y-117784600D01*
X61341000Y-117784600D02*
X61341000Y-118025900D01*
X60071000Y-118025900D02*
X60579000Y-118025900D01*
X60579000Y-118025900D02*
X60579000Y-117784600D01*
X60579000Y-117784600D02*
X60071000Y-117784600D01*
X60071000Y-117784600D02*
X60071000Y-118025900D01*
X58801000Y-118025900D02*
X59309000Y-118025900D01*
X59309000Y-118025900D02*
X59309000Y-117784600D01*
X59309000Y-117784600D02*
X58801000Y-117784600D01*
X58801000Y-117784600D02*
X58801000Y-118025900D01*
X57531000Y-118025900D02*
X58039000Y-118025900D01*
X58039000Y-118025900D02*
X58039000Y-117784600D01*
X58039000Y-117784600D02*
X57531000Y-117784600D01*
X57531000Y-117784600D02*
X57531000Y-118025900D01*
X62730000Y-123436100D02*
X62730000Y-118025900D01*
X62730000Y-118025900D02*
X56575300Y-118025900D01*
X56575300Y-118025900D02*
X56575300Y-123436100D01*
X56575300Y-123436100D02*
X62730000Y-123436100D01*
%TO.C,SW2*%
X32445300Y-123436100D02*
X43754700Y-123436100D01*
X32445300Y-118025900D02*
X32445300Y-123436100D01*
X43754700Y-118025900D02*
X32445300Y-118025900D01*
X43754700Y-123436100D02*
X43754700Y-118025900D01*
X33401000Y-117784600D02*
X33401000Y-118025900D01*
X33909000Y-117784600D02*
X33401000Y-117784600D01*
X33909000Y-118025900D02*
X33909000Y-117784600D01*
X33401000Y-118025900D02*
X33909000Y-118025900D01*
X34671000Y-117784600D02*
X34671000Y-118025900D01*
X35179000Y-117784600D02*
X34671000Y-117784600D01*
X35179000Y-118025900D02*
X35179000Y-117784600D01*
X34671000Y-118025900D02*
X35179000Y-118025900D01*
X35941000Y-117784600D02*
X35941000Y-118025900D01*
X36449000Y-117784600D02*
X35941000Y-117784600D01*
X36449000Y-118025900D02*
X36449000Y-117784600D01*
X35941000Y-118025900D02*
X36449000Y-118025900D01*
X37211000Y-117784600D02*
X37211000Y-118025900D01*
X37719000Y-117784600D02*
X37211000Y-117784600D01*
X37719000Y-118025900D02*
X37719000Y-117784600D01*
X37211000Y-118025900D02*
X37719000Y-118025900D01*
X38481000Y-117784600D02*
X38481000Y-118025900D01*
X38989000Y-117784600D02*
X38481000Y-117784600D01*
X38989000Y-118025900D02*
X38989000Y-117784600D01*
X38481000Y-118025900D02*
X38989000Y-118025900D01*
X39751000Y-117784600D02*
X39751000Y-118025900D01*
X40259000Y-117784600D02*
X39751000Y-117784600D01*
X40259000Y-118025900D02*
X40259000Y-117784600D01*
X39751000Y-118025900D02*
X40259000Y-118025900D01*
X41021000Y-117784600D02*
X41021000Y-118025900D01*
X41529000Y-117784600D02*
X41021000Y-117784600D01*
X41529000Y-118025900D02*
X41529000Y-117784600D01*
X41021000Y-118025900D02*
X41529000Y-118025900D01*
X42291000Y-117784600D02*
X42291000Y-118025900D01*
X42799000Y-117784600D02*
X42291000Y-117784600D01*
X42799000Y-118025900D02*
X42799000Y-117784600D01*
X42291000Y-118025900D02*
X42799000Y-118025900D01*
X42799000Y-123677400D02*
X42799000Y-123436100D01*
X42291000Y-123677400D02*
X42799000Y-123677400D01*
X42291000Y-123436100D02*
X42291000Y-123677400D01*
X42799000Y-123436100D02*
X42291000Y-123436100D01*
X41529000Y-123677400D02*
X41529000Y-123436100D01*
X41021000Y-123677400D02*
X41529000Y-123677400D01*
X41021000Y-123436100D02*
X41021000Y-123677400D01*
X41529000Y-123436100D02*
X41021000Y-123436100D01*
X40259000Y-123677400D02*
X40259000Y-123436100D01*
X39751000Y-123677400D02*
X40259000Y-123677400D01*
X39751000Y-123436100D02*
X39751000Y-123677400D01*
X40259000Y-123436100D02*
X39751000Y-123436100D01*
X38989000Y-123677400D02*
X38989000Y-123436100D01*
X38481000Y-123677400D02*
X38989000Y-123677400D01*
X38481000Y-123436100D02*
X38481000Y-123677400D01*
X38989000Y-123436100D02*
X38481000Y-123436100D01*
X37719000Y-123677400D02*
X37719000Y-123436100D01*
X37211000Y-123677400D02*
X37719000Y-123677400D01*
X37211000Y-123436100D02*
X37211000Y-123677400D01*
X37719000Y-123436100D02*
X37211000Y-123436100D01*
X36449000Y-123677400D02*
X36449000Y-123436100D01*
X35941000Y-123677400D02*
X36449000Y-123677400D01*
X35941000Y-123436100D02*
X35941000Y-123677400D01*
X36449000Y-123436100D02*
X35941000Y-123436100D01*
X35179000Y-123677400D02*
X35179000Y-123436100D01*
X34671000Y-123677400D02*
X35179000Y-123677400D01*
X34671000Y-123436100D02*
X34671000Y-123677400D01*
X35179000Y-123436100D02*
X34671000Y-123436100D01*
X33909000Y-123677400D02*
X33909000Y-123436100D01*
X33401000Y-123677400D02*
X33909000Y-123677400D01*
X33401000Y-123436100D02*
X33401000Y-123677400D01*
X33909000Y-123436100D02*
X33401000Y-123436100D01*
%TO.C,R26*%
X40068500Y-112140500D02*
X38671500Y-112140500D01*
X38671500Y-112140500D02*
X38671500Y-109219500D01*
X38671500Y-109219500D02*
X40068500Y-109219500D01*
X40068500Y-109219500D02*
X40068500Y-112140500D01*
%TO.C,R25*%
X38481000Y-112140500D02*
X37084000Y-112140500D01*
X37084000Y-112140500D02*
X37084000Y-109219500D01*
X37084000Y-109219500D02*
X38481000Y-109219500D01*
X38481000Y-109219500D02*
X38481000Y-112140500D01*
%TO.C,R24*%
X190245500Y-120586500D02*
X190245500Y-121983500D01*
X190245500Y-121983500D02*
X187324500Y-121983500D01*
X187324500Y-121983500D02*
X187324500Y-120586500D01*
X187324500Y-120586500D02*
X190245500Y-120586500D01*
%TO.C,R23*%
X170878000Y-120586500D02*
X170878000Y-121983500D01*
X170878000Y-121983500D02*
X167957000Y-121983500D01*
X167957000Y-121983500D02*
X167957000Y-120586500D01*
X167957000Y-120586500D02*
X170878000Y-120586500D01*
%TO.C,R22*%
X90233000Y-120586500D02*
X90233000Y-121983500D01*
X90233000Y-121983500D02*
X87312000Y-121983500D01*
X87312000Y-121983500D02*
X87312000Y-120586500D01*
X87312000Y-120586500D02*
X90233000Y-120586500D01*
%TO.C,R21*%
X72390500Y-120586500D02*
X72390500Y-121983500D01*
X72390500Y-121983500D02*
X69469500Y-121983500D01*
X69469500Y-121983500D02*
X69469500Y-120586500D01*
X69469500Y-120586500D02*
X72390500Y-120586500D01*
%TO.C,R10*%
X28574500Y-122364500D02*
X28574500Y-123761500D01*
X28574500Y-123761500D02*
X25653500Y-123761500D01*
X25653500Y-123761500D02*
X25653500Y-122364500D01*
X25653500Y-122364500D02*
X28574500Y-122364500D01*
%TO.C,R5*%
X38481000Y-103505500D02*
X37084000Y-103505500D01*
X37084000Y-103505500D02*
X37084000Y-100584500D01*
X37084000Y-100584500D02*
X38481000Y-100584500D01*
X38481000Y-100584500D02*
X38481000Y-103505500D01*
%TO.C,R13*%
X37084000Y-104267000D02*
X38481000Y-104267000D01*
X38481000Y-104267000D02*
X38481000Y-107188000D01*
X38481000Y-107188000D02*
X37084000Y-107188000D01*
X37084000Y-107188000D02*
X37084000Y-104267000D01*
%TO.C,R20*%
X206311500Y-106616000D02*
X207708500Y-106616000D01*
X207708500Y-106616000D02*
X207708500Y-109537000D01*
X207708500Y-109537000D02*
X206311500Y-109537000D01*
X206311500Y-109537000D02*
X206311500Y-106616000D01*
%TO.C,R19*%
X202564500Y-98488500D02*
X202564500Y-97091500D01*
X202564500Y-97091500D02*
X205485500Y-97091500D01*
X205485500Y-97091500D02*
X205485500Y-98488500D01*
X205485500Y-98488500D02*
X202564500Y-98488500D01*
%TO.C,R18*%
X206121000Y-109538000D02*
X204724000Y-109538000D01*
X204724000Y-109538000D02*
X204724000Y-106617000D01*
X204724000Y-106617000D02*
X206121000Y-106617000D01*
X206121000Y-106617000D02*
X206121000Y-109538000D01*
%TO.C,R17*%
X205232000Y-106426000D02*
X205232000Y-105029000D01*
X205232000Y-105029000D02*
X208153000Y-105029000D01*
X208153000Y-105029000D02*
X208153000Y-106426000D01*
X208153000Y-106426000D02*
X205232000Y-106426000D01*
%TO.C,R14*%
X63246000Y-102743500D02*
X61849000Y-102743500D01*
X61849000Y-102743500D02*
X61849000Y-99822500D01*
X61849000Y-99822500D02*
X63246000Y-99822500D01*
X63246000Y-99822500D02*
X63246000Y-102743500D01*
%TO.C,R12*%
X85407000Y-108013500D02*
X85407000Y-106616500D01*
X85407000Y-106616500D02*
X88328000Y-106616500D01*
X88328000Y-106616500D02*
X88328000Y-108013500D01*
X88328000Y-108013500D02*
X85407000Y-108013500D01*
%TO.C,R11*%
X85407000Y-109601000D02*
X85407000Y-108204000D01*
X85407000Y-108204000D02*
X88328000Y-108204000D01*
X88328000Y-108204000D02*
X88328000Y-109601000D01*
X88328000Y-109601000D02*
X85407000Y-109601000D01*
%TO.C,R9*%
X28574500Y-119062500D02*
X28574500Y-120459500D01*
X28574500Y-120459500D02*
X25653500Y-120459500D01*
X25653500Y-120459500D02*
X25653500Y-119062500D01*
X25653500Y-119062500D02*
X28574500Y-119062500D01*
%TO.C,R8*%
X196152000Y-119761000D02*
X196152000Y-118364000D01*
X196152000Y-118364000D02*
X199073000Y-118364000D01*
X199073000Y-118364000D02*
X199073000Y-119761000D01*
X199073000Y-119761000D02*
X196152000Y-119761000D01*
%TO.C,R7*%
X85407000Y-111188500D02*
X85407000Y-109791500D01*
X85407000Y-109791500D02*
X88328000Y-109791500D01*
X88328000Y-109791500D02*
X88328000Y-111188500D01*
X88328000Y-111188500D02*
X85407000Y-111188500D01*
%TO.C,R6*%
X85407000Y-112776000D02*
X85407000Y-111379000D01*
X85407000Y-111379000D02*
X88328000Y-111379000D01*
X88328000Y-111379000D02*
X88328000Y-112776000D01*
X88328000Y-112776000D02*
X85407000Y-112776000D01*
%TO.C,R4*%
X81534500Y-112776000D02*
X81534500Y-111379000D01*
X81534500Y-111379000D02*
X84455500Y-111379000D01*
X84455500Y-111379000D02*
X84455500Y-112776000D01*
X84455500Y-112776000D02*
X81534500Y-112776000D01*
%TO.C,R3*%
X81534500Y-111188500D02*
X81534500Y-109791500D01*
X81534500Y-109791500D02*
X84455500Y-109791500D01*
X84455500Y-109791500D02*
X84455500Y-111188500D01*
X84455500Y-111188500D02*
X81534500Y-111188500D01*
%TO.C,R2*%
X81534500Y-109601000D02*
X81534500Y-108204000D01*
X81534500Y-108204000D02*
X84455500Y-108204000D01*
X84455500Y-108204000D02*
X84455500Y-109601000D01*
X84455500Y-109601000D02*
X81534500Y-109601000D01*
%TO.C,R1*%
X81534500Y-108013500D02*
X81534500Y-106616500D01*
X81534500Y-106616500D02*
X84455500Y-106616500D01*
X84455500Y-106616500D02*
X84455500Y-108013500D01*
X84455500Y-108013500D02*
X81534500Y-108013500D01*
%TO.C,C14*%
X77089000Y-109169500D02*
X78486000Y-109169500D01*
X78486000Y-109169500D02*
X78486000Y-112090500D01*
X78486000Y-112090500D02*
X77089000Y-112090500D01*
X77089000Y-112090500D02*
X77089000Y-109169500D01*
%TO.C,C12*%
X187338000Y-104521000D02*
X187338000Y-103124000D01*
X187338000Y-103124000D02*
X190259000Y-103124000D01*
X190259000Y-103124000D02*
X190259000Y-104521000D01*
X190259000Y-104521000D02*
X187338000Y-104521000D01*
%TO.C,C11*%
X194043000Y-103124000D02*
X194043000Y-104521000D01*
X194043000Y-104521000D02*
X191122000Y-104521000D01*
X191122000Y-104521000D02*
X191122000Y-103124000D01*
X191122000Y-103124000D02*
X194043000Y-103124000D01*
%TO.C,C6*%
X63233000Y-109855000D02*
X63233000Y-111252000D01*
X63233000Y-111252000D02*
X60312000Y-111252000D01*
X60312000Y-111252000D02*
X60312000Y-109855000D01*
X60312000Y-109855000D02*
X63233000Y-109855000D01*
%TO.C,C5*%
X195834000Y-110439500D02*
X197231000Y-110439500D01*
X197231000Y-110439500D02*
X197231000Y-113360500D01*
X197231000Y-113360500D02*
X195834000Y-113360500D01*
X195834000Y-113360500D02*
X195834000Y-110439500D01*
%TO.C,C4*%
X186753500Y-115265500D02*
X185356500Y-115265500D01*
X185356500Y-115265500D02*
X185356500Y-112344500D01*
X185356500Y-112344500D02*
X186753500Y-112344500D01*
X186753500Y-112344500D02*
X186753500Y-115265500D01*
%TO.C,C13*%
X203136500Y-106629500D02*
X204533500Y-106629500D01*
X204533500Y-106629500D02*
X204533500Y-109550500D01*
X204533500Y-109550500D02*
X203136500Y-109550500D01*
X203136500Y-109550500D02*
X203136500Y-106629500D01*
%TO.C,C8*%
X197739000Y-99047000D02*
X199136000Y-99047000D01*
X199136000Y-99047000D02*
X199136000Y-101968000D01*
X199136000Y-101968000D02*
X197739000Y-101968000D01*
X197739000Y-101968000D02*
X197739000Y-99047000D01*
%TO.C,C3*%
X25603500Y-122110500D02*
X25603500Y-120713500D01*
X25603500Y-120713500D02*
X28524500Y-120713500D01*
X28524500Y-120713500D02*
X28524500Y-122110500D01*
X28524500Y-122110500D02*
X25603500Y-122110500D01*
%TO.C,C2*%
X61658500Y-102743000D02*
X60261500Y-102743000D01*
X60261500Y-102743000D02*
X60261500Y-99822000D01*
X60261500Y-99822000D02*
X61658500Y-99822000D01*
X61658500Y-99822000D02*
X61658500Y-102743000D01*
%TO.C,C1*%
X28625500Y-117411500D02*
X28625500Y-118808500D01*
X28625500Y-118808500D02*
X25704500Y-118808500D01*
X25704500Y-118808500D02*
X25704500Y-117411500D01*
X25704500Y-117411500D02*
X28625500Y-117411500D01*
D11*
%TO.C,BZ1*%
X208754721Y-118840000D02*
G75*
G03*
X208754721Y-118840000I-4284721J0D01*
G01*
%TO.C,L2*%
X201739500Y-106326500D02*
X201739500Y-109628500D01*
X198945500Y-106326500D02*
X201739500Y-106326500D01*
X198945500Y-109628500D02*
X198945500Y-106326500D01*
X201739500Y-109628500D02*
X198945500Y-109628500D01*
D10*
%TO.C,U5*%
X60820800Y-111936300D02*
X60820800Y-116025700D01*
X64910200Y-111936300D02*
X60820800Y-111936300D01*
X64910200Y-116025700D02*
X64910200Y-111936300D01*
X60820800Y-116025700D02*
X64910200Y-116025700D01*
X64910200Y-112578600D02*
X64910200Y-112578600D01*
X64910200Y-112883400D02*
X64910200Y-112578600D01*
X64910200Y-112883400D02*
X64910200Y-112883400D01*
X64910200Y-112578600D02*
X64910200Y-112883400D01*
X64910200Y-113078600D02*
X64910200Y-113078600D01*
X64910200Y-113383400D02*
X64910200Y-113078600D01*
X64910200Y-113383400D02*
X64910200Y-113383400D01*
X64910200Y-113078600D02*
X64910200Y-113383400D01*
X64910200Y-113578600D02*
X64910200Y-113578600D01*
X64910200Y-113883400D02*
X64910200Y-113578600D01*
X64910200Y-113883400D02*
X64910200Y-113883400D01*
X64910200Y-113578600D02*
X64910200Y-113883400D01*
X64910200Y-114078600D02*
X64910200Y-114078600D01*
X64910200Y-114383400D02*
X64910200Y-114078600D01*
X64910200Y-114383400D02*
X64910200Y-114383400D01*
X64910200Y-114078600D02*
X64910200Y-114383400D01*
X64910200Y-114578600D02*
X64910200Y-114578600D01*
X64910200Y-114883400D02*
X64910200Y-114578600D01*
X64910200Y-114883400D02*
X64910200Y-114883400D01*
X64910200Y-114578600D02*
X64910200Y-114883400D01*
X64910200Y-115078600D02*
X64910200Y-115078600D01*
X64910200Y-115383400D02*
X64910200Y-115078600D01*
X64910200Y-115383400D02*
X64910200Y-115383400D01*
X64910200Y-115078600D02*
X64910200Y-115383400D01*
X64267900Y-116025700D02*
X64267900Y-116025700D01*
X63963100Y-116025700D02*
X64267900Y-116025700D01*
X63963100Y-116025700D02*
X63963100Y-116025700D01*
X64267900Y-116025700D02*
X63963100Y-116025700D01*
X63767900Y-116025700D02*
X63767900Y-116025700D01*
X63463100Y-116025700D02*
X63767900Y-116025700D01*
X63463100Y-116025700D02*
X63463100Y-116025700D01*
X63767900Y-116025700D02*
X63463100Y-116025700D01*
X63267900Y-116025700D02*
X63267900Y-116025700D01*
X62963100Y-116025700D02*
X63267900Y-116025700D01*
X62963100Y-116025700D02*
X62963100Y-116025700D01*
X63267900Y-116025700D02*
X62963100Y-116025700D01*
X62767900Y-116025700D02*
X62767900Y-116025700D01*
X62463100Y-116025700D02*
X62767900Y-116025700D01*
X62463100Y-116025700D02*
X62463100Y-116025700D01*
X62767900Y-116025700D02*
X62463100Y-116025700D01*
X62267900Y-116025700D02*
X62267900Y-116025700D01*
X61963100Y-116025700D02*
X62267900Y-116025700D01*
X61963100Y-116025700D02*
X61963100Y-116025700D01*
X62267900Y-116025700D02*
X61963100Y-116025700D01*
X61767900Y-116025700D02*
X61767900Y-116025700D01*
X61463100Y-116025700D02*
X61767900Y-116025700D01*
X61463100Y-116025700D02*
X61463100Y-116025700D01*
X61767900Y-116025700D02*
X61463100Y-116025700D01*
X60820800Y-115383400D02*
X60820800Y-115383400D01*
X60820800Y-115078600D02*
X60820800Y-115383400D01*
X60820800Y-115078600D02*
X60820800Y-115078600D01*
X60820800Y-115383400D02*
X60820800Y-115078600D01*
X60820800Y-114883400D02*
X60820800Y-114883400D01*
X60820800Y-114578600D02*
X60820800Y-114883400D01*
X60820800Y-114578600D02*
X60820800Y-114578600D01*
X60820800Y-114883400D02*
X60820800Y-114578600D01*
X60820800Y-114383400D02*
X60820800Y-114383400D01*
X60820800Y-114078600D02*
X60820800Y-114383400D01*
X60820800Y-114078600D02*
X60820800Y-114078600D01*
X60820800Y-114383400D02*
X60820800Y-114078600D01*
X60820800Y-113883400D02*
X60820800Y-113883400D01*
X60820800Y-113578600D02*
X60820800Y-113883400D01*
X60820800Y-113578600D02*
X60820800Y-113578600D01*
X60820800Y-113883400D02*
X60820800Y-113578600D01*
X60820800Y-113383400D02*
X60820800Y-113383400D01*
X60820800Y-113078600D02*
X60820800Y-113383400D01*
X60820800Y-113078600D02*
X60820800Y-113078600D01*
X60820800Y-113383400D02*
X60820800Y-113078600D01*
X60820800Y-112883400D02*
X60820800Y-112883400D01*
X60820800Y-112578600D02*
X60820800Y-112883400D01*
X60820800Y-112578600D02*
X60820800Y-112578600D01*
X60820800Y-112883400D02*
X60820800Y-112578600D01*
X61463100Y-111936300D02*
X61463100Y-111936300D01*
X61767900Y-111936300D02*
X61463100Y-111936300D01*
X61767900Y-111936300D02*
X61767900Y-111936300D01*
X61463100Y-111936300D02*
X61767900Y-111936300D01*
X61963100Y-111936300D02*
X61963100Y-111936300D01*
X62267900Y-111936300D02*
X61963100Y-111936300D01*
X62267900Y-111936300D02*
X62267900Y-111936300D01*
X61963100Y-111936300D02*
X62267900Y-111936300D01*
X62463100Y-111936300D02*
X62463100Y-111936300D01*
X62767900Y-111936300D02*
X62463100Y-111936300D01*
X62767900Y-111936300D02*
X62767900Y-111936300D01*
X62463100Y-111936300D02*
X62767900Y-111936300D01*
X62963100Y-111936300D02*
X62963100Y-111936300D01*
X63267900Y-111936300D02*
X62963100Y-111936300D01*
X63267900Y-111936300D02*
X63267900Y-111936300D01*
X62963100Y-111936300D02*
X63267900Y-111936300D01*
X63463100Y-111936300D02*
X63463100Y-111936300D01*
X63767900Y-111936300D02*
X63463100Y-111936300D01*
X63767900Y-111936300D02*
X63767900Y-111936300D01*
X63463100Y-111936300D02*
X63767900Y-111936300D01*
X63963100Y-111936300D02*
X63963100Y-111936300D01*
X64267900Y-111936300D02*
X63963100Y-111936300D01*
X64267900Y-111936300D02*
X64267900Y-111936300D01*
X63963100Y-111936300D02*
X64267900Y-111936300D01*
X60820800Y-113206300D02*
X62090800Y-111936300D01*
%TO.C,LED4*%
X139940000Y-123698000D02*
X159740000Y-123698000D01*
X159740000Y-123698000D02*
X159740000Y-95986600D01*
X159740000Y-95986600D02*
X139940000Y-95986600D01*
X139940000Y-95986600D02*
X139940000Y-123698000D01*
X142989300Y-100965000D02*
G75*
G03*
X142989300Y-100965000I0J0D01*
G01*
X150164800Y-95986600D02*
G75*
G02*
X149555200Y-95986600I-304800J0D01*
G01*
%TO.C,LED3*%
X119620000Y-123698000D02*
X139420000Y-123698000D01*
X139420000Y-123698000D02*
X139420000Y-95986600D01*
X139420000Y-95986600D02*
X119620000Y-95986600D01*
X119620000Y-95986600D02*
X119620000Y-123698000D01*
X122669300Y-100965000D02*
G75*
G03*
X122669300Y-100965000I0J0D01*
G01*
X129844800Y-95986600D02*
G75*
G02*
X129235200Y-95986600I-304800J0D01*
G01*
%TO.C,LED2*%
X99300000Y-123698000D02*
X119100000Y-123698000D01*
X119100000Y-123698000D02*
X119100000Y-95986600D01*
X119100000Y-95986600D02*
X99300000Y-95986600D01*
X99300000Y-95986600D02*
X99300000Y-123698000D01*
X102349300Y-100965000D02*
G75*
G03*
X102349300Y-100965000I0J0D01*
G01*
X109524800Y-95986600D02*
G75*
G02*
X108915200Y-95986600I-304800J0D01*
G01*
%TO.C,L1*%
X208412000Y-98321000D02*
G75*
G03*
X208412000Y-98321000I0J0D01*
G01*
X208292100Y-98397200D02*
X209231900Y-98397200D01*
X208292100Y-96695400D02*
X208292100Y-98397200D01*
X209231900Y-96695400D02*
X208292100Y-96695400D01*
X209231900Y-98397200D02*
X209231900Y-96695400D01*
X208635000Y-96695400D02*
X208635000Y-96949400D01*
X208889000Y-96695400D02*
X208635000Y-96695400D01*
X208889000Y-96949400D02*
X208889000Y-96695400D01*
X208635000Y-96949400D02*
X208889000Y-96949400D01*
X208889000Y-98397200D02*
X208889000Y-98143200D01*
X208635000Y-98397200D02*
X208889000Y-98397200D01*
X208635000Y-98143200D02*
X208635000Y-98397200D01*
X208889000Y-98143200D02*
X208635000Y-98143200D01*
%TO.C,U3*%
X190131000Y-112221000D02*
X192381000Y-112221000D01*
X192381000Y-112221000D02*
X192381000Y-115221000D01*
X192381000Y-115221000D02*
X189381000Y-115221000D01*
X189381000Y-115221000D02*
X189381000Y-112971000D01*
X189381000Y-112971000D02*
X190131000Y-112221000D01*
%TO.C,U6*%
X200430000Y-103302500D02*
X200430000Y-101052500D01*
X200430000Y-101052500D02*
X203430000Y-101052500D01*
X203430000Y-101052500D02*
X203430000Y-104052500D01*
X203430000Y-104052500D02*
X201180000Y-104052500D01*
X201180000Y-104052500D02*
X200430000Y-103302500D01*
%TO.C,D5*%
X208580000Y-113404500D02*
X209980000Y-113404500D01*
X209980000Y-110364500D02*
X209980000Y-113404500D01*
X208580000Y-110934500D02*
X209130000Y-110364500D01*
X209130000Y-110364500D02*
X209980000Y-110364500D01*
X208580000Y-110934500D02*
X208580000Y-113384500D01*
%TO.C,U8*%
X71797500Y-109310000D02*
X74722500Y-109310000D01*
X74722500Y-109310000D02*
X74722500Y-114210000D01*
X74722500Y-114210000D02*
X70822500Y-114210000D01*
X70822500Y-114210000D02*
X70822500Y-110285000D01*
X70822500Y-110285000D02*
X71797500Y-109310000D01*
D13*
%TO.C,J1*%
X25146000Y-101561900D02*
X35775900Y-101561900D01*
X35814000Y-101561900D02*
X35814000Y-96558100D01*
X35788600Y-96558100D02*
X25146000Y-96558100D01*
X25146000Y-96558100D02*
X25146000Y-101561900D01*
X29591000Y-101600000D02*
G75*
G03*
X29591000Y-101600000I-381000J0D01*
G01*
D10*
%TO.C,J10*%
X211836000Y-114935000D02*
G75*
G03*
X211836000Y-114935000I-381000J0D01*
G01*
X211710000Y-118579900D02*
X223260000Y-118579900D01*
X211710000Y-96050100D02*
X211710000Y-118579900D01*
X223260000Y-96050100D02*
X211710000Y-96050100D01*
X223260000Y-118579900D02*
X223260000Y-96050100D01*
D14*
%TO.C,D7*%
X210867500Y-99715000D02*
X208867500Y-99715000D01*
X208867500Y-99715000D02*
X208867500Y-101715000D01*
X208867500Y-101715000D02*
X210867500Y-101715000D01*
X210867500Y-101715000D02*
X210867500Y-99715000D01*
%TO.C,D4*%
X208867500Y-104755000D02*
X210867500Y-104755000D01*
X210867500Y-104755000D02*
X210867500Y-102755000D01*
X210867500Y-102755000D02*
X208867500Y-102755000D01*
X208867500Y-102755000D02*
X208867500Y-104755000D01*
D10*
%TO.C,J9*%
X184785000Y-102552500D02*
X184150000Y-101917500D01*
X194310000Y-102552500D02*
X184785000Y-102552500D01*
X194310000Y-100012500D02*
X194310000Y-102552500D01*
X184150000Y-100012500D02*
X194310000Y-100012500D01*
X184150000Y-101917500D02*
X184150000Y-100012500D01*
%TO.C,J8*%
X184785000Y-119697500D02*
X184150000Y-119062500D01*
X194310000Y-119697500D02*
X184785000Y-119697500D01*
X194310000Y-117157500D02*
X194310000Y-119697500D01*
X184150000Y-117157500D02*
X194310000Y-117157500D01*
X184150000Y-119062500D02*
X184150000Y-117157500D01*
%TO.C,J7*%
X165417500Y-102552500D02*
X164782500Y-101917500D01*
X174942500Y-102552500D02*
X165417500Y-102552500D01*
X174942500Y-100012500D02*
X174942500Y-102552500D01*
X164782500Y-100012500D02*
X174942500Y-100012500D01*
X164782500Y-101917500D02*
X164782500Y-100012500D01*
%TO.C,J6*%
X165417500Y-119697500D02*
X164782500Y-119062500D01*
X174942500Y-119697500D02*
X165417500Y-119697500D01*
X174942500Y-117157500D02*
X174942500Y-119697500D01*
X164782500Y-117157500D02*
X174942500Y-117157500D01*
X164782500Y-119062500D02*
X164782500Y-117157500D01*
%TO.C,J5*%
X84772500Y-102552500D02*
X84137500Y-101917500D01*
X94297500Y-102552500D02*
X84772500Y-102552500D01*
X94297500Y-100012500D02*
X94297500Y-102552500D01*
X84137500Y-100012500D02*
X94297500Y-100012500D01*
X84137500Y-101917500D02*
X84137500Y-100012500D01*
%TO.C,J4*%
X84772500Y-119697500D02*
X84137500Y-119062500D01*
X94297500Y-119697500D02*
X84772500Y-119697500D01*
X94297500Y-117157500D02*
X94297500Y-119697500D01*
X84137500Y-117157500D02*
X94297500Y-117157500D01*
X84137500Y-119062500D02*
X84137500Y-117157500D01*
%TO.C,J3*%
X65405000Y-102552500D02*
X64770000Y-101917500D01*
X74930000Y-102552500D02*
X65405000Y-102552500D01*
X74930000Y-100012500D02*
X74930000Y-102552500D01*
X64770000Y-100012500D02*
X74930000Y-100012500D01*
X64770000Y-101917500D02*
X64770000Y-100012500D01*
%TO.C,J2*%
X65405000Y-119697500D02*
X64770000Y-119062500D01*
X74930000Y-119697500D02*
X65405000Y-119697500D01*
X74930000Y-117157500D02*
X74930000Y-119697500D01*
X64770000Y-117157500D02*
X74930000Y-117157500D01*
X64770000Y-119062500D02*
X64770000Y-117157500D01*
%TO.C,U7*%
X188734700Y-105003600D02*
X188734700Y-110261400D01*
X192646300Y-105003600D02*
X188734700Y-105003600D01*
X192646300Y-110261400D02*
X192646300Y-105003600D01*
X188734700Y-110261400D02*
X192646300Y-110261400D01*
X193687700Y-105511600D02*
X192646300Y-105511600D01*
X193687700Y-105943400D02*
X193687700Y-105511600D01*
X192646300Y-105943400D02*
X193687700Y-105943400D01*
X192646300Y-105511600D02*
X192646300Y-105943400D01*
X193687700Y-106781600D02*
X192646300Y-106781600D01*
X193687700Y-107213400D02*
X193687700Y-106781600D01*
X192646300Y-107213400D02*
X193687700Y-107213400D01*
X192646300Y-106781600D02*
X192646300Y-107213400D01*
X193687700Y-108051600D02*
X192646300Y-108051600D01*
X193687700Y-108483400D02*
X193687700Y-108051600D01*
X192646300Y-108483400D02*
X193687700Y-108483400D01*
X192646300Y-108051600D02*
X192646300Y-108483400D01*
X193687700Y-109321600D02*
X192646300Y-109321600D01*
X193687700Y-109753400D02*
X193687700Y-109321600D01*
X192646300Y-109753400D02*
X193687700Y-109753400D01*
X192646300Y-109321600D02*
X192646300Y-109753400D01*
X187693300Y-109753400D02*
X188734700Y-109753400D01*
X187693300Y-109321600D02*
X187693300Y-109753400D01*
X188734700Y-109321600D02*
X187693300Y-109321600D01*
X188734700Y-109753400D02*
X188734700Y-109321600D01*
X187693300Y-108483400D02*
X188734700Y-108483400D01*
X187693300Y-108051600D02*
X187693300Y-108483400D01*
X188734700Y-108051600D02*
X187693300Y-108051600D01*
X188734700Y-108483400D02*
X188734700Y-108051600D01*
X187693300Y-107213400D02*
X188734700Y-107213400D01*
X187693300Y-106781600D02*
X187693300Y-107213400D01*
X188734700Y-106781600D02*
X187693300Y-106781600D01*
X188734700Y-107213400D02*
X188734700Y-106781600D01*
X187693300Y-105943400D02*
X188734700Y-105943400D01*
X187693300Y-105511600D02*
X187693300Y-105943400D01*
X188734700Y-105511600D02*
X187693300Y-105511600D01*
X188734700Y-105943400D02*
X188734700Y-105511600D01*
X190995300Y-105003600D02*
G75*
G02*
X190385700Y-105003600I-304800J0D01*
G01*
%TO.C,C10*%
X198602500Y-109027500D02*
X197002500Y-109027500D01*
X197002500Y-109027500D02*
X197002500Y-105827500D01*
X197002500Y-105827500D02*
X198602500Y-105827500D01*
X198602500Y-105827500D02*
X198602500Y-109027500D01*
%TO.C,U1*%
X29764000Y-123633000D02*
X31164000Y-123633000D01*
X31164000Y-120593000D02*
X31164000Y-123633000D01*
X29764000Y-121163000D02*
X30314000Y-120593000D01*
X30314000Y-120593000D02*
X31164000Y-120593000D01*
X29764000Y-121163000D02*
X29764000Y-123613000D01*
%TO.C,Q3*%
X90690700Y-108750100D02*
X90690700Y-107454700D01*
X90690700Y-107454700D02*
X89014300Y-107454700D01*
X89014300Y-107454700D02*
X89014300Y-108750100D01*
X89014300Y-108750100D02*
X90690700Y-108750100D01*
X89428700Y-108635800D02*
G75*
G03*
X89428700Y-108635800I-76200J0D01*
G01*
X89014300Y-107797600D02*
G75*
G02*
X89014300Y-108407200I0J-304800D01*
G01*
%TO.C,Q1*%
X90690700Y-111925100D02*
X90690700Y-110629700D01*
X90690700Y-110629700D02*
X89014300Y-110629700D01*
X89014300Y-110629700D02*
X89014300Y-111925100D01*
X89014300Y-111925100D02*
X90690700Y-111925100D01*
X89428700Y-111810800D02*
G75*
G03*
X89428700Y-111810800I-76200J0D01*
G01*
X89014300Y-110972600D02*
G75*
G02*
X89014300Y-111582200I0J-304800D01*
G01*
%TO.C,U4*%
X60858400Y-104990900D02*
X62128400Y-103720900D01*
X63962600Y-103720900D02*
X64267400Y-103720900D01*
X64267400Y-103720900D02*
X64267400Y-103720900D01*
X64267400Y-103720900D02*
X63962600Y-103720900D01*
X63962600Y-103720900D02*
X63962600Y-103720900D01*
X63462600Y-103720900D02*
X63767400Y-103720900D01*
X63767400Y-103720900D02*
X63767400Y-103720900D01*
X63767400Y-103720900D02*
X63462600Y-103720900D01*
X63462600Y-103720900D02*
X63462600Y-103720900D01*
X62962600Y-103720900D02*
X63267400Y-103720900D01*
X63267400Y-103720900D02*
X63267400Y-103720900D01*
X63267400Y-103720900D02*
X62962600Y-103720900D01*
X62962600Y-103720900D02*
X62962600Y-103720900D01*
X62462600Y-103720900D02*
X62767400Y-103720900D01*
X62767400Y-103720900D02*
X62767400Y-103720900D01*
X62767400Y-103720900D02*
X62462600Y-103720900D01*
X62462600Y-103720900D02*
X62462600Y-103720900D01*
X61962600Y-103720900D02*
X62267400Y-103720900D01*
X62267400Y-103720900D02*
X62267400Y-103720900D01*
X62267400Y-103720900D02*
X61962600Y-103720900D01*
X61962600Y-103720900D02*
X61962600Y-103720900D01*
X61462600Y-103720900D02*
X61767400Y-103720900D01*
X61767400Y-103720900D02*
X61767400Y-103720900D01*
X61767400Y-103720900D02*
X61462600Y-103720900D01*
X61462600Y-103720900D02*
X61462600Y-103720900D01*
X60858400Y-104629900D02*
X60858400Y-104325100D01*
X60858400Y-104325100D02*
X60858400Y-104325100D01*
X60858400Y-104325100D02*
X60858400Y-104629900D01*
X60858400Y-104629900D02*
X60858400Y-104629900D01*
X60858400Y-105129900D02*
X60858400Y-104825100D01*
X60858400Y-104825100D02*
X60858400Y-104825100D01*
X60858400Y-104825100D02*
X60858400Y-105129900D01*
X60858400Y-105129900D02*
X60858400Y-105129900D01*
X60858400Y-105629900D02*
X60858400Y-105325100D01*
X60858400Y-105325100D02*
X60858400Y-105325100D01*
X60858400Y-105325100D02*
X60858400Y-105629900D01*
X60858400Y-105629900D02*
X60858400Y-105629900D01*
X60858400Y-106129900D02*
X60858400Y-105825100D01*
X60858400Y-105825100D02*
X60858400Y-105825100D01*
X60858400Y-105825100D02*
X60858400Y-106129900D01*
X60858400Y-106129900D02*
X60858400Y-106129900D01*
X60858400Y-106629900D02*
X60858400Y-106325100D01*
X60858400Y-106325100D02*
X60858400Y-106325100D01*
X60858400Y-106325100D02*
X60858400Y-106629900D01*
X60858400Y-106629900D02*
X60858400Y-106629900D01*
X60858400Y-107129900D02*
X60858400Y-106825100D01*
X60858400Y-106825100D02*
X60858400Y-106825100D01*
X60858400Y-106825100D02*
X60858400Y-107129900D01*
X60858400Y-107129900D02*
X60858400Y-107129900D01*
X61767400Y-107734100D02*
X61462600Y-107734100D01*
X61462600Y-107734100D02*
X61462600Y-107734100D01*
X61462600Y-107734100D02*
X61767400Y-107734100D01*
X61767400Y-107734100D02*
X61767400Y-107734100D01*
X62267400Y-107734100D02*
X61962600Y-107734100D01*
X61962600Y-107734100D02*
X61962600Y-107734100D01*
X61962600Y-107734100D02*
X62267400Y-107734100D01*
X62267400Y-107734100D02*
X62267400Y-107734100D01*
X62767400Y-107734100D02*
X62462600Y-107734100D01*
X62462600Y-107734100D02*
X62462600Y-107734100D01*
X62462600Y-107734100D02*
X62767400Y-107734100D01*
X62767400Y-107734100D02*
X62767400Y-107734100D01*
X63267400Y-107734100D02*
X62962600Y-107734100D01*
X62962600Y-107734100D02*
X62962600Y-107734100D01*
X62962600Y-107734100D02*
X63267400Y-107734100D01*
X63267400Y-107734100D02*
X63267400Y-107734100D01*
X63767400Y-107734100D02*
X63462600Y-107734100D01*
X63462600Y-107734100D02*
X63462600Y-107734100D01*
X63462600Y-107734100D02*
X63767400Y-107734100D01*
X63767400Y-107734100D02*
X63767400Y-107734100D01*
X64267400Y-107734100D02*
X63962600Y-107734100D01*
X63962600Y-107734100D02*
X63962600Y-107734100D01*
X63962600Y-107734100D02*
X64267400Y-107734100D01*
X64267400Y-107734100D02*
X64267400Y-107734100D01*
X64871600Y-106825100D02*
X64871600Y-107129900D01*
X64871600Y-107129900D02*
X64871600Y-107129900D01*
X64871600Y-107129900D02*
X64871600Y-106825100D01*
X64871600Y-106825100D02*
X64871600Y-106825100D01*
X64871600Y-106325100D02*
X64871600Y-106629900D01*
X64871600Y-106629900D02*
X64871600Y-106629900D01*
X64871600Y-106629900D02*
X64871600Y-106325100D01*
X64871600Y-106325100D02*
X64871600Y-106325100D01*
X64871600Y-105825100D02*
X64871600Y-106129900D01*
X64871600Y-106129900D02*
X64871600Y-106129900D01*
X64871600Y-106129900D02*
X64871600Y-105825100D01*
X64871600Y-105825100D02*
X64871600Y-105825100D01*
X64871600Y-105325100D02*
X64871600Y-105629900D01*
X64871600Y-105629900D02*
X64871600Y-105629900D01*
X64871600Y-105629900D02*
X64871600Y-105325100D01*
X64871600Y-105325100D02*
X64871600Y-105325100D01*
X64871600Y-104825100D02*
X64871600Y-105129900D01*
X64871600Y-105129900D02*
X64871600Y-105129900D01*
X64871600Y-105129900D02*
X64871600Y-104825100D01*
X64871600Y-104825100D02*
X64871600Y-104825100D01*
X64871600Y-104325100D02*
X64871600Y-104629900D01*
X64871600Y-104629900D02*
X64871600Y-104629900D01*
X64871600Y-104629900D02*
X64871600Y-104325100D01*
X64871600Y-104325100D02*
X64871600Y-104325100D01*
X60858400Y-107734100D02*
X64871600Y-107734100D01*
X64871600Y-107734100D02*
X64871600Y-107734100D01*
X64871600Y-107734100D02*
X64871600Y-103720900D01*
X64871600Y-103720900D02*
X64871600Y-103720900D01*
X64871600Y-103720900D02*
X60858400Y-103720900D01*
X60858400Y-103720900D02*
X60858400Y-103720900D01*
X60858400Y-103720900D02*
X60858400Y-107734100D01*
X60858400Y-107734100D02*
X60858400Y-107734100D01*
D15*
%TO.C,U2*%
X24686500Y-116455000D02*
X24686500Y-103255000D01*
D14*
X26386500Y-117105000D02*
G75*
G03*
X26386500Y-117105000I-100000J0D01*
G01*
D15*
X24686500Y-116455000D02*
X19286500Y-116455000D01*
X35886500Y-116455000D02*
X24686500Y-116455000D01*
X35886500Y-103255000D02*
X35886500Y-116455000D01*
X24686500Y-103255000D02*
X35886500Y-103255000D01*
X19286500Y-103255000D02*
X24686500Y-103255000D01*
X19286500Y-116455000D02*
X19286500Y-103255000D01*
D10*
%TO.C,Q2*%
X198435000Y-121172500D02*
X195985000Y-121172500D01*
X199005000Y-121722500D02*
X199005000Y-122572500D01*
X198435000Y-121172500D02*
X199005000Y-121722500D01*
X199005000Y-122572500D02*
X195965000Y-122572500D01*
X195965000Y-121172500D02*
X195965000Y-122572500D01*
%TO.C,C9*%
X196380000Y-105827500D02*
X196380000Y-109027500D01*
X194780000Y-105827500D02*
X196380000Y-105827500D01*
X194780000Y-109027500D02*
X194780000Y-105827500D01*
X196380000Y-109027500D02*
X194780000Y-109027500D01*
%TO.C,C7*%
X198537500Y-96672500D02*
X201737500Y-96672500D01*
X198537500Y-98272500D02*
X198537500Y-96672500D01*
X201737500Y-98272500D02*
X198537500Y-98272500D01*
X201737500Y-96672500D02*
X201737500Y-98272500D01*
%TD*%
%TO.C,D1*%
D12*
X211161404Y-119959380D02*
X211161404Y-118959380D01*
X211399500Y-118959380D01*
X211542357Y-119007000D01*
X211637595Y-119102238D01*
X211685214Y-119197476D01*
X211732833Y-119387952D01*
X211732833Y-119530809D01*
X211685214Y-119721285D01*
X211637595Y-119816523D01*
X211542357Y-119911761D01*
X211399500Y-119959380D01*
X211161404Y-119959380D01*
X212685214Y-119959380D02*
X212113785Y-119959380D01*
X212399500Y-119959380D02*
X212399500Y-118959380D01*
X212304261Y-119102238D01*
X212209023Y-119197476D01*
X212113785Y-119245095D01*
%TO.C,F1*%
X206303571Y-98923333D02*
X206303571Y-99256666D01*
X206827380Y-99256666D02*
X205827380Y-99256666D01*
X205827380Y-98780476D01*
X206827380Y-97875714D02*
X206827380Y-98447142D01*
X206827380Y-98161428D02*
X205827380Y-98161428D01*
X205970238Y-98256666D01*
X206065476Y-98351904D01*
X206113095Y-98447142D01*
%TO.C,R16*%
X198469642Y-111259880D02*
X198136309Y-110783690D01*
X197898214Y-111259880D02*
X197898214Y-110259880D01*
X198279166Y-110259880D01*
X198374404Y-110307500D01*
X198422023Y-110355119D01*
X198469642Y-110450357D01*
X198469642Y-110593214D01*
X198422023Y-110688452D01*
X198374404Y-110736071D01*
X198279166Y-110783690D01*
X197898214Y-110783690D01*
X199422023Y-111259880D02*
X198850595Y-111259880D01*
X199136309Y-111259880D02*
X199136309Y-110259880D01*
X199041071Y-110402738D01*
X198945833Y-110497976D01*
X198850595Y-110545595D01*
X200279166Y-110259880D02*
X200088690Y-110259880D01*
X199993452Y-110307500D01*
X199945833Y-110355119D01*
X199850595Y-110497976D01*
X199802976Y-110688452D01*
X199802976Y-111069404D01*
X199850595Y-111164642D01*
X199898214Y-111212261D01*
X199993452Y-111259880D01*
X200183928Y-111259880D01*
X200279166Y-111212261D01*
X200326785Y-111164642D01*
X200374404Y-111069404D01*
X200374404Y-110831309D01*
X200326785Y-110736071D01*
X200279166Y-110688452D01*
X200183928Y-110640833D01*
X199993452Y-110640833D01*
X199898214Y-110688452D01*
X199850595Y-110736071D01*
X199802976Y-110831309D01*
%TO.C,R15*%
X198469642Y-113482380D02*
X198136309Y-113006190D01*
X197898214Y-113482380D02*
X197898214Y-112482380D01*
X198279166Y-112482380D01*
X198374404Y-112530000D01*
X198422023Y-112577619D01*
X198469642Y-112672857D01*
X198469642Y-112815714D01*
X198422023Y-112910952D01*
X198374404Y-112958571D01*
X198279166Y-113006190D01*
X197898214Y-113006190D01*
X199422023Y-113482380D02*
X198850595Y-113482380D01*
X199136309Y-113482380D02*
X199136309Y-112482380D01*
X199041071Y-112625238D01*
X198945833Y-112720476D01*
X198850595Y-112768095D01*
X200326785Y-112482380D02*
X199850595Y-112482380D01*
X199802976Y-112958571D01*
X199850595Y-112910952D01*
X199945833Y-112863333D01*
X200183928Y-112863333D01*
X200279166Y-112910952D01*
X200326785Y-112958571D01*
X200374404Y-113053809D01*
X200374404Y-113291904D01*
X200326785Y-113387142D01*
X200279166Y-113434761D01*
X200183928Y-113482380D01*
X199945833Y-113482380D01*
X199850595Y-113434761D01*
X199802976Y-113387142D01*
%TO.C,D3*%
X195857904Y-104274880D02*
X195857904Y-103274880D01*
X196096000Y-103274880D01*
X196238857Y-103322500D01*
X196334095Y-103417738D01*
X196381714Y-103512976D01*
X196429333Y-103703452D01*
X196429333Y-103846309D01*
X196381714Y-104036785D01*
X196334095Y-104132023D01*
X196238857Y-104227261D01*
X196096000Y-104274880D01*
X195857904Y-104274880D01*
X196762666Y-103274880D02*
X197381714Y-103274880D01*
X197048380Y-103655833D01*
X197191238Y-103655833D01*
X197286476Y-103703452D01*
X197334095Y-103751071D01*
X197381714Y-103846309D01*
X197381714Y-104084404D01*
X197334095Y-104179642D01*
X197286476Y-104227261D01*
X197191238Y-104274880D01*
X196905523Y-104274880D01*
X196810285Y-104227261D01*
X196762666Y-104179642D01*
%TO.C,D2*%
X206890880Y-103735095D02*
X205890880Y-103735095D01*
X205890880Y-103497000D01*
X205938500Y-103354142D01*
X206033738Y-103258904D01*
X206128976Y-103211285D01*
X206319452Y-103163666D01*
X206462309Y-103163666D01*
X206652785Y-103211285D01*
X206748023Y-103258904D01*
X206843261Y-103354142D01*
X206890880Y-103497000D01*
X206890880Y-103735095D01*
X205986119Y-102782714D02*
X205938500Y-102735095D01*
X205890880Y-102639857D01*
X205890880Y-102401761D01*
X205938500Y-102306523D01*
X205986119Y-102258904D01*
X206081357Y-102211285D01*
X206176595Y-102211285D01*
X206319452Y-102258904D01*
X206890880Y-102830333D01*
X206890880Y-102211285D01*
%TO.C,SW1*%
X202819166Y-112418761D02*
X202962023Y-112466380D01*
X203200119Y-112466380D01*
X203295357Y-112418761D01*
X203342976Y-112371142D01*
X203390595Y-112275904D01*
X203390595Y-112180666D01*
X203342976Y-112085428D01*
X203295357Y-112037809D01*
X203200119Y-111990190D01*
X203009642Y-111942571D01*
X202914404Y-111894952D01*
X202866785Y-111847333D01*
X202819166Y-111752095D01*
X202819166Y-111656857D01*
X202866785Y-111561619D01*
X202914404Y-111514000D01*
X203009642Y-111466380D01*
X203247738Y-111466380D01*
X203390595Y-111514000D01*
X203723928Y-111466380D02*
X203962023Y-112466380D01*
X204152500Y-111752095D01*
X204342976Y-112466380D01*
X204581071Y-111466380D01*
X205485833Y-112466380D02*
X204914404Y-112466380D01*
X205200119Y-112466380D02*
X205200119Y-111466380D01*
X205104880Y-111609238D01*
X205009642Y-111704476D01*
X204914404Y-111752095D01*
%TO.C,LED1*%
X49236452Y-108592880D02*
X48760261Y-108592880D01*
X48760261Y-107592880D01*
X49569785Y-108069071D02*
X49903119Y-108069071D01*
X50045976Y-108592880D02*
X49569785Y-108592880D01*
X49569785Y-107592880D01*
X50045976Y-107592880D01*
X50474547Y-108592880D02*
X50474547Y-107592880D01*
X50712642Y-107592880D01*
X50855500Y-107640500D01*
X50950738Y-107735738D01*
X50998357Y-107830976D01*
X51045976Y-108021452D01*
X51045976Y-108164309D01*
X50998357Y-108354785D01*
X50950738Y-108450023D01*
X50855500Y-108545261D01*
X50712642Y-108592880D01*
X50474547Y-108592880D01*
X51998357Y-108592880D02*
X51426928Y-108592880D01*
X51712642Y-108592880D02*
X51712642Y-107592880D01*
X51617404Y-107735738D01*
X51522166Y-107830976D01*
X51426928Y-107878595D01*
X52062095Y-110292380D02*
X52062095Y-109292380D01*
X52633523Y-110292380D02*
X52204952Y-109720952D01*
X52633523Y-109292380D02*
X52062095Y-109863809D01*
%TO.C,SW3*%
X58356666Y-121135761D02*
X58499523Y-121183380D01*
X58737619Y-121183380D01*
X58832857Y-121135761D01*
X58880476Y-121088142D01*
X58928095Y-120992904D01*
X58928095Y-120897666D01*
X58880476Y-120802428D01*
X58832857Y-120754809D01*
X58737619Y-120707190D01*
X58547142Y-120659571D01*
X58451904Y-120611952D01*
X58404285Y-120564333D01*
X58356666Y-120469095D01*
X58356666Y-120373857D01*
X58404285Y-120278619D01*
X58451904Y-120231000D01*
X58547142Y-120183380D01*
X58785238Y-120183380D01*
X58928095Y-120231000D01*
X59261428Y-120183380D02*
X59499523Y-121183380D01*
X59690000Y-120469095D01*
X59880476Y-121183380D01*
X60118571Y-120183380D01*
X60404285Y-120183380D02*
X61023333Y-120183380D01*
X60690000Y-120564333D01*
X60832857Y-120564333D01*
X60928095Y-120611952D01*
X60975714Y-120659571D01*
X61023333Y-120754809D01*
X61023333Y-120992904D01*
X60975714Y-121088142D01*
X60928095Y-121135761D01*
X60832857Y-121183380D01*
X60547142Y-121183380D01*
X60451904Y-121135761D01*
X60404285Y-121088142D01*
%TO.C,SW2*%
X36766666Y-121135761D02*
X36909523Y-121183380D01*
X37147619Y-121183380D01*
X37242857Y-121135761D01*
X37290476Y-121088142D01*
X37338095Y-120992904D01*
X37338095Y-120897666D01*
X37290476Y-120802428D01*
X37242857Y-120754809D01*
X37147619Y-120707190D01*
X36957142Y-120659571D01*
X36861904Y-120611952D01*
X36814285Y-120564333D01*
X36766666Y-120469095D01*
X36766666Y-120373857D01*
X36814285Y-120278619D01*
X36861904Y-120231000D01*
X36957142Y-120183380D01*
X37195238Y-120183380D01*
X37338095Y-120231000D01*
X37671428Y-120183380D02*
X37909523Y-121183380D01*
X38100000Y-120469095D01*
X38290476Y-121183380D01*
X38528571Y-120183380D01*
X38861904Y-120278619D02*
X38909523Y-120231000D01*
X39004761Y-120183380D01*
X39242857Y-120183380D01*
X39338095Y-120231000D01*
X39385714Y-120278619D01*
X39433333Y-120373857D01*
X39433333Y-120469095D01*
X39385714Y-120611952D01*
X38814285Y-121183380D01*
X39433333Y-121183380D01*
%TO.C,R26*%
X39822380Y-111322857D02*
X39346190Y-111656190D01*
X39822380Y-111894285D02*
X38822380Y-111894285D01*
X38822380Y-111513333D01*
X38870000Y-111418095D01*
X38917619Y-111370476D01*
X39012857Y-111322857D01*
X39155714Y-111322857D01*
X39250952Y-111370476D01*
X39298571Y-111418095D01*
X39346190Y-111513333D01*
X39346190Y-111894285D01*
X38917619Y-110941904D02*
X38870000Y-110894285D01*
X38822380Y-110799047D01*
X38822380Y-110560952D01*
X38870000Y-110465714D01*
X38917619Y-110418095D01*
X39012857Y-110370476D01*
X39108095Y-110370476D01*
X39250952Y-110418095D01*
X39822380Y-110989523D01*
X39822380Y-110370476D01*
X38822380Y-109513333D02*
X38822380Y-109703809D01*
X38870000Y-109799047D01*
X38917619Y-109846666D01*
X39060476Y-109941904D01*
X39250952Y-109989523D01*
X39631904Y-109989523D01*
X39727142Y-109941904D01*
X39774761Y-109894285D01*
X39822380Y-109799047D01*
X39822380Y-109608571D01*
X39774761Y-109513333D01*
X39727142Y-109465714D01*
X39631904Y-109418095D01*
X39393809Y-109418095D01*
X39298571Y-109465714D01*
X39250952Y-109513333D01*
X39203333Y-109608571D01*
X39203333Y-109799047D01*
X39250952Y-109894285D01*
X39298571Y-109941904D01*
X39393809Y-109989523D01*
%TO.C,R25*%
X38234880Y-111322857D02*
X37758690Y-111656190D01*
X38234880Y-111894285D02*
X37234880Y-111894285D01*
X37234880Y-111513333D01*
X37282500Y-111418095D01*
X37330119Y-111370476D01*
X37425357Y-111322857D01*
X37568214Y-111322857D01*
X37663452Y-111370476D01*
X37711071Y-111418095D01*
X37758690Y-111513333D01*
X37758690Y-111894285D01*
X37330119Y-110941904D02*
X37282500Y-110894285D01*
X37234880Y-110799047D01*
X37234880Y-110560952D01*
X37282500Y-110465714D01*
X37330119Y-110418095D01*
X37425357Y-110370476D01*
X37520595Y-110370476D01*
X37663452Y-110418095D01*
X38234880Y-110989523D01*
X38234880Y-110370476D01*
X37234880Y-109465714D02*
X37234880Y-109941904D01*
X37711071Y-109989523D01*
X37663452Y-109941904D01*
X37615833Y-109846666D01*
X37615833Y-109608571D01*
X37663452Y-109513333D01*
X37711071Y-109465714D01*
X37806309Y-109418095D01*
X38044404Y-109418095D01*
X38139642Y-109465714D01*
X38187261Y-109513333D01*
X38234880Y-109608571D01*
X38234880Y-109846666D01*
X38187261Y-109941904D01*
X38139642Y-109989523D01*
%TO.C,R24*%
X188142142Y-121737380D02*
X187808809Y-121261190D01*
X187570714Y-121737380D02*
X187570714Y-120737380D01*
X187951666Y-120737380D01*
X188046904Y-120785000D01*
X188094523Y-120832619D01*
X188142142Y-120927857D01*
X188142142Y-121070714D01*
X188094523Y-121165952D01*
X188046904Y-121213571D01*
X187951666Y-121261190D01*
X187570714Y-121261190D01*
X188523095Y-120832619D02*
X188570714Y-120785000D01*
X188665952Y-120737380D01*
X188904047Y-120737380D01*
X188999285Y-120785000D01*
X189046904Y-120832619D01*
X189094523Y-120927857D01*
X189094523Y-121023095D01*
X189046904Y-121165952D01*
X188475476Y-121737380D01*
X189094523Y-121737380D01*
X189951666Y-121070714D02*
X189951666Y-121737380D01*
X189713571Y-120689761D02*
X189475476Y-121404047D01*
X190094523Y-121404047D01*
%TO.C,R23*%
X168774642Y-121737380D02*
X168441309Y-121261190D01*
X168203214Y-121737380D02*
X168203214Y-120737380D01*
X168584166Y-120737380D01*
X168679404Y-120785000D01*
X168727023Y-120832619D01*
X168774642Y-120927857D01*
X168774642Y-121070714D01*
X168727023Y-121165952D01*
X168679404Y-121213571D01*
X168584166Y-121261190D01*
X168203214Y-121261190D01*
X169155595Y-120832619D02*
X169203214Y-120785000D01*
X169298452Y-120737380D01*
X169536547Y-120737380D01*
X169631785Y-120785000D01*
X169679404Y-120832619D01*
X169727023Y-120927857D01*
X169727023Y-121023095D01*
X169679404Y-121165952D01*
X169107976Y-121737380D01*
X169727023Y-121737380D01*
X170060357Y-120737380D02*
X170679404Y-120737380D01*
X170346071Y-121118333D01*
X170488928Y-121118333D01*
X170584166Y-121165952D01*
X170631785Y-121213571D01*
X170679404Y-121308809D01*
X170679404Y-121546904D01*
X170631785Y-121642142D01*
X170584166Y-121689761D01*
X170488928Y-121737380D01*
X170203214Y-121737380D01*
X170107976Y-121689761D01*
X170060357Y-121642142D01*
%TO.C,R22*%
X88129642Y-121737380D02*
X87796309Y-121261190D01*
X87558214Y-121737380D02*
X87558214Y-120737380D01*
X87939166Y-120737380D01*
X88034404Y-120785000D01*
X88082023Y-120832619D01*
X88129642Y-120927857D01*
X88129642Y-121070714D01*
X88082023Y-121165952D01*
X88034404Y-121213571D01*
X87939166Y-121261190D01*
X87558214Y-121261190D01*
X88510595Y-120832619D02*
X88558214Y-120785000D01*
X88653452Y-120737380D01*
X88891547Y-120737380D01*
X88986785Y-120785000D01*
X89034404Y-120832619D01*
X89082023Y-120927857D01*
X89082023Y-121023095D01*
X89034404Y-121165952D01*
X88462976Y-121737380D01*
X89082023Y-121737380D01*
X89462976Y-120832619D02*
X89510595Y-120785000D01*
X89605833Y-120737380D01*
X89843928Y-120737380D01*
X89939166Y-120785000D01*
X89986785Y-120832619D01*
X90034404Y-120927857D01*
X90034404Y-121023095D01*
X89986785Y-121165952D01*
X89415357Y-121737380D01*
X90034404Y-121737380D01*
%TO.C,R21*%
X70287142Y-121737380D02*
X69953809Y-121261190D01*
X69715714Y-121737380D02*
X69715714Y-120737380D01*
X70096666Y-120737380D01*
X70191904Y-120785000D01*
X70239523Y-120832619D01*
X70287142Y-120927857D01*
X70287142Y-121070714D01*
X70239523Y-121165952D01*
X70191904Y-121213571D01*
X70096666Y-121261190D01*
X69715714Y-121261190D01*
X70668095Y-120832619D02*
X70715714Y-120785000D01*
X70810952Y-120737380D01*
X71049047Y-120737380D01*
X71144285Y-120785000D01*
X71191904Y-120832619D01*
X71239523Y-120927857D01*
X71239523Y-121023095D01*
X71191904Y-121165952D01*
X70620476Y-121737380D01*
X71239523Y-121737380D01*
X72191904Y-121737380D02*
X71620476Y-121737380D01*
X71906190Y-121737380D02*
X71906190Y-120737380D01*
X71810952Y-120880238D01*
X71715714Y-120975476D01*
X71620476Y-121023095D01*
%TO.C,R10*%
X26471142Y-123515380D02*
X26137809Y-123039190D01*
X25899714Y-123515380D02*
X25899714Y-122515380D01*
X26280666Y-122515380D01*
X26375904Y-122563000D01*
X26423523Y-122610619D01*
X26471142Y-122705857D01*
X26471142Y-122848714D01*
X26423523Y-122943952D01*
X26375904Y-122991571D01*
X26280666Y-123039190D01*
X25899714Y-123039190D01*
X27423523Y-123515380D02*
X26852095Y-123515380D01*
X27137809Y-123515380D02*
X27137809Y-122515380D01*
X27042571Y-122658238D01*
X26947333Y-122753476D01*
X26852095Y-122801095D01*
X28042571Y-122515380D02*
X28137809Y-122515380D01*
X28233047Y-122563000D01*
X28280666Y-122610619D01*
X28328285Y-122705857D01*
X28375904Y-122896333D01*
X28375904Y-123134428D01*
X28328285Y-123324904D01*
X28280666Y-123420142D01*
X28233047Y-123467761D01*
X28137809Y-123515380D01*
X28042571Y-123515380D01*
X27947333Y-123467761D01*
X27899714Y-123420142D01*
X27852095Y-123324904D01*
X27804476Y-123134428D01*
X27804476Y-122896333D01*
X27852095Y-122705857D01*
X27899714Y-122610619D01*
X27947333Y-122563000D01*
X28042571Y-122515380D01*
%TO.C,R5*%
X38234880Y-102211666D02*
X37758690Y-102545000D01*
X38234880Y-102783095D02*
X37234880Y-102783095D01*
X37234880Y-102402142D01*
X37282500Y-102306904D01*
X37330119Y-102259285D01*
X37425357Y-102211666D01*
X37568214Y-102211666D01*
X37663452Y-102259285D01*
X37711071Y-102306904D01*
X37758690Y-102402142D01*
X37758690Y-102783095D01*
X37234880Y-101306904D02*
X37234880Y-101783095D01*
X37711071Y-101830714D01*
X37663452Y-101783095D01*
X37615833Y-101687857D01*
X37615833Y-101449761D01*
X37663452Y-101354523D01*
X37711071Y-101306904D01*
X37806309Y-101259285D01*
X38044404Y-101259285D01*
X38139642Y-101306904D01*
X38187261Y-101354523D01*
X38234880Y-101449761D01*
X38234880Y-101687857D01*
X38187261Y-101783095D01*
X38139642Y-101830714D01*
%TO.C,R13*%
X38234880Y-106370357D02*
X37758690Y-106703690D01*
X38234880Y-106941785D02*
X37234880Y-106941785D01*
X37234880Y-106560833D01*
X37282500Y-106465595D01*
X37330119Y-106417976D01*
X37425357Y-106370357D01*
X37568214Y-106370357D01*
X37663452Y-106417976D01*
X37711071Y-106465595D01*
X37758690Y-106560833D01*
X37758690Y-106941785D01*
X38234880Y-105417976D02*
X38234880Y-105989404D01*
X38234880Y-105703690D02*
X37234880Y-105703690D01*
X37377738Y-105798928D01*
X37472976Y-105894166D01*
X37520595Y-105989404D01*
X37234880Y-105084642D02*
X37234880Y-104465595D01*
X37615833Y-104798928D01*
X37615833Y-104656071D01*
X37663452Y-104560833D01*
X37711071Y-104513214D01*
X37806309Y-104465595D01*
X38044404Y-104465595D01*
X38139642Y-104513214D01*
X38187261Y-104560833D01*
X38234880Y-104656071D01*
X38234880Y-104941785D01*
X38187261Y-105037023D01*
X38139642Y-105084642D01*
%TO.C,R20*%
X207462380Y-108719357D02*
X206986190Y-109052690D01*
X207462380Y-109290785D02*
X206462380Y-109290785D01*
X206462380Y-108909833D01*
X206510000Y-108814595D01*
X206557619Y-108766976D01*
X206652857Y-108719357D01*
X206795714Y-108719357D01*
X206890952Y-108766976D01*
X206938571Y-108814595D01*
X206986190Y-108909833D01*
X206986190Y-109290785D01*
X206557619Y-108338404D02*
X206510000Y-108290785D01*
X206462380Y-108195547D01*
X206462380Y-107957452D01*
X206510000Y-107862214D01*
X206557619Y-107814595D01*
X206652857Y-107766976D01*
X206748095Y-107766976D01*
X206890952Y-107814595D01*
X207462380Y-108386023D01*
X207462380Y-107766976D01*
X206462380Y-107147928D02*
X206462380Y-107052690D01*
X206510000Y-106957452D01*
X206557619Y-106909833D01*
X206652857Y-106862214D01*
X206843333Y-106814595D01*
X207081428Y-106814595D01*
X207271904Y-106862214D01*
X207367142Y-106909833D01*
X207414761Y-106957452D01*
X207462380Y-107052690D01*
X207462380Y-107147928D01*
X207414761Y-107243166D01*
X207367142Y-107290785D01*
X207271904Y-107338404D01*
X207081428Y-107386023D01*
X206843333Y-107386023D01*
X206652857Y-107338404D01*
X206557619Y-107290785D01*
X206510000Y-107243166D01*
X206462380Y-107147928D01*
%TO.C,R19*%
X203382142Y-98242380D02*
X203048809Y-97766190D01*
X202810714Y-98242380D02*
X202810714Y-97242380D01*
X203191666Y-97242380D01*
X203286904Y-97290000D01*
X203334523Y-97337619D01*
X203382142Y-97432857D01*
X203382142Y-97575714D01*
X203334523Y-97670952D01*
X203286904Y-97718571D01*
X203191666Y-97766190D01*
X202810714Y-97766190D01*
X204334523Y-98242380D02*
X203763095Y-98242380D01*
X204048809Y-98242380D02*
X204048809Y-97242380D01*
X203953571Y-97385238D01*
X203858333Y-97480476D01*
X203763095Y-97528095D01*
X204810714Y-98242380D02*
X205001190Y-98242380D01*
X205096428Y-98194761D01*
X205144047Y-98147142D01*
X205239285Y-98004285D01*
X205286904Y-97813809D01*
X205286904Y-97432857D01*
X205239285Y-97337619D01*
X205191666Y-97290000D01*
X205096428Y-97242380D01*
X204905952Y-97242380D01*
X204810714Y-97290000D01*
X204763095Y-97337619D01*
X204715476Y-97432857D01*
X204715476Y-97670952D01*
X204763095Y-97766190D01*
X204810714Y-97813809D01*
X204905952Y-97861428D01*
X205096428Y-97861428D01*
X205191666Y-97813809D01*
X205239285Y-97766190D01*
X205286904Y-97670952D01*
%TO.C,R18*%
X205874880Y-108720357D02*
X205398690Y-109053690D01*
X205874880Y-109291785D02*
X204874880Y-109291785D01*
X204874880Y-108910833D01*
X204922500Y-108815595D01*
X204970119Y-108767976D01*
X205065357Y-108720357D01*
X205208214Y-108720357D01*
X205303452Y-108767976D01*
X205351071Y-108815595D01*
X205398690Y-108910833D01*
X205398690Y-109291785D01*
X205874880Y-107767976D02*
X205874880Y-108339404D01*
X205874880Y-108053690D02*
X204874880Y-108053690D01*
X205017738Y-108148928D01*
X205112976Y-108244166D01*
X205160595Y-108339404D01*
X205303452Y-107196547D02*
X205255833Y-107291785D01*
X205208214Y-107339404D01*
X205112976Y-107387023D01*
X205065357Y-107387023D01*
X204970119Y-107339404D01*
X204922500Y-107291785D01*
X204874880Y-107196547D01*
X204874880Y-107006071D01*
X204922500Y-106910833D01*
X204970119Y-106863214D01*
X205065357Y-106815595D01*
X205112976Y-106815595D01*
X205208214Y-106863214D01*
X205255833Y-106910833D01*
X205303452Y-107006071D01*
X205303452Y-107196547D01*
X205351071Y-107291785D01*
X205398690Y-107339404D01*
X205493928Y-107387023D01*
X205684404Y-107387023D01*
X205779642Y-107339404D01*
X205827261Y-107291785D01*
X205874880Y-107196547D01*
X205874880Y-107006071D01*
X205827261Y-106910833D01*
X205779642Y-106863214D01*
X205684404Y-106815595D01*
X205493928Y-106815595D01*
X205398690Y-106863214D01*
X205351071Y-106910833D01*
X205303452Y-107006071D01*
%TO.C,R17*%
X206049642Y-106179880D02*
X205716309Y-105703690D01*
X205478214Y-106179880D02*
X205478214Y-105179880D01*
X205859166Y-105179880D01*
X205954404Y-105227500D01*
X206002023Y-105275119D01*
X206049642Y-105370357D01*
X206049642Y-105513214D01*
X206002023Y-105608452D01*
X205954404Y-105656071D01*
X205859166Y-105703690D01*
X205478214Y-105703690D01*
X207002023Y-106179880D02*
X206430595Y-106179880D01*
X206716309Y-106179880D02*
X206716309Y-105179880D01*
X206621071Y-105322738D01*
X206525833Y-105417976D01*
X206430595Y-105465595D01*
X207335357Y-105179880D02*
X208002023Y-105179880D01*
X207573452Y-106179880D01*
%TO.C,R14*%
X62999880Y-101925857D02*
X62523690Y-102259190D01*
X62999880Y-102497285D02*
X61999880Y-102497285D01*
X61999880Y-102116333D01*
X62047500Y-102021095D01*
X62095119Y-101973476D01*
X62190357Y-101925857D01*
X62333214Y-101925857D01*
X62428452Y-101973476D01*
X62476071Y-102021095D01*
X62523690Y-102116333D01*
X62523690Y-102497285D01*
X62999880Y-100973476D02*
X62999880Y-101544904D01*
X62999880Y-101259190D02*
X61999880Y-101259190D01*
X62142738Y-101354428D01*
X62237976Y-101449666D01*
X62285595Y-101544904D01*
X62333214Y-100116333D02*
X62999880Y-100116333D01*
X61952261Y-100354428D02*
X62666547Y-100592523D01*
X62666547Y-99973476D01*
%TO.C,R12*%
X86224642Y-107767380D02*
X85891309Y-107291190D01*
X85653214Y-107767380D02*
X85653214Y-106767380D01*
X86034166Y-106767380D01*
X86129404Y-106815000D01*
X86177023Y-106862619D01*
X86224642Y-106957857D01*
X86224642Y-107100714D01*
X86177023Y-107195952D01*
X86129404Y-107243571D01*
X86034166Y-107291190D01*
X85653214Y-107291190D01*
X87177023Y-107767380D02*
X86605595Y-107767380D01*
X86891309Y-107767380D02*
X86891309Y-106767380D01*
X86796071Y-106910238D01*
X86700833Y-107005476D01*
X86605595Y-107053095D01*
X87557976Y-106862619D02*
X87605595Y-106815000D01*
X87700833Y-106767380D01*
X87938928Y-106767380D01*
X88034166Y-106815000D01*
X88081785Y-106862619D01*
X88129404Y-106957857D01*
X88129404Y-107053095D01*
X88081785Y-107195952D01*
X87510357Y-107767380D01*
X88129404Y-107767380D01*
%TO.C,R11*%
X86224642Y-109354880D02*
X85891309Y-108878690D01*
X85653214Y-109354880D02*
X85653214Y-108354880D01*
X86034166Y-108354880D01*
X86129404Y-108402500D01*
X86177023Y-108450119D01*
X86224642Y-108545357D01*
X86224642Y-108688214D01*
X86177023Y-108783452D01*
X86129404Y-108831071D01*
X86034166Y-108878690D01*
X85653214Y-108878690D01*
X87177023Y-109354880D02*
X86605595Y-109354880D01*
X86891309Y-109354880D02*
X86891309Y-108354880D01*
X86796071Y-108497738D01*
X86700833Y-108592976D01*
X86605595Y-108640595D01*
X88129404Y-109354880D02*
X87557976Y-109354880D01*
X87843690Y-109354880D02*
X87843690Y-108354880D01*
X87748452Y-108497738D01*
X87653214Y-108592976D01*
X87557976Y-108640595D01*
%TO.C,R9*%
X26947333Y-120213380D02*
X26614000Y-119737190D01*
X26375904Y-120213380D02*
X26375904Y-119213380D01*
X26756857Y-119213380D01*
X26852095Y-119261000D01*
X26899714Y-119308619D01*
X26947333Y-119403857D01*
X26947333Y-119546714D01*
X26899714Y-119641952D01*
X26852095Y-119689571D01*
X26756857Y-119737190D01*
X26375904Y-119737190D01*
X27423523Y-120213380D02*
X27614000Y-120213380D01*
X27709238Y-120165761D01*
X27756857Y-120118142D01*
X27852095Y-119975285D01*
X27899714Y-119784809D01*
X27899714Y-119403857D01*
X27852095Y-119308619D01*
X27804476Y-119261000D01*
X27709238Y-119213380D01*
X27518761Y-119213380D01*
X27423523Y-119261000D01*
X27375904Y-119308619D01*
X27328285Y-119403857D01*
X27328285Y-119641952D01*
X27375904Y-119737190D01*
X27423523Y-119784809D01*
X27518761Y-119832428D01*
X27709238Y-119832428D01*
X27804476Y-119784809D01*
X27852095Y-119737190D01*
X27899714Y-119641952D01*
%TO.C,R8*%
X197445833Y-119514880D02*
X197112500Y-119038690D01*
X196874404Y-119514880D02*
X196874404Y-118514880D01*
X197255357Y-118514880D01*
X197350595Y-118562500D01*
X197398214Y-118610119D01*
X197445833Y-118705357D01*
X197445833Y-118848214D01*
X197398214Y-118943452D01*
X197350595Y-118991071D01*
X197255357Y-119038690D01*
X196874404Y-119038690D01*
X198017261Y-118943452D02*
X197922023Y-118895833D01*
X197874404Y-118848214D01*
X197826785Y-118752976D01*
X197826785Y-118705357D01*
X197874404Y-118610119D01*
X197922023Y-118562500D01*
X198017261Y-118514880D01*
X198207738Y-118514880D01*
X198302976Y-118562500D01*
X198350595Y-118610119D01*
X198398214Y-118705357D01*
X198398214Y-118752976D01*
X198350595Y-118848214D01*
X198302976Y-118895833D01*
X198207738Y-118943452D01*
X198017261Y-118943452D01*
X197922023Y-118991071D01*
X197874404Y-119038690D01*
X197826785Y-119133928D01*
X197826785Y-119324404D01*
X197874404Y-119419642D01*
X197922023Y-119467261D01*
X198017261Y-119514880D01*
X198207738Y-119514880D01*
X198302976Y-119467261D01*
X198350595Y-119419642D01*
X198398214Y-119324404D01*
X198398214Y-119133928D01*
X198350595Y-119038690D01*
X198302976Y-118991071D01*
X198207738Y-118943452D01*
%TO.C,R7*%
X86700833Y-110942380D02*
X86367500Y-110466190D01*
X86129404Y-110942380D02*
X86129404Y-109942380D01*
X86510357Y-109942380D01*
X86605595Y-109990000D01*
X86653214Y-110037619D01*
X86700833Y-110132857D01*
X86700833Y-110275714D01*
X86653214Y-110370952D01*
X86605595Y-110418571D01*
X86510357Y-110466190D01*
X86129404Y-110466190D01*
X87034166Y-109942380D02*
X87700833Y-109942380D01*
X87272261Y-110942380D01*
%TO.C,R6*%
X86700833Y-112529880D02*
X86367500Y-112053690D01*
X86129404Y-112529880D02*
X86129404Y-111529880D01*
X86510357Y-111529880D01*
X86605595Y-111577500D01*
X86653214Y-111625119D01*
X86700833Y-111720357D01*
X86700833Y-111863214D01*
X86653214Y-111958452D01*
X86605595Y-112006071D01*
X86510357Y-112053690D01*
X86129404Y-112053690D01*
X87557976Y-111529880D02*
X87367500Y-111529880D01*
X87272261Y-111577500D01*
X87224642Y-111625119D01*
X87129404Y-111767976D01*
X87081785Y-111958452D01*
X87081785Y-112339404D01*
X87129404Y-112434642D01*
X87177023Y-112482261D01*
X87272261Y-112529880D01*
X87462738Y-112529880D01*
X87557976Y-112482261D01*
X87605595Y-112434642D01*
X87653214Y-112339404D01*
X87653214Y-112101309D01*
X87605595Y-112006071D01*
X87557976Y-111958452D01*
X87462738Y-111910833D01*
X87272261Y-111910833D01*
X87177023Y-111958452D01*
X87129404Y-112006071D01*
X87081785Y-112101309D01*
%TO.C,R4*%
X82828333Y-112529880D02*
X82495000Y-112053690D01*
X82256904Y-112529880D02*
X82256904Y-111529880D01*
X82637857Y-111529880D01*
X82733095Y-111577500D01*
X82780714Y-111625119D01*
X82828333Y-111720357D01*
X82828333Y-111863214D01*
X82780714Y-111958452D01*
X82733095Y-112006071D01*
X82637857Y-112053690D01*
X82256904Y-112053690D01*
X83685476Y-111863214D02*
X83685476Y-112529880D01*
X83447380Y-111482261D02*
X83209285Y-112196547D01*
X83828333Y-112196547D01*
%TO.C,R3*%
X82828333Y-110942380D02*
X82495000Y-110466190D01*
X82256904Y-110942380D02*
X82256904Y-109942380D01*
X82637857Y-109942380D01*
X82733095Y-109990000D01*
X82780714Y-110037619D01*
X82828333Y-110132857D01*
X82828333Y-110275714D01*
X82780714Y-110370952D01*
X82733095Y-110418571D01*
X82637857Y-110466190D01*
X82256904Y-110466190D01*
X83161666Y-109942380D02*
X83780714Y-109942380D01*
X83447380Y-110323333D01*
X83590238Y-110323333D01*
X83685476Y-110370952D01*
X83733095Y-110418571D01*
X83780714Y-110513809D01*
X83780714Y-110751904D01*
X83733095Y-110847142D01*
X83685476Y-110894761D01*
X83590238Y-110942380D01*
X83304523Y-110942380D01*
X83209285Y-110894761D01*
X83161666Y-110847142D01*
%TO.C,R2*%
X82828333Y-109354880D02*
X82495000Y-108878690D01*
X82256904Y-109354880D02*
X82256904Y-108354880D01*
X82637857Y-108354880D01*
X82733095Y-108402500D01*
X82780714Y-108450119D01*
X82828333Y-108545357D01*
X82828333Y-108688214D01*
X82780714Y-108783452D01*
X82733095Y-108831071D01*
X82637857Y-108878690D01*
X82256904Y-108878690D01*
X83209285Y-108450119D02*
X83256904Y-108402500D01*
X83352142Y-108354880D01*
X83590238Y-108354880D01*
X83685476Y-108402500D01*
X83733095Y-108450119D01*
X83780714Y-108545357D01*
X83780714Y-108640595D01*
X83733095Y-108783452D01*
X83161666Y-109354880D01*
X83780714Y-109354880D01*
%TO.C,R1*%
X82828333Y-107767380D02*
X82495000Y-107291190D01*
X82256904Y-107767380D02*
X82256904Y-106767380D01*
X82637857Y-106767380D01*
X82733095Y-106815000D01*
X82780714Y-106862619D01*
X82828333Y-106957857D01*
X82828333Y-107100714D01*
X82780714Y-107195952D01*
X82733095Y-107243571D01*
X82637857Y-107291190D01*
X82256904Y-107291190D01*
X83780714Y-107767380D02*
X83209285Y-107767380D01*
X83495000Y-107767380D02*
X83495000Y-106767380D01*
X83399761Y-106910238D01*
X83304523Y-107005476D01*
X83209285Y-107053095D01*
%TO.C,C14*%
X78144642Y-111272857D02*
X78192261Y-111320476D01*
X78239880Y-111463333D01*
X78239880Y-111558571D01*
X78192261Y-111701428D01*
X78097023Y-111796666D01*
X78001785Y-111844285D01*
X77811309Y-111891904D01*
X77668452Y-111891904D01*
X77477976Y-111844285D01*
X77382738Y-111796666D01*
X77287500Y-111701428D01*
X77239880Y-111558571D01*
X77239880Y-111463333D01*
X77287500Y-111320476D01*
X77335119Y-111272857D01*
X78239880Y-110320476D02*
X78239880Y-110891904D01*
X78239880Y-110606190D02*
X77239880Y-110606190D01*
X77382738Y-110701428D01*
X77477976Y-110796666D01*
X77525595Y-110891904D01*
X77573214Y-109463333D02*
X78239880Y-109463333D01*
X77192261Y-109701428D02*
X77906547Y-109939523D01*
X77906547Y-109320476D01*
%TO.C,C12*%
X188155642Y-104179642D02*
X188108023Y-104227261D01*
X187965166Y-104274880D01*
X187869928Y-104274880D01*
X187727071Y-104227261D01*
X187631833Y-104132023D01*
X187584214Y-104036785D01*
X187536595Y-103846309D01*
X187536595Y-103703452D01*
X187584214Y-103512976D01*
X187631833Y-103417738D01*
X187727071Y-103322500D01*
X187869928Y-103274880D01*
X187965166Y-103274880D01*
X188108023Y-103322500D01*
X188155642Y-103370119D01*
X189108023Y-104274880D02*
X188536595Y-104274880D01*
X188822309Y-104274880D02*
X188822309Y-103274880D01*
X188727071Y-103417738D01*
X188631833Y-103512976D01*
X188536595Y-103560595D01*
X189488976Y-103370119D02*
X189536595Y-103322500D01*
X189631833Y-103274880D01*
X189869928Y-103274880D01*
X189965166Y-103322500D01*
X190012785Y-103370119D01*
X190060404Y-103465357D01*
X190060404Y-103560595D01*
X190012785Y-103703452D01*
X189441357Y-104274880D01*
X190060404Y-104274880D01*
%TO.C,C11*%
X191939642Y-104179642D02*
X191892023Y-104227261D01*
X191749166Y-104274880D01*
X191653928Y-104274880D01*
X191511071Y-104227261D01*
X191415833Y-104132023D01*
X191368214Y-104036785D01*
X191320595Y-103846309D01*
X191320595Y-103703452D01*
X191368214Y-103512976D01*
X191415833Y-103417738D01*
X191511071Y-103322500D01*
X191653928Y-103274880D01*
X191749166Y-103274880D01*
X191892023Y-103322500D01*
X191939642Y-103370119D01*
X192892023Y-104274880D02*
X192320595Y-104274880D01*
X192606309Y-104274880D02*
X192606309Y-103274880D01*
X192511071Y-103417738D01*
X192415833Y-103512976D01*
X192320595Y-103560595D01*
X193844404Y-104274880D02*
X193272976Y-104274880D01*
X193558690Y-104274880D02*
X193558690Y-103274880D01*
X193463452Y-103417738D01*
X193368214Y-103512976D01*
X193272976Y-103560595D01*
%TO.C,C6*%
X61605833Y-110910642D02*
X61558214Y-110958261D01*
X61415357Y-111005880D01*
X61320119Y-111005880D01*
X61177261Y-110958261D01*
X61082023Y-110863023D01*
X61034404Y-110767785D01*
X60986785Y-110577309D01*
X60986785Y-110434452D01*
X61034404Y-110243976D01*
X61082023Y-110148738D01*
X61177261Y-110053500D01*
X61320119Y-110005880D01*
X61415357Y-110005880D01*
X61558214Y-110053500D01*
X61605833Y-110101119D01*
X62462976Y-110005880D02*
X62272500Y-110005880D01*
X62177261Y-110053500D01*
X62129642Y-110101119D01*
X62034404Y-110243976D01*
X61986785Y-110434452D01*
X61986785Y-110815404D01*
X62034404Y-110910642D01*
X62082023Y-110958261D01*
X62177261Y-111005880D01*
X62367738Y-111005880D01*
X62462976Y-110958261D01*
X62510595Y-110910642D01*
X62558214Y-110815404D01*
X62558214Y-110577309D01*
X62510595Y-110482071D01*
X62462976Y-110434452D01*
X62367738Y-110386833D01*
X62177261Y-110386833D01*
X62082023Y-110434452D01*
X62034404Y-110482071D01*
X61986785Y-110577309D01*
%TO.C,C5*%
X196889642Y-112066666D02*
X196937261Y-112114285D01*
X196984880Y-112257142D01*
X196984880Y-112352380D01*
X196937261Y-112495238D01*
X196842023Y-112590476D01*
X196746785Y-112638095D01*
X196556309Y-112685714D01*
X196413452Y-112685714D01*
X196222976Y-112638095D01*
X196127738Y-112590476D01*
X196032500Y-112495238D01*
X195984880Y-112352380D01*
X195984880Y-112257142D01*
X196032500Y-112114285D01*
X196080119Y-112066666D01*
X195984880Y-111161904D02*
X195984880Y-111638095D01*
X196461071Y-111685714D01*
X196413452Y-111638095D01*
X196365833Y-111542857D01*
X196365833Y-111304761D01*
X196413452Y-111209523D01*
X196461071Y-111161904D01*
X196556309Y-111114285D01*
X196794404Y-111114285D01*
X196889642Y-111161904D01*
X196937261Y-111209523D01*
X196984880Y-111304761D01*
X196984880Y-111542857D01*
X196937261Y-111638095D01*
X196889642Y-111685714D01*
%TO.C,C4*%
X186412142Y-113971666D02*
X186459761Y-114019285D01*
X186507380Y-114162142D01*
X186507380Y-114257380D01*
X186459761Y-114400238D01*
X186364523Y-114495476D01*
X186269285Y-114543095D01*
X186078809Y-114590714D01*
X185935952Y-114590714D01*
X185745476Y-114543095D01*
X185650238Y-114495476D01*
X185555000Y-114400238D01*
X185507380Y-114257380D01*
X185507380Y-114162142D01*
X185555000Y-114019285D01*
X185602619Y-113971666D01*
X185840714Y-113114523D02*
X186507380Y-113114523D01*
X185459761Y-113352619D02*
X186174047Y-113590714D01*
X186174047Y-112971666D01*
%TO.C,C13*%
X204192142Y-108732857D02*
X204239761Y-108780476D01*
X204287380Y-108923333D01*
X204287380Y-109018571D01*
X204239761Y-109161428D01*
X204144523Y-109256666D01*
X204049285Y-109304285D01*
X203858809Y-109351904D01*
X203715952Y-109351904D01*
X203525476Y-109304285D01*
X203430238Y-109256666D01*
X203335000Y-109161428D01*
X203287380Y-109018571D01*
X203287380Y-108923333D01*
X203335000Y-108780476D01*
X203382619Y-108732857D01*
X204287380Y-107780476D02*
X204287380Y-108351904D01*
X204287380Y-108066190D02*
X203287380Y-108066190D01*
X203430238Y-108161428D01*
X203525476Y-108256666D01*
X203573095Y-108351904D01*
X203287380Y-107447142D02*
X203287380Y-106828095D01*
X203668333Y-107161428D01*
X203668333Y-107018571D01*
X203715952Y-106923333D01*
X203763571Y-106875714D01*
X203858809Y-106828095D01*
X204096904Y-106828095D01*
X204192142Y-106875714D01*
X204239761Y-106923333D01*
X204287380Y-107018571D01*
X204287380Y-107304285D01*
X204239761Y-107399523D01*
X204192142Y-107447142D01*
%TO.C,C8*%
X198794642Y-100674166D02*
X198842261Y-100721785D01*
X198889880Y-100864642D01*
X198889880Y-100959880D01*
X198842261Y-101102738D01*
X198747023Y-101197976D01*
X198651785Y-101245595D01*
X198461309Y-101293214D01*
X198318452Y-101293214D01*
X198127976Y-101245595D01*
X198032738Y-101197976D01*
X197937500Y-101102738D01*
X197889880Y-100959880D01*
X197889880Y-100864642D01*
X197937500Y-100721785D01*
X197985119Y-100674166D01*
X198318452Y-100102738D02*
X198270833Y-100197976D01*
X198223214Y-100245595D01*
X198127976Y-100293214D01*
X198080357Y-100293214D01*
X197985119Y-100245595D01*
X197937500Y-100197976D01*
X197889880Y-100102738D01*
X197889880Y-99912261D01*
X197937500Y-99817023D01*
X197985119Y-99769404D01*
X198080357Y-99721785D01*
X198127976Y-99721785D01*
X198223214Y-99769404D01*
X198270833Y-99817023D01*
X198318452Y-99912261D01*
X198318452Y-100102738D01*
X198366071Y-100197976D01*
X198413690Y-100245595D01*
X198508928Y-100293214D01*
X198699404Y-100293214D01*
X198794642Y-100245595D01*
X198842261Y-100197976D01*
X198889880Y-100102738D01*
X198889880Y-99912261D01*
X198842261Y-99817023D01*
X198794642Y-99769404D01*
X198699404Y-99721785D01*
X198508928Y-99721785D01*
X198413690Y-99769404D01*
X198366071Y-99817023D01*
X198318452Y-99912261D01*
%TO.C,C3*%
X26897333Y-121769142D02*
X26849714Y-121816761D01*
X26706857Y-121864380D01*
X26611619Y-121864380D01*
X26468761Y-121816761D01*
X26373523Y-121721523D01*
X26325904Y-121626285D01*
X26278285Y-121435809D01*
X26278285Y-121292952D01*
X26325904Y-121102476D01*
X26373523Y-121007238D01*
X26468761Y-120912000D01*
X26611619Y-120864380D01*
X26706857Y-120864380D01*
X26849714Y-120912000D01*
X26897333Y-120959619D01*
X27230666Y-120864380D02*
X27849714Y-120864380D01*
X27516380Y-121245333D01*
X27659238Y-121245333D01*
X27754476Y-121292952D01*
X27802095Y-121340571D01*
X27849714Y-121435809D01*
X27849714Y-121673904D01*
X27802095Y-121769142D01*
X27754476Y-121816761D01*
X27659238Y-121864380D01*
X27373523Y-121864380D01*
X27278285Y-121816761D01*
X27230666Y-121769142D01*
%TO.C,C2*%
X61317142Y-101449166D02*
X61364761Y-101496785D01*
X61412380Y-101639642D01*
X61412380Y-101734880D01*
X61364761Y-101877738D01*
X61269523Y-101972976D01*
X61174285Y-102020595D01*
X60983809Y-102068214D01*
X60840952Y-102068214D01*
X60650476Y-102020595D01*
X60555238Y-101972976D01*
X60460000Y-101877738D01*
X60412380Y-101734880D01*
X60412380Y-101639642D01*
X60460000Y-101496785D01*
X60507619Y-101449166D01*
X60507619Y-101068214D02*
X60460000Y-101020595D01*
X60412380Y-100925357D01*
X60412380Y-100687261D01*
X60460000Y-100592023D01*
X60507619Y-100544404D01*
X60602857Y-100496785D01*
X60698095Y-100496785D01*
X60840952Y-100544404D01*
X61412380Y-101115833D01*
X61412380Y-100496785D01*
%TO.C,C1*%
X26998333Y-118467142D02*
X26950714Y-118514761D01*
X26807857Y-118562380D01*
X26712619Y-118562380D01*
X26569761Y-118514761D01*
X26474523Y-118419523D01*
X26426904Y-118324285D01*
X26379285Y-118133809D01*
X26379285Y-117990952D01*
X26426904Y-117800476D01*
X26474523Y-117705238D01*
X26569761Y-117610000D01*
X26712619Y-117562380D01*
X26807857Y-117562380D01*
X26950714Y-117610000D01*
X26998333Y-117657619D01*
X27950714Y-118562380D02*
X27379285Y-118562380D01*
X27665000Y-118562380D02*
X27665000Y-117562380D01*
X27569761Y-117705238D01*
X27474523Y-117800476D01*
X27379285Y-117848095D01*
%TO.C,BZ1*%
X203589047Y-118768571D02*
X203731904Y-118816190D01*
X203779523Y-118863809D01*
X203827142Y-118959047D01*
X203827142Y-119101904D01*
X203779523Y-119197142D01*
X203731904Y-119244761D01*
X203636666Y-119292380D01*
X203255714Y-119292380D01*
X203255714Y-118292380D01*
X203589047Y-118292380D01*
X203684285Y-118340000D01*
X203731904Y-118387619D01*
X203779523Y-118482857D01*
X203779523Y-118578095D01*
X203731904Y-118673333D01*
X203684285Y-118720952D01*
X203589047Y-118768571D01*
X203255714Y-118768571D01*
X204160476Y-118292380D02*
X204827142Y-118292380D01*
X204160476Y-119292380D01*
X204827142Y-119292380D01*
X205731904Y-119292380D02*
X205160476Y-119292380D01*
X205446190Y-119292380D02*
X205446190Y-118292380D01*
X205350952Y-118435238D01*
X205255714Y-118530476D01*
X205160476Y-118578095D01*
%TO.C,L2*%
X200175833Y-108429880D02*
X199699642Y-108429880D01*
X199699642Y-107429880D01*
X200461547Y-107525119D02*
X200509166Y-107477500D01*
X200604404Y-107429880D01*
X200842500Y-107429880D01*
X200937738Y-107477500D01*
X200985357Y-107525119D01*
X201032976Y-107620357D01*
X201032976Y-107715595D01*
X200985357Y-107858452D01*
X200413928Y-108429880D01*
X201032976Y-108429880D01*
%TO.C,U5*%
X62103595Y-113433380D02*
X62103595Y-114242904D01*
X62151214Y-114338142D01*
X62198833Y-114385761D01*
X62294071Y-114433380D01*
X62484547Y-114433380D01*
X62579785Y-114385761D01*
X62627404Y-114338142D01*
X62675023Y-114242904D01*
X62675023Y-113433380D01*
X63627404Y-113433380D02*
X63151214Y-113433380D01*
X63103595Y-113909571D01*
X63151214Y-113861952D01*
X63246452Y-113814333D01*
X63484547Y-113814333D01*
X63579785Y-113861952D01*
X63627404Y-113909571D01*
X63675023Y-114004809D01*
X63675023Y-114242904D01*
X63627404Y-114338142D01*
X63579785Y-114385761D01*
X63484547Y-114433380D01*
X63246452Y-114433380D01*
X63151214Y-114385761D01*
X63103595Y-114338142D01*
%TO.C,LED4*%
X149312452Y-108084880D02*
X148836261Y-108084880D01*
X148836261Y-107084880D01*
X149645785Y-107561071D02*
X149979119Y-107561071D01*
X150121976Y-108084880D02*
X149645785Y-108084880D01*
X149645785Y-107084880D01*
X150121976Y-107084880D01*
X150550547Y-108084880D02*
X150550547Y-107084880D01*
X150788642Y-107084880D01*
X150931500Y-107132500D01*
X151026738Y-107227738D01*
X151074357Y-107322976D01*
X151121976Y-107513452D01*
X151121976Y-107656309D01*
X151074357Y-107846785D01*
X151026738Y-107942023D01*
X150931500Y-108037261D01*
X150788642Y-108084880D01*
X150550547Y-108084880D01*
X151979119Y-107418214D02*
X151979119Y-108084880D01*
X151741023Y-107037261D02*
X151502928Y-107751547D01*
X152121976Y-107751547D01*
%TO.C,LED3*%
X128992452Y-108021380D02*
X128516261Y-108021380D01*
X128516261Y-107021380D01*
X129325785Y-107497571D02*
X129659119Y-107497571D01*
X129801976Y-108021380D02*
X129325785Y-108021380D01*
X129325785Y-107021380D01*
X129801976Y-107021380D01*
X130230547Y-108021380D02*
X130230547Y-107021380D01*
X130468642Y-107021380D01*
X130611500Y-107069000D01*
X130706738Y-107164238D01*
X130754357Y-107259476D01*
X130801976Y-107449952D01*
X130801976Y-107592809D01*
X130754357Y-107783285D01*
X130706738Y-107878523D01*
X130611500Y-107973761D01*
X130468642Y-108021380D01*
X130230547Y-108021380D01*
X131135309Y-107021380D02*
X131754357Y-107021380D01*
X131421023Y-107402333D01*
X131563880Y-107402333D01*
X131659119Y-107449952D01*
X131706738Y-107497571D01*
X131754357Y-107592809D01*
X131754357Y-107830904D01*
X131706738Y-107926142D01*
X131659119Y-107973761D01*
X131563880Y-108021380D01*
X131278166Y-108021380D01*
X131182928Y-107973761D01*
X131135309Y-107926142D01*
%TO.C,LED2*%
X109116952Y-108148380D02*
X108640761Y-108148380D01*
X108640761Y-107148380D01*
X109450285Y-107624571D02*
X109783619Y-107624571D01*
X109926476Y-108148380D02*
X109450285Y-108148380D01*
X109450285Y-107148380D01*
X109926476Y-107148380D01*
X110355047Y-108148380D02*
X110355047Y-107148380D01*
X110593142Y-107148380D01*
X110736000Y-107196000D01*
X110831238Y-107291238D01*
X110878857Y-107386476D01*
X110926476Y-107576952D01*
X110926476Y-107719809D01*
X110878857Y-107910285D01*
X110831238Y-108005523D01*
X110736000Y-108100761D01*
X110593142Y-108148380D01*
X110355047Y-108148380D01*
X111307428Y-107243619D02*
X111355047Y-107196000D01*
X111450285Y-107148380D01*
X111688380Y-107148380D01*
X111783619Y-107196000D01*
X111831238Y-107243619D01*
X111878857Y-107338857D01*
X111878857Y-107434095D01*
X111831238Y-107576952D01*
X111259809Y-108148380D01*
X111878857Y-108148380D01*
%TO.C,L1*%
X209954833Y-97988380D02*
X209478642Y-97988380D01*
X209478642Y-96988380D01*
X210811976Y-97988380D02*
X210240547Y-97988380D01*
X210526261Y-97988380D02*
X210526261Y-96988380D01*
X210431023Y-97131238D01*
X210335785Y-97226476D01*
X210240547Y-97274095D01*
%TO.C,U3*%
D16*
X190309571Y-113310285D02*
X190309571Y-113917428D01*
X190345285Y-113988857D01*
X190381000Y-114024571D01*
X190452428Y-114060285D01*
X190595285Y-114060285D01*
X190666714Y-114024571D01*
X190702428Y-113988857D01*
X190738142Y-113917428D01*
X190738142Y-113310285D01*
X191023857Y-113310285D02*
X191488142Y-113310285D01*
X191238142Y-113596000D01*
X191345285Y-113596000D01*
X191416714Y-113631714D01*
X191452428Y-113667428D01*
X191488142Y-113738857D01*
X191488142Y-113917428D01*
X191452428Y-113988857D01*
X191416714Y-114024571D01*
X191345285Y-114060285D01*
X191131000Y-114060285D01*
X191059571Y-114024571D01*
X191023857Y-113988857D01*
%TO.C,U6*%
X201358571Y-102141785D02*
X201358571Y-102748928D01*
X201394285Y-102820357D01*
X201430000Y-102856071D01*
X201501428Y-102891785D01*
X201644285Y-102891785D01*
X201715714Y-102856071D01*
X201751428Y-102820357D01*
X201787142Y-102748928D01*
X201787142Y-102141785D01*
X202465714Y-102141785D02*
X202322857Y-102141785D01*
X202251428Y-102177500D01*
X202215714Y-102213214D01*
X202144285Y-102320357D01*
X202108571Y-102463214D01*
X202108571Y-102748928D01*
X202144285Y-102820357D01*
X202180000Y-102856071D01*
X202251428Y-102891785D01*
X202394285Y-102891785D01*
X202465714Y-102856071D01*
X202501428Y-102820357D01*
X202537142Y-102748928D01*
X202537142Y-102570357D01*
X202501428Y-102498928D01*
X202465714Y-102463214D01*
X202394285Y-102427500D01*
X202251428Y-102427500D01*
X202180000Y-102463214D01*
X202144285Y-102498928D01*
X202108571Y-102570357D01*
%TO.C,D5*%
D12*
X209732380Y-112622595D02*
X208732380Y-112622595D01*
X208732380Y-112384500D01*
X208780000Y-112241642D01*
X208875238Y-112146404D01*
X208970476Y-112098785D01*
X209160952Y-112051166D01*
X209303809Y-112051166D01*
X209494285Y-112098785D01*
X209589523Y-112146404D01*
X209684761Y-112241642D01*
X209732380Y-112384500D01*
X209732380Y-112622595D01*
X208732380Y-111146404D02*
X208732380Y-111622595D01*
X209208571Y-111670214D01*
X209160952Y-111622595D01*
X209113333Y-111527357D01*
X209113333Y-111289261D01*
X209160952Y-111194023D01*
X209208571Y-111146404D01*
X209303809Y-111098785D01*
X209541904Y-111098785D01*
X209637142Y-111146404D01*
X209684761Y-111194023D01*
X209732380Y-111289261D01*
X209732380Y-111527357D01*
X209684761Y-111622595D01*
X209637142Y-111670214D01*
%TO.C,U8*%
X72025833Y-111223333D02*
X72025833Y-112016666D01*
X72072500Y-112110000D01*
X72119166Y-112156666D01*
X72212500Y-112203333D01*
X72399166Y-112203333D01*
X72492500Y-112156666D01*
X72539166Y-112110000D01*
X72585833Y-112016666D01*
X72585833Y-111223333D01*
X73192500Y-111643333D02*
X73099166Y-111596666D01*
X73052500Y-111550000D01*
X73005833Y-111456666D01*
X73005833Y-111410000D01*
X73052500Y-111316666D01*
X73099166Y-111270000D01*
X73192500Y-111223333D01*
X73379166Y-111223333D01*
X73472500Y-111270000D01*
X73519166Y-111316666D01*
X73565833Y-111410000D01*
X73565833Y-111456666D01*
X73519166Y-111550000D01*
X73472500Y-111596666D01*
X73379166Y-111643333D01*
X73192500Y-111643333D01*
X73099166Y-111690000D01*
X73052500Y-111736666D01*
X73005833Y-111830000D01*
X73005833Y-112016666D01*
X73052500Y-112110000D01*
X73099166Y-112156666D01*
X73192500Y-112203333D01*
X73379166Y-112203333D01*
X73472500Y-112156666D01*
X73519166Y-112110000D01*
X73565833Y-112016666D01*
X73565833Y-111830000D01*
X73519166Y-111736666D01*
X73472500Y-111690000D01*
X73379166Y-111643333D01*
%TO.C,J1*%
X30019666Y-98575880D02*
X30019666Y-99290166D01*
X29972047Y-99433023D01*
X29876809Y-99528261D01*
X29733952Y-99575880D01*
X29638714Y-99575880D01*
X31019666Y-99575880D02*
X30448238Y-99575880D01*
X30733952Y-99575880D02*
X30733952Y-98575880D01*
X30638714Y-98718738D01*
X30543476Y-98813976D01*
X30448238Y-98861595D01*
%TO.C,J10*%
X216487476Y-106576880D02*
X216487476Y-107291166D01*
X216439857Y-107434023D01*
X216344619Y-107529261D01*
X216201761Y-107576880D01*
X216106523Y-107576880D01*
X217487476Y-107576880D02*
X216916047Y-107576880D01*
X217201761Y-107576880D02*
X217201761Y-106576880D01*
X217106523Y-106719738D01*
X217011285Y-106814976D01*
X216916047Y-106862595D01*
X218106523Y-106576880D02*
X218201761Y-106576880D01*
X218297000Y-106624500D01*
X218344619Y-106672119D01*
X218392238Y-106767357D01*
X218439857Y-106957833D01*
X218439857Y-107195928D01*
X218392238Y-107386404D01*
X218344619Y-107481642D01*
X218297000Y-107529261D01*
X218201761Y-107576880D01*
X218106523Y-107576880D01*
X218011285Y-107529261D01*
X217963666Y-107481642D01*
X217916047Y-107386404D01*
X217868428Y-107195928D01*
X217868428Y-106957833D01*
X217916047Y-106767357D01*
X217963666Y-106672119D01*
X218011285Y-106624500D01*
X218106523Y-106576880D01*
%TO.C,D7*%
X209129404Y-101167380D02*
X209129404Y-100167380D01*
X209367500Y-100167380D01*
X209510357Y-100215000D01*
X209605595Y-100310238D01*
X209653214Y-100405476D01*
X209700833Y-100595952D01*
X209700833Y-100738809D01*
X209653214Y-100929285D01*
X209605595Y-101024523D01*
X209510357Y-101119761D01*
X209367500Y-101167380D01*
X209129404Y-101167380D01*
X210034166Y-100167380D02*
X210700833Y-100167380D01*
X210272261Y-101167380D01*
%TO.C,D4*%
X209129404Y-104207380D02*
X209129404Y-103207380D01*
X209367500Y-103207380D01*
X209510357Y-103255000D01*
X209605595Y-103350238D01*
X209653214Y-103445476D01*
X209700833Y-103635952D01*
X209700833Y-103778809D01*
X209653214Y-103969285D01*
X209605595Y-104064523D01*
X209510357Y-104159761D01*
X209367500Y-104207380D01*
X209129404Y-104207380D01*
X210557976Y-103540714D02*
X210557976Y-104207380D01*
X210319880Y-103159761D02*
X210081785Y-103874047D01*
X210700833Y-103874047D01*
%TO.C,U7*%
X189928595Y-107084880D02*
X189928595Y-107894404D01*
X189976214Y-107989642D01*
X190023833Y-108037261D01*
X190119071Y-108084880D01*
X190309547Y-108084880D01*
X190404785Y-108037261D01*
X190452404Y-107989642D01*
X190500023Y-107894404D01*
X190500023Y-107084880D01*
X190880976Y-107084880D02*
X191547642Y-107084880D01*
X191119071Y-108084880D01*
%TO.C,C10*%
D11*
X198088214Y-107941785D02*
X198126309Y-107979880D01*
X198164404Y-108094166D01*
X198164404Y-108170357D01*
X198126309Y-108284642D01*
X198050119Y-108360833D01*
X197973928Y-108398928D01*
X197821547Y-108437023D01*
X197707261Y-108437023D01*
X197554880Y-108398928D01*
X197478690Y-108360833D01*
X197402500Y-108284642D01*
X197364404Y-108170357D01*
X197364404Y-108094166D01*
X197402500Y-107979880D01*
X197440595Y-107941785D01*
X198164404Y-107179880D02*
X198164404Y-107637023D01*
X198164404Y-107408452D02*
X197364404Y-107408452D01*
X197478690Y-107484642D01*
X197554880Y-107560833D01*
X197592976Y-107637023D01*
X197364404Y-106684642D02*
X197364404Y-106608452D01*
X197402500Y-106532261D01*
X197440595Y-106494166D01*
X197516785Y-106456071D01*
X197669166Y-106417976D01*
X197859642Y-106417976D01*
X198012023Y-106456071D01*
X198088214Y-106494166D01*
X198126309Y-106532261D01*
X198164404Y-106608452D01*
X198164404Y-106684642D01*
X198126309Y-106760833D01*
X198088214Y-106798928D01*
X198012023Y-106837023D01*
X197859642Y-106875119D01*
X197669166Y-106875119D01*
X197516785Y-106837023D01*
X197440595Y-106798928D01*
X197402500Y-106760833D01*
X197364404Y-106684642D01*
%TO.C,U1*%
D12*
X29916380Y-122874904D02*
X30725904Y-122874904D01*
X30821142Y-122827285D01*
X30868761Y-122779666D01*
X30916380Y-122684428D01*
X30916380Y-122493952D01*
X30868761Y-122398714D01*
X30821142Y-122351095D01*
X30725904Y-122303476D01*
X29916380Y-122303476D01*
X30916380Y-121303476D02*
X30916380Y-121874904D01*
X30916380Y-121589190D02*
X29916380Y-121589190D01*
X30059238Y-121684428D01*
X30154476Y-121779666D01*
X30202095Y-121874904D01*
%TO.C,Q3*%
X91662261Y-108688119D02*
X91567023Y-108640500D01*
X91471785Y-108545261D01*
X91328928Y-108402404D01*
X91233690Y-108354785D01*
X91138452Y-108354785D01*
X91186071Y-108592880D02*
X91090833Y-108545261D01*
X90995595Y-108450023D01*
X90947976Y-108259547D01*
X90947976Y-107926214D01*
X90995595Y-107735738D01*
X91090833Y-107640500D01*
X91186071Y-107592880D01*
X91376547Y-107592880D01*
X91471785Y-107640500D01*
X91567023Y-107735738D01*
X91614642Y-107926214D01*
X91614642Y-108259547D01*
X91567023Y-108450023D01*
X91471785Y-108545261D01*
X91376547Y-108592880D01*
X91186071Y-108592880D01*
X91947976Y-107592880D02*
X92567023Y-107592880D01*
X92233690Y-107973833D01*
X92376547Y-107973833D01*
X92471785Y-108021452D01*
X92519404Y-108069071D01*
X92567023Y-108164309D01*
X92567023Y-108402404D01*
X92519404Y-108497642D01*
X92471785Y-108545261D01*
X92376547Y-108592880D01*
X92090833Y-108592880D01*
X91995595Y-108545261D01*
X91947976Y-108497642D01*
%TO.C,Q1*%
X91725761Y-111825019D02*
X91630523Y-111777400D01*
X91535285Y-111682161D01*
X91392428Y-111539304D01*
X91297190Y-111491685D01*
X91201952Y-111491685D01*
X91249571Y-111729780D02*
X91154333Y-111682161D01*
X91059095Y-111586923D01*
X91011476Y-111396447D01*
X91011476Y-111063114D01*
X91059095Y-110872638D01*
X91154333Y-110777400D01*
X91249571Y-110729780D01*
X91440047Y-110729780D01*
X91535285Y-110777400D01*
X91630523Y-110872638D01*
X91678142Y-111063114D01*
X91678142Y-111396447D01*
X91630523Y-111586923D01*
X91535285Y-111682161D01*
X91440047Y-111729780D01*
X91249571Y-111729780D01*
X92630523Y-111729780D02*
X92059095Y-111729780D01*
X92344809Y-111729780D02*
X92344809Y-110729780D01*
X92249571Y-110872638D01*
X92154333Y-110967876D01*
X92059095Y-111015495D01*
%TO.C,U4*%
X62103095Y-105179880D02*
X62103095Y-105989404D01*
X62150714Y-106084642D01*
X62198333Y-106132261D01*
X62293571Y-106179880D01*
X62484047Y-106179880D01*
X62579285Y-106132261D01*
X62626904Y-106084642D01*
X62674523Y-105989404D01*
X62674523Y-105179880D01*
X63579285Y-105513214D02*
X63579285Y-106179880D01*
X63341190Y-105132261D02*
X63103095Y-105846547D01*
X63722142Y-105846547D01*
%TO.C,U2*%
X30099095Y-109307380D02*
X30099095Y-110116904D01*
X30146714Y-110212142D01*
X30194333Y-110259761D01*
X30289571Y-110307380D01*
X30480047Y-110307380D01*
X30575285Y-110259761D01*
X30622904Y-110212142D01*
X30670523Y-110116904D01*
X30670523Y-109307380D01*
X31099095Y-109402619D02*
X31146714Y-109355000D01*
X31241952Y-109307380D01*
X31480047Y-109307380D01*
X31575285Y-109355000D01*
X31622904Y-109402619D01*
X31670523Y-109497857D01*
X31670523Y-109593095D01*
X31622904Y-109735952D01*
X31051476Y-110307380D01*
X31670523Y-110307380D01*
%TO.C,Q2*%
X197389761Y-122420119D02*
X197294523Y-122372500D01*
X197199285Y-122277261D01*
X197056428Y-122134404D01*
X196961190Y-122086785D01*
X196865952Y-122086785D01*
X196913571Y-122324880D02*
X196818333Y-122277261D01*
X196723095Y-122182023D01*
X196675476Y-121991547D01*
X196675476Y-121658214D01*
X196723095Y-121467738D01*
X196818333Y-121372500D01*
X196913571Y-121324880D01*
X197104047Y-121324880D01*
X197199285Y-121372500D01*
X197294523Y-121467738D01*
X197342142Y-121658214D01*
X197342142Y-121991547D01*
X197294523Y-122182023D01*
X197199285Y-122277261D01*
X197104047Y-122324880D01*
X196913571Y-122324880D01*
X197723095Y-121420119D02*
X197770714Y-121372500D01*
X197865952Y-121324880D01*
X198104047Y-121324880D01*
X198199285Y-121372500D01*
X198246904Y-121420119D01*
X198294523Y-121515357D01*
X198294523Y-121610595D01*
X198246904Y-121753452D01*
X197675476Y-122324880D01*
X198294523Y-122324880D01*
%TO.C,C9*%
D11*
X195865714Y-107560833D02*
X195903809Y-107598928D01*
X195941904Y-107713214D01*
X195941904Y-107789404D01*
X195903809Y-107903690D01*
X195827619Y-107979880D01*
X195751428Y-108017976D01*
X195599047Y-108056071D01*
X195484761Y-108056071D01*
X195332380Y-108017976D01*
X195256190Y-107979880D01*
X195180000Y-107903690D01*
X195141904Y-107789404D01*
X195141904Y-107713214D01*
X195180000Y-107598928D01*
X195218095Y-107560833D01*
X195941904Y-107179880D02*
X195941904Y-107027500D01*
X195903809Y-106951309D01*
X195865714Y-106913214D01*
X195751428Y-106837023D01*
X195599047Y-106798928D01*
X195294285Y-106798928D01*
X195218095Y-106837023D01*
X195180000Y-106875119D01*
X195141904Y-106951309D01*
X195141904Y-107103690D01*
X195180000Y-107179880D01*
X195218095Y-107217976D01*
X195294285Y-107256071D01*
X195484761Y-107256071D01*
X195560952Y-107217976D01*
X195599047Y-107179880D01*
X195637142Y-107103690D01*
X195637142Y-106951309D01*
X195599047Y-106875119D01*
X195560952Y-106837023D01*
X195484761Y-106798928D01*
%TO.C,C7*%
X200004166Y-97758214D02*
X199966071Y-97796309D01*
X199851785Y-97834404D01*
X199775595Y-97834404D01*
X199661309Y-97796309D01*
X199585119Y-97720119D01*
X199547023Y-97643928D01*
X199508928Y-97491547D01*
X199508928Y-97377261D01*
X199547023Y-97224880D01*
X199585119Y-97148690D01*
X199661309Y-97072500D01*
X199775595Y-97034404D01*
X199851785Y-97034404D01*
X199966071Y-97072500D01*
X200004166Y-97110595D01*
X200270833Y-97034404D02*
X200804166Y-97034404D01*
X200461309Y-97834404D01*
%TD*%
M02*
