%TF.GenerationSoftware,KiCad,Pcbnew,(5.1.8)-1*%
%TF.CreationDate,2022-03-17T10:23:42+02:00*%
%TF.ProjectId,Hardware,48617264-7761-4726-952e-6b696361645f,rev?*%
%TF.SameCoordinates,Original*%
%TF.FileFunction,Copper,L3,Inr*%
%TF.FilePolarity,Positive*%
%FSLAX46Y46*%
G04 Gerber Fmt 4.6, Leading zero omitted, Abs format (unit mm)*
G04 Created by KiCad (PCBNEW (5.1.8)-1) date 2022-03-17 10:23:42*
%MOMM*%
%LPD*%
G01*
G04 APERTURE LIST*
%TA.AperFunction,ComponentPad*%
%ADD10C,1.000000*%
%TD*%
%TA.AperFunction,ComponentPad*%
%ADD11C,1.524000*%
%TD*%
%TA.AperFunction,ComponentPad*%
%ADD12C,1.905000*%
%TD*%
%TA.AperFunction,ComponentPad*%
%ADD13O,1.400000X1.700000*%
%TD*%
%TA.AperFunction,ComponentPad*%
%ADD14R,1.400000X1.700000*%
%TD*%
%TA.AperFunction,ComponentPad*%
%ADD15C,2.500000*%
%TD*%
%TA.AperFunction,ComponentPad*%
%ADD16C,1.498600*%
%TD*%
%TA.AperFunction,ComponentPad*%
%ADD17C,3.000000*%
%TD*%
%TA.AperFunction,ViaPad*%
%ADD18C,0.560000*%
%TD*%
%TA.AperFunction,ViaPad*%
%ADD19C,0.800000*%
%TD*%
%TA.AperFunction,Conductor*%
%ADD20C,0.279400*%
%TD*%
%TA.AperFunction,Conductor*%
%ADD21C,0.200000*%
%TD*%
%TA.AperFunction,Conductor*%
%ADD22C,0.254000*%
%TD*%
%TA.AperFunction,Conductor*%
%ADD23C,0.100000*%
%TD*%
G04 APERTURE END LIST*
D10*
%TO.N,/EN*%
%TO.C,J1*%
X29210000Y-99695000D03*
%TO.N,Net-(J1-Pad2)*%
X29210000Y-98425000D03*
%TO.N,Net-(J1-Pad3)*%
X30480000Y-99695000D03*
%TO.N,EP*%
X30480000Y-98425000D03*
%TO.N,Net-(J1-Pad5)*%
X31750000Y-99695000D03*
%TO.N,Net-(J1-Pad6)*%
X31750000Y-98425000D03*
%TD*%
D11*
%TO.N,Net-(BZ1-Pad2)*%
%TO.C,BZ1*%
X204470000Y-120840000D03*
%TO.N,+3V3*%
X204470000Y-116840000D03*
%TD*%
D12*
%TO.N,/CAN-*%
%TO.C,J10*%
X213360000Y-114935000D03*
%TO.N,/CAN+*%
X213360000Y-109855000D03*
%TO.N,/VIN*%
X213360000Y-104775000D03*
%TO.N,GND1*%
X213360000Y-99695000D03*
%TD*%
D13*
%TO.N,Net-(J9-Pad4)*%
%TO.C,J9*%
X193040000Y-101282500D03*
%TO.N,Net-(J9-Pad3)*%
X190500000Y-101282500D03*
%TO.N,EP*%
X187960000Y-101282500D03*
D14*
%TO.N,Net-(J9-Pad1)*%
X185420000Y-101282500D03*
%TD*%
D13*
%TO.N,Net-(J8-Pad4)*%
%TO.C,J8*%
X193040000Y-118427500D03*
%TO.N,EP*%
X190500000Y-118427500D03*
%TO.N,Net-(J8-Pad2)*%
X187960000Y-118427500D03*
D14*
%TO.N,/K4*%
X185420000Y-118427500D03*
%TD*%
D13*
%TO.N,Net-(J7-Pad4)*%
%TO.C,J7*%
X173672500Y-101282500D03*
%TO.N,Net-(J7-Pad3)*%
X171132500Y-101282500D03*
%TO.N,EP*%
X168592500Y-101282500D03*
D14*
%TO.N,Net-(J7-Pad1)*%
X166052500Y-101282500D03*
%TD*%
D13*
%TO.N,Net-(J6-Pad4)*%
%TO.C,J6*%
X173672500Y-118427500D03*
%TO.N,EP*%
X171132500Y-118427500D03*
%TO.N,Net-(J6-Pad2)*%
X168592500Y-118427500D03*
D14*
%TO.N,/K3*%
X166052500Y-118427500D03*
%TD*%
D13*
%TO.N,Net-(J5-Pad4)*%
%TO.C,J5*%
X93027500Y-101282500D03*
%TO.N,Net-(J5-Pad3)*%
X90487500Y-101282500D03*
%TO.N,EP*%
X87947500Y-101282500D03*
D14*
%TO.N,Net-(J5-Pad1)*%
X85407500Y-101282500D03*
%TD*%
D13*
%TO.N,Net-(J4-Pad4)*%
%TO.C,J4*%
X93027500Y-118427500D03*
%TO.N,EP*%
X90487500Y-118427500D03*
%TO.N,Net-(J4-Pad2)*%
X87947500Y-118427500D03*
D14*
%TO.N,/K2*%
X85407500Y-118427500D03*
%TD*%
D13*
%TO.N,Net-(J3-Pad4)*%
%TO.C,J3*%
X73660000Y-101282500D03*
%TO.N,Net-(J3-Pad3)*%
X71120000Y-101282500D03*
%TO.N,EP*%
X68580000Y-101282500D03*
D14*
%TO.N,Net-(J3-Pad1)*%
X66040000Y-101282500D03*
%TD*%
D13*
%TO.N,Net-(J2-Pad4)*%
%TO.C,J2*%
X73660000Y-118427500D03*
%TO.N,EP*%
X71120000Y-118427500D03*
%TO.N,Net-(J2-Pad2)*%
X68580000Y-118427500D03*
D14*
%TO.N,/K1*%
X66040000Y-118427500D03*
%TD*%
D15*
%TO.N,N/C*%
%TO.C,LED1*%
X50165000Y-116840000D03*
X50165000Y-102840000D03*
%TD*%
D16*
%TO.N,/a*%
%TO.C,LED4*%
X142240000Y-100965000D03*
%TO.N,/f*%
X142240000Y-103505000D03*
%TO.N,/SEG3SW*%
X142240000Y-106045000D03*
%TO.N,/e*%
X142240000Y-108585000D03*
%TO.N,/SEG3SW*%
X142240000Y-111125000D03*
%TO.N,Net-(LED4-Pad6)*%
X142240000Y-113665000D03*
%TO.N,/dp*%
X157480000Y-118745000D03*
%TO.N,/d*%
X157480000Y-116205000D03*
%TO.N,/SEG3SW*%
X157480000Y-113665000D03*
%TO.N,/c*%
X157480000Y-111125000D03*
%TO.N,/g*%
X157480000Y-108585000D03*
%TO.N,/b*%
X157480000Y-106045000D03*
%TO.N,/SEG3SW*%
X157480000Y-100965000D03*
%TD*%
%TO.N,/a*%
%TO.C,LED3*%
X121920000Y-100965000D03*
%TO.N,/f*%
X121920000Y-103505000D03*
%TO.N,/SEG2SW*%
X121920000Y-106045000D03*
%TO.N,/e*%
X121920000Y-108585000D03*
%TO.N,/SEG2SW*%
X121920000Y-111125000D03*
%TO.N,Net-(LED3-Pad6)*%
X121920000Y-113665000D03*
%TO.N,/dp*%
X137160000Y-118745000D03*
%TO.N,/d*%
X137160000Y-116205000D03*
%TO.N,/SEG2SW*%
X137160000Y-113665000D03*
%TO.N,/c*%
X137160000Y-111125000D03*
%TO.N,/g*%
X137160000Y-108585000D03*
%TO.N,/b*%
X137160000Y-106045000D03*
%TO.N,/SEG2SW*%
X137160000Y-100965000D03*
%TD*%
%TO.N,/a*%
%TO.C,LED2*%
X101600000Y-100965000D03*
%TO.N,/f*%
X101600000Y-103505000D03*
%TO.N,/SEG1SW*%
X101600000Y-106045000D03*
%TO.N,/e*%
X101600000Y-108585000D03*
%TO.N,/SEG1SW*%
X101600000Y-111125000D03*
%TO.N,Net-(LED2-Pad6)*%
X101600000Y-113665000D03*
%TO.N,/dp*%
X116840000Y-118745000D03*
%TO.N,/d*%
X116840000Y-116205000D03*
%TO.N,/SEG1SW*%
X116840000Y-113665000D03*
%TO.N,/c*%
X116840000Y-111125000D03*
%TO.N,/g*%
X116840000Y-108585000D03*
%TO.N,/b*%
X116840000Y-106045000D03*
%TO.N,/SEG1SW*%
X116840000Y-100965000D03*
%TD*%
D17*
%TO.N,N/C*%
%TO.C,H1*%
X220980000Y-121920000D03*
%TD*%
D18*
%TO.N,+3V3*%
X187007500Y-104140000D03*
X186055000Y-103187500D03*
X186055000Y-104140000D03*
X187007500Y-103187500D03*
D19*
X39052500Y-104902000D03*
D18*
X28892500Y-118110000D03*
X194945000Y-115633500D03*
X37147500Y-120015000D03*
X60642500Y-112077500D03*
X60007500Y-102044500D03*
X61912500Y-110490000D03*
D19*
X71437500Y-121285000D03*
X90805000Y-121285000D03*
X171450000Y-121285000D03*
X190817500Y-121285000D03*
D18*
%TO.N,EP*%
X191617600Y-106680000D03*
X190690500Y-106680000D03*
X189763400Y-106680000D03*
X189763400Y-107632500D03*
X190690500Y-107632500D03*
X191617600Y-107632500D03*
X191617600Y-108585000D03*
X190690500Y-108585000D03*
X189763400Y-108585000D03*
X63817500Y-114935000D03*
X62865000Y-114935000D03*
X61912500Y-114935000D03*
X61912500Y-113030000D03*
X62865000Y-113030000D03*
X63817500Y-113030000D03*
X63817500Y-113982500D03*
X62865000Y-113982500D03*
X61912500Y-113982500D03*
X60007500Y-110490000D03*
X63817500Y-104775000D03*
X62865000Y-104775000D03*
X61912500Y-104775000D03*
X61912500Y-105727500D03*
X63817500Y-105727500D03*
X62865000Y-105727500D03*
X61912500Y-106680000D03*
X62865000Y-106680000D03*
X63817500Y-106680000D03*
X203835000Y-103378000D03*
X202882500Y-103378000D03*
X203835000Y-101600000D03*
X203835000Y-102489000D03*
X202882500Y-102489000D03*
X202882500Y-101600000D03*
X200977500Y-102489000D03*
X201930000Y-101600000D03*
X201930000Y-102489000D03*
X201930000Y-103378000D03*
X200977500Y-103378000D03*
X200977500Y-101600000D03*
X209867500Y-96520000D03*
X210820000Y-96520000D03*
X210820000Y-97472500D03*
X209867500Y-97472500D03*
X60007500Y-100520500D03*
X204787500Y-103378000D03*
X204787500Y-102489000D03*
X204787500Y-101600000D03*
X195008500Y-96202500D03*
X196151500Y-97409000D03*
X195008500Y-97409000D03*
X195008500Y-102235000D03*
X196151500Y-102235000D03*
X196151500Y-101028500D03*
X195008500Y-101028500D03*
X195008500Y-99822000D03*
X195008500Y-98615500D03*
X196151500Y-96202500D03*
X197294500Y-96202500D03*
X197294500Y-97409000D03*
X25400000Y-118110000D03*
X35242500Y-102870000D03*
X28575000Y-102870000D03*
X27622500Y-102870000D03*
X26670000Y-102870000D03*
X25717500Y-102870000D03*
X26352500Y-105092500D03*
X27305000Y-105092500D03*
X28257500Y-105092500D03*
X29210000Y-105092500D03*
X30162500Y-105092500D03*
X31115000Y-105092500D03*
X32067500Y-105092500D03*
X33020000Y-105092500D03*
X33972500Y-105092500D03*
X33972500Y-106045000D03*
X33020000Y-106045000D03*
X32067500Y-106045000D03*
X31115000Y-106045000D03*
X30162500Y-106045000D03*
X29210000Y-106045000D03*
X28257500Y-106045000D03*
X27305000Y-106045000D03*
X26352500Y-106045000D03*
X26352500Y-106997500D03*
X26352500Y-107950000D03*
X33972500Y-106997500D03*
X33972500Y-107950000D03*
X33972500Y-108902500D03*
X33972500Y-109855000D03*
X33972500Y-110807500D03*
X33972500Y-111760000D03*
X33972500Y-112712500D03*
X33972500Y-113665000D03*
X33972500Y-114617500D03*
X33020000Y-114617500D03*
X32067500Y-114617500D03*
X31115000Y-114617500D03*
X30162500Y-114617500D03*
X29210000Y-114617500D03*
X28257500Y-114617500D03*
X27305000Y-114617500D03*
X26352500Y-114617500D03*
X33020000Y-113665000D03*
X32067500Y-113665000D03*
X31115000Y-113665000D03*
X30162500Y-113665000D03*
X195580000Y-121920000D03*
X60007500Y-104140000D03*
D19*
X194945000Y-111823500D03*
D18*
X30480000Y-121158000D03*
X32702500Y-122999500D03*
X56515000Y-122999500D03*
D19*
X185870659Y-111944341D03*
D18*
X206184500Y-108077000D03*
X196151500Y-99822000D03*
X196151500Y-98615500D03*
X190690500Y-103822500D03*
D19*
X104775000Y-106045000D03*
X107950000Y-106045000D03*
X106362500Y-106045000D03*
X111125000Y-106045000D03*
X109537500Y-106045000D03*
X112712500Y-106045000D03*
X125412500Y-106045000D03*
X127000000Y-106045000D03*
X128587500Y-106045000D03*
X130175000Y-106045000D03*
X131762500Y-106045000D03*
X133350000Y-106045000D03*
X145097500Y-106045000D03*
X146685000Y-106045000D03*
X148272500Y-106045000D03*
X149860000Y-106045000D03*
X151447500Y-106045000D03*
X153035000Y-106045000D03*
X154622500Y-106045000D03*
X125412500Y-111125000D03*
X127000000Y-111125000D03*
X128587500Y-111125000D03*
X130175000Y-111125000D03*
X131762500Y-111125000D03*
X133350000Y-111125000D03*
X145097500Y-111125000D03*
X146685000Y-111125000D03*
X148272500Y-111125000D03*
X149860000Y-111125000D03*
X151447500Y-111125000D03*
X153035000Y-111125000D03*
X154622500Y-111125000D03*
X125412500Y-114300000D03*
X127000000Y-114300000D03*
X128587500Y-114300000D03*
X130175000Y-114300000D03*
X131762500Y-114300000D03*
X133350000Y-114300000D03*
X145097500Y-114300000D03*
X146685000Y-114300000D03*
X148272500Y-114300000D03*
X149860000Y-114300000D03*
X151447500Y-114300000D03*
X153035000Y-114300000D03*
X154622500Y-114300000D03*
X161925000Y-101282500D03*
X161925000Y-102870000D03*
X161925000Y-104457500D03*
X161925000Y-106045000D03*
X161925000Y-107632500D03*
X161925000Y-109220000D03*
X161925000Y-110807500D03*
X161925000Y-112395000D03*
X161925000Y-113982500D03*
X161925000Y-115570000D03*
X154622500Y-101282500D03*
X153035000Y-101282500D03*
X151447500Y-101282500D03*
X149860000Y-101282500D03*
X148272500Y-101282500D03*
X146685000Y-101282500D03*
X145097500Y-101282500D03*
X133350000Y-101282500D03*
X131762500Y-101282500D03*
X130175000Y-101282500D03*
X128587500Y-101282500D03*
X127000000Y-101282500D03*
X125412500Y-101282500D03*
X112712500Y-101282500D03*
X111125000Y-101282500D03*
X109537500Y-101282500D03*
X107950000Y-101282500D03*
X106362500Y-101282500D03*
X104775000Y-101282500D03*
X95885000Y-101282500D03*
X95885000Y-108267500D03*
X104775000Y-119697500D03*
X106362500Y-119697500D03*
X107950000Y-119697500D03*
X109537500Y-119697500D03*
X111125000Y-119697500D03*
X112712500Y-119697500D03*
X114300000Y-119697500D03*
X125412500Y-119697500D03*
X127000000Y-119697500D03*
X128587500Y-119697500D03*
X130175000Y-119697500D03*
X131762500Y-119697500D03*
X133350000Y-119697500D03*
X134937500Y-119697500D03*
X123825000Y-119697500D03*
X122237500Y-119697500D03*
X120650000Y-119697500D03*
X119062500Y-119697500D03*
X145097500Y-119697500D03*
X143510000Y-119697500D03*
X141922500Y-119697500D03*
X146685000Y-119697500D03*
X148272500Y-119697500D03*
X149860000Y-119697500D03*
X151447500Y-119697500D03*
X153035000Y-119697500D03*
X154622500Y-119697500D03*
X160655000Y-116840000D03*
X159385000Y-118110000D03*
X93980000Y-106362500D03*
D18*
%TO.N,Net-(J1-Pad2)*%
X37782500Y-100330000D03*
%TO.N,Net-(J1-Pad6)*%
X36830000Y-98697210D03*
D19*
%TO.N,/SEG1SW*%
X94297500Y-111125000D03*
%TO.N,/SEG2SW*%
X96837500Y-112395000D03*
%TO.N,/SEG3SW*%
X98425000Y-115252500D03*
D18*
%TO.N,/EN*%
X31886500Y-117167000D03*
X25400000Y-119761000D03*
%TO.N,+5V*%
X195580000Y-107950000D03*
X196532500Y-107950000D03*
X197485000Y-107950000D03*
X84772500Y-107315000D03*
X84772500Y-108902500D03*
X84772500Y-110490000D03*
X84772500Y-112077500D03*
X88582500Y-108915799D03*
X88582500Y-112090799D03*
X91122500Y-107315000D03*
X91122500Y-110490000D03*
X208216500Y-105727500D03*
X45720000Y-108267500D03*
X45720000Y-109855000D03*
X45744499Y-111339999D03*
X198945500Y-108902500D03*
X192405000Y-102870000D03*
D19*
X186055000Y-115570000D03*
D18*
%TO.N,Net-(SW3-Pad6)*%
X62865000Y-118110000D03*
X60325000Y-120332500D03*
%TD*%
D20*
%TO.N,Net-(J1-Pad2)*%
X37782500Y-97790000D02*
X37782500Y-100330000D01*
X29210000Y-98425000D02*
X30162500Y-97472500D01*
X30162500Y-97472500D02*
X37465000Y-97472500D01*
X37465000Y-97472500D02*
X37782500Y-97790000D01*
D21*
%TO.N,Net-(J1-Pad6)*%
X31750000Y-98425000D02*
X36557790Y-98425000D01*
X36557790Y-98425000D02*
X36830000Y-98697210D01*
D20*
%TO.N,/EN*%
X25400000Y-119761000D02*
X28003500Y-117157500D01*
X28003500Y-117157500D02*
X31877000Y-117157500D01*
D21*
X36512500Y-116522500D02*
X35868000Y-117167000D01*
X36512500Y-100965000D02*
X36512500Y-116522500D01*
X36195000Y-100647500D02*
X36512500Y-100965000D01*
X29527500Y-100647500D02*
X36195000Y-100647500D01*
X29210000Y-100330000D02*
X29527500Y-100647500D01*
X35868000Y-117167000D02*
X31886500Y-117167000D01*
X29210000Y-99695000D02*
X29210000Y-100330000D01*
%TO.N,Net-(SW3-Pad6)*%
X62865000Y-118110000D02*
X62865000Y-119697500D01*
X62230000Y-120332500D02*
X60325000Y-120332500D01*
X62865000Y-119697500D02*
X62230000Y-120332500D01*
%TD*%
D22*
%TO.N,+3V3*%
X60198000Y-101970106D02*
X60198000Y-102182394D01*
X59954894Y-102425500D01*
X59690000Y-102425500D01*
X59665224Y-102427940D01*
X59641399Y-102435167D01*
X59619443Y-102446903D01*
X59600197Y-102462697D01*
X59282697Y-102780197D01*
X59266903Y-102799443D01*
X59255167Y-102821399D01*
X59247940Y-102845224D01*
X59245500Y-102870000D01*
X59245500Y-108902500D01*
X59247940Y-108927276D01*
X59255167Y-108951101D01*
X59266903Y-108973057D01*
X59282697Y-108992303D01*
X59600197Y-109309803D01*
X59619443Y-109325597D01*
X59641399Y-109337333D01*
X59665224Y-109344560D01*
X59690000Y-109347000D01*
X62177394Y-109347000D01*
X62420500Y-109590106D01*
X62420500Y-111100189D01*
X62181265Y-111315500D01*
X61595000Y-111315500D01*
X61570224Y-111317940D01*
X61546399Y-111325167D01*
X61524443Y-111336903D01*
X61505197Y-111352697D01*
X61187697Y-111670197D01*
X61171903Y-111689443D01*
X61160167Y-111711399D01*
X61152940Y-111735224D01*
X61150500Y-111760000D01*
X61150500Y-115887500D01*
X61152940Y-115912276D01*
X61160167Y-115936101D01*
X61171903Y-115958057D01*
X61187697Y-115977303D01*
X61822697Y-116612303D01*
X61841943Y-116628097D01*
X61863899Y-116639833D01*
X61887724Y-116647060D01*
X61912500Y-116649500D01*
X95197394Y-116649500D01*
X99922697Y-121374803D01*
X99941943Y-121390597D01*
X99963899Y-121402333D01*
X99987724Y-121409560D01*
X100012500Y-121412000D01*
X159067500Y-121412000D01*
X159092276Y-121409560D01*
X159116101Y-121402333D01*
X159138057Y-121390597D01*
X159157303Y-121374803D01*
X159804682Y-120727424D01*
X203327000Y-120727424D01*
X203327000Y-120952576D01*
X203370925Y-121173401D01*
X203457087Y-121381413D01*
X203582174Y-121568620D01*
X203741380Y-121727826D01*
X203928587Y-121852913D01*
X204136599Y-121939075D01*
X204357424Y-121983000D01*
X204582576Y-121983000D01*
X204803401Y-121939075D01*
X205011413Y-121852913D01*
X205198620Y-121727826D01*
X205357826Y-121568620D01*
X205482913Y-121381413D01*
X205569075Y-121173401D01*
X205613000Y-120952576D01*
X205613000Y-120727424D01*
X205569075Y-120506599D01*
X205482913Y-120298587D01*
X205357826Y-120111380D01*
X205198620Y-119952174D01*
X205011413Y-119827087D01*
X204803401Y-119740925D01*
X204582576Y-119697000D01*
X204357424Y-119697000D01*
X204136599Y-119740925D01*
X203928587Y-119827087D01*
X203741380Y-119952174D01*
X203582174Y-120111380D01*
X203457087Y-120298587D01*
X203370925Y-120506599D01*
X203327000Y-120727424D01*
X159804682Y-120727424D01*
X162954606Y-117577500D01*
X164969657Y-117577500D01*
X164969657Y-119277500D01*
X164977013Y-119352189D01*
X164998799Y-119424008D01*
X165034178Y-119490196D01*
X165081789Y-119548211D01*
X165139804Y-119595822D01*
X165205992Y-119631201D01*
X165277811Y-119652987D01*
X165352500Y-119660343D01*
X166752500Y-119660343D01*
X166827189Y-119652987D01*
X166899008Y-119631201D01*
X166965196Y-119595822D01*
X167023211Y-119548211D01*
X167070822Y-119490196D01*
X167106201Y-119424008D01*
X167127987Y-119352189D01*
X167135343Y-119277500D01*
X167135343Y-118224401D01*
X167511500Y-118224401D01*
X167511500Y-118630600D01*
X167527142Y-118789413D01*
X167588954Y-118993182D01*
X167689333Y-119180977D01*
X167824420Y-119345581D01*
X167989024Y-119480667D01*
X168176819Y-119581046D01*
X168380588Y-119642858D01*
X168592500Y-119663730D01*
X168804413Y-119642858D01*
X169008182Y-119581046D01*
X169195977Y-119480667D01*
X169360581Y-119345581D01*
X169495667Y-119180977D01*
X169596046Y-118993181D01*
X169657858Y-118789412D01*
X169673500Y-118630599D01*
X169673500Y-118224401D01*
X170051500Y-118224401D01*
X170051500Y-118630600D01*
X170067142Y-118789413D01*
X170128954Y-118993182D01*
X170229333Y-119180977D01*
X170364420Y-119345581D01*
X170529024Y-119480667D01*
X170716819Y-119581046D01*
X170920588Y-119642858D01*
X171132500Y-119663730D01*
X171344413Y-119642858D01*
X171548182Y-119581046D01*
X171735977Y-119480667D01*
X171900581Y-119345581D01*
X172035667Y-119180977D01*
X172136046Y-118993181D01*
X172197858Y-118789412D01*
X172213500Y-118630599D01*
X172213500Y-118224401D01*
X172591500Y-118224401D01*
X172591500Y-118630600D01*
X172607142Y-118789413D01*
X172668954Y-118993182D01*
X172769333Y-119180977D01*
X172904420Y-119345581D01*
X173069024Y-119480667D01*
X173256819Y-119581046D01*
X173460588Y-119642858D01*
X173672500Y-119663730D01*
X173884413Y-119642858D01*
X174088182Y-119581046D01*
X174275977Y-119480667D01*
X174440581Y-119345581D01*
X174575667Y-119180977D01*
X174676046Y-118993181D01*
X174737858Y-118789412D01*
X174753500Y-118630599D01*
X174753500Y-118224400D01*
X174737858Y-118065587D01*
X174676046Y-117861818D01*
X174575667Y-117674023D01*
X174440581Y-117509419D01*
X174275977Y-117374333D01*
X174088181Y-117273954D01*
X173884412Y-117212142D01*
X173672500Y-117191270D01*
X173460587Y-117212142D01*
X173256818Y-117273954D01*
X173069023Y-117374333D01*
X172904419Y-117509419D01*
X172769333Y-117674023D01*
X172668954Y-117861819D01*
X172607142Y-118065588D01*
X172591500Y-118224401D01*
X172213500Y-118224401D01*
X172213500Y-118224400D01*
X172197858Y-118065587D01*
X172136046Y-117861818D01*
X172035667Y-117674023D01*
X171900581Y-117509419D01*
X171735977Y-117374333D01*
X171548181Y-117273954D01*
X171344412Y-117212142D01*
X171132500Y-117191270D01*
X170920587Y-117212142D01*
X170716818Y-117273954D01*
X170529023Y-117374333D01*
X170364419Y-117509419D01*
X170229333Y-117674023D01*
X170128954Y-117861819D01*
X170067142Y-118065588D01*
X170051500Y-118224401D01*
X169673500Y-118224401D01*
X169673500Y-118224400D01*
X169657858Y-118065587D01*
X169596046Y-117861818D01*
X169495667Y-117674023D01*
X169360581Y-117509419D01*
X169195977Y-117374333D01*
X169008181Y-117273954D01*
X168804412Y-117212142D01*
X168592500Y-117191270D01*
X168380587Y-117212142D01*
X168176818Y-117273954D01*
X167989023Y-117374333D01*
X167824419Y-117509419D01*
X167689333Y-117674023D01*
X167588954Y-117861819D01*
X167527142Y-118065588D01*
X167511500Y-118224401D01*
X167135343Y-118224401D01*
X167135343Y-117577500D01*
X167127987Y-117502811D01*
X167106201Y-117430992D01*
X167070822Y-117364804D01*
X167023211Y-117306789D01*
X166965196Y-117259178D01*
X166899008Y-117223799D01*
X166827189Y-117202013D01*
X166752500Y-117194657D01*
X165352500Y-117194657D01*
X165277811Y-117202013D01*
X165205992Y-117223799D01*
X165139804Y-117259178D01*
X165081789Y-117306789D01*
X165034178Y-117364804D01*
X164998799Y-117430992D01*
X164977013Y-117502811D01*
X164969657Y-117577500D01*
X162954606Y-117577500D01*
X163882606Y-116649500D01*
X179705000Y-116649500D01*
X179729776Y-116647060D01*
X179753601Y-116639833D01*
X179775557Y-116628097D01*
X179794803Y-116612303D01*
X180429803Y-115977303D01*
X180445597Y-115958057D01*
X180457333Y-115936101D01*
X180464560Y-115912276D01*
X180467000Y-115887500D01*
X180467000Y-103240106D01*
X181027606Y-102679500D01*
X186954894Y-102679500D01*
X187198000Y-102922606D01*
X187198000Y-104404894D01*
X186954894Y-104648000D01*
X183197500Y-104648000D01*
X183172724Y-104650440D01*
X183148899Y-104657667D01*
X183126943Y-104669403D01*
X183107697Y-104685197D01*
X182472697Y-105320197D01*
X182456903Y-105339443D01*
X182445167Y-105361399D01*
X182437940Y-105385224D01*
X182435500Y-105410000D01*
X182435500Y-115570000D01*
X182437940Y-115594776D01*
X182445167Y-115618601D01*
X182456903Y-115640557D01*
X182472697Y-115659803D01*
X184060197Y-117247303D01*
X184079443Y-117263097D01*
X184101399Y-117274833D01*
X184125224Y-117282060D01*
X184150000Y-117284500D01*
X184476449Y-117284500D01*
X184449289Y-117306789D01*
X184401678Y-117364804D01*
X184366299Y-117430992D01*
X184344513Y-117502811D01*
X184337157Y-117577500D01*
X184337157Y-119277500D01*
X184344513Y-119352189D01*
X184366299Y-119424008D01*
X184401678Y-119490196D01*
X184449289Y-119548211D01*
X184507304Y-119595822D01*
X184573492Y-119631201D01*
X184645311Y-119652987D01*
X184720000Y-119660343D01*
X186120000Y-119660343D01*
X186194689Y-119652987D01*
X186266508Y-119631201D01*
X186332696Y-119595822D01*
X186390711Y-119548211D01*
X186438322Y-119490196D01*
X186473701Y-119424008D01*
X186495487Y-119352189D01*
X186502843Y-119277500D01*
X186502843Y-117577500D01*
X186495487Y-117502811D01*
X186473701Y-117430992D01*
X186438322Y-117364804D01*
X186390711Y-117306789D01*
X186363551Y-117284500D01*
X187524588Y-117284500D01*
X187356523Y-117374333D01*
X187191919Y-117509419D01*
X187056833Y-117674023D01*
X186956454Y-117861819D01*
X186894642Y-118065588D01*
X186879000Y-118224401D01*
X186879000Y-118630600D01*
X186894642Y-118789413D01*
X186956454Y-118993182D01*
X187056833Y-119180977D01*
X187191920Y-119345581D01*
X187356524Y-119480667D01*
X187544319Y-119581046D01*
X187748088Y-119642858D01*
X187960000Y-119663730D01*
X188171913Y-119642858D01*
X188375682Y-119581046D01*
X188563477Y-119480667D01*
X188728081Y-119345581D01*
X188863167Y-119180977D01*
X188963546Y-118993181D01*
X189025358Y-118789412D01*
X189041000Y-118630599D01*
X189041000Y-118224400D01*
X189025358Y-118065587D01*
X188963546Y-117861818D01*
X188863167Y-117674023D01*
X188728081Y-117509419D01*
X188563477Y-117374333D01*
X188395411Y-117284500D01*
X190064588Y-117284500D01*
X189896523Y-117374333D01*
X189731919Y-117509419D01*
X189596833Y-117674023D01*
X189496454Y-117861819D01*
X189434642Y-118065588D01*
X189419000Y-118224401D01*
X189419000Y-118630600D01*
X189434642Y-118789413D01*
X189496454Y-118993182D01*
X189596833Y-119180977D01*
X189731920Y-119345581D01*
X189896524Y-119480667D01*
X190084319Y-119581046D01*
X190288088Y-119642858D01*
X190500000Y-119663730D01*
X190711913Y-119642858D01*
X190915682Y-119581046D01*
X191103477Y-119480667D01*
X191268081Y-119345581D01*
X191403167Y-119180977D01*
X191503546Y-118993181D01*
X191565358Y-118789412D01*
X191581000Y-118630599D01*
X191581000Y-118224401D01*
X191959000Y-118224401D01*
X191959000Y-118630600D01*
X191974642Y-118789413D01*
X192036454Y-118993182D01*
X192136833Y-119180977D01*
X192271920Y-119345581D01*
X192436524Y-119480667D01*
X192624319Y-119581046D01*
X192828088Y-119642858D01*
X193040000Y-119663730D01*
X193251913Y-119642858D01*
X193455682Y-119581046D01*
X193643477Y-119480667D01*
X193808081Y-119345581D01*
X193943167Y-119180977D01*
X194043546Y-118993181D01*
X194105358Y-118789412D01*
X194121000Y-118630599D01*
X194121000Y-118224400D01*
X194105358Y-118065587D01*
X194043546Y-117861818D01*
X194013479Y-117805565D01*
X203684040Y-117805565D01*
X203751020Y-118045656D01*
X204000048Y-118162756D01*
X204267135Y-118229023D01*
X204542017Y-118241910D01*
X204814133Y-118200922D01*
X205073023Y-118107636D01*
X205188980Y-118045656D01*
X205255960Y-117805565D01*
X204470000Y-117019605D01*
X203684040Y-117805565D01*
X194013479Y-117805565D01*
X193943167Y-117674023D01*
X193808081Y-117509419D01*
X193643477Y-117374333D01*
X193455681Y-117273954D01*
X193251912Y-117212142D01*
X193040000Y-117191270D01*
X192828087Y-117212142D01*
X192624318Y-117273954D01*
X192436523Y-117374333D01*
X192271919Y-117509419D01*
X192136833Y-117674023D01*
X192036454Y-117861819D01*
X191974642Y-118065588D01*
X191959000Y-118224401D01*
X191581000Y-118224401D01*
X191581000Y-118224400D01*
X191565358Y-118065587D01*
X191503546Y-117861818D01*
X191403167Y-117674023D01*
X191268081Y-117509419D01*
X191103477Y-117374333D01*
X190915681Y-117273954D01*
X190885100Y-117264678D01*
X190888057Y-117263097D01*
X190907303Y-117247303D01*
X191242589Y-116912017D01*
X203068090Y-116912017D01*
X203109078Y-117184133D01*
X203202364Y-117443023D01*
X203264344Y-117558980D01*
X203504435Y-117625960D01*
X204290395Y-116840000D01*
X204649605Y-116840000D01*
X205435565Y-117625960D01*
X205675656Y-117558980D01*
X205792756Y-117309952D01*
X205859023Y-117042865D01*
X205871910Y-116767983D01*
X205830922Y-116495867D01*
X205737636Y-116236977D01*
X205675656Y-116121020D01*
X205435565Y-116054040D01*
X204649605Y-116840000D01*
X204290395Y-116840000D01*
X203504435Y-116054040D01*
X203264344Y-116121020D01*
X203147244Y-116370048D01*
X203080977Y-116637135D01*
X203068090Y-116912017D01*
X191242589Y-116912017D01*
X192280171Y-115874435D01*
X203684040Y-115874435D01*
X204470000Y-116660395D01*
X205255960Y-115874435D01*
X205188980Y-115634344D01*
X204939952Y-115517244D01*
X204672865Y-115450977D01*
X204397983Y-115438090D01*
X204125867Y-115479078D01*
X203866977Y-115572364D01*
X203751020Y-115634344D01*
X203684040Y-115874435D01*
X192280171Y-115874435D01*
X192775106Y-115379500D01*
X210767394Y-115379500D01*
X211328000Y-115940106D01*
X211328000Y-123137394D01*
X210767394Y-123698000D01*
X25770106Y-123698000D01*
X25209500Y-123137394D01*
X25209500Y-122934397D01*
X32041500Y-122934397D01*
X32041500Y-123064603D01*
X32066902Y-123192307D01*
X32116730Y-123312601D01*
X32189068Y-123420863D01*
X32281137Y-123512932D01*
X32389399Y-123585270D01*
X32509693Y-123635098D01*
X32637397Y-123660500D01*
X32767603Y-123660500D01*
X32895307Y-123635098D01*
X33015601Y-123585270D01*
X33123863Y-123512932D01*
X33215932Y-123420863D01*
X33288270Y-123312601D01*
X33338098Y-123192307D01*
X33363500Y-123064603D01*
X33363500Y-122934397D01*
X55854000Y-122934397D01*
X55854000Y-123064603D01*
X55879402Y-123192307D01*
X55929230Y-123312601D01*
X56001568Y-123420863D01*
X56093637Y-123512932D01*
X56201899Y-123585270D01*
X56322193Y-123635098D01*
X56449897Y-123660500D01*
X56580103Y-123660500D01*
X56707807Y-123635098D01*
X56828101Y-123585270D01*
X56936363Y-123512932D01*
X57028432Y-123420863D01*
X57100770Y-123312601D01*
X57150598Y-123192307D01*
X57176000Y-123064603D01*
X57176000Y-122934397D01*
X57150598Y-122806693D01*
X57100770Y-122686399D01*
X57028432Y-122578137D01*
X56936363Y-122486068D01*
X56828101Y-122413730D01*
X56707807Y-122363902D01*
X56580103Y-122338500D01*
X56449897Y-122338500D01*
X56322193Y-122363902D01*
X56201899Y-122413730D01*
X56093637Y-122486068D01*
X56001568Y-122578137D01*
X55929230Y-122686399D01*
X55879402Y-122806693D01*
X55854000Y-122934397D01*
X33363500Y-122934397D01*
X33338098Y-122806693D01*
X33288270Y-122686399D01*
X33215932Y-122578137D01*
X33123863Y-122486068D01*
X33015601Y-122413730D01*
X32895307Y-122363902D01*
X32767603Y-122338500D01*
X32637397Y-122338500D01*
X32509693Y-122363902D01*
X32389399Y-122413730D01*
X32281137Y-122486068D01*
X32189068Y-122578137D01*
X32116730Y-122686399D01*
X32066902Y-122806693D01*
X32041500Y-122934397D01*
X25209500Y-122934397D01*
X25209500Y-121854897D01*
X194919000Y-121854897D01*
X194919000Y-121985103D01*
X194944402Y-122112807D01*
X194994230Y-122233101D01*
X195066568Y-122341363D01*
X195158637Y-122433432D01*
X195266899Y-122505770D01*
X195387193Y-122555598D01*
X195514897Y-122581000D01*
X195645103Y-122581000D01*
X195772807Y-122555598D01*
X195893101Y-122505770D01*
X196001363Y-122433432D01*
X196093432Y-122341363D01*
X196165770Y-122233101D01*
X196215598Y-122112807D01*
X196241000Y-121985103D01*
X196241000Y-121854897D01*
X196215598Y-121727193D01*
X196165770Y-121606899D01*
X196093432Y-121498637D01*
X196001363Y-121406568D01*
X195893101Y-121334230D01*
X195772807Y-121284402D01*
X195645103Y-121259000D01*
X195514897Y-121259000D01*
X195387193Y-121284402D01*
X195266899Y-121334230D01*
X195158637Y-121406568D01*
X195066568Y-121498637D01*
X194994230Y-121606899D01*
X194944402Y-121727193D01*
X194919000Y-121854897D01*
X25209500Y-121854897D01*
X25209500Y-121092897D01*
X29819000Y-121092897D01*
X29819000Y-121223103D01*
X29844402Y-121350807D01*
X29894230Y-121471101D01*
X29966568Y-121579363D01*
X30058637Y-121671432D01*
X30166899Y-121743770D01*
X30287193Y-121793598D01*
X30414897Y-121819000D01*
X30545103Y-121819000D01*
X30672807Y-121793598D01*
X30793101Y-121743770D01*
X30901363Y-121671432D01*
X30993432Y-121579363D01*
X31065770Y-121471101D01*
X31115598Y-121350807D01*
X31141000Y-121223103D01*
X31141000Y-121092897D01*
X31115598Y-120965193D01*
X31065770Y-120844899D01*
X30993432Y-120736637D01*
X30901363Y-120644568D01*
X30793101Y-120572230D01*
X30672807Y-120522402D01*
X30545103Y-120497000D01*
X30414897Y-120497000D01*
X30287193Y-120522402D01*
X30166899Y-120572230D01*
X30058637Y-120644568D01*
X29966568Y-120736637D01*
X29894230Y-120844899D01*
X29844402Y-120965193D01*
X29819000Y-121092897D01*
X25209500Y-121092897D01*
X25209500Y-120397057D01*
X25334897Y-120422000D01*
X25465103Y-120422000D01*
X25592807Y-120396598D01*
X25713101Y-120346770D01*
X25821363Y-120274432D01*
X25828398Y-120267397D01*
X59664000Y-120267397D01*
X59664000Y-120397603D01*
X59689402Y-120525307D01*
X59739230Y-120645601D01*
X59811568Y-120753863D01*
X59903637Y-120845932D01*
X60011899Y-120918270D01*
X60132193Y-120968098D01*
X60259897Y-120993500D01*
X60390103Y-120993500D01*
X60517807Y-120968098D01*
X60638101Y-120918270D01*
X60746363Y-120845932D01*
X60778795Y-120813500D01*
X62206374Y-120813500D01*
X62230000Y-120815827D01*
X62253626Y-120813500D01*
X62324292Y-120806540D01*
X62414961Y-120779036D01*
X62498522Y-120734372D01*
X62571764Y-120674264D01*
X62586830Y-120655906D01*
X63188406Y-120054330D01*
X63206764Y-120039264D01*
X63266872Y-119966022D01*
X63288633Y-119925309D01*
X63311536Y-119882462D01*
X63339040Y-119791793D01*
X63348327Y-119697500D01*
X63346000Y-119673874D01*
X63346000Y-118563795D01*
X63378432Y-118531363D01*
X63450770Y-118423101D01*
X63500598Y-118302807D01*
X63526000Y-118175103D01*
X63526000Y-118044897D01*
X63500598Y-117917193D01*
X63450770Y-117796899D01*
X63378432Y-117688637D01*
X63286363Y-117596568D01*
X63257826Y-117577500D01*
X64957157Y-117577500D01*
X64957157Y-119277500D01*
X64964513Y-119352189D01*
X64986299Y-119424008D01*
X65021678Y-119490196D01*
X65069289Y-119548211D01*
X65127304Y-119595822D01*
X65193492Y-119631201D01*
X65265311Y-119652987D01*
X65340000Y-119660343D01*
X66740000Y-119660343D01*
X66814689Y-119652987D01*
X66886508Y-119631201D01*
X66952696Y-119595822D01*
X67010711Y-119548211D01*
X67058322Y-119490196D01*
X67093701Y-119424008D01*
X67115487Y-119352189D01*
X67122843Y-119277500D01*
X67122843Y-118224401D01*
X67499000Y-118224401D01*
X67499000Y-118630600D01*
X67514642Y-118789413D01*
X67576454Y-118993182D01*
X67676833Y-119180977D01*
X67811920Y-119345581D01*
X67976524Y-119480667D01*
X68164319Y-119581046D01*
X68368088Y-119642858D01*
X68580000Y-119663730D01*
X68791913Y-119642858D01*
X68995682Y-119581046D01*
X69183477Y-119480667D01*
X69348081Y-119345581D01*
X69483167Y-119180977D01*
X69583546Y-118993181D01*
X69645358Y-118789412D01*
X69661000Y-118630599D01*
X69661000Y-118224401D01*
X70039000Y-118224401D01*
X70039000Y-118630600D01*
X70054642Y-118789413D01*
X70116454Y-118993182D01*
X70216833Y-119180977D01*
X70351920Y-119345581D01*
X70516524Y-119480667D01*
X70704319Y-119581046D01*
X70908088Y-119642858D01*
X71120000Y-119663730D01*
X71331913Y-119642858D01*
X71535682Y-119581046D01*
X71723477Y-119480667D01*
X71888081Y-119345581D01*
X72023167Y-119180977D01*
X72123546Y-118993181D01*
X72185358Y-118789412D01*
X72201000Y-118630599D01*
X72201000Y-118224401D01*
X72579000Y-118224401D01*
X72579000Y-118630600D01*
X72594642Y-118789413D01*
X72656454Y-118993182D01*
X72756833Y-119180977D01*
X72891920Y-119345581D01*
X73056524Y-119480667D01*
X73244319Y-119581046D01*
X73448088Y-119642858D01*
X73660000Y-119663730D01*
X73871913Y-119642858D01*
X74075682Y-119581046D01*
X74263477Y-119480667D01*
X74428081Y-119345581D01*
X74563167Y-119180977D01*
X74663546Y-118993181D01*
X74725358Y-118789412D01*
X74741000Y-118630599D01*
X74741000Y-118224400D01*
X74725358Y-118065587D01*
X74663546Y-117861818D01*
X74563167Y-117674023D01*
X74483954Y-117577500D01*
X84324657Y-117577500D01*
X84324657Y-119277500D01*
X84332013Y-119352189D01*
X84353799Y-119424008D01*
X84389178Y-119490196D01*
X84436789Y-119548211D01*
X84494804Y-119595822D01*
X84560992Y-119631201D01*
X84632811Y-119652987D01*
X84707500Y-119660343D01*
X86107500Y-119660343D01*
X86182189Y-119652987D01*
X86254008Y-119631201D01*
X86320196Y-119595822D01*
X86378211Y-119548211D01*
X86425822Y-119490196D01*
X86461201Y-119424008D01*
X86482987Y-119352189D01*
X86490343Y-119277500D01*
X86490343Y-118224401D01*
X86866500Y-118224401D01*
X86866500Y-118630600D01*
X86882142Y-118789413D01*
X86943954Y-118993182D01*
X87044333Y-119180977D01*
X87179420Y-119345581D01*
X87344024Y-119480667D01*
X87531819Y-119581046D01*
X87735588Y-119642858D01*
X87947500Y-119663730D01*
X88159413Y-119642858D01*
X88363182Y-119581046D01*
X88550977Y-119480667D01*
X88715581Y-119345581D01*
X88850667Y-119180977D01*
X88951046Y-118993181D01*
X89012858Y-118789412D01*
X89028500Y-118630599D01*
X89028500Y-118224401D01*
X89406500Y-118224401D01*
X89406500Y-118630600D01*
X89422142Y-118789413D01*
X89483954Y-118993182D01*
X89584333Y-119180977D01*
X89719420Y-119345581D01*
X89884024Y-119480667D01*
X90071819Y-119581046D01*
X90275588Y-119642858D01*
X90487500Y-119663730D01*
X90699413Y-119642858D01*
X90903182Y-119581046D01*
X91090977Y-119480667D01*
X91255581Y-119345581D01*
X91390667Y-119180977D01*
X91491046Y-118993181D01*
X91552858Y-118789412D01*
X91568500Y-118630599D01*
X91568500Y-118224401D01*
X91946500Y-118224401D01*
X91946500Y-118630600D01*
X91962142Y-118789413D01*
X92023954Y-118993182D01*
X92124333Y-119180977D01*
X92259420Y-119345581D01*
X92424024Y-119480667D01*
X92611819Y-119581046D01*
X92815588Y-119642858D01*
X93027500Y-119663730D01*
X93239413Y-119642858D01*
X93443182Y-119581046D01*
X93630977Y-119480667D01*
X93795581Y-119345581D01*
X93930667Y-119180977D01*
X94031046Y-118993181D01*
X94092858Y-118789412D01*
X94108500Y-118630599D01*
X94108500Y-118224400D01*
X94092858Y-118065587D01*
X94031046Y-117861818D01*
X93930667Y-117674023D01*
X93795581Y-117509419D01*
X93630977Y-117374333D01*
X93443181Y-117273954D01*
X93239412Y-117212142D01*
X93027500Y-117191270D01*
X92815587Y-117212142D01*
X92611818Y-117273954D01*
X92424023Y-117374333D01*
X92259419Y-117509419D01*
X92124333Y-117674023D01*
X92023954Y-117861819D01*
X91962142Y-118065588D01*
X91946500Y-118224401D01*
X91568500Y-118224401D01*
X91568500Y-118224400D01*
X91552858Y-118065587D01*
X91491046Y-117861818D01*
X91390667Y-117674023D01*
X91255581Y-117509419D01*
X91090977Y-117374333D01*
X90903181Y-117273954D01*
X90699412Y-117212142D01*
X90487500Y-117191270D01*
X90275587Y-117212142D01*
X90071818Y-117273954D01*
X89884023Y-117374333D01*
X89719419Y-117509419D01*
X89584333Y-117674023D01*
X89483954Y-117861819D01*
X89422142Y-118065588D01*
X89406500Y-118224401D01*
X89028500Y-118224401D01*
X89028500Y-118224400D01*
X89012858Y-118065587D01*
X88951046Y-117861818D01*
X88850667Y-117674023D01*
X88715581Y-117509419D01*
X88550977Y-117374333D01*
X88363181Y-117273954D01*
X88159412Y-117212142D01*
X87947500Y-117191270D01*
X87735587Y-117212142D01*
X87531818Y-117273954D01*
X87344023Y-117374333D01*
X87179419Y-117509419D01*
X87044333Y-117674023D01*
X86943954Y-117861819D01*
X86882142Y-118065588D01*
X86866500Y-118224401D01*
X86490343Y-118224401D01*
X86490343Y-117577500D01*
X86482987Y-117502811D01*
X86461201Y-117430992D01*
X86425822Y-117364804D01*
X86378211Y-117306789D01*
X86320196Y-117259178D01*
X86254008Y-117223799D01*
X86182189Y-117202013D01*
X86107500Y-117194657D01*
X84707500Y-117194657D01*
X84632811Y-117202013D01*
X84560992Y-117223799D01*
X84494804Y-117259178D01*
X84436789Y-117306789D01*
X84389178Y-117364804D01*
X84353799Y-117430992D01*
X84332013Y-117502811D01*
X84324657Y-117577500D01*
X74483954Y-117577500D01*
X74428081Y-117509419D01*
X74263477Y-117374333D01*
X74075681Y-117273954D01*
X73871912Y-117212142D01*
X73660000Y-117191270D01*
X73448087Y-117212142D01*
X73244318Y-117273954D01*
X73056523Y-117374333D01*
X72891919Y-117509419D01*
X72756833Y-117674023D01*
X72656454Y-117861819D01*
X72594642Y-118065588D01*
X72579000Y-118224401D01*
X72201000Y-118224401D01*
X72201000Y-118224400D01*
X72185358Y-118065587D01*
X72123546Y-117861818D01*
X72023167Y-117674023D01*
X71888081Y-117509419D01*
X71723477Y-117374333D01*
X71535681Y-117273954D01*
X71331912Y-117212142D01*
X71120000Y-117191270D01*
X70908087Y-117212142D01*
X70704318Y-117273954D01*
X70516523Y-117374333D01*
X70351919Y-117509419D01*
X70216833Y-117674023D01*
X70116454Y-117861819D01*
X70054642Y-118065588D01*
X70039000Y-118224401D01*
X69661000Y-118224401D01*
X69661000Y-118224400D01*
X69645358Y-118065587D01*
X69583546Y-117861818D01*
X69483167Y-117674023D01*
X69348081Y-117509419D01*
X69183477Y-117374333D01*
X68995681Y-117273954D01*
X68791912Y-117212142D01*
X68580000Y-117191270D01*
X68368087Y-117212142D01*
X68164318Y-117273954D01*
X67976523Y-117374333D01*
X67811919Y-117509419D01*
X67676833Y-117674023D01*
X67576454Y-117861819D01*
X67514642Y-118065588D01*
X67499000Y-118224401D01*
X67122843Y-118224401D01*
X67122843Y-117577500D01*
X67115487Y-117502811D01*
X67093701Y-117430992D01*
X67058322Y-117364804D01*
X67010711Y-117306789D01*
X66952696Y-117259178D01*
X66886508Y-117223799D01*
X66814689Y-117202013D01*
X66740000Y-117194657D01*
X65340000Y-117194657D01*
X65265311Y-117202013D01*
X65193492Y-117223799D01*
X65127304Y-117259178D01*
X65069289Y-117306789D01*
X65021678Y-117364804D01*
X64986299Y-117430992D01*
X64964513Y-117502811D01*
X64957157Y-117577500D01*
X63257826Y-117577500D01*
X63178101Y-117524230D01*
X63057807Y-117474402D01*
X62930103Y-117449000D01*
X62799897Y-117449000D01*
X62672193Y-117474402D01*
X62551899Y-117524230D01*
X62443637Y-117596568D01*
X62351568Y-117688637D01*
X62279230Y-117796899D01*
X62229402Y-117917193D01*
X62204000Y-118044897D01*
X62204000Y-118175103D01*
X62229402Y-118302807D01*
X62279230Y-118423101D01*
X62351568Y-118531363D01*
X62384000Y-118563795D01*
X62384001Y-119498263D01*
X62030764Y-119851500D01*
X60778795Y-119851500D01*
X60746363Y-119819068D01*
X60638101Y-119746730D01*
X60517807Y-119696902D01*
X60390103Y-119671500D01*
X60259897Y-119671500D01*
X60132193Y-119696902D01*
X60011899Y-119746730D01*
X59903637Y-119819068D01*
X59811568Y-119911137D01*
X59739230Y-120019399D01*
X59689402Y-120139693D01*
X59664000Y-120267397D01*
X25828398Y-120267397D01*
X25913432Y-120182363D01*
X25985770Y-120074101D01*
X26035598Y-119953807D01*
X26058448Y-119838932D01*
X28219181Y-117678200D01*
X31462905Y-117678200D01*
X31465137Y-117680432D01*
X31573399Y-117752770D01*
X31693693Y-117802598D01*
X31821397Y-117828000D01*
X31951603Y-117828000D01*
X32079307Y-117802598D01*
X32199601Y-117752770D01*
X32307863Y-117680432D01*
X32340295Y-117648000D01*
X35844374Y-117648000D01*
X35868000Y-117650327D01*
X35891626Y-117648000D01*
X35962292Y-117641040D01*
X36052961Y-117613536D01*
X36136522Y-117568872D01*
X36209764Y-117508764D01*
X36224830Y-117490406D01*
X36430736Y-117284500D01*
X37782500Y-117284500D01*
X37807276Y-117282060D01*
X37831101Y-117274833D01*
X37853057Y-117263097D01*
X37872303Y-117247303D01*
X38507303Y-116612303D01*
X38523097Y-116593057D01*
X38534833Y-116571101D01*
X38542060Y-116547276D01*
X38544500Y-116522500D01*
X38544500Y-104827606D01*
X38787606Y-104584500D01*
X39317394Y-104584500D01*
X39560500Y-104827606D01*
X39560500Y-116522500D01*
X39562940Y-116547276D01*
X39570167Y-116571101D01*
X39581903Y-116593057D01*
X39597697Y-116612303D01*
X40232697Y-117247303D01*
X40251943Y-117263097D01*
X40273899Y-117274833D01*
X40297724Y-117282060D01*
X40322500Y-117284500D01*
X48590463Y-117284500D01*
X48596678Y-117315745D01*
X48719626Y-117612568D01*
X48898119Y-117879702D01*
X49125298Y-118106881D01*
X49392432Y-118285374D01*
X49689255Y-118408322D01*
X50004360Y-118471000D01*
X50325640Y-118471000D01*
X50640745Y-118408322D01*
X50937568Y-118285374D01*
X51204702Y-118106881D01*
X51431881Y-117879702D01*
X51610374Y-117612568D01*
X51733322Y-117315745D01*
X51739537Y-117284500D01*
X58737500Y-117284500D01*
X58762276Y-117282060D01*
X58786101Y-117274833D01*
X58808057Y-117263097D01*
X58827303Y-117247303D01*
X59462303Y-116612303D01*
X59478097Y-116593057D01*
X59489833Y-116571101D01*
X59497060Y-116547276D01*
X59499500Y-116522500D01*
X59499500Y-111760000D01*
X59497060Y-111735224D01*
X59489833Y-111711399D01*
X59478097Y-111689443D01*
X59462303Y-111670197D01*
X58864500Y-111072394D01*
X58864500Y-110424897D01*
X59346500Y-110424897D01*
X59346500Y-110555103D01*
X59371902Y-110682807D01*
X59421730Y-110803101D01*
X59494068Y-110911363D01*
X59586137Y-111003432D01*
X59694399Y-111075770D01*
X59814693Y-111125598D01*
X59942397Y-111151000D01*
X60072603Y-111151000D01*
X60200307Y-111125598D01*
X60320601Y-111075770D01*
X60428863Y-111003432D01*
X60520932Y-110911363D01*
X60593270Y-110803101D01*
X60643098Y-110682807D01*
X60668500Y-110555103D01*
X60668500Y-110424897D01*
X60643098Y-110297193D01*
X60593270Y-110176899D01*
X60520932Y-110068637D01*
X60428863Y-109976568D01*
X60320601Y-109904230D01*
X60200307Y-109854402D01*
X60072603Y-109829000D01*
X59942397Y-109829000D01*
X59814693Y-109854402D01*
X59694399Y-109904230D01*
X59586137Y-109976568D01*
X59494068Y-110068637D01*
X59421730Y-110176899D01*
X59371902Y-110297193D01*
X59346500Y-110424897D01*
X58864500Y-110424897D01*
X58864500Y-101970106D01*
X59107606Y-101727000D01*
X59954894Y-101727000D01*
X60198000Y-101970106D01*
%TA.AperFunction,Conductor*%
D23*
G36*
X60198000Y-101970106D02*
G01*
X60198000Y-102182394D01*
X59954894Y-102425500D01*
X59690000Y-102425500D01*
X59665224Y-102427940D01*
X59641399Y-102435167D01*
X59619443Y-102446903D01*
X59600197Y-102462697D01*
X59282697Y-102780197D01*
X59266903Y-102799443D01*
X59255167Y-102821399D01*
X59247940Y-102845224D01*
X59245500Y-102870000D01*
X59245500Y-108902500D01*
X59247940Y-108927276D01*
X59255167Y-108951101D01*
X59266903Y-108973057D01*
X59282697Y-108992303D01*
X59600197Y-109309803D01*
X59619443Y-109325597D01*
X59641399Y-109337333D01*
X59665224Y-109344560D01*
X59690000Y-109347000D01*
X62177394Y-109347000D01*
X62420500Y-109590106D01*
X62420500Y-111100189D01*
X62181265Y-111315500D01*
X61595000Y-111315500D01*
X61570224Y-111317940D01*
X61546399Y-111325167D01*
X61524443Y-111336903D01*
X61505197Y-111352697D01*
X61187697Y-111670197D01*
X61171903Y-111689443D01*
X61160167Y-111711399D01*
X61152940Y-111735224D01*
X61150500Y-111760000D01*
X61150500Y-115887500D01*
X61152940Y-115912276D01*
X61160167Y-115936101D01*
X61171903Y-115958057D01*
X61187697Y-115977303D01*
X61822697Y-116612303D01*
X61841943Y-116628097D01*
X61863899Y-116639833D01*
X61887724Y-116647060D01*
X61912500Y-116649500D01*
X95197394Y-116649500D01*
X99922697Y-121374803D01*
X99941943Y-121390597D01*
X99963899Y-121402333D01*
X99987724Y-121409560D01*
X100012500Y-121412000D01*
X159067500Y-121412000D01*
X159092276Y-121409560D01*
X159116101Y-121402333D01*
X159138057Y-121390597D01*
X159157303Y-121374803D01*
X159804682Y-120727424D01*
X203327000Y-120727424D01*
X203327000Y-120952576D01*
X203370925Y-121173401D01*
X203457087Y-121381413D01*
X203582174Y-121568620D01*
X203741380Y-121727826D01*
X203928587Y-121852913D01*
X204136599Y-121939075D01*
X204357424Y-121983000D01*
X204582576Y-121983000D01*
X204803401Y-121939075D01*
X205011413Y-121852913D01*
X205198620Y-121727826D01*
X205357826Y-121568620D01*
X205482913Y-121381413D01*
X205569075Y-121173401D01*
X205613000Y-120952576D01*
X205613000Y-120727424D01*
X205569075Y-120506599D01*
X205482913Y-120298587D01*
X205357826Y-120111380D01*
X205198620Y-119952174D01*
X205011413Y-119827087D01*
X204803401Y-119740925D01*
X204582576Y-119697000D01*
X204357424Y-119697000D01*
X204136599Y-119740925D01*
X203928587Y-119827087D01*
X203741380Y-119952174D01*
X203582174Y-120111380D01*
X203457087Y-120298587D01*
X203370925Y-120506599D01*
X203327000Y-120727424D01*
X159804682Y-120727424D01*
X162954606Y-117577500D01*
X164969657Y-117577500D01*
X164969657Y-119277500D01*
X164977013Y-119352189D01*
X164998799Y-119424008D01*
X165034178Y-119490196D01*
X165081789Y-119548211D01*
X165139804Y-119595822D01*
X165205992Y-119631201D01*
X165277811Y-119652987D01*
X165352500Y-119660343D01*
X166752500Y-119660343D01*
X166827189Y-119652987D01*
X166899008Y-119631201D01*
X166965196Y-119595822D01*
X167023211Y-119548211D01*
X167070822Y-119490196D01*
X167106201Y-119424008D01*
X167127987Y-119352189D01*
X167135343Y-119277500D01*
X167135343Y-118224401D01*
X167511500Y-118224401D01*
X167511500Y-118630600D01*
X167527142Y-118789413D01*
X167588954Y-118993182D01*
X167689333Y-119180977D01*
X167824420Y-119345581D01*
X167989024Y-119480667D01*
X168176819Y-119581046D01*
X168380588Y-119642858D01*
X168592500Y-119663730D01*
X168804413Y-119642858D01*
X169008182Y-119581046D01*
X169195977Y-119480667D01*
X169360581Y-119345581D01*
X169495667Y-119180977D01*
X169596046Y-118993181D01*
X169657858Y-118789412D01*
X169673500Y-118630599D01*
X169673500Y-118224401D01*
X170051500Y-118224401D01*
X170051500Y-118630600D01*
X170067142Y-118789413D01*
X170128954Y-118993182D01*
X170229333Y-119180977D01*
X170364420Y-119345581D01*
X170529024Y-119480667D01*
X170716819Y-119581046D01*
X170920588Y-119642858D01*
X171132500Y-119663730D01*
X171344413Y-119642858D01*
X171548182Y-119581046D01*
X171735977Y-119480667D01*
X171900581Y-119345581D01*
X172035667Y-119180977D01*
X172136046Y-118993181D01*
X172197858Y-118789412D01*
X172213500Y-118630599D01*
X172213500Y-118224401D01*
X172591500Y-118224401D01*
X172591500Y-118630600D01*
X172607142Y-118789413D01*
X172668954Y-118993182D01*
X172769333Y-119180977D01*
X172904420Y-119345581D01*
X173069024Y-119480667D01*
X173256819Y-119581046D01*
X173460588Y-119642858D01*
X173672500Y-119663730D01*
X173884413Y-119642858D01*
X174088182Y-119581046D01*
X174275977Y-119480667D01*
X174440581Y-119345581D01*
X174575667Y-119180977D01*
X174676046Y-118993181D01*
X174737858Y-118789412D01*
X174753500Y-118630599D01*
X174753500Y-118224400D01*
X174737858Y-118065587D01*
X174676046Y-117861818D01*
X174575667Y-117674023D01*
X174440581Y-117509419D01*
X174275977Y-117374333D01*
X174088181Y-117273954D01*
X173884412Y-117212142D01*
X173672500Y-117191270D01*
X173460587Y-117212142D01*
X173256818Y-117273954D01*
X173069023Y-117374333D01*
X172904419Y-117509419D01*
X172769333Y-117674023D01*
X172668954Y-117861819D01*
X172607142Y-118065588D01*
X172591500Y-118224401D01*
X172213500Y-118224401D01*
X172213500Y-118224400D01*
X172197858Y-118065587D01*
X172136046Y-117861818D01*
X172035667Y-117674023D01*
X171900581Y-117509419D01*
X171735977Y-117374333D01*
X171548181Y-117273954D01*
X171344412Y-117212142D01*
X171132500Y-117191270D01*
X170920587Y-117212142D01*
X170716818Y-117273954D01*
X170529023Y-117374333D01*
X170364419Y-117509419D01*
X170229333Y-117674023D01*
X170128954Y-117861819D01*
X170067142Y-118065588D01*
X170051500Y-118224401D01*
X169673500Y-118224401D01*
X169673500Y-118224400D01*
X169657858Y-118065587D01*
X169596046Y-117861818D01*
X169495667Y-117674023D01*
X169360581Y-117509419D01*
X169195977Y-117374333D01*
X169008181Y-117273954D01*
X168804412Y-117212142D01*
X168592500Y-117191270D01*
X168380587Y-117212142D01*
X168176818Y-117273954D01*
X167989023Y-117374333D01*
X167824419Y-117509419D01*
X167689333Y-117674023D01*
X167588954Y-117861819D01*
X167527142Y-118065588D01*
X167511500Y-118224401D01*
X167135343Y-118224401D01*
X167135343Y-117577500D01*
X167127987Y-117502811D01*
X167106201Y-117430992D01*
X167070822Y-117364804D01*
X167023211Y-117306789D01*
X166965196Y-117259178D01*
X166899008Y-117223799D01*
X166827189Y-117202013D01*
X166752500Y-117194657D01*
X165352500Y-117194657D01*
X165277811Y-117202013D01*
X165205992Y-117223799D01*
X165139804Y-117259178D01*
X165081789Y-117306789D01*
X165034178Y-117364804D01*
X164998799Y-117430992D01*
X164977013Y-117502811D01*
X164969657Y-117577500D01*
X162954606Y-117577500D01*
X163882606Y-116649500D01*
X179705000Y-116649500D01*
X179729776Y-116647060D01*
X179753601Y-116639833D01*
X179775557Y-116628097D01*
X179794803Y-116612303D01*
X180429803Y-115977303D01*
X180445597Y-115958057D01*
X180457333Y-115936101D01*
X180464560Y-115912276D01*
X180467000Y-115887500D01*
X180467000Y-103240106D01*
X181027606Y-102679500D01*
X186954894Y-102679500D01*
X187198000Y-102922606D01*
X187198000Y-104404894D01*
X186954894Y-104648000D01*
X183197500Y-104648000D01*
X183172724Y-104650440D01*
X183148899Y-104657667D01*
X183126943Y-104669403D01*
X183107697Y-104685197D01*
X182472697Y-105320197D01*
X182456903Y-105339443D01*
X182445167Y-105361399D01*
X182437940Y-105385224D01*
X182435500Y-105410000D01*
X182435500Y-115570000D01*
X182437940Y-115594776D01*
X182445167Y-115618601D01*
X182456903Y-115640557D01*
X182472697Y-115659803D01*
X184060197Y-117247303D01*
X184079443Y-117263097D01*
X184101399Y-117274833D01*
X184125224Y-117282060D01*
X184150000Y-117284500D01*
X184476449Y-117284500D01*
X184449289Y-117306789D01*
X184401678Y-117364804D01*
X184366299Y-117430992D01*
X184344513Y-117502811D01*
X184337157Y-117577500D01*
X184337157Y-119277500D01*
X184344513Y-119352189D01*
X184366299Y-119424008D01*
X184401678Y-119490196D01*
X184449289Y-119548211D01*
X184507304Y-119595822D01*
X184573492Y-119631201D01*
X184645311Y-119652987D01*
X184720000Y-119660343D01*
X186120000Y-119660343D01*
X186194689Y-119652987D01*
X186266508Y-119631201D01*
X186332696Y-119595822D01*
X186390711Y-119548211D01*
X186438322Y-119490196D01*
X186473701Y-119424008D01*
X186495487Y-119352189D01*
X186502843Y-119277500D01*
X186502843Y-117577500D01*
X186495487Y-117502811D01*
X186473701Y-117430992D01*
X186438322Y-117364804D01*
X186390711Y-117306789D01*
X186363551Y-117284500D01*
X187524588Y-117284500D01*
X187356523Y-117374333D01*
X187191919Y-117509419D01*
X187056833Y-117674023D01*
X186956454Y-117861819D01*
X186894642Y-118065588D01*
X186879000Y-118224401D01*
X186879000Y-118630600D01*
X186894642Y-118789413D01*
X186956454Y-118993182D01*
X187056833Y-119180977D01*
X187191920Y-119345581D01*
X187356524Y-119480667D01*
X187544319Y-119581046D01*
X187748088Y-119642858D01*
X187960000Y-119663730D01*
X188171913Y-119642858D01*
X188375682Y-119581046D01*
X188563477Y-119480667D01*
X188728081Y-119345581D01*
X188863167Y-119180977D01*
X188963546Y-118993181D01*
X189025358Y-118789412D01*
X189041000Y-118630599D01*
X189041000Y-118224400D01*
X189025358Y-118065587D01*
X188963546Y-117861818D01*
X188863167Y-117674023D01*
X188728081Y-117509419D01*
X188563477Y-117374333D01*
X188395411Y-117284500D01*
X190064588Y-117284500D01*
X189896523Y-117374333D01*
X189731919Y-117509419D01*
X189596833Y-117674023D01*
X189496454Y-117861819D01*
X189434642Y-118065588D01*
X189419000Y-118224401D01*
X189419000Y-118630600D01*
X189434642Y-118789413D01*
X189496454Y-118993182D01*
X189596833Y-119180977D01*
X189731920Y-119345581D01*
X189896524Y-119480667D01*
X190084319Y-119581046D01*
X190288088Y-119642858D01*
X190500000Y-119663730D01*
X190711913Y-119642858D01*
X190915682Y-119581046D01*
X191103477Y-119480667D01*
X191268081Y-119345581D01*
X191403167Y-119180977D01*
X191503546Y-118993181D01*
X191565358Y-118789412D01*
X191581000Y-118630599D01*
X191581000Y-118224401D01*
X191959000Y-118224401D01*
X191959000Y-118630600D01*
X191974642Y-118789413D01*
X192036454Y-118993182D01*
X192136833Y-119180977D01*
X192271920Y-119345581D01*
X192436524Y-119480667D01*
X192624319Y-119581046D01*
X192828088Y-119642858D01*
X193040000Y-119663730D01*
X193251913Y-119642858D01*
X193455682Y-119581046D01*
X193643477Y-119480667D01*
X193808081Y-119345581D01*
X193943167Y-119180977D01*
X194043546Y-118993181D01*
X194105358Y-118789412D01*
X194121000Y-118630599D01*
X194121000Y-118224400D01*
X194105358Y-118065587D01*
X194043546Y-117861818D01*
X194013479Y-117805565D01*
X203684040Y-117805565D01*
X203751020Y-118045656D01*
X204000048Y-118162756D01*
X204267135Y-118229023D01*
X204542017Y-118241910D01*
X204814133Y-118200922D01*
X205073023Y-118107636D01*
X205188980Y-118045656D01*
X205255960Y-117805565D01*
X204470000Y-117019605D01*
X203684040Y-117805565D01*
X194013479Y-117805565D01*
X193943167Y-117674023D01*
X193808081Y-117509419D01*
X193643477Y-117374333D01*
X193455681Y-117273954D01*
X193251912Y-117212142D01*
X193040000Y-117191270D01*
X192828087Y-117212142D01*
X192624318Y-117273954D01*
X192436523Y-117374333D01*
X192271919Y-117509419D01*
X192136833Y-117674023D01*
X192036454Y-117861819D01*
X191974642Y-118065588D01*
X191959000Y-118224401D01*
X191581000Y-118224401D01*
X191581000Y-118224400D01*
X191565358Y-118065587D01*
X191503546Y-117861818D01*
X191403167Y-117674023D01*
X191268081Y-117509419D01*
X191103477Y-117374333D01*
X190915681Y-117273954D01*
X190885100Y-117264678D01*
X190888057Y-117263097D01*
X190907303Y-117247303D01*
X191242589Y-116912017D01*
X203068090Y-116912017D01*
X203109078Y-117184133D01*
X203202364Y-117443023D01*
X203264344Y-117558980D01*
X203504435Y-117625960D01*
X204290395Y-116840000D01*
X204649605Y-116840000D01*
X205435565Y-117625960D01*
X205675656Y-117558980D01*
X205792756Y-117309952D01*
X205859023Y-117042865D01*
X205871910Y-116767983D01*
X205830922Y-116495867D01*
X205737636Y-116236977D01*
X205675656Y-116121020D01*
X205435565Y-116054040D01*
X204649605Y-116840000D01*
X204290395Y-116840000D01*
X203504435Y-116054040D01*
X203264344Y-116121020D01*
X203147244Y-116370048D01*
X203080977Y-116637135D01*
X203068090Y-116912017D01*
X191242589Y-116912017D01*
X192280171Y-115874435D01*
X203684040Y-115874435D01*
X204470000Y-116660395D01*
X205255960Y-115874435D01*
X205188980Y-115634344D01*
X204939952Y-115517244D01*
X204672865Y-115450977D01*
X204397983Y-115438090D01*
X204125867Y-115479078D01*
X203866977Y-115572364D01*
X203751020Y-115634344D01*
X203684040Y-115874435D01*
X192280171Y-115874435D01*
X192775106Y-115379500D01*
X210767394Y-115379500D01*
X211328000Y-115940106D01*
X211328000Y-123137394D01*
X210767394Y-123698000D01*
X25770106Y-123698000D01*
X25209500Y-123137394D01*
X25209500Y-122934397D01*
X32041500Y-122934397D01*
X32041500Y-123064603D01*
X32066902Y-123192307D01*
X32116730Y-123312601D01*
X32189068Y-123420863D01*
X32281137Y-123512932D01*
X32389399Y-123585270D01*
X32509693Y-123635098D01*
X32637397Y-123660500D01*
X32767603Y-123660500D01*
X32895307Y-123635098D01*
X33015601Y-123585270D01*
X33123863Y-123512932D01*
X33215932Y-123420863D01*
X33288270Y-123312601D01*
X33338098Y-123192307D01*
X33363500Y-123064603D01*
X33363500Y-122934397D01*
X55854000Y-122934397D01*
X55854000Y-123064603D01*
X55879402Y-123192307D01*
X55929230Y-123312601D01*
X56001568Y-123420863D01*
X56093637Y-123512932D01*
X56201899Y-123585270D01*
X56322193Y-123635098D01*
X56449897Y-123660500D01*
X56580103Y-123660500D01*
X56707807Y-123635098D01*
X56828101Y-123585270D01*
X56936363Y-123512932D01*
X57028432Y-123420863D01*
X57100770Y-123312601D01*
X57150598Y-123192307D01*
X57176000Y-123064603D01*
X57176000Y-122934397D01*
X57150598Y-122806693D01*
X57100770Y-122686399D01*
X57028432Y-122578137D01*
X56936363Y-122486068D01*
X56828101Y-122413730D01*
X56707807Y-122363902D01*
X56580103Y-122338500D01*
X56449897Y-122338500D01*
X56322193Y-122363902D01*
X56201899Y-122413730D01*
X56093637Y-122486068D01*
X56001568Y-122578137D01*
X55929230Y-122686399D01*
X55879402Y-122806693D01*
X55854000Y-122934397D01*
X33363500Y-122934397D01*
X33338098Y-122806693D01*
X33288270Y-122686399D01*
X33215932Y-122578137D01*
X33123863Y-122486068D01*
X33015601Y-122413730D01*
X32895307Y-122363902D01*
X32767603Y-122338500D01*
X32637397Y-122338500D01*
X32509693Y-122363902D01*
X32389399Y-122413730D01*
X32281137Y-122486068D01*
X32189068Y-122578137D01*
X32116730Y-122686399D01*
X32066902Y-122806693D01*
X32041500Y-122934397D01*
X25209500Y-122934397D01*
X25209500Y-121854897D01*
X194919000Y-121854897D01*
X194919000Y-121985103D01*
X194944402Y-122112807D01*
X194994230Y-122233101D01*
X195066568Y-122341363D01*
X195158637Y-122433432D01*
X195266899Y-122505770D01*
X195387193Y-122555598D01*
X195514897Y-122581000D01*
X195645103Y-122581000D01*
X195772807Y-122555598D01*
X195893101Y-122505770D01*
X196001363Y-122433432D01*
X196093432Y-122341363D01*
X196165770Y-122233101D01*
X196215598Y-122112807D01*
X196241000Y-121985103D01*
X196241000Y-121854897D01*
X196215598Y-121727193D01*
X196165770Y-121606899D01*
X196093432Y-121498637D01*
X196001363Y-121406568D01*
X195893101Y-121334230D01*
X195772807Y-121284402D01*
X195645103Y-121259000D01*
X195514897Y-121259000D01*
X195387193Y-121284402D01*
X195266899Y-121334230D01*
X195158637Y-121406568D01*
X195066568Y-121498637D01*
X194994230Y-121606899D01*
X194944402Y-121727193D01*
X194919000Y-121854897D01*
X25209500Y-121854897D01*
X25209500Y-121092897D01*
X29819000Y-121092897D01*
X29819000Y-121223103D01*
X29844402Y-121350807D01*
X29894230Y-121471101D01*
X29966568Y-121579363D01*
X30058637Y-121671432D01*
X30166899Y-121743770D01*
X30287193Y-121793598D01*
X30414897Y-121819000D01*
X30545103Y-121819000D01*
X30672807Y-121793598D01*
X30793101Y-121743770D01*
X30901363Y-121671432D01*
X30993432Y-121579363D01*
X31065770Y-121471101D01*
X31115598Y-121350807D01*
X31141000Y-121223103D01*
X31141000Y-121092897D01*
X31115598Y-120965193D01*
X31065770Y-120844899D01*
X30993432Y-120736637D01*
X30901363Y-120644568D01*
X30793101Y-120572230D01*
X30672807Y-120522402D01*
X30545103Y-120497000D01*
X30414897Y-120497000D01*
X30287193Y-120522402D01*
X30166899Y-120572230D01*
X30058637Y-120644568D01*
X29966568Y-120736637D01*
X29894230Y-120844899D01*
X29844402Y-120965193D01*
X29819000Y-121092897D01*
X25209500Y-121092897D01*
X25209500Y-120397057D01*
X25334897Y-120422000D01*
X25465103Y-120422000D01*
X25592807Y-120396598D01*
X25713101Y-120346770D01*
X25821363Y-120274432D01*
X25828398Y-120267397D01*
X59664000Y-120267397D01*
X59664000Y-120397603D01*
X59689402Y-120525307D01*
X59739230Y-120645601D01*
X59811568Y-120753863D01*
X59903637Y-120845932D01*
X60011899Y-120918270D01*
X60132193Y-120968098D01*
X60259897Y-120993500D01*
X60390103Y-120993500D01*
X60517807Y-120968098D01*
X60638101Y-120918270D01*
X60746363Y-120845932D01*
X60778795Y-120813500D01*
X62206374Y-120813500D01*
X62230000Y-120815827D01*
X62253626Y-120813500D01*
X62324292Y-120806540D01*
X62414961Y-120779036D01*
X62498522Y-120734372D01*
X62571764Y-120674264D01*
X62586830Y-120655906D01*
X63188406Y-120054330D01*
X63206764Y-120039264D01*
X63266872Y-119966022D01*
X63288633Y-119925309D01*
X63311536Y-119882462D01*
X63339040Y-119791793D01*
X63348327Y-119697500D01*
X63346000Y-119673874D01*
X63346000Y-118563795D01*
X63378432Y-118531363D01*
X63450770Y-118423101D01*
X63500598Y-118302807D01*
X63526000Y-118175103D01*
X63526000Y-118044897D01*
X63500598Y-117917193D01*
X63450770Y-117796899D01*
X63378432Y-117688637D01*
X63286363Y-117596568D01*
X63257826Y-117577500D01*
X64957157Y-117577500D01*
X64957157Y-119277500D01*
X64964513Y-119352189D01*
X64986299Y-119424008D01*
X65021678Y-119490196D01*
X65069289Y-119548211D01*
X65127304Y-119595822D01*
X65193492Y-119631201D01*
X65265311Y-119652987D01*
X65340000Y-119660343D01*
X66740000Y-119660343D01*
X66814689Y-119652987D01*
X66886508Y-119631201D01*
X66952696Y-119595822D01*
X67010711Y-119548211D01*
X67058322Y-119490196D01*
X67093701Y-119424008D01*
X67115487Y-119352189D01*
X67122843Y-119277500D01*
X67122843Y-118224401D01*
X67499000Y-118224401D01*
X67499000Y-118630600D01*
X67514642Y-118789413D01*
X67576454Y-118993182D01*
X67676833Y-119180977D01*
X67811920Y-119345581D01*
X67976524Y-119480667D01*
X68164319Y-119581046D01*
X68368088Y-119642858D01*
X68580000Y-119663730D01*
X68791913Y-119642858D01*
X68995682Y-119581046D01*
X69183477Y-119480667D01*
X69348081Y-119345581D01*
X69483167Y-119180977D01*
X69583546Y-118993181D01*
X69645358Y-118789412D01*
X69661000Y-118630599D01*
X69661000Y-118224401D01*
X70039000Y-118224401D01*
X70039000Y-118630600D01*
X70054642Y-118789413D01*
X70116454Y-118993182D01*
X70216833Y-119180977D01*
X70351920Y-119345581D01*
X70516524Y-119480667D01*
X70704319Y-119581046D01*
X70908088Y-119642858D01*
X71120000Y-119663730D01*
X71331913Y-119642858D01*
X71535682Y-119581046D01*
X71723477Y-119480667D01*
X71888081Y-119345581D01*
X72023167Y-119180977D01*
X72123546Y-118993181D01*
X72185358Y-118789412D01*
X72201000Y-118630599D01*
X72201000Y-118224401D01*
X72579000Y-118224401D01*
X72579000Y-118630600D01*
X72594642Y-118789413D01*
X72656454Y-118993182D01*
X72756833Y-119180977D01*
X72891920Y-119345581D01*
X73056524Y-119480667D01*
X73244319Y-119581046D01*
X73448088Y-119642858D01*
X73660000Y-119663730D01*
X73871913Y-119642858D01*
X74075682Y-119581046D01*
X74263477Y-119480667D01*
X74428081Y-119345581D01*
X74563167Y-119180977D01*
X74663546Y-118993181D01*
X74725358Y-118789412D01*
X74741000Y-118630599D01*
X74741000Y-118224400D01*
X74725358Y-118065587D01*
X74663546Y-117861818D01*
X74563167Y-117674023D01*
X74483954Y-117577500D01*
X84324657Y-117577500D01*
X84324657Y-119277500D01*
X84332013Y-119352189D01*
X84353799Y-119424008D01*
X84389178Y-119490196D01*
X84436789Y-119548211D01*
X84494804Y-119595822D01*
X84560992Y-119631201D01*
X84632811Y-119652987D01*
X84707500Y-119660343D01*
X86107500Y-119660343D01*
X86182189Y-119652987D01*
X86254008Y-119631201D01*
X86320196Y-119595822D01*
X86378211Y-119548211D01*
X86425822Y-119490196D01*
X86461201Y-119424008D01*
X86482987Y-119352189D01*
X86490343Y-119277500D01*
X86490343Y-118224401D01*
X86866500Y-118224401D01*
X86866500Y-118630600D01*
X86882142Y-118789413D01*
X86943954Y-118993182D01*
X87044333Y-119180977D01*
X87179420Y-119345581D01*
X87344024Y-119480667D01*
X87531819Y-119581046D01*
X87735588Y-119642858D01*
X87947500Y-119663730D01*
X88159413Y-119642858D01*
X88363182Y-119581046D01*
X88550977Y-119480667D01*
X88715581Y-119345581D01*
X88850667Y-119180977D01*
X88951046Y-118993181D01*
X89012858Y-118789412D01*
X89028500Y-118630599D01*
X89028500Y-118224401D01*
X89406500Y-118224401D01*
X89406500Y-118630600D01*
X89422142Y-118789413D01*
X89483954Y-118993182D01*
X89584333Y-119180977D01*
X89719420Y-119345581D01*
X89884024Y-119480667D01*
X90071819Y-119581046D01*
X90275588Y-119642858D01*
X90487500Y-119663730D01*
X90699413Y-119642858D01*
X90903182Y-119581046D01*
X91090977Y-119480667D01*
X91255581Y-119345581D01*
X91390667Y-119180977D01*
X91491046Y-118993181D01*
X91552858Y-118789412D01*
X91568500Y-118630599D01*
X91568500Y-118224401D01*
X91946500Y-118224401D01*
X91946500Y-118630600D01*
X91962142Y-118789413D01*
X92023954Y-118993182D01*
X92124333Y-119180977D01*
X92259420Y-119345581D01*
X92424024Y-119480667D01*
X92611819Y-119581046D01*
X92815588Y-119642858D01*
X93027500Y-119663730D01*
X93239413Y-119642858D01*
X93443182Y-119581046D01*
X93630977Y-119480667D01*
X93795581Y-119345581D01*
X93930667Y-119180977D01*
X94031046Y-118993181D01*
X94092858Y-118789412D01*
X94108500Y-118630599D01*
X94108500Y-118224400D01*
X94092858Y-118065587D01*
X94031046Y-117861818D01*
X93930667Y-117674023D01*
X93795581Y-117509419D01*
X93630977Y-117374333D01*
X93443181Y-117273954D01*
X93239412Y-117212142D01*
X93027500Y-117191270D01*
X92815587Y-117212142D01*
X92611818Y-117273954D01*
X92424023Y-117374333D01*
X92259419Y-117509419D01*
X92124333Y-117674023D01*
X92023954Y-117861819D01*
X91962142Y-118065588D01*
X91946500Y-118224401D01*
X91568500Y-118224401D01*
X91568500Y-118224400D01*
X91552858Y-118065587D01*
X91491046Y-117861818D01*
X91390667Y-117674023D01*
X91255581Y-117509419D01*
X91090977Y-117374333D01*
X90903181Y-117273954D01*
X90699412Y-117212142D01*
X90487500Y-117191270D01*
X90275587Y-117212142D01*
X90071818Y-117273954D01*
X89884023Y-117374333D01*
X89719419Y-117509419D01*
X89584333Y-117674023D01*
X89483954Y-117861819D01*
X89422142Y-118065588D01*
X89406500Y-118224401D01*
X89028500Y-118224401D01*
X89028500Y-118224400D01*
X89012858Y-118065587D01*
X88951046Y-117861818D01*
X88850667Y-117674023D01*
X88715581Y-117509419D01*
X88550977Y-117374333D01*
X88363181Y-117273954D01*
X88159412Y-117212142D01*
X87947500Y-117191270D01*
X87735587Y-117212142D01*
X87531818Y-117273954D01*
X87344023Y-117374333D01*
X87179419Y-117509419D01*
X87044333Y-117674023D01*
X86943954Y-117861819D01*
X86882142Y-118065588D01*
X86866500Y-118224401D01*
X86490343Y-118224401D01*
X86490343Y-117577500D01*
X86482987Y-117502811D01*
X86461201Y-117430992D01*
X86425822Y-117364804D01*
X86378211Y-117306789D01*
X86320196Y-117259178D01*
X86254008Y-117223799D01*
X86182189Y-117202013D01*
X86107500Y-117194657D01*
X84707500Y-117194657D01*
X84632811Y-117202013D01*
X84560992Y-117223799D01*
X84494804Y-117259178D01*
X84436789Y-117306789D01*
X84389178Y-117364804D01*
X84353799Y-117430992D01*
X84332013Y-117502811D01*
X84324657Y-117577500D01*
X74483954Y-117577500D01*
X74428081Y-117509419D01*
X74263477Y-117374333D01*
X74075681Y-117273954D01*
X73871912Y-117212142D01*
X73660000Y-117191270D01*
X73448087Y-117212142D01*
X73244318Y-117273954D01*
X73056523Y-117374333D01*
X72891919Y-117509419D01*
X72756833Y-117674023D01*
X72656454Y-117861819D01*
X72594642Y-118065588D01*
X72579000Y-118224401D01*
X72201000Y-118224401D01*
X72201000Y-118224400D01*
X72185358Y-118065587D01*
X72123546Y-117861818D01*
X72023167Y-117674023D01*
X71888081Y-117509419D01*
X71723477Y-117374333D01*
X71535681Y-117273954D01*
X71331912Y-117212142D01*
X71120000Y-117191270D01*
X70908087Y-117212142D01*
X70704318Y-117273954D01*
X70516523Y-117374333D01*
X70351919Y-117509419D01*
X70216833Y-117674023D01*
X70116454Y-117861819D01*
X70054642Y-118065588D01*
X70039000Y-118224401D01*
X69661000Y-118224401D01*
X69661000Y-118224400D01*
X69645358Y-118065587D01*
X69583546Y-117861818D01*
X69483167Y-117674023D01*
X69348081Y-117509419D01*
X69183477Y-117374333D01*
X68995681Y-117273954D01*
X68791912Y-117212142D01*
X68580000Y-117191270D01*
X68368087Y-117212142D01*
X68164318Y-117273954D01*
X67976523Y-117374333D01*
X67811919Y-117509419D01*
X67676833Y-117674023D01*
X67576454Y-117861819D01*
X67514642Y-118065588D01*
X67499000Y-118224401D01*
X67122843Y-118224401D01*
X67122843Y-117577500D01*
X67115487Y-117502811D01*
X67093701Y-117430992D01*
X67058322Y-117364804D01*
X67010711Y-117306789D01*
X66952696Y-117259178D01*
X66886508Y-117223799D01*
X66814689Y-117202013D01*
X66740000Y-117194657D01*
X65340000Y-117194657D01*
X65265311Y-117202013D01*
X65193492Y-117223799D01*
X65127304Y-117259178D01*
X65069289Y-117306789D01*
X65021678Y-117364804D01*
X64986299Y-117430992D01*
X64964513Y-117502811D01*
X64957157Y-117577500D01*
X63257826Y-117577500D01*
X63178101Y-117524230D01*
X63057807Y-117474402D01*
X62930103Y-117449000D01*
X62799897Y-117449000D01*
X62672193Y-117474402D01*
X62551899Y-117524230D01*
X62443637Y-117596568D01*
X62351568Y-117688637D01*
X62279230Y-117796899D01*
X62229402Y-117917193D01*
X62204000Y-118044897D01*
X62204000Y-118175103D01*
X62229402Y-118302807D01*
X62279230Y-118423101D01*
X62351568Y-118531363D01*
X62384000Y-118563795D01*
X62384001Y-119498263D01*
X62030764Y-119851500D01*
X60778795Y-119851500D01*
X60746363Y-119819068D01*
X60638101Y-119746730D01*
X60517807Y-119696902D01*
X60390103Y-119671500D01*
X60259897Y-119671500D01*
X60132193Y-119696902D01*
X60011899Y-119746730D01*
X59903637Y-119819068D01*
X59811568Y-119911137D01*
X59739230Y-120019399D01*
X59689402Y-120139693D01*
X59664000Y-120267397D01*
X25828398Y-120267397D01*
X25913432Y-120182363D01*
X25985770Y-120074101D01*
X26035598Y-119953807D01*
X26058448Y-119838932D01*
X28219181Y-117678200D01*
X31462905Y-117678200D01*
X31465137Y-117680432D01*
X31573399Y-117752770D01*
X31693693Y-117802598D01*
X31821397Y-117828000D01*
X31951603Y-117828000D01*
X32079307Y-117802598D01*
X32199601Y-117752770D01*
X32307863Y-117680432D01*
X32340295Y-117648000D01*
X35844374Y-117648000D01*
X35868000Y-117650327D01*
X35891626Y-117648000D01*
X35962292Y-117641040D01*
X36052961Y-117613536D01*
X36136522Y-117568872D01*
X36209764Y-117508764D01*
X36224830Y-117490406D01*
X36430736Y-117284500D01*
X37782500Y-117284500D01*
X37807276Y-117282060D01*
X37831101Y-117274833D01*
X37853057Y-117263097D01*
X37872303Y-117247303D01*
X38507303Y-116612303D01*
X38523097Y-116593057D01*
X38534833Y-116571101D01*
X38542060Y-116547276D01*
X38544500Y-116522500D01*
X38544500Y-104827606D01*
X38787606Y-104584500D01*
X39317394Y-104584500D01*
X39560500Y-104827606D01*
X39560500Y-116522500D01*
X39562940Y-116547276D01*
X39570167Y-116571101D01*
X39581903Y-116593057D01*
X39597697Y-116612303D01*
X40232697Y-117247303D01*
X40251943Y-117263097D01*
X40273899Y-117274833D01*
X40297724Y-117282060D01*
X40322500Y-117284500D01*
X48590463Y-117284500D01*
X48596678Y-117315745D01*
X48719626Y-117612568D01*
X48898119Y-117879702D01*
X49125298Y-118106881D01*
X49392432Y-118285374D01*
X49689255Y-118408322D01*
X50004360Y-118471000D01*
X50325640Y-118471000D01*
X50640745Y-118408322D01*
X50937568Y-118285374D01*
X51204702Y-118106881D01*
X51431881Y-117879702D01*
X51610374Y-117612568D01*
X51733322Y-117315745D01*
X51739537Y-117284500D01*
X58737500Y-117284500D01*
X58762276Y-117282060D01*
X58786101Y-117274833D01*
X58808057Y-117263097D01*
X58827303Y-117247303D01*
X59462303Y-116612303D01*
X59478097Y-116593057D01*
X59489833Y-116571101D01*
X59497060Y-116547276D01*
X59499500Y-116522500D01*
X59499500Y-111760000D01*
X59497060Y-111735224D01*
X59489833Y-111711399D01*
X59478097Y-111689443D01*
X59462303Y-111670197D01*
X58864500Y-111072394D01*
X58864500Y-110424897D01*
X59346500Y-110424897D01*
X59346500Y-110555103D01*
X59371902Y-110682807D01*
X59421730Y-110803101D01*
X59494068Y-110911363D01*
X59586137Y-111003432D01*
X59694399Y-111075770D01*
X59814693Y-111125598D01*
X59942397Y-111151000D01*
X60072603Y-111151000D01*
X60200307Y-111125598D01*
X60320601Y-111075770D01*
X60428863Y-111003432D01*
X60520932Y-110911363D01*
X60593270Y-110803101D01*
X60643098Y-110682807D01*
X60668500Y-110555103D01*
X60668500Y-110424897D01*
X60643098Y-110297193D01*
X60593270Y-110176899D01*
X60520932Y-110068637D01*
X60428863Y-109976568D01*
X60320601Y-109904230D01*
X60200307Y-109854402D01*
X60072603Y-109829000D01*
X59942397Y-109829000D01*
X59814693Y-109854402D01*
X59694399Y-109904230D01*
X59586137Y-109976568D01*
X59494068Y-110068637D01*
X59421730Y-110176899D01*
X59371902Y-110297193D01*
X59346500Y-110424897D01*
X58864500Y-110424897D01*
X58864500Y-101970106D01*
X59107606Y-101727000D01*
X59954894Y-101727000D01*
X60198000Y-101970106D01*
G37*
%TD.AperFunction*%
%TD*%
D22*
%TO.N,+5V*%
X193230500Y-96572606D02*
X193230500Y-100065033D01*
X193040000Y-100046270D01*
X192828087Y-100067142D01*
X192624318Y-100128954D01*
X192436523Y-100229333D01*
X192271919Y-100364419D01*
X192136833Y-100529023D01*
X192036454Y-100716819D01*
X191974642Y-100920588D01*
X191959000Y-101079401D01*
X191959000Y-101485600D01*
X191974642Y-101644413D01*
X192036454Y-101848182D01*
X192136833Y-102035977D01*
X192271920Y-102200581D01*
X192436524Y-102335667D01*
X192624319Y-102436046D01*
X192828088Y-102497858D01*
X193040000Y-102518730D01*
X193230500Y-102499967D01*
X193230500Y-102552500D01*
X193232940Y-102577276D01*
X193240167Y-102601101D01*
X193251903Y-102623057D01*
X193267697Y-102642303D01*
X193902697Y-103277303D01*
X193921943Y-103293097D01*
X193943899Y-103304833D01*
X193967724Y-103312060D01*
X193992500Y-103314500D01*
X197432394Y-103314500D01*
X197993000Y-103875106D01*
X197993000Y-108214894D01*
X197749894Y-108458000D01*
X193992500Y-108458000D01*
X193967724Y-108460440D01*
X193943899Y-108467667D01*
X193921943Y-108479403D01*
X193902697Y-108495197D01*
X190410197Y-111987697D01*
X190394403Y-112006943D01*
X190382667Y-112028899D01*
X190375440Y-112052724D01*
X190373000Y-112077500D01*
X190373000Y-115517394D01*
X189812394Y-116078000D01*
X186107606Y-116078000D01*
X185547000Y-115517394D01*
X185547000Y-112655625D01*
X185642850Y-112695328D01*
X185793737Y-112725341D01*
X185947581Y-112725341D01*
X186098468Y-112695328D01*
X186240601Y-112636454D01*
X186368518Y-112550983D01*
X186477301Y-112442200D01*
X186562772Y-112314283D01*
X186621646Y-112172150D01*
X186651659Y-112021263D01*
X186651659Y-111867419D01*
X186621646Y-111716532D01*
X186562772Y-111574399D01*
X186477301Y-111446482D01*
X186368518Y-111337699D01*
X186240601Y-111252228D01*
X186098468Y-111193354D01*
X185947581Y-111163341D01*
X185793737Y-111163341D01*
X185642850Y-111193354D01*
X185547000Y-111233057D01*
X185547000Y-109272606D01*
X188204709Y-106614897D01*
X189102400Y-106614897D01*
X189102400Y-106745103D01*
X189127802Y-106872807D01*
X189177630Y-106993101D01*
X189249968Y-107101363D01*
X189304855Y-107156250D01*
X189249968Y-107211137D01*
X189177630Y-107319399D01*
X189127802Y-107439693D01*
X189102400Y-107567397D01*
X189102400Y-107697603D01*
X189127802Y-107825307D01*
X189177630Y-107945601D01*
X189249968Y-108053863D01*
X189304855Y-108108750D01*
X189249968Y-108163637D01*
X189177630Y-108271899D01*
X189127802Y-108392193D01*
X189102400Y-108519897D01*
X189102400Y-108650103D01*
X189127802Y-108777807D01*
X189177630Y-108898101D01*
X189249968Y-109006363D01*
X189342037Y-109098432D01*
X189450299Y-109170770D01*
X189570593Y-109220598D01*
X189698297Y-109246000D01*
X189828503Y-109246000D01*
X189956207Y-109220598D01*
X190076501Y-109170770D01*
X190184763Y-109098432D01*
X190226950Y-109056245D01*
X190269137Y-109098432D01*
X190377399Y-109170770D01*
X190497693Y-109220598D01*
X190625397Y-109246000D01*
X190755603Y-109246000D01*
X190883307Y-109220598D01*
X191003601Y-109170770D01*
X191111863Y-109098432D01*
X191154050Y-109056245D01*
X191196237Y-109098432D01*
X191304499Y-109170770D01*
X191424793Y-109220598D01*
X191552497Y-109246000D01*
X191682703Y-109246000D01*
X191810407Y-109220598D01*
X191930701Y-109170770D01*
X192038963Y-109098432D01*
X192131032Y-109006363D01*
X192203370Y-108898101D01*
X192253198Y-108777807D01*
X192278600Y-108650103D01*
X192278600Y-108519897D01*
X192253198Y-108392193D01*
X192203370Y-108271899D01*
X192131032Y-108163637D01*
X192076145Y-108108750D01*
X192131032Y-108053863D01*
X192203370Y-107945601D01*
X192253198Y-107825307D01*
X192278600Y-107697603D01*
X192278600Y-107567397D01*
X192253198Y-107439693D01*
X192203370Y-107319399D01*
X192131032Y-107211137D01*
X192076145Y-107156250D01*
X192131032Y-107101363D01*
X192203370Y-106993101D01*
X192253198Y-106872807D01*
X192278600Y-106745103D01*
X192278600Y-106614897D01*
X192253198Y-106487193D01*
X192203370Y-106366899D01*
X192131032Y-106258637D01*
X192038963Y-106166568D01*
X191930701Y-106094230D01*
X191810407Y-106044402D01*
X191682703Y-106019000D01*
X191552497Y-106019000D01*
X191424793Y-106044402D01*
X191304499Y-106094230D01*
X191196237Y-106166568D01*
X191154050Y-106208755D01*
X191111863Y-106166568D01*
X191003601Y-106094230D01*
X190883307Y-106044402D01*
X190755603Y-106019000D01*
X190625397Y-106019000D01*
X190497693Y-106044402D01*
X190377399Y-106094230D01*
X190269137Y-106166568D01*
X190226950Y-106208755D01*
X190184763Y-106166568D01*
X190076501Y-106094230D01*
X189956207Y-106044402D01*
X189828503Y-106019000D01*
X189698297Y-106019000D01*
X189570593Y-106044402D01*
X189450299Y-106094230D01*
X189342037Y-106166568D01*
X189249968Y-106258637D01*
X189177630Y-106366899D01*
X189127802Y-106487193D01*
X189102400Y-106614897D01*
X188204709Y-106614897D01*
X188684803Y-106134803D01*
X188700597Y-106115557D01*
X188712333Y-106093601D01*
X188719560Y-106069776D01*
X188722000Y-106045000D01*
X188722000Y-103757397D01*
X190029500Y-103757397D01*
X190029500Y-103887603D01*
X190054902Y-104015307D01*
X190104730Y-104135601D01*
X190177068Y-104243863D01*
X190269137Y-104335932D01*
X190377399Y-104408270D01*
X190497693Y-104458098D01*
X190625397Y-104483500D01*
X190755603Y-104483500D01*
X190883307Y-104458098D01*
X191003601Y-104408270D01*
X191111863Y-104335932D01*
X191203932Y-104243863D01*
X191276270Y-104135601D01*
X191326098Y-104015307D01*
X191351500Y-103887603D01*
X191351500Y-103757397D01*
X191326098Y-103629693D01*
X191276270Y-103509399D01*
X191203932Y-103401137D01*
X191111863Y-103309068D01*
X191003601Y-103236730D01*
X190883307Y-103186902D01*
X190755603Y-103161500D01*
X190625397Y-103161500D01*
X190497693Y-103186902D01*
X190377399Y-103236730D01*
X190269137Y-103309068D01*
X190177068Y-103401137D01*
X190104730Y-103509399D01*
X190054902Y-103629693D01*
X190029500Y-103757397D01*
X188722000Y-103757397D01*
X188722000Y-102205572D01*
X188728081Y-102200581D01*
X188863167Y-102035977D01*
X188963546Y-101848181D01*
X189025358Y-101644412D01*
X189041000Y-101485599D01*
X189041000Y-101079401D01*
X189419000Y-101079401D01*
X189419000Y-101485600D01*
X189434642Y-101644413D01*
X189496454Y-101848182D01*
X189596833Y-102035977D01*
X189731920Y-102200581D01*
X189896524Y-102335667D01*
X190084319Y-102436046D01*
X190288088Y-102497858D01*
X190500000Y-102518730D01*
X190711913Y-102497858D01*
X190915682Y-102436046D01*
X191103477Y-102335667D01*
X191268081Y-102200581D01*
X191403167Y-102035977D01*
X191503546Y-101848181D01*
X191565358Y-101644412D01*
X191581000Y-101485599D01*
X191581000Y-101079400D01*
X191565358Y-100920587D01*
X191503546Y-100716818D01*
X191403167Y-100529023D01*
X191268081Y-100364419D01*
X191103477Y-100229333D01*
X190915681Y-100128954D01*
X190711912Y-100067142D01*
X190500000Y-100046270D01*
X190288087Y-100067142D01*
X190084318Y-100128954D01*
X189896523Y-100229333D01*
X189731919Y-100364419D01*
X189596833Y-100529023D01*
X189496454Y-100716819D01*
X189434642Y-100920588D01*
X189419000Y-101079401D01*
X189041000Y-101079401D01*
X189041000Y-101079400D01*
X189025358Y-100920587D01*
X188963546Y-100716818D01*
X188863167Y-100529023D01*
X188728081Y-100364419D01*
X188722000Y-100359428D01*
X188722000Y-99377500D01*
X188719560Y-99352724D01*
X188712333Y-99328899D01*
X188700597Y-99306943D01*
X188684803Y-99287697D01*
X188049803Y-98652697D01*
X188030557Y-98636903D01*
X188008601Y-98625167D01*
X187984776Y-98617940D01*
X187960000Y-98615500D01*
X92392500Y-98615500D01*
X92367724Y-98617940D01*
X92343899Y-98625167D01*
X92321943Y-98636903D01*
X92302697Y-98652697D01*
X91667697Y-99287697D01*
X91651903Y-99306943D01*
X91640167Y-99328899D01*
X91632940Y-99352724D01*
X91630500Y-99377500D01*
X91630500Y-112342394D01*
X91069894Y-112903000D01*
X83872606Y-112903000D01*
X83312000Y-112342394D01*
X83312000Y-100432500D01*
X84324657Y-100432500D01*
X84324657Y-102132500D01*
X84332013Y-102207189D01*
X84353799Y-102279008D01*
X84389178Y-102345196D01*
X84436789Y-102403211D01*
X84494804Y-102450822D01*
X84560992Y-102486201D01*
X84632811Y-102507987D01*
X84707500Y-102515343D01*
X86107500Y-102515343D01*
X86182189Y-102507987D01*
X86254008Y-102486201D01*
X86320196Y-102450822D01*
X86378211Y-102403211D01*
X86425822Y-102345196D01*
X86461201Y-102279008D01*
X86482987Y-102207189D01*
X86490343Y-102132500D01*
X86490343Y-101079401D01*
X86866500Y-101079401D01*
X86866500Y-101485600D01*
X86882142Y-101644413D01*
X86943954Y-101848182D01*
X87044333Y-102035977D01*
X87179420Y-102200581D01*
X87344024Y-102335667D01*
X87531819Y-102436046D01*
X87735588Y-102497858D01*
X87947500Y-102518730D01*
X88159413Y-102497858D01*
X88363182Y-102436046D01*
X88550977Y-102335667D01*
X88715581Y-102200581D01*
X88850667Y-102035977D01*
X88951046Y-101848181D01*
X89012858Y-101644412D01*
X89028500Y-101485599D01*
X89028500Y-101079401D01*
X89406500Y-101079401D01*
X89406500Y-101485600D01*
X89422142Y-101644413D01*
X89483954Y-101848182D01*
X89584333Y-102035977D01*
X89719420Y-102200581D01*
X89884024Y-102335667D01*
X90071819Y-102436046D01*
X90275588Y-102497858D01*
X90487500Y-102518730D01*
X90699413Y-102497858D01*
X90903182Y-102436046D01*
X91090977Y-102335667D01*
X91255581Y-102200581D01*
X91390667Y-102035977D01*
X91491046Y-101848181D01*
X91552858Y-101644412D01*
X91568500Y-101485599D01*
X91568500Y-101079400D01*
X91552858Y-100920587D01*
X91491046Y-100716818D01*
X91390667Y-100529023D01*
X91255581Y-100364419D01*
X91090977Y-100229333D01*
X90903181Y-100128954D01*
X90699412Y-100067142D01*
X90487500Y-100046270D01*
X90275587Y-100067142D01*
X90071818Y-100128954D01*
X89884023Y-100229333D01*
X89719419Y-100364419D01*
X89584333Y-100529023D01*
X89483954Y-100716819D01*
X89422142Y-100920588D01*
X89406500Y-101079401D01*
X89028500Y-101079401D01*
X89028500Y-101079400D01*
X89012858Y-100920587D01*
X88951046Y-100716818D01*
X88850667Y-100529023D01*
X88715581Y-100364419D01*
X88550977Y-100229333D01*
X88363181Y-100128954D01*
X88159412Y-100067142D01*
X87947500Y-100046270D01*
X87735587Y-100067142D01*
X87531818Y-100128954D01*
X87344023Y-100229333D01*
X87179419Y-100364419D01*
X87044333Y-100529023D01*
X86943954Y-100716819D01*
X86882142Y-100920588D01*
X86866500Y-101079401D01*
X86490343Y-101079401D01*
X86490343Y-100432500D01*
X86482987Y-100357811D01*
X86461201Y-100285992D01*
X86425822Y-100219804D01*
X86378211Y-100161789D01*
X86320196Y-100114178D01*
X86254008Y-100078799D01*
X86182189Y-100057013D01*
X86107500Y-100049657D01*
X84707500Y-100049657D01*
X84632811Y-100057013D01*
X84560992Y-100078799D01*
X84494804Y-100114178D01*
X84436789Y-100161789D01*
X84389178Y-100219804D01*
X84353799Y-100285992D01*
X84332013Y-100357811D01*
X84324657Y-100432500D01*
X83312000Y-100432500D01*
X83312000Y-99377500D01*
X83309560Y-99352724D01*
X83302333Y-99328899D01*
X83290597Y-99306943D01*
X83274803Y-99287697D01*
X82639803Y-98652697D01*
X82620557Y-98636903D01*
X82598601Y-98625167D01*
X82574776Y-98617940D01*
X82550000Y-98615500D01*
X48895000Y-98615500D01*
X48870224Y-98617940D01*
X48846399Y-98625167D01*
X48824443Y-98636903D01*
X48805197Y-98652697D01*
X48170197Y-99287697D01*
X48154403Y-99306943D01*
X48142667Y-99328899D01*
X48135440Y-99352724D01*
X48133000Y-99377500D01*
X48133000Y-111389894D01*
X47572394Y-111950500D01*
X45772606Y-111950500D01*
X45212000Y-111389894D01*
X45212000Y-96572606D01*
X45772606Y-96012000D01*
X192669894Y-96012000D01*
X193230500Y-96572606D01*
%TA.AperFunction,Conductor*%
D23*
G36*
X193230500Y-96572606D02*
G01*
X193230500Y-100065033D01*
X193040000Y-100046270D01*
X192828087Y-100067142D01*
X192624318Y-100128954D01*
X192436523Y-100229333D01*
X192271919Y-100364419D01*
X192136833Y-100529023D01*
X192036454Y-100716819D01*
X191974642Y-100920588D01*
X191959000Y-101079401D01*
X191959000Y-101485600D01*
X191974642Y-101644413D01*
X192036454Y-101848182D01*
X192136833Y-102035977D01*
X192271920Y-102200581D01*
X192436524Y-102335667D01*
X192624319Y-102436046D01*
X192828088Y-102497858D01*
X193040000Y-102518730D01*
X193230500Y-102499967D01*
X193230500Y-102552500D01*
X193232940Y-102577276D01*
X193240167Y-102601101D01*
X193251903Y-102623057D01*
X193267697Y-102642303D01*
X193902697Y-103277303D01*
X193921943Y-103293097D01*
X193943899Y-103304833D01*
X193967724Y-103312060D01*
X193992500Y-103314500D01*
X197432394Y-103314500D01*
X197993000Y-103875106D01*
X197993000Y-108214894D01*
X197749894Y-108458000D01*
X193992500Y-108458000D01*
X193967724Y-108460440D01*
X193943899Y-108467667D01*
X193921943Y-108479403D01*
X193902697Y-108495197D01*
X190410197Y-111987697D01*
X190394403Y-112006943D01*
X190382667Y-112028899D01*
X190375440Y-112052724D01*
X190373000Y-112077500D01*
X190373000Y-115517394D01*
X189812394Y-116078000D01*
X186107606Y-116078000D01*
X185547000Y-115517394D01*
X185547000Y-112655625D01*
X185642850Y-112695328D01*
X185793737Y-112725341D01*
X185947581Y-112725341D01*
X186098468Y-112695328D01*
X186240601Y-112636454D01*
X186368518Y-112550983D01*
X186477301Y-112442200D01*
X186562772Y-112314283D01*
X186621646Y-112172150D01*
X186651659Y-112021263D01*
X186651659Y-111867419D01*
X186621646Y-111716532D01*
X186562772Y-111574399D01*
X186477301Y-111446482D01*
X186368518Y-111337699D01*
X186240601Y-111252228D01*
X186098468Y-111193354D01*
X185947581Y-111163341D01*
X185793737Y-111163341D01*
X185642850Y-111193354D01*
X185547000Y-111233057D01*
X185547000Y-109272606D01*
X188204709Y-106614897D01*
X189102400Y-106614897D01*
X189102400Y-106745103D01*
X189127802Y-106872807D01*
X189177630Y-106993101D01*
X189249968Y-107101363D01*
X189304855Y-107156250D01*
X189249968Y-107211137D01*
X189177630Y-107319399D01*
X189127802Y-107439693D01*
X189102400Y-107567397D01*
X189102400Y-107697603D01*
X189127802Y-107825307D01*
X189177630Y-107945601D01*
X189249968Y-108053863D01*
X189304855Y-108108750D01*
X189249968Y-108163637D01*
X189177630Y-108271899D01*
X189127802Y-108392193D01*
X189102400Y-108519897D01*
X189102400Y-108650103D01*
X189127802Y-108777807D01*
X189177630Y-108898101D01*
X189249968Y-109006363D01*
X189342037Y-109098432D01*
X189450299Y-109170770D01*
X189570593Y-109220598D01*
X189698297Y-109246000D01*
X189828503Y-109246000D01*
X189956207Y-109220598D01*
X190076501Y-109170770D01*
X190184763Y-109098432D01*
X190226950Y-109056245D01*
X190269137Y-109098432D01*
X190377399Y-109170770D01*
X190497693Y-109220598D01*
X190625397Y-109246000D01*
X190755603Y-109246000D01*
X190883307Y-109220598D01*
X191003601Y-109170770D01*
X191111863Y-109098432D01*
X191154050Y-109056245D01*
X191196237Y-109098432D01*
X191304499Y-109170770D01*
X191424793Y-109220598D01*
X191552497Y-109246000D01*
X191682703Y-109246000D01*
X191810407Y-109220598D01*
X191930701Y-109170770D01*
X192038963Y-109098432D01*
X192131032Y-109006363D01*
X192203370Y-108898101D01*
X192253198Y-108777807D01*
X192278600Y-108650103D01*
X192278600Y-108519897D01*
X192253198Y-108392193D01*
X192203370Y-108271899D01*
X192131032Y-108163637D01*
X192076145Y-108108750D01*
X192131032Y-108053863D01*
X192203370Y-107945601D01*
X192253198Y-107825307D01*
X192278600Y-107697603D01*
X192278600Y-107567397D01*
X192253198Y-107439693D01*
X192203370Y-107319399D01*
X192131032Y-107211137D01*
X192076145Y-107156250D01*
X192131032Y-107101363D01*
X192203370Y-106993101D01*
X192253198Y-106872807D01*
X192278600Y-106745103D01*
X192278600Y-106614897D01*
X192253198Y-106487193D01*
X192203370Y-106366899D01*
X192131032Y-106258637D01*
X192038963Y-106166568D01*
X191930701Y-106094230D01*
X191810407Y-106044402D01*
X191682703Y-106019000D01*
X191552497Y-106019000D01*
X191424793Y-106044402D01*
X191304499Y-106094230D01*
X191196237Y-106166568D01*
X191154050Y-106208755D01*
X191111863Y-106166568D01*
X191003601Y-106094230D01*
X190883307Y-106044402D01*
X190755603Y-106019000D01*
X190625397Y-106019000D01*
X190497693Y-106044402D01*
X190377399Y-106094230D01*
X190269137Y-106166568D01*
X190226950Y-106208755D01*
X190184763Y-106166568D01*
X190076501Y-106094230D01*
X189956207Y-106044402D01*
X189828503Y-106019000D01*
X189698297Y-106019000D01*
X189570593Y-106044402D01*
X189450299Y-106094230D01*
X189342037Y-106166568D01*
X189249968Y-106258637D01*
X189177630Y-106366899D01*
X189127802Y-106487193D01*
X189102400Y-106614897D01*
X188204709Y-106614897D01*
X188684803Y-106134803D01*
X188700597Y-106115557D01*
X188712333Y-106093601D01*
X188719560Y-106069776D01*
X188722000Y-106045000D01*
X188722000Y-103757397D01*
X190029500Y-103757397D01*
X190029500Y-103887603D01*
X190054902Y-104015307D01*
X190104730Y-104135601D01*
X190177068Y-104243863D01*
X190269137Y-104335932D01*
X190377399Y-104408270D01*
X190497693Y-104458098D01*
X190625397Y-104483500D01*
X190755603Y-104483500D01*
X190883307Y-104458098D01*
X191003601Y-104408270D01*
X191111863Y-104335932D01*
X191203932Y-104243863D01*
X191276270Y-104135601D01*
X191326098Y-104015307D01*
X191351500Y-103887603D01*
X191351500Y-103757397D01*
X191326098Y-103629693D01*
X191276270Y-103509399D01*
X191203932Y-103401137D01*
X191111863Y-103309068D01*
X191003601Y-103236730D01*
X190883307Y-103186902D01*
X190755603Y-103161500D01*
X190625397Y-103161500D01*
X190497693Y-103186902D01*
X190377399Y-103236730D01*
X190269137Y-103309068D01*
X190177068Y-103401137D01*
X190104730Y-103509399D01*
X190054902Y-103629693D01*
X190029500Y-103757397D01*
X188722000Y-103757397D01*
X188722000Y-102205572D01*
X188728081Y-102200581D01*
X188863167Y-102035977D01*
X188963546Y-101848181D01*
X189025358Y-101644412D01*
X189041000Y-101485599D01*
X189041000Y-101079401D01*
X189419000Y-101079401D01*
X189419000Y-101485600D01*
X189434642Y-101644413D01*
X189496454Y-101848182D01*
X189596833Y-102035977D01*
X189731920Y-102200581D01*
X189896524Y-102335667D01*
X190084319Y-102436046D01*
X190288088Y-102497858D01*
X190500000Y-102518730D01*
X190711913Y-102497858D01*
X190915682Y-102436046D01*
X191103477Y-102335667D01*
X191268081Y-102200581D01*
X191403167Y-102035977D01*
X191503546Y-101848181D01*
X191565358Y-101644412D01*
X191581000Y-101485599D01*
X191581000Y-101079400D01*
X191565358Y-100920587D01*
X191503546Y-100716818D01*
X191403167Y-100529023D01*
X191268081Y-100364419D01*
X191103477Y-100229333D01*
X190915681Y-100128954D01*
X190711912Y-100067142D01*
X190500000Y-100046270D01*
X190288087Y-100067142D01*
X190084318Y-100128954D01*
X189896523Y-100229333D01*
X189731919Y-100364419D01*
X189596833Y-100529023D01*
X189496454Y-100716819D01*
X189434642Y-100920588D01*
X189419000Y-101079401D01*
X189041000Y-101079401D01*
X189041000Y-101079400D01*
X189025358Y-100920587D01*
X188963546Y-100716818D01*
X188863167Y-100529023D01*
X188728081Y-100364419D01*
X188722000Y-100359428D01*
X188722000Y-99377500D01*
X188719560Y-99352724D01*
X188712333Y-99328899D01*
X188700597Y-99306943D01*
X188684803Y-99287697D01*
X188049803Y-98652697D01*
X188030557Y-98636903D01*
X188008601Y-98625167D01*
X187984776Y-98617940D01*
X187960000Y-98615500D01*
X92392500Y-98615500D01*
X92367724Y-98617940D01*
X92343899Y-98625167D01*
X92321943Y-98636903D01*
X92302697Y-98652697D01*
X91667697Y-99287697D01*
X91651903Y-99306943D01*
X91640167Y-99328899D01*
X91632940Y-99352724D01*
X91630500Y-99377500D01*
X91630500Y-112342394D01*
X91069894Y-112903000D01*
X83872606Y-112903000D01*
X83312000Y-112342394D01*
X83312000Y-100432500D01*
X84324657Y-100432500D01*
X84324657Y-102132500D01*
X84332013Y-102207189D01*
X84353799Y-102279008D01*
X84389178Y-102345196D01*
X84436789Y-102403211D01*
X84494804Y-102450822D01*
X84560992Y-102486201D01*
X84632811Y-102507987D01*
X84707500Y-102515343D01*
X86107500Y-102515343D01*
X86182189Y-102507987D01*
X86254008Y-102486201D01*
X86320196Y-102450822D01*
X86378211Y-102403211D01*
X86425822Y-102345196D01*
X86461201Y-102279008D01*
X86482987Y-102207189D01*
X86490343Y-102132500D01*
X86490343Y-101079401D01*
X86866500Y-101079401D01*
X86866500Y-101485600D01*
X86882142Y-101644413D01*
X86943954Y-101848182D01*
X87044333Y-102035977D01*
X87179420Y-102200581D01*
X87344024Y-102335667D01*
X87531819Y-102436046D01*
X87735588Y-102497858D01*
X87947500Y-102518730D01*
X88159413Y-102497858D01*
X88363182Y-102436046D01*
X88550977Y-102335667D01*
X88715581Y-102200581D01*
X88850667Y-102035977D01*
X88951046Y-101848181D01*
X89012858Y-101644412D01*
X89028500Y-101485599D01*
X89028500Y-101079401D01*
X89406500Y-101079401D01*
X89406500Y-101485600D01*
X89422142Y-101644413D01*
X89483954Y-101848182D01*
X89584333Y-102035977D01*
X89719420Y-102200581D01*
X89884024Y-102335667D01*
X90071819Y-102436046D01*
X90275588Y-102497858D01*
X90487500Y-102518730D01*
X90699413Y-102497858D01*
X90903182Y-102436046D01*
X91090977Y-102335667D01*
X91255581Y-102200581D01*
X91390667Y-102035977D01*
X91491046Y-101848181D01*
X91552858Y-101644412D01*
X91568500Y-101485599D01*
X91568500Y-101079400D01*
X91552858Y-100920587D01*
X91491046Y-100716818D01*
X91390667Y-100529023D01*
X91255581Y-100364419D01*
X91090977Y-100229333D01*
X90903181Y-100128954D01*
X90699412Y-100067142D01*
X90487500Y-100046270D01*
X90275587Y-100067142D01*
X90071818Y-100128954D01*
X89884023Y-100229333D01*
X89719419Y-100364419D01*
X89584333Y-100529023D01*
X89483954Y-100716819D01*
X89422142Y-100920588D01*
X89406500Y-101079401D01*
X89028500Y-101079401D01*
X89028500Y-101079400D01*
X89012858Y-100920587D01*
X88951046Y-100716818D01*
X88850667Y-100529023D01*
X88715581Y-100364419D01*
X88550977Y-100229333D01*
X88363181Y-100128954D01*
X88159412Y-100067142D01*
X87947500Y-100046270D01*
X87735587Y-100067142D01*
X87531818Y-100128954D01*
X87344023Y-100229333D01*
X87179419Y-100364419D01*
X87044333Y-100529023D01*
X86943954Y-100716819D01*
X86882142Y-100920588D01*
X86866500Y-101079401D01*
X86490343Y-101079401D01*
X86490343Y-100432500D01*
X86482987Y-100357811D01*
X86461201Y-100285992D01*
X86425822Y-100219804D01*
X86378211Y-100161789D01*
X86320196Y-100114178D01*
X86254008Y-100078799D01*
X86182189Y-100057013D01*
X86107500Y-100049657D01*
X84707500Y-100049657D01*
X84632811Y-100057013D01*
X84560992Y-100078799D01*
X84494804Y-100114178D01*
X84436789Y-100161789D01*
X84389178Y-100219804D01*
X84353799Y-100285992D01*
X84332013Y-100357811D01*
X84324657Y-100432500D01*
X83312000Y-100432500D01*
X83312000Y-99377500D01*
X83309560Y-99352724D01*
X83302333Y-99328899D01*
X83290597Y-99306943D01*
X83274803Y-99287697D01*
X82639803Y-98652697D01*
X82620557Y-98636903D01*
X82598601Y-98625167D01*
X82574776Y-98617940D01*
X82550000Y-98615500D01*
X48895000Y-98615500D01*
X48870224Y-98617940D01*
X48846399Y-98625167D01*
X48824443Y-98636903D01*
X48805197Y-98652697D01*
X48170197Y-99287697D01*
X48154403Y-99306943D01*
X48142667Y-99328899D01*
X48135440Y-99352724D01*
X48133000Y-99377500D01*
X48133000Y-111389894D01*
X47572394Y-111950500D01*
X45772606Y-111950500D01*
X45212000Y-111389894D01*
X45212000Y-96572606D01*
X45772606Y-96012000D01*
X192669894Y-96012000D01*
X193230500Y-96572606D01*
G37*
%TD.AperFunction*%
%TD*%
D22*
%TO.N,EP*%
X162433000Y-100382606D02*
X162433000Y-116787394D01*
X158697394Y-120523000D01*
X100382606Y-120523000D01*
X98493281Y-118633675D01*
X115709700Y-118633675D01*
X115709700Y-118856325D01*
X115753137Y-119074696D01*
X115838341Y-119280398D01*
X115962039Y-119465524D01*
X116119476Y-119622961D01*
X116304602Y-119746659D01*
X116510304Y-119831863D01*
X116728675Y-119875300D01*
X116951325Y-119875300D01*
X117169696Y-119831863D01*
X117375398Y-119746659D01*
X117560524Y-119622961D01*
X117717961Y-119465524D01*
X117841659Y-119280398D01*
X117926863Y-119074696D01*
X117970300Y-118856325D01*
X117970300Y-118633675D01*
X136029700Y-118633675D01*
X136029700Y-118856325D01*
X136073137Y-119074696D01*
X136158341Y-119280398D01*
X136282039Y-119465524D01*
X136439476Y-119622961D01*
X136624602Y-119746659D01*
X136830304Y-119831863D01*
X137048675Y-119875300D01*
X137271325Y-119875300D01*
X137489696Y-119831863D01*
X137695398Y-119746659D01*
X137880524Y-119622961D01*
X138037961Y-119465524D01*
X138161659Y-119280398D01*
X138246863Y-119074696D01*
X138290300Y-118856325D01*
X138290300Y-118633675D01*
X156349700Y-118633675D01*
X156349700Y-118856325D01*
X156393137Y-119074696D01*
X156478341Y-119280398D01*
X156602039Y-119465524D01*
X156759476Y-119622961D01*
X156944602Y-119746659D01*
X157150304Y-119831863D01*
X157368675Y-119875300D01*
X157591325Y-119875300D01*
X157809696Y-119831863D01*
X158015398Y-119746659D01*
X158200524Y-119622961D01*
X158357961Y-119465524D01*
X158481659Y-119280398D01*
X158566863Y-119074696D01*
X158610300Y-118856325D01*
X158610300Y-118633675D01*
X158566863Y-118415304D01*
X158481659Y-118209602D01*
X158357961Y-118024476D01*
X158200524Y-117867039D01*
X158015398Y-117743341D01*
X157809696Y-117658137D01*
X157591325Y-117614700D01*
X157368675Y-117614700D01*
X157150304Y-117658137D01*
X156944602Y-117743341D01*
X156759476Y-117867039D01*
X156602039Y-118024476D01*
X156478341Y-118209602D01*
X156393137Y-118415304D01*
X156349700Y-118633675D01*
X138290300Y-118633675D01*
X138246863Y-118415304D01*
X138161659Y-118209602D01*
X138037961Y-118024476D01*
X137880524Y-117867039D01*
X137695398Y-117743341D01*
X137489696Y-117658137D01*
X137271325Y-117614700D01*
X137048675Y-117614700D01*
X136830304Y-117658137D01*
X136624602Y-117743341D01*
X136439476Y-117867039D01*
X136282039Y-118024476D01*
X136158341Y-118209602D01*
X136073137Y-118415304D01*
X136029700Y-118633675D01*
X117970300Y-118633675D01*
X117926863Y-118415304D01*
X117841659Y-118209602D01*
X117717961Y-118024476D01*
X117560524Y-117867039D01*
X117375398Y-117743341D01*
X117169696Y-117658137D01*
X116951325Y-117614700D01*
X116728675Y-117614700D01*
X116510304Y-117658137D01*
X116304602Y-117743341D01*
X116119476Y-117867039D01*
X115962039Y-118024476D01*
X115838341Y-118209602D01*
X115753137Y-118415304D01*
X115709700Y-118633675D01*
X98493281Y-118633675D01*
X95953281Y-116093675D01*
X115709700Y-116093675D01*
X115709700Y-116316325D01*
X115753137Y-116534696D01*
X115838341Y-116740398D01*
X115962039Y-116925524D01*
X116119476Y-117082961D01*
X116304602Y-117206659D01*
X116510304Y-117291863D01*
X116728675Y-117335300D01*
X116951325Y-117335300D01*
X117169696Y-117291863D01*
X117375398Y-117206659D01*
X117560524Y-117082961D01*
X117717961Y-116925524D01*
X117841659Y-116740398D01*
X117926863Y-116534696D01*
X117970300Y-116316325D01*
X117970300Y-116093675D01*
X136029700Y-116093675D01*
X136029700Y-116316325D01*
X136073137Y-116534696D01*
X136158341Y-116740398D01*
X136282039Y-116925524D01*
X136439476Y-117082961D01*
X136624602Y-117206659D01*
X136830304Y-117291863D01*
X137048675Y-117335300D01*
X137271325Y-117335300D01*
X137489696Y-117291863D01*
X137695398Y-117206659D01*
X137880524Y-117082961D01*
X138037961Y-116925524D01*
X138161659Y-116740398D01*
X138246863Y-116534696D01*
X138290300Y-116316325D01*
X138290300Y-116093675D01*
X156349700Y-116093675D01*
X156349700Y-116316325D01*
X156393137Y-116534696D01*
X156478341Y-116740398D01*
X156602039Y-116925524D01*
X156759476Y-117082961D01*
X156944602Y-117206659D01*
X157150304Y-117291863D01*
X157368675Y-117335300D01*
X157591325Y-117335300D01*
X157809696Y-117291863D01*
X158015398Y-117206659D01*
X158200524Y-117082961D01*
X158357961Y-116925524D01*
X158481659Y-116740398D01*
X158566863Y-116534696D01*
X158610300Y-116316325D01*
X158610300Y-116093675D01*
X158566863Y-115875304D01*
X158481659Y-115669602D01*
X158357961Y-115484476D01*
X158200524Y-115327039D01*
X158015398Y-115203341D01*
X157809696Y-115118137D01*
X157591325Y-115074700D01*
X157368675Y-115074700D01*
X157150304Y-115118137D01*
X156944602Y-115203341D01*
X156759476Y-115327039D01*
X156602039Y-115484476D01*
X156478341Y-115669602D01*
X156393137Y-115875304D01*
X156349700Y-116093675D01*
X138290300Y-116093675D01*
X138246863Y-115875304D01*
X138161659Y-115669602D01*
X138037961Y-115484476D01*
X137880524Y-115327039D01*
X137695398Y-115203341D01*
X137489696Y-115118137D01*
X137271325Y-115074700D01*
X137048675Y-115074700D01*
X136830304Y-115118137D01*
X136624602Y-115203341D01*
X136439476Y-115327039D01*
X136282039Y-115484476D01*
X136158341Y-115669602D01*
X136073137Y-115875304D01*
X136029700Y-116093675D01*
X117970300Y-116093675D01*
X117926863Y-115875304D01*
X117841659Y-115669602D01*
X117717961Y-115484476D01*
X117560524Y-115327039D01*
X117375398Y-115203341D01*
X117169696Y-115118137D01*
X116951325Y-115074700D01*
X116728675Y-115074700D01*
X116510304Y-115118137D01*
X116304602Y-115203341D01*
X116119476Y-115327039D01*
X115962039Y-115484476D01*
X115838341Y-115669602D01*
X115753137Y-115875304D01*
X115709700Y-116093675D01*
X95953281Y-116093675D01*
X95035184Y-115175578D01*
X97644000Y-115175578D01*
X97644000Y-115329422D01*
X97674013Y-115480309D01*
X97732887Y-115622442D01*
X97818358Y-115750359D01*
X97927141Y-115859142D01*
X98055058Y-115944613D01*
X98197191Y-116003487D01*
X98348078Y-116033500D01*
X98501922Y-116033500D01*
X98652809Y-116003487D01*
X98794942Y-115944613D01*
X98922859Y-115859142D01*
X99031642Y-115750359D01*
X99117113Y-115622442D01*
X99175987Y-115480309D01*
X99206000Y-115329422D01*
X99206000Y-115175578D01*
X99175987Y-115024691D01*
X99117113Y-114882558D01*
X99031642Y-114754641D01*
X98922859Y-114645858D01*
X98794942Y-114560387D01*
X98652809Y-114501513D01*
X98501922Y-114471500D01*
X98348078Y-114471500D01*
X98197191Y-114501513D01*
X98055058Y-114560387D01*
X97927141Y-114645858D01*
X97818358Y-114754641D01*
X97732887Y-114882558D01*
X97674013Y-115024691D01*
X97644000Y-115175578D01*
X95035184Y-115175578D01*
X93413281Y-113553675D01*
X100469700Y-113553675D01*
X100469700Y-113776325D01*
X100513137Y-113994696D01*
X100598341Y-114200398D01*
X100722039Y-114385524D01*
X100879476Y-114542961D01*
X101064602Y-114666659D01*
X101270304Y-114751863D01*
X101488675Y-114795300D01*
X101711325Y-114795300D01*
X101929696Y-114751863D01*
X102135398Y-114666659D01*
X102320524Y-114542961D01*
X102477961Y-114385524D01*
X102601659Y-114200398D01*
X102686863Y-113994696D01*
X102730300Y-113776325D01*
X102730300Y-113553675D01*
X115709700Y-113553675D01*
X115709700Y-113776325D01*
X115753137Y-113994696D01*
X115838341Y-114200398D01*
X115962039Y-114385524D01*
X116119476Y-114542961D01*
X116304602Y-114666659D01*
X116510304Y-114751863D01*
X116728675Y-114795300D01*
X116951325Y-114795300D01*
X117169696Y-114751863D01*
X117375398Y-114666659D01*
X117560524Y-114542961D01*
X117717961Y-114385524D01*
X117841659Y-114200398D01*
X117926863Y-113994696D01*
X117970300Y-113776325D01*
X117970300Y-113553675D01*
X120789700Y-113553675D01*
X120789700Y-113776325D01*
X120833137Y-113994696D01*
X120918341Y-114200398D01*
X121042039Y-114385524D01*
X121199476Y-114542961D01*
X121384602Y-114666659D01*
X121590304Y-114751863D01*
X121808675Y-114795300D01*
X122031325Y-114795300D01*
X122249696Y-114751863D01*
X122455398Y-114666659D01*
X122640524Y-114542961D01*
X122797961Y-114385524D01*
X122921659Y-114200398D01*
X123006863Y-113994696D01*
X123050300Y-113776325D01*
X123050300Y-113553675D01*
X136029700Y-113553675D01*
X136029700Y-113776325D01*
X136073137Y-113994696D01*
X136158341Y-114200398D01*
X136282039Y-114385524D01*
X136439476Y-114542961D01*
X136624602Y-114666659D01*
X136830304Y-114751863D01*
X137048675Y-114795300D01*
X137271325Y-114795300D01*
X137489696Y-114751863D01*
X137695398Y-114666659D01*
X137880524Y-114542961D01*
X138037961Y-114385524D01*
X138161659Y-114200398D01*
X138246863Y-113994696D01*
X138290300Y-113776325D01*
X138290300Y-113553675D01*
X141109700Y-113553675D01*
X141109700Y-113776325D01*
X141153137Y-113994696D01*
X141238341Y-114200398D01*
X141362039Y-114385524D01*
X141519476Y-114542961D01*
X141704602Y-114666659D01*
X141910304Y-114751863D01*
X142128675Y-114795300D01*
X142351325Y-114795300D01*
X142569696Y-114751863D01*
X142775398Y-114666659D01*
X142960524Y-114542961D01*
X143117961Y-114385524D01*
X143241659Y-114200398D01*
X143326863Y-113994696D01*
X143370300Y-113776325D01*
X143370300Y-113553675D01*
X156349700Y-113553675D01*
X156349700Y-113776325D01*
X156393137Y-113994696D01*
X156478341Y-114200398D01*
X156602039Y-114385524D01*
X156759476Y-114542961D01*
X156944602Y-114666659D01*
X157150304Y-114751863D01*
X157368675Y-114795300D01*
X157591325Y-114795300D01*
X157809696Y-114751863D01*
X158015398Y-114666659D01*
X158200524Y-114542961D01*
X158357961Y-114385524D01*
X158481659Y-114200398D01*
X158566863Y-113994696D01*
X158610300Y-113776325D01*
X158610300Y-113553675D01*
X158566863Y-113335304D01*
X158481659Y-113129602D01*
X158357961Y-112944476D01*
X158200524Y-112787039D01*
X158015398Y-112663341D01*
X157809696Y-112578137D01*
X157591325Y-112534700D01*
X157368675Y-112534700D01*
X157150304Y-112578137D01*
X156944602Y-112663341D01*
X156759476Y-112787039D01*
X156602039Y-112944476D01*
X156478341Y-113129602D01*
X156393137Y-113335304D01*
X156349700Y-113553675D01*
X143370300Y-113553675D01*
X143326863Y-113335304D01*
X143241659Y-113129602D01*
X143117961Y-112944476D01*
X142960524Y-112787039D01*
X142775398Y-112663341D01*
X142569696Y-112578137D01*
X142351325Y-112534700D01*
X142128675Y-112534700D01*
X141910304Y-112578137D01*
X141704602Y-112663341D01*
X141519476Y-112787039D01*
X141362039Y-112944476D01*
X141238341Y-113129602D01*
X141153137Y-113335304D01*
X141109700Y-113553675D01*
X138290300Y-113553675D01*
X138246863Y-113335304D01*
X138161659Y-113129602D01*
X138037961Y-112944476D01*
X137880524Y-112787039D01*
X137695398Y-112663341D01*
X137489696Y-112578137D01*
X137271325Y-112534700D01*
X137048675Y-112534700D01*
X136830304Y-112578137D01*
X136624602Y-112663341D01*
X136439476Y-112787039D01*
X136282039Y-112944476D01*
X136158341Y-113129602D01*
X136073137Y-113335304D01*
X136029700Y-113553675D01*
X123050300Y-113553675D01*
X123006863Y-113335304D01*
X122921659Y-113129602D01*
X122797961Y-112944476D01*
X122640524Y-112787039D01*
X122455398Y-112663341D01*
X122249696Y-112578137D01*
X122031325Y-112534700D01*
X121808675Y-112534700D01*
X121590304Y-112578137D01*
X121384602Y-112663341D01*
X121199476Y-112787039D01*
X121042039Y-112944476D01*
X120918341Y-113129602D01*
X120833137Y-113335304D01*
X120789700Y-113553675D01*
X117970300Y-113553675D01*
X117926863Y-113335304D01*
X117841659Y-113129602D01*
X117717961Y-112944476D01*
X117560524Y-112787039D01*
X117375398Y-112663341D01*
X117169696Y-112578137D01*
X116951325Y-112534700D01*
X116728675Y-112534700D01*
X116510304Y-112578137D01*
X116304602Y-112663341D01*
X116119476Y-112787039D01*
X115962039Y-112944476D01*
X115838341Y-113129602D01*
X115753137Y-113335304D01*
X115709700Y-113553675D01*
X102730300Y-113553675D01*
X102686863Y-113335304D01*
X102601659Y-113129602D01*
X102477961Y-112944476D01*
X102320524Y-112787039D01*
X102135398Y-112663341D01*
X101929696Y-112578137D01*
X101711325Y-112534700D01*
X101488675Y-112534700D01*
X101270304Y-112578137D01*
X101064602Y-112663341D01*
X100879476Y-112787039D01*
X100722039Y-112944476D01*
X100598341Y-113129602D01*
X100513137Y-113335304D01*
X100469700Y-113553675D01*
X93413281Y-113553675D01*
X93154500Y-113294894D01*
X93154500Y-112318078D01*
X96056500Y-112318078D01*
X96056500Y-112471922D01*
X96086513Y-112622809D01*
X96145387Y-112764942D01*
X96230858Y-112892859D01*
X96339641Y-113001642D01*
X96467558Y-113087113D01*
X96609691Y-113145987D01*
X96760578Y-113176000D01*
X96914422Y-113176000D01*
X97065309Y-113145987D01*
X97207442Y-113087113D01*
X97335359Y-113001642D01*
X97444142Y-112892859D01*
X97529613Y-112764942D01*
X97588487Y-112622809D01*
X97618500Y-112471922D01*
X97618500Y-112318078D01*
X97588487Y-112167191D01*
X97529613Y-112025058D01*
X97444142Y-111897141D01*
X97335359Y-111788358D01*
X97207442Y-111702887D01*
X97065309Y-111644013D01*
X96914422Y-111614000D01*
X96760578Y-111614000D01*
X96609691Y-111644013D01*
X96467558Y-111702887D01*
X96339641Y-111788358D01*
X96230858Y-111897141D01*
X96145387Y-112025058D01*
X96086513Y-112167191D01*
X96056500Y-112318078D01*
X93154500Y-112318078D01*
X93154500Y-111048078D01*
X93516500Y-111048078D01*
X93516500Y-111201922D01*
X93546513Y-111352809D01*
X93605387Y-111494942D01*
X93690858Y-111622859D01*
X93799641Y-111731642D01*
X93927558Y-111817113D01*
X94069691Y-111875987D01*
X94220578Y-111906000D01*
X94374422Y-111906000D01*
X94525309Y-111875987D01*
X94667442Y-111817113D01*
X94795359Y-111731642D01*
X94904142Y-111622859D01*
X94989613Y-111494942D01*
X95048487Y-111352809D01*
X95078500Y-111201922D01*
X95078500Y-111048078D01*
X95071657Y-111013675D01*
X100469700Y-111013675D01*
X100469700Y-111236325D01*
X100513137Y-111454696D01*
X100598341Y-111660398D01*
X100722039Y-111845524D01*
X100879476Y-112002961D01*
X101064602Y-112126659D01*
X101270304Y-112211863D01*
X101488675Y-112255300D01*
X101711325Y-112255300D01*
X101929696Y-112211863D01*
X102135398Y-112126659D01*
X102320524Y-112002961D01*
X102477961Y-111845524D01*
X102601659Y-111660398D01*
X102686863Y-111454696D01*
X102730300Y-111236325D01*
X102730300Y-111013675D01*
X115709700Y-111013675D01*
X115709700Y-111236325D01*
X115753137Y-111454696D01*
X115838341Y-111660398D01*
X115962039Y-111845524D01*
X116119476Y-112002961D01*
X116304602Y-112126659D01*
X116510304Y-112211863D01*
X116728675Y-112255300D01*
X116951325Y-112255300D01*
X117169696Y-112211863D01*
X117375398Y-112126659D01*
X117560524Y-112002961D01*
X117717961Y-111845524D01*
X117841659Y-111660398D01*
X117926863Y-111454696D01*
X117970300Y-111236325D01*
X117970300Y-111013675D01*
X120789700Y-111013675D01*
X120789700Y-111236325D01*
X120833137Y-111454696D01*
X120918341Y-111660398D01*
X121042039Y-111845524D01*
X121199476Y-112002961D01*
X121384602Y-112126659D01*
X121590304Y-112211863D01*
X121808675Y-112255300D01*
X122031325Y-112255300D01*
X122249696Y-112211863D01*
X122455398Y-112126659D01*
X122640524Y-112002961D01*
X122797961Y-111845524D01*
X122921659Y-111660398D01*
X123006863Y-111454696D01*
X123050300Y-111236325D01*
X123050300Y-111013675D01*
X136029700Y-111013675D01*
X136029700Y-111236325D01*
X136073137Y-111454696D01*
X136158341Y-111660398D01*
X136282039Y-111845524D01*
X136439476Y-112002961D01*
X136624602Y-112126659D01*
X136830304Y-112211863D01*
X137048675Y-112255300D01*
X137271325Y-112255300D01*
X137489696Y-112211863D01*
X137695398Y-112126659D01*
X137880524Y-112002961D01*
X138037961Y-111845524D01*
X138161659Y-111660398D01*
X138246863Y-111454696D01*
X138290300Y-111236325D01*
X138290300Y-111013675D01*
X141109700Y-111013675D01*
X141109700Y-111236325D01*
X141153137Y-111454696D01*
X141238341Y-111660398D01*
X141362039Y-111845524D01*
X141519476Y-112002961D01*
X141704602Y-112126659D01*
X141910304Y-112211863D01*
X142128675Y-112255300D01*
X142351325Y-112255300D01*
X142569696Y-112211863D01*
X142775398Y-112126659D01*
X142960524Y-112002961D01*
X143117961Y-111845524D01*
X143241659Y-111660398D01*
X143326863Y-111454696D01*
X143370300Y-111236325D01*
X143370300Y-111013675D01*
X156349700Y-111013675D01*
X156349700Y-111236325D01*
X156393137Y-111454696D01*
X156478341Y-111660398D01*
X156602039Y-111845524D01*
X156759476Y-112002961D01*
X156944602Y-112126659D01*
X157150304Y-112211863D01*
X157368675Y-112255300D01*
X157591325Y-112255300D01*
X157809696Y-112211863D01*
X158015398Y-112126659D01*
X158200524Y-112002961D01*
X158357961Y-111845524D01*
X158481659Y-111660398D01*
X158566863Y-111454696D01*
X158610300Y-111236325D01*
X158610300Y-111013675D01*
X158566863Y-110795304D01*
X158481659Y-110589602D01*
X158357961Y-110404476D01*
X158200524Y-110247039D01*
X158015398Y-110123341D01*
X157809696Y-110038137D01*
X157591325Y-109994700D01*
X157368675Y-109994700D01*
X157150304Y-110038137D01*
X156944602Y-110123341D01*
X156759476Y-110247039D01*
X156602039Y-110404476D01*
X156478341Y-110589602D01*
X156393137Y-110795304D01*
X156349700Y-111013675D01*
X143370300Y-111013675D01*
X143326863Y-110795304D01*
X143241659Y-110589602D01*
X143117961Y-110404476D01*
X142960524Y-110247039D01*
X142775398Y-110123341D01*
X142569696Y-110038137D01*
X142351325Y-109994700D01*
X142128675Y-109994700D01*
X141910304Y-110038137D01*
X141704602Y-110123341D01*
X141519476Y-110247039D01*
X141362039Y-110404476D01*
X141238341Y-110589602D01*
X141153137Y-110795304D01*
X141109700Y-111013675D01*
X138290300Y-111013675D01*
X138246863Y-110795304D01*
X138161659Y-110589602D01*
X138037961Y-110404476D01*
X137880524Y-110247039D01*
X137695398Y-110123341D01*
X137489696Y-110038137D01*
X137271325Y-109994700D01*
X137048675Y-109994700D01*
X136830304Y-110038137D01*
X136624602Y-110123341D01*
X136439476Y-110247039D01*
X136282039Y-110404476D01*
X136158341Y-110589602D01*
X136073137Y-110795304D01*
X136029700Y-111013675D01*
X123050300Y-111013675D01*
X123006863Y-110795304D01*
X122921659Y-110589602D01*
X122797961Y-110404476D01*
X122640524Y-110247039D01*
X122455398Y-110123341D01*
X122249696Y-110038137D01*
X122031325Y-109994700D01*
X121808675Y-109994700D01*
X121590304Y-110038137D01*
X121384602Y-110123341D01*
X121199476Y-110247039D01*
X121042039Y-110404476D01*
X120918341Y-110589602D01*
X120833137Y-110795304D01*
X120789700Y-111013675D01*
X117970300Y-111013675D01*
X117926863Y-110795304D01*
X117841659Y-110589602D01*
X117717961Y-110404476D01*
X117560524Y-110247039D01*
X117375398Y-110123341D01*
X117169696Y-110038137D01*
X116951325Y-109994700D01*
X116728675Y-109994700D01*
X116510304Y-110038137D01*
X116304602Y-110123341D01*
X116119476Y-110247039D01*
X115962039Y-110404476D01*
X115838341Y-110589602D01*
X115753137Y-110795304D01*
X115709700Y-111013675D01*
X102730300Y-111013675D01*
X102686863Y-110795304D01*
X102601659Y-110589602D01*
X102477961Y-110404476D01*
X102320524Y-110247039D01*
X102135398Y-110123341D01*
X101929696Y-110038137D01*
X101711325Y-109994700D01*
X101488675Y-109994700D01*
X101270304Y-110038137D01*
X101064602Y-110123341D01*
X100879476Y-110247039D01*
X100722039Y-110404476D01*
X100598341Y-110589602D01*
X100513137Y-110795304D01*
X100469700Y-111013675D01*
X95071657Y-111013675D01*
X95048487Y-110897191D01*
X94989613Y-110755058D01*
X94904142Y-110627141D01*
X94795359Y-110518358D01*
X94667442Y-110432887D01*
X94525309Y-110374013D01*
X94374422Y-110344000D01*
X94220578Y-110344000D01*
X94069691Y-110374013D01*
X93927558Y-110432887D01*
X93799641Y-110518358D01*
X93690858Y-110627141D01*
X93605387Y-110755058D01*
X93546513Y-110897191D01*
X93516500Y-111048078D01*
X93154500Y-111048078D01*
X93154500Y-108473675D01*
X100469700Y-108473675D01*
X100469700Y-108696325D01*
X100513137Y-108914696D01*
X100598341Y-109120398D01*
X100722039Y-109305524D01*
X100879476Y-109462961D01*
X101064602Y-109586659D01*
X101270304Y-109671863D01*
X101488675Y-109715300D01*
X101711325Y-109715300D01*
X101929696Y-109671863D01*
X102135398Y-109586659D01*
X102320524Y-109462961D01*
X102477961Y-109305524D01*
X102601659Y-109120398D01*
X102686863Y-108914696D01*
X102730300Y-108696325D01*
X102730300Y-108473675D01*
X115709700Y-108473675D01*
X115709700Y-108696325D01*
X115753137Y-108914696D01*
X115838341Y-109120398D01*
X115962039Y-109305524D01*
X116119476Y-109462961D01*
X116304602Y-109586659D01*
X116510304Y-109671863D01*
X116728675Y-109715300D01*
X116951325Y-109715300D01*
X117169696Y-109671863D01*
X117375398Y-109586659D01*
X117560524Y-109462961D01*
X117717961Y-109305524D01*
X117841659Y-109120398D01*
X117926863Y-108914696D01*
X117970300Y-108696325D01*
X117970300Y-108473675D01*
X120789700Y-108473675D01*
X120789700Y-108696325D01*
X120833137Y-108914696D01*
X120918341Y-109120398D01*
X121042039Y-109305524D01*
X121199476Y-109462961D01*
X121384602Y-109586659D01*
X121590304Y-109671863D01*
X121808675Y-109715300D01*
X122031325Y-109715300D01*
X122249696Y-109671863D01*
X122455398Y-109586659D01*
X122640524Y-109462961D01*
X122797961Y-109305524D01*
X122921659Y-109120398D01*
X123006863Y-108914696D01*
X123050300Y-108696325D01*
X123050300Y-108473675D01*
X136029700Y-108473675D01*
X136029700Y-108696325D01*
X136073137Y-108914696D01*
X136158341Y-109120398D01*
X136282039Y-109305524D01*
X136439476Y-109462961D01*
X136624602Y-109586659D01*
X136830304Y-109671863D01*
X137048675Y-109715300D01*
X137271325Y-109715300D01*
X137489696Y-109671863D01*
X137695398Y-109586659D01*
X137880524Y-109462961D01*
X138037961Y-109305524D01*
X138161659Y-109120398D01*
X138246863Y-108914696D01*
X138290300Y-108696325D01*
X138290300Y-108473675D01*
X141109700Y-108473675D01*
X141109700Y-108696325D01*
X141153137Y-108914696D01*
X141238341Y-109120398D01*
X141362039Y-109305524D01*
X141519476Y-109462961D01*
X141704602Y-109586659D01*
X141910304Y-109671863D01*
X142128675Y-109715300D01*
X142351325Y-109715300D01*
X142569696Y-109671863D01*
X142775398Y-109586659D01*
X142960524Y-109462961D01*
X143117961Y-109305524D01*
X143241659Y-109120398D01*
X143326863Y-108914696D01*
X143370300Y-108696325D01*
X143370300Y-108473675D01*
X156349700Y-108473675D01*
X156349700Y-108696325D01*
X156393137Y-108914696D01*
X156478341Y-109120398D01*
X156602039Y-109305524D01*
X156759476Y-109462961D01*
X156944602Y-109586659D01*
X157150304Y-109671863D01*
X157368675Y-109715300D01*
X157591325Y-109715300D01*
X157809696Y-109671863D01*
X158015398Y-109586659D01*
X158200524Y-109462961D01*
X158357961Y-109305524D01*
X158481659Y-109120398D01*
X158566863Y-108914696D01*
X158610300Y-108696325D01*
X158610300Y-108473675D01*
X158566863Y-108255304D01*
X158481659Y-108049602D01*
X158357961Y-107864476D01*
X158200524Y-107707039D01*
X158015398Y-107583341D01*
X157809696Y-107498137D01*
X157591325Y-107454700D01*
X157368675Y-107454700D01*
X157150304Y-107498137D01*
X156944602Y-107583341D01*
X156759476Y-107707039D01*
X156602039Y-107864476D01*
X156478341Y-108049602D01*
X156393137Y-108255304D01*
X156349700Y-108473675D01*
X143370300Y-108473675D01*
X143326863Y-108255304D01*
X143241659Y-108049602D01*
X143117961Y-107864476D01*
X142960524Y-107707039D01*
X142775398Y-107583341D01*
X142569696Y-107498137D01*
X142351325Y-107454700D01*
X142128675Y-107454700D01*
X141910304Y-107498137D01*
X141704602Y-107583341D01*
X141519476Y-107707039D01*
X141362039Y-107864476D01*
X141238341Y-108049602D01*
X141153137Y-108255304D01*
X141109700Y-108473675D01*
X138290300Y-108473675D01*
X138246863Y-108255304D01*
X138161659Y-108049602D01*
X138037961Y-107864476D01*
X137880524Y-107707039D01*
X137695398Y-107583341D01*
X137489696Y-107498137D01*
X137271325Y-107454700D01*
X137048675Y-107454700D01*
X136830304Y-107498137D01*
X136624602Y-107583341D01*
X136439476Y-107707039D01*
X136282039Y-107864476D01*
X136158341Y-108049602D01*
X136073137Y-108255304D01*
X136029700Y-108473675D01*
X123050300Y-108473675D01*
X123006863Y-108255304D01*
X122921659Y-108049602D01*
X122797961Y-107864476D01*
X122640524Y-107707039D01*
X122455398Y-107583341D01*
X122249696Y-107498137D01*
X122031325Y-107454700D01*
X121808675Y-107454700D01*
X121590304Y-107498137D01*
X121384602Y-107583341D01*
X121199476Y-107707039D01*
X121042039Y-107864476D01*
X120918341Y-108049602D01*
X120833137Y-108255304D01*
X120789700Y-108473675D01*
X117970300Y-108473675D01*
X117926863Y-108255304D01*
X117841659Y-108049602D01*
X117717961Y-107864476D01*
X117560524Y-107707039D01*
X117375398Y-107583341D01*
X117169696Y-107498137D01*
X116951325Y-107454700D01*
X116728675Y-107454700D01*
X116510304Y-107498137D01*
X116304602Y-107583341D01*
X116119476Y-107707039D01*
X115962039Y-107864476D01*
X115838341Y-108049602D01*
X115753137Y-108255304D01*
X115709700Y-108473675D01*
X102730300Y-108473675D01*
X102686863Y-108255304D01*
X102601659Y-108049602D01*
X102477961Y-107864476D01*
X102320524Y-107707039D01*
X102135398Y-107583341D01*
X101929696Y-107498137D01*
X101711325Y-107454700D01*
X101488675Y-107454700D01*
X101270304Y-107498137D01*
X101064602Y-107583341D01*
X100879476Y-107707039D01*
X100722039Y-107864476D01*
X100598341Y-108049602D01*
X100513137Y-108255304D01*
X100469700Y-108473675D01*
X93154500Y-108473675D01*
X93154500Y-105933675D01*
X100469700Y-105933675D01*
X100469700Y-106156325D01*
X100513137Y-106374696D01*
X100598341Y-106580398D01*
X100722039Y-106765524D01*
X100879476Y-106922961D01*
X101064602Y-107046659D01*
X101270304Y-107131863D01*
X101488675Y-107175300D01*
X101711325Y-107175300D01*
X101929696Y-107131863D01*
X102135398Y-107046659D01*
X102320524Y-106922961D01*
X102477961Y-106765524D01*
X102601659Y-106580398D01*
X102686863Y-106374696D01*
X102730300Y-106156325D01*
X102730300Y-105933675D01*
X115709700Y-105933675D01*
X115709700Y-106156325D01*
X115753137Y-106374696D01*
X115838341Y-106580398D01*
X115962039Y-106765524D01*
X116119476Y-106922961D01*
X116304602Y-107046659D01*
X116510304Y-107131863D01*
X116728675Y-107175300D01*
X116951325Y-107175300D01*
X117169696Y-107131863D01*
X117375398Y-107046659D01*
X117560524Y-106922961D01*
X117717961Y-106765524D01*
X117841659Y-106580398D01*
X117926863Y-106374696D01*
X117970300Y-106156325D01*
X117970300Y-105933675D01*
X120789700Y-105933675D01*
X120789700Y-106156325D01*
X120833137Y-106374696D01*
X120918341Y-106580398D01*
X121042039Y-106765524D01*
X121199476Y-106922961D01*
X121384602Y-107046659D01*
X121590304Y-107131863D01*
X121808675Y-107175300D01*
X122031325Y-107175300D01*
X122249696Y-107131863D01*
X122455398Y-107046659D01*
X122640524Y-106922961D01*
X122797961Y-106765524D01*
X122921659Y-106580398D01*
X123006863Y-106374696D01*
X123050300Y-106156325D01*
X123050300Y-105933675D01*
X136029700Y-105933675D01*
X136029700Y-106156325D01*
X136073137Y-106374696D01*
X136158341Y-106580398D01*
X136282039Y-106765524D01*
X136439476Y-106922961D01*
X136624602Y-107046659D01*
X136830304Y-107131863D01*
X137048675Y-107175300D01*
X137271325Y-107175300D01*
X137489696Y-107131863D01*
X137695398Y-107046659D01*
X137880524Y-106922961D01*
X138037961Y-106765524D01*
X138161659Y-106580398D01*
X138246863Y-106374696D01*
X138290300Y-106156325D01*
X138290300Y-105933675D01*
X141109700Y-105933675D01*
X141109700Y-106156325D01*
X141153137Y-106374696D01*
X141238341Y-106580398D01*
X141362039Y-106765524D01*
X141519476Y-106922961D01*
X141704602Y-107046659D01*
X141910304Y-107131863D01*
X142128675Y-107175300D01*
X142351325Y-107175300D01*
X142569696Y-107131863D01*
X142775398Y-107046659D01*
X142960524Y-106922961D01*
X143117961Y-106765524D01*
X143241659Y-106580398D01*
X143326863Y-106374696D01*
X143370300Y-106156325D01*
X143370300Y-105933675D01*
X156349700Y-105933675D01*
X156349700Y-106156325D01*
X156393137Y-106374696D01*
X156478341Y-106580398D01*
X156602039Y-106765524D01*
X156759476Y-106922961D01*
X156944602Y-107046659D01*
X157150304Y-107131863D01*
X157368675Y-107175300D01*
X157591325Y-107175300D01*
X157809696Y-107131863D01*
X158015398Y-107046659D01*
X158200524Y-106922961D01*
X158357961Y-106765524D01*
X158481659Y-106580398D01*
X158566863Y-106374696D01*
X158610300Y-106156325D01*
X158610300Y-105933675D01*
X158566863Y-105715304D01*
X158481659Y-105509602D01*
X158357961Y-105324476D01*
X158200524Y-105167039D01*
X158015398Y-105043341D01*
X157809696Y-104958137D01*
X157591325Y-104914700D01*
X157368675Y-104914700D01*
X157150304Y-104958137D01*
X156944602Y-105043341D01*
X156759476Y-105167039D01*
X156602039Y-105324476D01*
X156478341Y-105509602D01*
X156393137Y-105715304D01*
X156349700Y-105933675D01*
X143370300Y-105933675D01*
X143326863Y-105715304D01*
X143241659Y-105509602D01*
X143117961Y-105324476D01*
X142960524Y-105167039D01*
X142775398Y-105043341D01*
X142569696Y-104958137D01*
X142351325Y-104914700D01*
X142128675Y-104914700D01*
X141910304Y-104958137D01*
X141704602Y-105043341D01*
X141519476Y-105167039D01*
X141362039Y-105324476D01*
X141238341Y-105509602D01*
X141153137Y-105715304D01*
X141109700Y-105933675D01*
X138290300Y-105933675D01*
X138246863Y-105715304D01*
X138161659Y-105509602D01*
X138037961Y-105324476D01*
X137880524Y-105167039D01*
X137695398Y-105043341D01*
X137489696Y-104958137D01*
X137271325Y-104914700D01*
X137048675Y-104914700D01*
X136830304Y-104958137D01*
X136624602Y-105043341D01*
X136439476Y-105167039D01*
X136282039Y-105324476D01*
X136158341Y-105509602D01*
X136073137Y-105715304D01*
X136029700Y-105933675D01*
X123050300Y-105933675D01*
X123006863Y-105715304D01*
X122921659Y-105509602D01*
X122797961Y-105324476D01*
X122640524Y-105167039D01*
X122455398Y-105043341D01*
X122249696Y-104958137D01*
X122031325Y-104914700D01*
X121808675Y-104914700D01*
X121590304Y-104958137D01*
X121384602Y-105043341D01*
X121199476Y-105167039D01*
X121042039Y-105324476D01*
X120918341Y-105509602D01*
X120833137Y-105715304D01*
X120789700Y-105933675D01*
X117970300Y-105933675D01*
X117926863Y-105715304D01*
X117841659Y-105509602D01*
X117717961Y-105324476D01*
X117560524Y-105167039D01*
X117375398Y-105043341D01*
X117169696Y-104958137D01*
X116951325Y-104914700D01*
X116728675Y-104914700D01*
X116510304Y-104958137D01*
X116304602Y-105043341D01*
X116119476Y-105167039D01*
X115962039Y-105324476D01*
X115838341Y-105509602D01*
X115753137Y-105715304D01*
X115709700Y-105933675D01*
X102730300Y-105933675D01*
X102686863Y-105715304D01*
X102601659Y-105509602D01*
X102477961Y-105324476D01*
X102320524Y-105167039D01*
X102135398Y-105043341D01*
X101929696Y-104958137D01*
X101711325Y-104914700D01*
X101488675Y-104914700D01*
X101270304Y-104958137D01*
X101064602Y-105043341D01*
X100879476Y-105167039D01*
X100722039Y-105324476D01*
X100598341Y-105509602D01*
X100513137Y-105715304D01*
X100469700Y-105933675D01*
X93154500Y-105933675D01*
X93154500Y-103393675D01*
X100469700Y-103393675D01*
X100469700Y-103616325D01*
X100513137Y-103834696D01*
X100598341Y-104040398D01*
X100722039Y-104225524D01*
X100879476Y-104382961D01*
X101064602Y-104506659D01*
X101270304Y-104591863D01*
X101488675Y-104635300D01*
X101711325Y-104635300D01*
X101929696Y-104591863D01*
X102135398Y-104506659D01*
X102320524Y-104382961D01*
X102477961Y-104225524D01*
X102601659Y-104040398D01*
X102686863Y-103834696D01*
X102730300Y-103616325D01*
X102730300Y-103393675D01*
X120789700Y-103393675D01*
X120789700Y-103616325D01*
X120833137Y-103834696D01*
X120918341Y-104040398D01*
X121042039Y-104225524D01*
X121199476Y-104382961D01*
X121384602Y-104506659D01*
X121590304Y-104591863D01*
X121808675Y-104635300D01*
X122031325Y-104635300D01*
X122249696Y-104591863D01*
X122455398Y-104506659D01*
X122640524Y-104382961D01*
X122797961Y-104225524D01*
X122921659Y-104040398D01*
X123006863Y-103834696D01*
X123050300Y-103616325D01*
X123050300Y-103393675D01*
X141109700Y-103393675D01*
X141109700Y-103616325D01*
X141153137Y-103834696D01*
X141238341Y-104040398D01*
X141362039Y-104225524D01*
X141519476Y-104382961D01*
X141704602Y-104506659D01*
X141910304Y-104591863D01*
X142128675Y-104635300D01*
X142351325Y-104635300D01*
X142569696Y-104591863D01*
X142775398Y-104506659D01*
X142960524Y-104382961D01*
X143117961Y-104225524D01*
X143241659Y-104040398D01*
X143326863Y-103834696D01*
X143370300Y-103616325D01*
X143370300Y-103393675D01*
X143326863Y-103175304D01*
X143241659Y-102969602D01*
X143117961Y-102784476D01*
X142960524Y-102627039D01*
X142775398Y-102503341D01*
X142569696Y-102418137D01*
X142351325Y-102374700D01*
X142128675Y-102374700D01*
X141910304Y-102418137D01*
X141704602Y-102503341D01*
X141519476Y-102627039D01*
X141362039Y-102784476D01*
X141238341Y-102969602D01*
X141153137Y-103175304D01*
X141109700Y-103393675D01*
X123050300Y-103393675D01*
X123006863Y-103175304D01*
X122921659Y-102969602D01*
X122797961Y-102784476D01*
X122640524Y-102627039D01*
X122455398Y-102503341D01*
X122249696Y-102418137D01*
X122031325Y-102374700D01*
X121808675Y-102374700D01*
X121590304Y-102418137D01*
X121384602Y-102503341D01*
X121199476Y-102627039D01*
X121042039Y-102784476D01*
X120918341Y-102969602D01*
X120833137Y-103175304D01*
X120789700Y-103393675D01*
X102730300Y-103393675D01*
X102686863Y-103175304D01*
X102601659Y-102969602D01*
X102477961Y-102784476D01*
X102320524Y-102627039D01*
X102135398Y-102503341D01*
X101929696Y-102418137D01*
X101711325Y-102374700D01*
X101488675Y-102374700D01*
X101270304Y-102418137D01*
X101064602Y-102503341D01*
X100879476Y-102627039D01*
X100722039Y-102784476D01*
X100598341Y-102969602D01*
X100513137Y-103175304D01*
X100469700Y-103393675D01*
X93154500Y-103393675D01*
X93154500Y-102506221D01*
X93239413Y-102497858D01*
X93443182Y-102436046D01*
X93630977Y-102335667D01*
X93795581Y-102200581D01*
X93930667Y-102035977D01*
X94031046Y-101848181D01*
X94092858Y-101644412D01*
X94108500Y-101485599D01*
X94108500Y-101079400D01*
X94092858Y-100920587D01*
X94072561Y-100853675D01*
X100469700Y-100853675D01*
X100469700Y-101076325D01*
X100513137Y-101294696D01*
X100598341Y-101500398D01*
X100722039Y-101685524D01*
X100879476Y-101842961D01*
X101064602Y-101966659D01*
X101270304Y-102051863D01*
X101488675Y-102095300D01*
X101711325Y-102095300D01*
X101929696Y-102051863D01*
X102135398Y-101966659D01*
X102320524Y-101842961D01*
X102477961Y-101685524D01*
X102601659Y-101500398D01*
X102686863Y-101294696D01*
X102730300Y-101076325D01*
X102730300Y-100853675D01*
X115709700Y-100853675D01*
X115709700Y-101076325D01*
X115753137Y-101294696D01*
X115838341Y-101500398D01*
X115962039Y-101685524D01*
X116119476Y-101842961D01*
X116304602Y-101966659D01*
X116510304Y-102051863D01*
X116728675Y-102095300D01*
X116951325Y-102095300D01*
X117169696Y-102051863D01*
X117375398Y-101966659D01*
X117560524Y-101842961D01*
X117717961Y-101685524D01*
X117841659Y-101500398D01*
X117926863Y-101294696D01*
X117970300Y-101076325D01*
X117970300Y-100853675D01*
X120789700Y-100853675D01*
X120789700Y-101076325D01*
X120833137Y-101294696D01*
X120918341Y-101500398D01*
X121042039Y-101685524D01*
X121199476Y-101842961D01*
X121384602Y-101966659D01*
X121590304Y-102051863D01*
X121808675Y-102095300D01*
X122031325Y-102095300D01*
X122249696Y-102051863D01*
X122455398Y-101966659D01*
X122640524Y-101842961D01*
X122797961Y-101685524D01*
X122921659Y-101500398D01*
X123006863Y-101294696D01*
X123050300Y-101076325D01*
X123050300Y-100853675D01*
X136029700Y-100853675D01*
X136029700Y-101076325D01*
X136073137Y-101294696D01*
X136158341Y-101500398D01*
X136282039Y-101685524D01*
X136439476Y-101842961D01*
X136624602Y-101966659D01*
X136830304Y-102051863D01*
X137048675Y-102095300D01*
X137271325Y-102095300D01*
X137489696Y-102051863D01*
X137695398Y-101966659D01*
X137880524Y-101842961D01*
X138037961Y-101685524D01*
X138161659Y-101500398D01*
X138246863Y-101294696D01*
X138290300Y-101076325D01*
X138290300Y-100853675D01*
X141109700Y-100853675D01*
X141109700Y-101076325D01*
X141153137Y-101294696D01*
X141238341Y-101500398D01*
X141362039Y-101685524D01*
X141519476Y-101842961D01*
X141704602Y-101966659D01*
X141910304Y-102051863D01*
X142128675Y-102095300D01*
X142351325Y-102095300D01*
X142569696Y-102051863D01*
X142775398Y-101966659D01*
X142960524Y-101842961D01*
X143117961Y-101685524D01*
X143241659Y-101500398D01*
X143326863Y-101294696D01*
X143370300Y-101076325D01*
X143370300Y-100853675D01*
X156349700Y-100853675D01*
X156349700Y-101076325D01*
X156393137Y-101294696D01*
X156478341Y-101500398D01*
X156602039Y-101685524D01*
X156759476Y-101842961D01*
X156944602Y-101966659D01*
X157150304Y-102051863D01*
X157368675Y-102095300D01*
X157591325Y-102095300D01*
X157809696Y-102051863D01*
X158015398Y-101966659D01*
X158200524Y-101842961D01*
X158357961Y-101685524D01*
X158481659Y-101500398D01*
X158566863Y-101294696D01*
X158610300Y-101076325D01*
X158610300Y-100853675D01*
X158566863Y-100635304D01*
X158481659Y-100429602D01*
X158357961Y-100244476D01*
X158200524Y-100087039D01*
X158015398Y-99963341D01*
X157809696Y-99878137D01*
X157591325Y-99834700D01*
X157368675Y-99834700D01*
X157150304Y-99878137D01*
X156944602Y-99963341D01*
X156759476Y-100087039D01*
X156602039Y-100244476D01*
X156478341Y-100429602D01*
X156393137Y-100635304D01*
X156349700Y-100853675D01*
X143370300Y-100853675D01*
X143326863Y-100635304D01*
X143241659Y-100429602D01*
X143117961Y-100244476D01*
X142960524Y-100087039D01*
X142775398Y-99963341D01*
X142569696Y-99878137D01*
X142351325Y-99834700D01*
X142128675Y-99834700D01*
X141910304Y-99878137D01*
X141704602Y-99963341D01*
X141519476Y-100087039D01*
X141362039Y-100244476D01*
X141238341Y-100429602D01*
X141153137Y-100635304D01*
X141109700Y-100853675D01*
X138290300Y-100853675D01*
X138246863Y-100635304D01*
X138161659Y-100429602D01*
X138037961Y-100244476D01*
X137880524Y-100087039D01*
X137695398Y-99963341D01*
X137489696Y-99878137D01*
X137271325Y-99834700D01*
X137048675Y-99834700D01*
X136830304Y-99878137D01*
X136624602Y-99963341D01*
X136439476Y-100087039D01*
X136282039Y-100244476D01*
X136158341Y-100429602D01*
X136073137Y-100635304D01*
X136029700Y-100853675D01*
X123050300Y-100853675D01*
X123006863Y-100635304D01*
X122921659Y-100429602D01*
X122797961Y-100244476D01*
X122640524Y-100087039D01*
X122455398Y-99963341D01*
X122249696Y-99878137D01*
X122031325Y-99834700D01*
X121808675Y-99834700D01*
X121590304Y-99878137D01*
X121384602Y-99963341D01*
X121199476Y-100087039D01*
X121042039Y-100244476D01*
X120918341Y-100429602D01*
X120833137Y-100635304D01*
X120789700Y-100853675D01*
X117970300Y-100853675D01*
X117926863Y-100635304D01*
X117841659Y-100429602D01*
X117717961Y-100244476D01*
X117560524Y-100087039D01*
X117375398Y-99963341D01*
X117169696Y-99878137D01*
X116951325Y-99834700D01*
X116728675Y-99834700D01*
X116510304Y-99878137D01*
X116304602Y-99963341D01*
X116119476Y-100087039D01*
X115962039Y-100244476D01*
X115838341Y-100429602D01*
X115753137Y-100635304D01*
X115709700Y-100853675D01*
X102730300Y-100853675D01*
X102686863Y-100635304D01*
X102601659Y-100429602D01*
X102477961Y-100244476D01*
X102320524Y-100087039D01*
X102135398Y-99963341D01*
X101929696Y-99878137D01*
X101711325Y-99834700D01*
X101488675Y-99834700D01*
X101270304Y-99878137D01*
X101064602Y-99963341D01*
X100879476Y-100087039D01*
X100722039Y-100244476D01*
X100598341Y-100429602D01*
X100513137Y-100635304D01*
X100469700Y-100853675D01*
X94072561Y-100853675D01*
X94031046Y-100716818D01*
X93941088Y-100548518D01*
X94667606Y-99822000D01*
X161872394Y-99822000D01*
X162433000Y-100382606D01*
%TA.AperFunction,Conductor*%
D23*
G36*
X162433000Y-100382606D02*
G01*
X162433000Y-116787394D01*
X158697394Y-120523000D01*
X100382606Y-120523000D01*
X98493281Y-118633675D01*
X115709700Y-118633675D01*
X115709700Y-118856325D01*
X115753137Y-119074696D01*
X115838341Y-119280398D01*
X115962039Y-119465524D01*
X116119476Y-119622961D01*
X116304602Y-119746659D01*
X116510304Y-119831863D01*
X116728675Y-119875300D01*
X116951325Y-119875300D01*
X117169696Y-119831863D01*
X117375398Y-119746659D01*
X117560524Y-119622961D01*
X117717961Y-119465524D01*
X117841659Y-119280398D01*
X117926863Y-119074696D01*
X117970300Y-118856325D01*
X117970300Y-118633675D01*
X136029700Y-118633675D01*
X136029700Y-118856325D01*
X136073137Y-119074696D01*
X136158341Y-119280398D01*
X136282039Y-119465524D01*
X136439476Y-119622961D01*
X136624602Y-119746659D01*
X136830304Y-119831863D01*
X137048675Y-119875300D01*
X137271325Y-119875300D01*
X137489696Y-119831863D01*
X137695398Y-119746659D01*
X137880524Y-119622961D01*
X138037961Y-119465524D01*
X138161659Y-119280398D01*
X138246863Y-119074696D01*
X138290300Y-118856325D01*
X138290300Y-118633675D01*
X156349700Y-118633675D01*
X156349700Y-118856325D01*
X156393137Y-119074696D01*
X156478341Y-119280398D01*
X156602039Y-119465524D01*
X156759476Y-119622961D01*
X156944602Y-119746659D01*
X157150304Y-119831863D01*
X157368675Y-119875300D01*
X157591325Y-119875300D01*
X157809696Y-119831863D01*
X158015398Y-119746659D01*
X158200524Y-119622961D01*
X158357961Y-119465524D01*
X158481659Y-119280398D01*
X158566863Y-119074696D01*
X158610300Y-118856325D01*
X158610300Y-118633675D01*
X158566863Y-118415304D01*
X158481659Y-118209602D01*
X158357961Y-118024476D01*
X158200524Y-117867039D01*
X158015398Y-117743341D01*
X157809696Y-117658137D01*
X157591325Y-117614700D01*
X157368675Y-117614700D01*
X157150304Y-117658137D01*
X156944602Y-117743341D01*
X156759476Y-117867039D01*
X156602039Y-118024476D01*
X156478341Y-118209602D01*
X156393137Y-118415304D01*
X156349700Y-118633675D01*
X138290300Y-118633675D01*
X138246863Y-118415304D01*
X138161659Y-118209602D01*
X138037961Y-118024476D01*
X137880524Y-117867039D01*
X137695398Y-117743341D01*
X137489696Y-117658137D01*
X137271325Y-117614700D01*
X137048675Y-117614700D01*
X136830304Y-117658137D01*
X136624602Y-117743341D01*
X136439476Y-117867039D01*
X136282039Y-118024476D01*
X136158341Y-118209602D01*
X136073137Y-118415304D01*
X136029700Y-118633675D01*
X117970300Y-118633675D01*
X117926863Y-118415304D01*
X117841659Y-118209602D01*
X117717961Y-118024476D01*
X117560524Y-117867039D01*
X117375398Y-117743341D01*
X117169696Y-117658137D01*
X116951325Y-117614700D01*
X116728675Y-117614700D01*
X116510304Y-117658137D01*
X116304602Y-117743341D01*
X116119476Y-117867039D01*
X115962039Y-118024476D01*
X115838341Y-118209602D01*
X115753137Y-118415304D01*
X115709700Y-118633675D01*
X98493281Y-118633675D01*
X95953281Y-116093675D01*
X115709700Y-116093675D01*
X115709700Y-116316325D01*
X115753137Y-116534696D01*
X115838341Y-116740398D01*
X115962039Y-116925524D01*
X116119476Y-117082961D01*
X116304602Y-117206659D01*
X116510304Y-117291863D01*
X116728675Y-117335300D01*
X116951325Y-117335300D01*
X117169696Y-117291863D01*
X117375398Y-117206659D01*
X117560524Y-117082961D01*
X117717961Y-116925524D01*
X117841659Y-116740398D01*
X117926863Y-116534696D01*
X117970300Y-116316325D01*
X117970300Y-116093675D01*
X136029700Y-116093675D01*
X136029700Y-116316325D01*
X136073137Y-116534696D01*
X136158341Y-116740398D01*
X136282039Y-116925524D01*
X136439476Y-117082961D01*
X136624602Y-117206659D01*
X136830304Y-117291863D01*
X137048675Y-117335300D01*
X137271325Y-117335300D01*
X137489696Y-117291863D01*
X137695398Y-117206659D01*
X137880524Y-117082961D01*
X138037961Y-116925524D01*
X138161659Y-116740398D01*
X138246863Y-116534696D01*
X138290300Y-116316325D01*
X138290300Y-116093675D01*
X156349700Y-116093675D01*
X156349700Y-116316325D01*
X156393137Y-116534696D01*
X156478341Y-116740398D01*
X156602039Y-116925524D01*
X156759476Y-117082961D01*
X156944602Y-117206659D01*
X157150304Y-117291863D01*
X157368675Y-117335300D01*
X157591325Y-117335300D01*
X157809696Y-117291863D01*
X158015398Y-117206659D01*
X158200524Y-117082961D01*
X158357961Y-116925524D01*
X158481659Y-116740398D01*
X158566863Y-116534696D01*
X158610300Y-116316325D01*
X158610300Y-116093675D01*
X158566863Y-115875304D01*
X158481659Y-115669602D01*
X158357961Y-115484476D01*
X158200524Y-115327039D01*
X158015398Y-115203341D01*
X157809696Y-115118137D01*
X157591325Y-115074700D01*
X157368675Y-115074700D01*
X157150304Y-115118137D01*
X156944602Y-115203341D01*
X156759476Y-115327039D01*
X156602039Y-115484476D01*
X156478341Y-115669602D01*
X156393137Y-115875304D01*
X156349700Y-116093675D01*
X138290300Y-116093675D01*
X138246863Y-115875304D01*
X138161659Y-115669602D01*
X138037961Y-115484476D01*
X137880524Y-115327039D01*
X137695398Y-115203341D01*
X137489696Y-115118137D01*
X137271325Y-115074700D01*
X137048675Y-115074700D01*
X136830304Y-115118137D01*
X136624602Y-115203341D01*
X136439476Y-115327039D01*
X136282039Y-115484476D01*
X136158341Y-115669602D01*
X136073137Y-115875304D01*
X136029700Y-116093675D01*
X117970300Y-116093675D01*
X117926863Y-115875304D01*
X117841659Y-115669602D01*
X117717961Y-115484476D01*
X117560524Y-115327039D01*
X117375398Y-115203341D01*
X117169696Y-115118137D01*
X116951325Y-115074700D01*
X116728675Y-115074700D01*
X116510304Y-115118137D01*
X116304602Y-115203341D01*
X116119476Y-115327039D01*
X115962039Y-115484476D01*
X115838341Y-115669602D01*
X115753137Y-115875304D01*
X115709700Y-116093675D01*
X95953281Y-116093675D01*
X95035184Y-115175578D01*
X97644000Y-115175578D01*
X97644000Y-115329422D01*
X97674013Y-115480309D01*
X97732887Y-115622442D01*
X97818358Y-115750359D01*
X97927141Y-115859142D01*
X98055058Y-115944613D01*
X98197191Y-116003487D01*
X98348078Y-116033500D01*
X98501922Y-116033500D01*
X98652809Y-116003487D01*
X98794942Y-115944613D01*
X98922859Y-115859142D01*
X99031642Y-115750359D01*
X99117113Y-115622442D01*
X99175987Y-115480309D01*
X99206000Y-115329422D01*
X99206000Y-115175578D01*
X99175987Y-115024691D01*
X99117113Y-114882558D01*
X99031642Y-114754641D01*
X98922859Y-114645858D01*
X98794942Y-114560387D01*
X98652809Y-114501513D01*
X98501922Y-114471500D01*
X98348078Y-114471500D01*
X98197191Y-114501513D01*
X98055058Y-114560387D01*
X97927141Y-114645858D01*
X97818358Y-114754641D01*
X97732887Y-114882558D01*
X97674013Y-115024691D01*
X97644000Y-115175578D01*
X95035184Y-115175578D01*
X93413281Y-113553675D01*
X100469700Y-113553675D01*
X100469700Y-113776325D01*
X100513137Y-113994696D01*
X100598341Y-114200398D01*
X100722039Y-114385524D01*
X100879476Y-114542961D01*
X101064602Y-114666659D01*
X101270304Y-114751863D01*
X101488675Y-114795300D01*
X101711325Y-114795300D01*
X101929696Y-114751863D01*
X102135398Y-114666659D01*
X102320524Y-114542961D01*
X102477961Y-114385524D01*
X102601659Y-114200398D01*
X102686863Y-113994696D01*
X102730300Y-113776325D01*
X102730300Y-113553675D01*
X115709700Y-113553675D01*
X115709700Y-113776325D01*
X115753137Y-113994696D01*
X115838341Y-114200398D01*
X115962039Y-114385524D01*
X116119476Y-114542961D01*
X116304602Y-114666659D01*
X116510304Y-114751863D01*
X116728675Y-114795300D01*
X116951325Y-114795300D01*
X117169696Y-114751863D01*
X117375398Y-114666659D01*
X117560524Y-114542961D01*
X117717961Y-114385524D01*
X117841659Y-114200398D01*
X117926863Y-113994696D01*
X117970300Y-113776325D01*
X117970300Y-113553675D01*
X120789700Y-113553675D01*
X120789700Y-113776325D01*
X120833137Y-113994696D01*
X120918341Y-114200398D01*
X121042039Y-114385524D01*
X121199476Y-114542961D01*
X121384602Y-114666659D01*
X121590304Y-114751863D01*
X121808675Y-114795300D01*
X122031325Y-114795300D01*
X122249696Y-114751863D01*
X122455398Y-114666659D01*
X122640524Y-114542961D01*
X122797961Y-114385524D01*
X122921659Y-114200398D01*
X123006863Y-113994696D01*
X123050300Y-113776325D01*
X123050300Y-113553675D01*
X136029700Y-113553675D01*
X136029700Y-113776325D01*
X136073137Y-113994696D01*
X136158341Y-114200398D01*
X136282039Y-114385524D01*
X136439476Y-114542961D01*
X136624602Y-114666659D01*
X136830304Y-114751863D01*
X137048675Y-114795300D01*
X137271325Y-114795300D01*
X137489696Y-114751863D01*
X137695398Y-114666659D01*
X137880524Y-114542961D01*
X138037961Y-114385524D01*
X138161659Y-114200398D01*
X138246863Y-113994696D01*
X138290300Y-113776325D01*
X138290300Y-113553675D01*
X141109700Y-113553675D01*
X141109700Y-113776325D01*
X141153137Y-113994696D01*
X141238341Y-114200398D01*
X141362039Y-114385524D01*
X141519476Y-114542961D01*
X141704602Y-114666659D01*
X141910304Y-114751863D01*
X142128675Y-114795300D01*
X142351325Y-114795300D01*
X142569696Y-114751863D01*
X142775398Y-114666659D01*
X142960524Y-114542961D01*
X143117961Y-114385524D01*
X143241659Y-114200398D01*
X143326863Y-113994696D01*
X143370300Y-113776325D01*
X143370300Y-113553675D01*
X156349700Y-113553675D01*
X156349700Y-113776325D01*
X156393137Y-113994696D01*
X156478341Y-114200398D01*
X156602039Y-114385524D01*
X156759476Y-114542961D01*
X156944602Y-114666659D01*
X157150304Y-114751863D01*
X157368675Y-114795300D01*
X157591325Y-114795300D01*
X157809696Y-114751863D01*
X158015398Y-114666659D01*
X158200524Y-114542961D01*
X158357961Y-114385524D01*
X158481659Y-114200398D01*
X158566863Y-113994696D01*
X158610300Y-113776325D01*
X158610300Y-113553675D01*
X158566863Y-113335304D01*
X158481659Y-113129602D01*
X158357961Y-112944476D01*
X158200524Y-112787039D01*
X158015398Y-112663341D01*
X157809696Y-112578137D01*
X157591325Y-112534700D01*
X157368675Y-112534700D01*
X157150304Y-112578137D01*
X156944602Y-112663341D01*
X156759476Y-112787039D01*
X156602039Y-112944476D01*
X156478341Y-113129602D01*
X156393137Y-113335304D01*
X156349700Y-113553675D01*
X143370300Y-113553675D01*
X143326863Y-113335304D01*
X143241659Y-113129602D01*
X143117961Y-112944476D01*
X142960524Y-112787039D01*
X142775398Y-112663341D01*
X142569696Y-112578137D01*
X142351325Y-112534700D01*
X142128675Y-112534700D01*
X141910304Y-112578137D01*
X141704602Y-112663341D01*
X141519476Y-112787039D01*
X141362039Y-112944476D01*
X141238341Y-113129602D01*
X141153137Y-113335304D01*
X141109700Y-113553675D01*
X138290300Y-113553675D01*
X138246863Y-113335304D01*
X138161659Y-113129602D01*
X138037961Y-112944476D01*
X137880524Y-112787039D01*
X137695398Y-112663341D01*
X137489696Y-112578137D01*
X137271325Y-112534700D01*
X137048675Y-112534700D01*
X136830304Y-112578137D01*
X136624602Y-112663341D01*
X136439476Y-112787039D01*
X136282039Y-112944476D01*
X136158341Y-113129602D01*
X136073137Y-113335304D01*
X136029700Y-113553675D01*
X123050300Y-113553675D01*
X123006863Y-113335304D01*
X122921659Y-113129602D01*
X122797961Y-112944476D01*
X122640524Y-112787039D01*
X122455398Y-112663341D01*
X122249696Y-112578137D01*
X122031325Y-112534700D01*
X121808675Y-112534700D01*
X121590304Y-112578137D01*
X121384602Y-112663341D01*
X121199476Y-112787039D01*
X121042039Y-112944476D01*
X120918341Y-113129602D01*
X120833137Y-113335304D01*
X120789700Y-113553675D01*
X117970300Y-113553675D01*
X117926863Y-113335304D01*
X117841659Y-113129602D01*
X117717961Y-112944476D01*
X117560524Y-112787039D01*
X117375398Y-112663341D01*
X117169696Y-112578137D01*
X116951325Y-112534700D01*
X116728675Y-112534700D01*
X116510304Y-112578137D01*
X116304602Y-112663341D01*
X116119476Y-112787039D01*
X115962039Y-112944476D01*
X115838341Y-113129602D01*
X115753137Y-113335304D01*
X115709700Y-113553675D01*
X102730300Y-113553675D01*
X102686863Y-113335304D01*
X102601659Y-113129602D01*
X102477961Y-112944476D01*
X102320524Y-112787039D01*
X102135398Y-112663341D01*
X101929696Y-112578137D01*
X101711325Y-112534700D01*
X101488675Y-112534700D01*
X101270304Y-112578137D01*
X101064602Y-112663341D01*
X100879476Y-112787039D01*
X100722039Y-112944476D01*
X100598341Y-113129602D01*
X100513137Y-113335304D01*
X100469700Y-113553675D01*
X93413281Y-113553675D01*
X93154500Y-113294894D01*
X93154500Y-112318078D01*
X96056500Y-112318078D01*
X96056500Y-112471922D01*
X96086513Y-112622809D01*
X96145387Y-112764942D01*
X96230858Y-112892859D01*
X96339641Y-113001642D01*
X96467558Y-113087113D01*
X96609691Y-113145987D01*
X96760578Y-113176000D01*
X96914422Y-113176000D01*
X97065309Y-113145987D01*
X97207442Y-113087113D01*
X97335359Y-113001642D01*
X97444142Y-112892859D01*
X97529613Y-112764942D01*
X97588487Y-112622809D01*
X97618500Y-112471922D01*
X97618500Y-112318078D01*
X97588487Y-112167191D01*
X97529613Y-112025058D01*
X97444142Y-111897141D01*
X97335359Y-111788358D01*
X97207442Y-111702887D01*
X97065309Y-111644013D01*
X96914422Y-111614000D01*
X96760578Y-111614000D01*
X96609691Y-111644013D01*
X96467558Y-111702887D01*
X96339641Y-111788358D01*
X96230858Y-111897141D01*
X96145387Y-112025058D01*
X96086513Y-112167191D01*
X96056500Y-112318078D01*
X93154500Y-112318078D01*
X93154500Y-111048078D01*
X93516500Y-111048078D01*
X93516500Y-111201922D01*
X93546513Y-111352809D01*
X93605387Y-111494942D01*
X93690858Y-111622859D01*
X93799641Y-111731642D01*
X93927558Y-111817113D01*
X94069691Y-111875987D01*
X94220578Y-111906000D01*
X94374422Y-111906000D01*
X94525309Y-111875987D01*
X94667442Y-111817113D01*
X94795359Y-111731642D01*
X94904142Y-111622859D01*
X94989613Y-111494942D01*
X95048487Y-111352809D01*
X95078500Y-111201922D01*
X95078500Y-111048078D01*
X95071657Y-111013675D01*
X100469700Y-111013675D01*
X100469700Y-111236325D01*
X100513137Y-111454696D01*
X100598341Y-111660398D01*
X100722039Y-111845524D01*
X100879476Y-112002961D01*
X101064602Y-112126659D01*
X101270304Y-112211863D01*
X101488675Y-112255300D01*
X101711325Y-112255300D01*
X101929696Y-112211863D01*
X102135398Y-112126659D01*
X102320524Y-112002961D01*
X102477961Y-111845524D01*
X102601659Y-111660398D01*
X102686863Y-111454696D01*
X102730300Y-111236325D01*
X102730300Y-111013675D01*
X115709700Y-111013675D01*
X115709700Y-111236325D01*
X115753137Y-111454696D01*
X115838341Y-111660398D01*
X115962039Y-111845524D01*
X116119476Y-112002961D01*
X116304602Y-112126659D01*
X116510304Y-112211863D01*
X116728675Y-112255300D01*
X116951325Y-112255300D01*
X117169696Y-112211863D01*
X117375398Y-112126659D01*
X117560524Y-112002961D01*
X117717961Y-111845524D01*
X117841659Y-111660398D01*
X117926863Y-111454696D01*
X117970300Y-111236325D01*
X117970300Y-111013675D01*
X120789700Y-111013675D01*
X120789700Y-111236325D01*
X120833137Y-111454696D01*
X120918341Y-111660398D01*
X121042039Y-111845524D01*
X121199476Y-112002961D01*
X121384602Y-112126659D01*
X121590304Y-112211863D01*
X121808675Y-112255300D01*
X122031325Y-112255300D01*
X122249696Y-112211863D01*
X122455398Y-112126659D01*
X122640524Y-112002961D01*
X122797961Y-111845524D01*
X122921659Y-111660398D01*
X123006863Y-111454696D01*
X123050300Y-111236325D01*
X123050300Y-111013675D01*
X136029700Y-111013675D01*
X136029700Y-111236325D01*
X136073137Y-111454696D01*
X136158341Y-111660398D01*
X136282039Y-111845524D01*
X136439476Y-112002961D01*
X136624602Y-112126659D01*
X136830304Y-112211863D01*
X137048675Y-112255300D01*
X137271325Y-112255300D01*
X137489696Y-112211863D01*
X137695398Y-112126659D01*
X137880524Y-112002961D01*
X138037961Y-111845524D01*
X138161659Y-111660398D01*
X138246863Y-111454696D01*
X138290300Y-111236325D01*
X138290300Y-111013675D01*
X141109700Y-111013675D01*
X141109700Y-111236325D01*
X141153137Y-111454696D01*
X141238341Y-111660398D01*
X141362039Y-111845524D01*
X141519476Y-112002961D01*
X141704602Y-112126659D01*
X141910304Y-112211863D01*
X142128675Y-112255300D01*
X142351325Y-112255300D01*
X142569696Y-112211863D01*
X142775398Y-112126659D01*
X142960524Y-112002961D01*
X143117961Y-111845524D01*
X143241659Y-111660398D01*
X143326863Y-111454696D01*
X143370300Y-111236325D01*
X143370300Y-111013675D01*
X156349700Y-111013675D01*
X156349700Y-111236325D01*
X156393137Y-111454696D01*
X156478341Y-111660398D01*
X156602039Y-111845524D01*
X156759476Y-112002961D01*
X156944602Y-112126659D01*
X157150304Y-112211863D01*
X157368675Y-112255300D01*
X157591325Y-112255300D01*
X157809696Y-112211863D01*
X158015398Y-112126659D01*
X158200524Y-112002961D01*
X158357961Y-111845524D01*
X158481659Y-111660398D01*
X158566863Y-111454696D01*
X158610300Y-111236325D01*
X158610300Y-111013675D01*
X158566863Y-110795304D01*
X158481659Y-110589602D01*
X158357961Y-110404476D01*
X158200524Y-110247039D01*
X158015398Y-110123341D01*
X157809696Y-110038137D01*
X157591325Y-109994700D01*
X157368675Y-109994700D01*
X157150304Y-110038137D01*
X156944602Y-110123341D01*
X156759476Y-110247039D01*
X156602039Y-110404476D01*
X156478341Y-110589602D01*
X156393137Y-110795304D01*
X156349700Y-111013675D01*
X143370300Y-111013675D01*
X143326863Y-110795304D01*
X143241659Y-110589602D01*
X143117961Y-110404476D01*
X142960524Y-110247039D01*
X142775398Y-110123341D01*
X142569696Y-110038137D01*
X142351325Y-109994700D01*
X142128675Y-109994700D01*
X141910304Y-110038137D01*
X141704602Y-110123341D01*
X141519476Y-110247039D01*
X141362039Y-110404476D01*
X141238341Y-110589602D01*
X141153137Y-110795304D01*
X141109700Y-111013675D01*
X138290300Y-111013675D01*
X138246863Y-110795304D01*
X138161659Y-110589602D01*
X138037961Y-110404476D01*
X137880524Y-110247039D01*
X137695398Y-110123341D01*
X137489696Y-110038137D01*
X137271325Y-109994700D01*
X137048675Y-109994700D01*
X136830304Y-110038137D01*
X136624602Y-110123341D01*
X136439476Y-110247039D01*
X136282039Y-110404476D01*
X136158341Y-110589602D01*
X136073137Y-110795304D01*
X136029700Y-111013675D01*
X123050300Y-111013675D01*
X123006863Y-110795304D01*
X122921659Y-110589602D01*
X122797961Y-110404476D01*
X122640524Y-110247039D01*
X122455398Y-110123341D01*
X122249696Y-110038137D01*
X122031325Y-109994700D01*
X121808675Y-109994700D01*
X121590304Y-110038137D01*
X121384602Y-110123341D01*
X121199476Y-110247039D01*
X121042039Y-110404476D01*
X120918341Y-110589602D01*
X120833137Y-110795304D01*
X120789700Y-111013675D01*
X117970300Y-111013675D01*
X117926863Y-110795304D01*
X117841659Y-110589602D01*
X117717961Y-110404476D01*
X117560524Y-110247039D01*
X117375398Y-110123341D01*
X117169696Y-110038137D01*
X116951325Y-109994700D01*
X116728675Y-109994700D01*
X116510304Y-110038137D01*
X116304602Y-110123341D01*
X116119476Y-110247039D01*
X115962039Y-110404476D01*
X115838341Y-110589602D01*
X115753137Y-110795304D01*
X115709700Y-111013675D01*
X102730300Y-111013675D01*
X102686863Y-110795304D01*
X102601659Y-110589602D01*
X102477961Y-110404476D01*
X102320524Y-110247039D01*
X102135398Y-110123341D01*
X101929696Y-110038137D01*
X101711325Y-109994700D01*
X101488675Y-109994700D01*
X101270304Y-110038137D01*
X101064602Y-110123341D01*
X100879476Y-110247039D01*
X100722039Y-110404476D01*
X100598341Y-110589602D01*
X100513137Y-110795304D01*
X100469700Y-111013675D01*
X95071657Y-111013675D01*
X95048487Y-110897191D01*
X94989613Y-110755058D01*
X94904142Y-110627141D01*
X94795359Y-110518358D01*
X94667442Y-110432887D01*
X94525309Y-110374013D01*
X94374422Y-110344000D01*
X94220578Y-110344000D01*
X94069691Y-110374013D01*
X93927558Y-110432887D01*
X93799641Y-110518358D01*
X93690858Y-110627141D01*
X93605387Y-110755058D01*
X93546513Y-110897191D01*
X93516500Y-111048078D01*
X93154500Y-111048078D01*
X93154500Y-108473675D01*
X100469700Y-108473675D01*
X100469700Y-108696325D01*
X100513137Y-108914696D01*
X100598341Y-109120398D01*
X100722039Y-109305524D01*
X100879476Y-109462961D01*
X101064602Y-109586659D01*
X101270304Y-109671863D01*
X101488675Y-109715300D01*
X101711325Y-109715300D01*
X101929696Y-109671863D01*
X102135398Y-109586659D01*
X102320524Y-109462961D01*
X102477961Y-109305524D01*
X102601659Y-109120398D01*
X102686863Y-108914696D01*
X102730300Y-108696325D01*
X102730300Y-108473675D01*
X115709700Y-108473675D01*
X115709700Y-108696325D01*
X115753137Y-108914696D01*
X115838341Y-109120398D01*
X115962039Y-109305524D01*
X116119476Y-109462961D01*
X116304602Y-109586659D01*
X116510304Y-109671863D01*
X116728675Y-109715300D01*
X116951325Y-109715300D01*
X117169696Y-109671863D01*
X117375398Y-109586659D01*
X117560524Y-109462961D01*
X117717961Y-109305524D01*
X117841659Y-109120398D01*
X117926863Y-108914696D01*
X117970300Y-108696325D01*
X117970300Y-108473675D01*
X120789700Y-108473675D01*
X120789700Y-108696325D01*
X120833137Y-108914696D01*
X120918341Y-109120398D01*
X121042039Y-109305524D01*
X121199476Y-109462961D01*
X121384602Y-109586659D01*
X121590304Y-109671863D01*
X121808675Y-109715300D01*
X122031325Y-109715300D01*
X122249696Y-109671863D01*
X122455398Y-109586659D01*
X122640524Y-109462961D01*
X122797961Y-109305524D01*
X122921659Y-109120398D01*
X123006863Y-108914696D01*
X123050300Y-108696325D01*
X123050300Y-108473675D01*
X136029700Y-108473675D01*
X136029700Y-108696325D01*
X136073137Y-108914696D01*
X136158341Y-109120398D01*
X136282039Y-109305524D01*
X136439476Y-109462961D01*
X136624602Y-109586659D01*
X136830304Y-109671863D01*
X137048675Y-109715300D01*
X137271325Y-109715300D01*
X137489696Y-109671863D01*
X137695398Y-109586659D01*
X137880524Y-109462961D01*
X138037961Y-109305524D01*
X138161659Y-109120398D01*
X138246863Y-108914696D01*
X138290300Y-108696325D01*
X138290300Y-108473675D01*
X141109700Y-108473675D01*
X141109700Y-108696325D01*
X141153137Y-108914696D01*
X141238341Y-109120398D01*
X141362039Y-109305524D01*
X141519476Y-109462961D01*
X141704602Y-109586659D01*
X141910304Y-109671863D01*
X142128675Y-109715300D01*
X142351325Y-109715300D01*
X142569696Y-109671863D01*
X142775398Y-109586659D01*
X142960524Y-109462961D01*
X143117961Y-109305524D01*
X143241659Y-109120398D01*
X143326863Y-108914696D01*
X143370300Y-108696325D01*
X143370300Y-108473675D01*
X156349700Y-108473675D01*
X156349700Y-108696325D01*
X156393137Y-108914696D01*
X156478341Y-109120398D01*
X156602039Y-109305524D01*
X156759476Y-109462961D01*
X156944602Y-109586659D01*
X157150304Y-109671863D01*
X157368675Y-109715300D01*
X157591325Y-109715300D01*
X157809696Y-109671863D01*
X158015398Y-109586659D01*
X158200524Y-109462961D01*
X158357961Y-109305524D01*
X158481659Y-109120398D01*
X158566863Y-108914696D01*
X158610300Y-108696325D01*
X158610300Y-108473675D01*
X158566863Y-108255304D01*
X158481659Y-108049602D01*
X158357961Y-107864476D01*
X158200524Y-107707039D01*
X158015398Y-107583341D01*
X157809696Y-107498137D01*
X157591325Y-107454700D01*
X157368675Y-107454700D01*
X157150304Y-107498137D01*
X156944602Y-107583341D01*
X156759476Y-107707039D01*
X156602039Y-107864476D01*
X156478341Y-108049602D01*
X156393137Y-108255304D01*
X156349700Y-108473675D01*
X143370300Y-108473675D01*
X143326863Y-108255304D01*
X143241659Y-108049602D01*
X143117961Y-107864476D01*
X142960524Y-107707039D01*
X142775398Y-107583341D01*
X142569696Y-107498137D01*
X142351325Y-107454700D01*
X142128675Y-107454700D01*
X141910304Y-107498137D01*
X141704602Y-107583341D01*
X141519476Y-107707039D01*
X141362039Y-107864476D01*
X141238341Y-108049602D01*
X141153137Y-108255304D01*
X141109700Y-108473675D01*
X138290300Y-108473675D01*
X138246863Y-108255304D01*
X138161659Y-108049602D01*
X138037961Y-107864476D01*
X137880524Y-107707039D01*
X137695398Y-107583341D01*
X137489696Y-107498137D01*
X137271325Y-107454700D01*
X137048675Y-107454700D01*
X136830304Y-107498137D01*
X136624602Y-107583341D01*
X136439476Y-107707039D01*
X136282039Y-107864476D01*
X136158341Y-108049602D01*
X136073137Y-108255304D01*
X136029700Y-108473675D01*
X123050300Y-108473675D01*
X123006863Y-108255304D01*
X122921659Y-108049602D01*
X122797961Y-107864476D01*
X122640524Y-107707039D01*
X122455398Y-107583341D01*
X122249696Y-107498137D01*
X122031325Y-107454700D01*
X121808675Y-107454700D01*
X121590304Y-107498137D01*
X121384602Y-107583341D01*
X121199476Y-107707039D01*
X121042039Y-107864476D01*
X120918341Y-108049602D01*
X120833137Y-108255304D01*
X120789700Y-108473675D01*
X117970300Y-108473675D01*
X117926863Y-108255304D01*
X117841659Y-108049602D01*
X117717961Y-107864476D01*
X117560524Y-107707039D01*
X117375398Y-107583341D01*
X117169696Y-107498137D01*
X116951325Y-107454700D01*
X116728675Y-107454700D01*
X116510304Y-107498137D01*
X116304602Y-107583341D01*
X116119476Y-107707039D01*
X115962039Y-107864476D01*
X115838341Y-108049602D01*
X115753137Y-108255304D01*
X115709700Y-108473675D01*
X102730300Y-108473675D01*
X102686863Y-108255304D01*
X102601659Y-108049602D01*
X102477961Y-107864476D01*
X102320524Y-107707039D01*
X102135398Y-107583341D01*
X101929696Y-107498137D01*
X101711325Y-107454700D01*
X101488675Y-107454700D01*
X101270304Y-107498137D01*
X101064602Y-107583341D01*
X100879476Y-107707039D01*
X100722039Y-107864476D01*
X100598341Y-108049602D01*
X100513137Y-108255304D01*
X100469700Y-108473675D01*
X93154500Y-108473675D01*
X93154500Y-105933675D01*
X100469700Y-105933675D01*
X100469700Y-106156325D01*
X100513137Y-106374696D01*
X100598341Y-106580398D01*
X100722039Y-106765524D01*
X100879476Y-106922961D01*
X101064602Y-107046659D01*
X101270304Y-107131863D01*
X101488675Y-107175300D01*
X101711325Y-107175300D01*
X101929696Y-107131863D01*
X102135398Y-107046659D01*
X102320524Y-106922961D01*
X102477961Y-106765524D01*
X102601659Y-106580398D01*
X102686863Y-106374696D01*
X102730300Y-106156325D01*
X102730300Y-105933675D01*
X115709700Y-105933675D01*
X115709700Y-106156325D01*
X115753137Y-106374696D01*
X115838341Y-106580398D01*
X115962039Y-106765524D01*
X116119476Y-106922961D01*
X116304602Y-107046659D01*
X116510304Y-107131863D01*
X116728675Y-107175300D01*
X116951325Y-107175300D01*
X117169696Y-107131863D01*
X117375398Y-107046659D01*
X117560524Y-106922961D01*
X117717961Y-106765524D01*
X117841659Y-106580398D01*
X117926863Y-106374696D01*
X117970300Y-106156325D01*
X117970300Y-105933675D01*
X120789700Y-105933675D01*
X120789700Y-106156325D01*
X120833137Y-106374696D01*
X120918341Y-106580398D01*
X121042039Y-106765524D01*
X121199476Y-106922961D01*
X121384602Y-107046659D01*
X121590304Y-107131863D01*
X121808675Y-107175300D01*
X122031325Y-107175300D01*
X122249696Y-107131863D01*
X122455398Y-107046659D01*
X122640524Y-106922961D01*
X122797961Y-106765524D01*
X122921659Y-106580398D01*
X123006863Y-106374696D01*
X123050300Y-106156325D01*
X123050300Y-105933675D01*
X136029700Y-105933675D01*
X136029700Y-106156325D01*
X136073137Y-106374696D01*
X136158341Y-106580398D01*
X136282039Y-106765524D01*
X136439476Y-106922961D01*
X136624602Y-107046659D01*
X136830304Y-107131863D01*
X137048675Y-107175300D01*
X137271325Y-107175300D01*
X137489696Y-107131863D01*
X137695398Y-107046659D01*
X137880524Y-106922961D01*
X138037961Y-106765524D01*
X138161659Y-106580398D01*
X138246863Y-106374696D01*
X138290300Y-106156325D01*
X138290300Y-105933675D01*
X141109700Y-105933675D01*
X141109700Y-106156325D01*
X141153137Y-106374696D01*
X141238341Y-106580398D01*
X141362039Y-106765524D01*
X141519476Y-106922961D01*
X141704602Y-107046659D01*
X141910304Y-107131863D01*
X142128675Y-107175300D01*
X142351325Y-107175300D01*
X142569696Y-107131863D01*
X142775398Y-107046659D01*
X142960524Y-106922961D01*
X143117961Y-106765524D01*
X143241659Y-106580398D01*
X143326863Y-106374696D01*
X143370300Y-106156325D01*
X143370300Y-105933675D01*
X156349700Y-105933675D01*
X156349700Y-106156325D01*
X156393137Y-106374696D01*
X156478341Y-106580398D01*
X156602039Y-106765524D01*
X156759476Y-106922961D01*
X156944602Y-107046659D01*
X157150304Y-107131863D01*
X157368675Y-107175300D01*
X157591325Y-107175300D01*
X157809696Y-107131863D01*
X158015398Y-107046659D01*
X158200524Y-106922961D01*
X158357961Y-106765524D01*
X158481659Y-106580398D01*
X158566863Y-106374696D01*
X158610300Y-106156325D01*
X158610300Y-105933675D01*
X158566863Y-105715304D01*
X158481659Y-105509602D01*
X158357961Y-105324476D01*
X158200524Y-105167039D01*
X158015398Y-105043341D01*
X157809696Y-104958137D01*
X157591325Y-104914700D01*
X157368675Y-104914700D01*
X157150304Y-104958137D01*
X156944602Y-105043341D01*
X156759476Y-105167039D01*
X156602039Y-105324476D01*
X156478341Y-105509602D01*
X156393137Y-105715304D01*
X156349700Y-105933675D01*
X143370300Y-105933675D01*
X143326863Y-105715304D01*
X143241659Y-105509602D01*
X143117961Y-105324476D01*
X142960524Y-105167039D01*
X142775398Y-105043341D01*
X142569696Y-104958137D01*
X142351325Y-104914700D01*
X142128675Y-104914700D01*
X141910304Y-104958137D01*
X141704602Y-105043341D01*
X141519476Y-105167039D01*
X141362039Y-105324476D01*
X141238341Y-105509602D01*
X141153137Y-105715304D01*
X141109700Y-105933675D01*
X138290300Y-105933675D01*
X138246863Y-105715304D01*
X138161659Y-105509602D01*
X138037961Y-105324476D01*
X137880524Y-105167039D01*
X137695398Y-105043341D01*
X137489696Y-104958137D01*
X137271325Y-104914700D01*
X137048675Y-104914700D01*
X136830304Y-104958137D01*
X136624602Y-105043341D01*
X136439476Y-105167039D01*
X136282039Y-105324476D01*
X136158341Y-105509602D01*
X136073137Y-105715304D01*
X136029700Y-105933675D01*
X123050300Y-105933675D01*
X123006863Y-105715304D01*
X122921659Y-105509602D01*
X122797961Y-105324476D01*
X122640524Y-105167039D01*
X122455398Y-105043341D01*
X122249696Y-104958137D01*
X122031325Y-104914700D01*
X121808675Y-104914700D01*
X121590304Y-104958137D01*
X121384602Y-105043341D01*
X121199476Y-105167039D01*
X121042039Y-105324476D01*
X120918341Y-105509602D01*
X120833137Y-105715304D01*
X120789700Y-105933675D01*
X117970300Y-105933675D01*
X117926863Y-105715304D01*
X117841659Y-105509602D01*
X117717961Y-105324476D01*
X117560524Y-105167039D01*
X117375398Y-105043341D01*
X117169696Y-104958137D01*
X116951325Y-104914700D01*
X116728675Y-104914700D01*
X116510304Y-104958137D01*
X116304602Y-105043341D01*
X116119476Y-105167039D01*
X115962039Y-105324476D01*
X115838341Y-105509602D01*
X115753137Y-105715304D01*
X115709700Y-105933675D01*
X102730300Y-105933675D01*
X102686863Y-105715304D01*
X102601659Y-105509602D01*
X102477961Y-105324476D01*
X102320524Y-105167039D01*
X102135398Y-105043341D01*
X101929696Y-104958137D01*
X101711325Y-104914700D01*
X101488675Y-104914700D01*
X101270304Y-104958137D01*
X101064602Y-105043341D01*
X100879476Y-105167039D01*
X100722039Y-105324476D01*
X100598341Y-105509602D01*
X100513137Y-105715304D01*
X100469700Y-105933675D01*
X93154500Y-105933675D01*
X93154500Y-103393675D01*
X100469700Y-103393675D01*
X100469700Y-103616325D01*
X100513137Y-103834696D01*
X100598341Y-104040398D01*
X100722039Y-104225524D01*
X100879476Y-104382961D01*
X101064602Y-104506659D01*
X101270304Y-104591863D01*
X101488675Y-104635300D01*
X101711325Y-104635300D01*
X101929696Y-104591863D01*
X102135398Y-104506659D01*
X102320524Y-104382961D01*
X102477961Y-104225524D01*
X102601659Y-104040398D01*
X102686863Y-103834696D01*
X102730300Y-103616325D01*
X102730300Y-103393675D01*
X120789700Y-103393675D01*
X120789700Y-103616325D01*
X120833137Y-103834696D01*
X120918341Y-104040398D01*
X121042039Y-104225524D01*
X121199476Y-104382961D01*
X121384602Y-104506659D01*
X121590304Y-104591863D01*
X121808675Y-104635300D01*
X122031325Y-104635300D01*
X122249696Y-104591863D01*
X122455398Y-104506659D01*
X122640524Y-104382961D01*
X122797961Y-104225524D01*
X122921659Y-104040398D01*
X123006863Y-103834696D01*
X123050300Y-103616325D01*
X123050300Y-103393675D01*
X141109700Y-103393675D01*
X141109700Y-103616325D01*
X141153137Y-103834696D01*
X141238341Y-104040398D01*
X141362039Y-104225524D01*
X141519476Y-104382961D01*
X141704602Y-104506659D01*
X141910304Y-104591863D01*
X142128675Y-104635300D01*
X142351325Y-104635300D01*
X142569696Y-104591863D01*
X142775398Y-104506659D01*
X142960524Y-104382961D01*
X143117961Y-104225524D01*
X143241659Y-104040398D01*
X143326863Y-103834696D01*
X143370300Y-103616325D01*
X143370300Y-103393675D01*
X143326863Y-103175304D01*
X143241659Y-102969602D01*
X143117961Y-102784476D01*
X142960524Y-102627039D01*
X142775398Y-102503341D01*
X142569696Y-102418137D01*
X142351325Y-102374700D01*
X142128675Y-102374700D01*
X141910304Y-102418137D01*
X141704602Y-102503341D01*
X141519476Y-102627039D01*
X141362039Y-102784476D01*
X141238341Y-102969602D01*
X141153137Y-103175304D01*
X141109700Y-103393675D01*
X123050300Y-103393675D01*
X123006863Y-103175304D01*
X122921659Y-102969602D01*
X122797961Y-102784476D01*
X122640524Y-102627039D01*
X122455398Y-102503341D01*
X122249696Y-102418137D01*
X122031325Y-102374700D01*
X121808675Y-102374700D01*
X121590304Y-102418137D01*
X121384602Y-102503341D01*
X121199476Y-102627039D01*
X121042039Y-102784476D01*
X120918341Y-102969602D01*
X120833137Y-103175304D01*
X120789700Y-103393675D01*
X102730300Y-103393675D01*
X102686863Y-103175304D01*
X102601659Y-102969602D01*
X102477961Y-102784476D01*
X102320524Y-102627039D01*
X102135398Y-102503341D01*
X101929696Y-102418137D01*
X101711325Y-102374700D01*
X101488675Y-102374700D01*
X101270304Y-102418137D01*
X101064602Y-102503341D01*
X100879476Y-102627039D01*
X100722039Y-102784476D01*
X100598341Y-102969602D01*
X100513137Y-103175304D01*
X100469700Y-103393675D01*
X93154500Y-103393675D01*
X93154500Y-102506221D01*
X93239413Y-102497858D01*
X93443182Y-102436046D01*
X93630977Y-102335667D01*
X93795581Y-102200581D01*
X93930667Y-102035977D01*
X94031046Y-101848181D01*
X94092858Y-101644412D01*
X94108500Y-101485599D01*
X94108500Y-101079400D01*
X94092858Y-100920587D01*
X94072561Y-100853675D01*
X100469700Y-100853675D01*
X100469700Y-101076325D01*
X100513137Y-101294696D01*
X100598341Y-101500398D01*
X100722039Y-101685524D01*
X100879476Y-101842961D01*
X101064602Y-101966659D01*
X101270304Y-102051863D01*
X101488675Y-102095300D01*
X101711325Y-102095300D01*
X101929696Y-102051863D01*
X102135398Y-101966659D01*
X102320524Y-101842961D01*
X102477961Y-101685524D01*
X102601659Y-101500398D01*
X102686863Y-101294696D01*
X102730300Y-101076325D01*
X102730300Y-100853675D01*
X115709700Y-100853675D01*
X115709700Y-101076325D01*
X115753137Y-101294696D01*
X115838341Y-101500398D01*
X115962039Y-101685524D01*
X116119476Y-101842961D01*
X116304602Y-101966659D01*
X116510304Y-102051863D01*
X116728675Y-102095300D01*
X116951325Y-102095300D01*
X117169696Y-102051863D01*
X117375398Y-101966659D01*
X117560524Y-101842961D01*
X117717961Y-101685524D01*
X117841659Y-101500398D01*
X117926863Y-101294696D01*
X117970300Y-101076325D01*
X117970300Y-100853675D01*
X120789700Y-100853675D01*
X120789700Y-101076325D01*
X120833137Y-101294696D01*
X120918341Y-101500398D01*
X121042039Y-101685524D01*
X121199476Y-101842961D01*
X121384602Y-101966659D01*
X121590304Y-102051863D01*
X121808675Y-102095300D01*
X122031325Y-102095300D01*
X122249696Y-102051863D01*
X122455398Y-101966659D01*
X122640524Y-101842961D01*
X122797961Y-101685524D01*
X122921659Y-101500398D01*
X123006863Y-101294696D01*
X123050300Y-101076325D01*
X123050300Y-100853675D01*
X136029700Y-100853675D01*
X136029700Y-101076325D01*
X136073137Y-101294696D01*
X136158341Y-101500398D01*
X136282039Y-101685524D01*
X136439476Y-101842961D01*
X136624602Y-101966659D01*
X136830304Y-102051863D01*
X137048675Y-102095300D01*
X137271325Y-102095300D01*
X137489696Y-102051863D01*
X137695398Y-101966659D01*
X137880524Y-101842961D01*
X138037961Y-101685524D01*
X138161659Y-101500398D01*
X138246863Y-101294696D01*
X138290300Y-101076325D01*
X138290300Y-100853675D01*
X141109700Y-100853675D01*
X141109700Y-101076325D01*
X141153137Y-101294696D01*
X141238341Y-101500398D01*
X141362039Y-101685524D01*
X141519476Y-101842961D01*
X141704602Y-101966659D01*
X141910304Y-102051863D01*
X142128675Y-102095300D01*
X142351325Y-102095300D01*
X142569696Y-102051863D01*
X142775398Y-101966659D01*
X142960524Y-101842961D01*
X143117961Y-101685524D01*
X143241659Y-101500398D01*
X143326863Y-101294696D01*
X143370300Y-101076325D01*
X143370300Y-100853675D01*
X156349700Y-100853675D01*
X156349700Y-101076325D01*
X156393137Y-101294696D01*
X156478341Y-101500398D01*
X156602039Y-101685524D01*
X156759476Y-101842961D01*
X156944602Y-101966659D01*
X157150304Y-102051863D01*
X157368675Y-102095300D01*
X157591325Y-102095300D01*
X157809696Y-102051863D01*
X158015398Y-101966659D01*
X158200524Y-101842961D01*
X158357961Y-101685524D01*
X158481659Y-101500398D01*
X158566863Y-101294696D01*
X158610300Y-101076325D01*
X158610300Y-100853675D01*
X158566863Y-100635304D01*
X158481659Y-100429602D01*
X158357961Y-100244476D01*
X158200524Y-100087039D01*
X158015398Y-99963341D01*
X157809696Y-99878137D01*
X157591325Y-99834700D01*
X157368675Y-99834700D01*
X157150304Y-99878137D01*
X156944602Y-99963341D01*
X156759476Y-100087039D01*
X156602039Y-100244476D01*
X156478341Y-100429602D01*
X156393137Y-100635304D01*
X156349700Y-100853675D01*
X143370300Y-100853675D01*
X143326863Y-100635304D01*
X143241659Y-100429602D01*
X143117961Y-100244476D01*
X142960524Y-100087039D01*
X142775398Y-99963341D01*
X142569696Y-99878137D01*
X142351325Y-99834700D01*
X142128675Y-99834700D01*
X141910304Y-99878137D01*
X141704602Y-99963341D01*
X141519476Y-100087039D01*
X141362039Y-100244476D01*
X141238341Y-100429602D01*
X141153137Y-100635304D01*
X141109700Y-100853675D01*
X138290300Y-100853675D01*
X138246863Y-100635304D01*
X138161659Y-100429602D01*
X138037961Y-100244476D01*
X137880524Y-100087039D01*
X137695398Y-99963341D01*
X137489696Y-99878137D01*
X137271325Y-99834700D01*
X137048675Y-99834700D01*
X136830304Y-99878137D01*
X136624602Y-99963341D01*
X136439476Y-100087039D01*
X136282039Y-100244476D01*
X136158341Y-100429602D01*
X136073137Y-100635304D01*
X136029700Y-100853675D01*
X123050300Y-100853675D01*
X123006863Y-100635304D01*
X122921659Y-100429602D01*
X122797961Y-100244476D01*
X122640524Y-100087039D01*
X122455398Y-99963341D01*
X122249696Y-99878137D01*
X122031325Y-99834700D01*
X121808675Y-99834700D01*
X121590304Y-99878137D01*
X121384602Y-99963341D01*
X121199476Y-100087039D01*
X121042039Y-100244476D01*
X120918341Y-100429602D01*
X120833137Y-100635304D01*
X120789700Y-100853675D01*
X117970300Y-100853675D01*
X117926863Y-100635304D01*
X117841659Y-100429602D01*
X117717961Y-100244476D01*
X117560524Y-100087039D01*
X117375398Y-99963341D01*
X117169696Y-99878137D01*
X116951325Y-99834700D01*
X116728675Y-99834700D01*
X116510304Y-99878137D01*
X116304602Y-99963341D01*
X116119476Y-100087039D01*
X115962039Y-100244476D01*
X115838341Y-100429602D01*
X115753137Y-100635304D01*
X115709700Y-100853675D01*
X102730300Y-100853675D01*
X102686863Y-100635304D01*
X102601659Y-100429602D01*
X102477961Y-100244476D01*
X102320524Y-100087039D01*
X102135398Y-99963341D01*
X101929696Y-99878137D01*
X101711325Y-99834700D01*
X101488675Y-99834700D01*
X101270304Y-99878137D01*
X101064602Y-99963341D01*
X100879476Y-100087039D01*
X100722039Y-100244476D01*
X100598341Y-100429602D01*
X100513137Y-100635304D01*
X100469700Y-100853675D01*
X94072561Y-100853675D01*
X94031046Y-100716818D01*
X93941088Y-100548518D01*
X94667606Y-99822000D01*
X161872394Y-99822000D01*
X162433000Y-100382606D01*
G37*
%TD.AperFunction*%
%TD*%
M02*
