M48
; DRILL file {KiCad (5.1.8)-1} date 07/19/22 09:06:49
; FORMAT={-:-/ absolute / inch / decimal}
; #@! TF.CreationDate,2022-07-19T09:06:49+02:00
; #@! TF.GenerationSoftware,Kicad,Pcbnew,(5.1.8)-1
FMAT,2
INCH
T1C0.0118
T2C0.0157
T3C0.0276
T4C0.0300
T5C0.0394
T6C0.0550
T7C0.0984
T8C0.1181
%
G90
G05
T1
X1.0Y-4.65
X1.0Y-4.715
X1.0125Y-4.05
X1.0375Y-4.1375
X1.0375Y-4.175
X1.0375Y-4.2125
X1.0375Y-4.25
X1.0375Y-4.5125
X1.05Y-4.05
X1.075Y-4.1375
X1.075Y-4.175
X1.075Y-4.5125
X1.0875Y-4.05
X1.1125Y-4.1375
X1.1125Y-4.175
X1.1125Y-4.5125
X1.125Y-4.05
X1.1375Y-4.65
X1.15Y-4.1375
X1.15Y-4.175
X1.15Y-4.5125
X1.1875Y-4.1375
X1.1875Y-4.175
X1.1875Y-4.475
X1.1875Y-4.5125
X1.2Y-4.77
X1.225Y-4.1375
X1.225Y-4.175
X1.225Y-4.475
X1.225Y-4.5125
X1.2554Y-4.6129
X1.2625Y-4.1375
X1.2625Y-4.175
X1.2625Y-4.475
X1.2625Y-4.5125
X1.2875Y-4.8425
X1.3Y-4.1375
X1.3Y-4.175
X1.3Y-4.475
X1.3Y-4.5125
X1.3375Y-4.1375
X1.3375Y-4.175
X1.3375Y-4.2125
X1.3375Y-4.25
X1.3375Y-4.2875
X1.3375Y-4.325
X1.3375Y-4.3625
X1.3375Y-4.4
X1.3375Y-4.4375
X1.3375Y-4.475
X1.3375Y-4.5125
X1.3875Y-4.05
X1.45Y-3.8857
X1.4625Y-4.725
X1.4875Y-3.95
X1.52Y-4.39
X1.575Y-4.1725
X1.575Y-4.2875
X1.625Y-4.36
X1.625Y-4.4658
X1.68Y-4.3275
X1.68Y-4.445
X1.8Y-4.2625
X1.8Y-4.325
X1.801Y-4.3835
X2.225Y-4.8425
X2.3625Y-3.9575
X2.3625Y-4.0175
X2.3625Y-4.1
X2.3675Y-4.3525
X2.375Y-4.7375
X2.395Y-4.2575
X2.4Y-4.395
X2.4375Y-4.125
X2.4375Y-4.1625
X2.4375Y-4.2
X2.4375Y-4.45
X2.4375Y-4.4875
X2.4375Y-4.525
X2.445Y-4.2725
X2.475Y-4.125
X2.475Y-4.1625
X2.475Y-4.2
X2.475Y-4.45
X2.475Y-4.4875
X2.475Y-4.525
X2.475Y-4.65
X2.5125Y-4.125
X2.5125Y-4.1625
X2.5125Y-4.2
X2.5125Y-4.45
X2.5125Y-4.4875
X2.5125Y-4.525
X2.5625Y-4.3275
X2.6375Y-4.3675
X2.75Y-3.9175
X2.7625Y-4.2625
X2.85Y-4.45
X3.0375Y-4.275
X3.0625Y-4.425
X3.3375Y-4.225
X3.3375Y-4.2875
X3.3375Y-4.35
X3.3375Y-4.4125
X3.4875Y-4.288
X3.4875Y-4.413
X3.5875Y-4.225
X3.5875Y-4.35
X7.325Y-4.0625
X7.325Y-4.1
X7.3625Y-4.0625
X7.3625Y-4.1
X7.4125Y-4.3625
X7.4125Y-4.5132
X7.471Y-4.2
X7.471Y-4.2375
X7.471Y-4.275
X7.5075Y-4.0875
X7.5075Y-4.2
X7.5075Y-4.2375
X7.5075Y-4.275
X7.544Y-4.2
X7.544Y-4.2375
X7.544Y-4.275
X7.575Y-4.05
X7.6125Y-4.5625
X7.6775Y-3.7875
X7.6775Y-3.835
X7.6775Y-3.8825
X7.6775Y-3.93
X7.6775Y-3.9775
X7.6775Y-4.025
X7.7Y-4.25
X7.7Y-4.8
X7.7225Y-3.7875
X7.7225Y-3.835
X7.7225Y-3.8825
X7.7225Y-3.93
X7.7225Y-3.9775
X7.7225Y-4.025
X7.7375Y-4.25
X7.7675Y-3.7875
X7.7675Y-3.835
X7.775Y-4.25
X7.8325Y-4.2875
X7.9125Y-4.02
X7.9125Y-4.055
X7.95Y-4.02
X7.95Y-4.055
X7.9875Y-4.02
X7.9875Y-4.055
X8.025Y-3.9825
X8.025Y-4.02
X8.025Y-4.0575
X8.0625Y-3.9825
X8.0625Y-4.02
X8.0625Y-4.0575
X8.1175Y-4.255
X8.1975Y-4.1625
X8.2625Y-3.8
X8.2625Y-3.8375
X8.3Y-3.8
X8.3Y-3.8375
T2
X1.5325Y-4.13
X2.875Y-4.775
X3.575Y-4.775
X3.7Y-4.1875
X3.7125Y-4.375
X3.775Y-3.9875
X3.775Y-4.2625
X3.8125Y-4.425
X3.875Y-4.5375
X4.125Y-3.9875
X4.125Y-4.175
X4.125Y-4.7125
X4.1875Y-3.9875
X4.1875Y-4.175
X4.1875Y-4.7125
X4.25Y-3.9875
X4.25Y-4.175
X4.25Y-4.7125
X4.3125Y-3.9875
X4.3125Y-4.175
X4.3125Y-4.7125
X4.375Y-3.9875
X4.375Y-4.175
X4.375Y-4.7125
X4.4375Y-3.9875
X4.4375Y-4.175
X4.4375Y-4.7125
X4.5Y-4.7125
X4.6875Y-4.7125
X4.75Y-4.7125
X4.8125Y-4.7125
X4.875Y-4.7125
X4.9375Y-3.9875
X4.9375Y-4.175
X4.9375Y-4.375
X4.9375Y-4.5
X4.9375Y-4.7125
X5.0Y-3.9875
X5.0Y-4.175
X5.0Y-4.375
X5.0Y-4.5
X5.0Y-4.7125
X5.0625Y-3.9875
X5.0625Y-4.175
X5.0625Y-4.375
X5.0625Y-4.5
X5.0625Y-4.7125
X5.125Y-3.9875
X5.125Y-4.175
X5.125Y-4.375
X5.125Y-4.5
X5.125Y-4.7125
X5.1875Y-3.9875
X5.1875Y-4.175
X5.1875Y-4.375
X5.1875Y-4.5
X5.1875Y-4.7125
X5.25Y-3.9875
X5.25Y-4.175
X5.25Y-4.375
X5.25Y-4.5
X5.25Y-4.7125
X5.3125Y-4.7125
X5.5875Y-4.7125
X5.65Y-4.7125
X5.7125Y-3.9875
X5.7125Y-4.175
X5.7125Y-4.375
X5.7125Y-4.5
X5.7125Y-4.7125
X5.775Y-3.9875
X5.775Y-4.175
X5.775Y-4.375
X5.775Y-4.5
X5.775Y-4.7125
X5.8375Y-3.9875
X5.8375Y-4.175
X5.8375Y-4.375
X5.8375Y-4.5
X5.8375Y-4.7125
X5.9Y-3.9875
X5.9Y-4.175
X5.9Y-4.375
X5.9Y-4.5
X5.9Y-4.7125
X5.9625Y-3.9875
X5.9625Y-4.175
X5.9625Y-4.375
X5.9625Y-4.5
X5.9625Y-4.7125
X6.025Y-3.9875
X6.025Y-4.175
X6.025Y-4.375
X6.025Y-4.5
X6.025Y-4.7125
X6.0875Y-3.9875
X6.0875Y-4.175
X6.0875Y-4.375
X6.0875Y-4.5
X6.0875Y-4.7125
X6.275Y-4.65
X6.325Y-4.6
X6.375Y-3.9875
X6.375Y-4.05
X6.375Y-4.1125
X6.375Y-4.175
X6.375Y-4.2375
X6.375Y-4.3
X6.375Y-4.3625
X6.375Y-4.425
X6.375Y-4.4875
X6.375Y-4.55
X6.75Y-4.775
X7.3177Y-4.4073
X7.325Y-4.55
X7.5125Y-4.775
X7.675Y-4.4375
T3
X4.0Y-3.975
X4.0Y-4.075
X4.0Y-4.175
X4.0Y-4.275
X4.0Y-4.375
X4.0Y-4.475
X4.6Y-3.975
X4.6Y-4.175
X4.6Y-4.275
X4.6Y-4.375
X4.6Y-4.475
X4.6Y-4.575
X4.6Y-4.675
X1.15Y-3.875
X1.15Y-3.925
X1.2Y-3.875
X1.2Y-3.925
X1.25Y-3.875
X1.25Y-3.925
X4.8Y-3.975
X4.8Y-4.075
X4.8Y-4.175
X4.8Y-4.275
X4.8Y-4.375
X4.8Y-4.475
X5.4Y-3.975
X5.4Y-4.175
X5.4Y-4.275
X5.4Y-4.375
X5.4Y-4.475
X5.4Y-4.575
X5.4Y-4.675
X5.6Y-3.975
X5.6Y-4.075
X5.6Y-4.175
X5.6Y-4.275
X5.6Y-4.375
X5.6Y-4.475
X6.2Y-3.975
X6.2Y-4.175
X6.2Y-4.275
X6.2Y-4.375
X6.2Y-4.475
X6.2Y-4.575
X6.2Y-4.675
T4
X8.05Y-4.6
X8.05Y-4.7575
T5
X7.3Y-4.6625
X7.4Y-4.6625
X7.5Y-4.6625
X7.6Y-4.6625
X6.5375Y-4.6625
X6.6375Y-4.6625
X6.7375Y-4.6625
X6.8375Y-4.6625
X3.3625Y-4.6625
X3.4625Y-4.6625
X3.5625Y-4.6625
X3.6625Y-4.6625
X2.6Y-4.6625
X2.7Y-4.6625
X2.8Y-4.6625
X2.9Y-4.6625
X7.3Y-3.9875
X7.4Y-3.9875
X7.5Y-3.9875
X7.6Y-3.9875
X6.5375Y-3.9875
X6.6375Y-3.9875
X6.7375Y-3.9875
X6.8375Y-3.9875
X3.3625Y-3.9875
X3.4625Y-3.9875
X3.5625Y-3.9875
X3.6625Y-3.9875
X2.6Y-3.9875
X2.7Y-3.9875
X2.8Y-3.9875
X2.9Y-3.9875
T6
X8.4Y-3.925
X8.4Y-4.125
X8.4Y-4.325
X8.4Y-4.525
T7
X1.975Y-4.0488
X1.975Y-4.6
T8
X8.7Y-4.8
T0
M30
