%TF.GenerationSoftware,KiCad,Pcbnew,(5.1.8)-1*%
%TF.CreationDate,2022-07-19T09:06:52+02:00*%
%TF.ProjectId,Hardware,48617264-7761-4726-952e-6b696361645f,rev?*%
%TF.SameCoordinates,Original*%
%TF.FileFunction,Copper,L1,Top*%
%TF.FilePolarity,Positive*%
%FSLAX46Y46*%
G04 Gerber Fmt 4.6, Leading zero omitted, Abs format (unit mm)*
G04 Created by KiCad (PCBNEW (5.1.8)-1) date 2022-07-19 09:06:52*
%MOMM*%
%LPD*%
G01*
G04 APERTURE LIST*
%TA.AperFunction,SMDPad,CuDef*%
%ADD10R,0.812800X0.254000*%
%TD*%
%TA.AperFunction,SMDPad,CuDef*%
%ADD11R,0.254000X0.812800*%
%TD*%
%TA.AperFunction,SMDPad,CuDef*%
%ADD12R,2.590800X2.590800*%
%TD*%
%TA.AperFunction,ComponentPad*%
%ADD13C,1.498600*%
%TD*%
%TA.AperFunction,SMDPad,CuDef*%
%ADD14R,1.250000X1.220000*%
%TD*%
%TA.AperFunction,SMDPad,CuDef*%
%ADD15R,1.220000X1.250000*%
%TD*%
%TA.AperFunction,SMDPad,CuDef*%
%ADD16R,0.300000X0.800000*%
%TD*%
%TA.AperFunction,SMDPad,CuDef*%
%ADD17R,1.600000X2.400000*%
%TD*%
%TA.AperFunction,SMDPad,CuDef*%
%ADD18R,2.500000X1.700000*%
%TD*%
%TA.AperFunction,SMDPad,CuDef*%
%ADD19R,0.900000X0.800000*%
%TD*%
%TA.AperFunction,ComponentPad*%
%ADD20C,1.000000*%
%TD*%
%TA.AperFunction,ComponentPad*%
%ADD21C,1.524000*%
%TD*%
%TA.AperFunction,ComponentPad*%
%ADD22C,1.905000*%
%TD*%
%TA.AperFunction,SMDPad,CuDef*%
%ADD23R,0.400000X0.500000*%
%TD*%
%TA.AperFunction,SMDPad,CuDef*%
%ADD24R,1.600000X1.100000*%
%TD*%
%TA.AperFunction,SMDPad,CuDef*%
%ADD25R,0.400000X0.350000*%
%TD*%
%TA.AperFunction,ComponentPad*%
%ADD26O,1.400000X1.700000*%
%TD*%
%TA.AperFunction,ComponentPad*%
%ADD27R,1.400000X1.700000*%
%TD*%
%TA.AperFunction,ComponentPad*%
%ADD28C,2.500000*%
%TD*%
%TA.AperFunction,SMDPad,CuDef*%
%ADD29R,2.800000X1.000000*%
%TD*%
%TA.AperFunction,SMDPad,CuDef*%
%ADD30R,1.371600X0.482600*%
%TD*%
%TA.AperFunction,SMDPad,CuDef*%
%ADD31R,2.413000X3.200400*%
%TD*%
%TA.AperFunction,SMDPad,CuDef*%
%ADD32R,1.397000X0.558800*%
%TD*%
%TA.AperFunction,SMDPad,CuDef*%
%ADD33R,0.558800X1.397000*%
%TD*%
%TA.AperFunction,SMDPad,CuDef*%
%ADD34R,0.279400X0.508000*%
%TD*%
%TA.AperFunction,SMDPad,CuDef*%
%ADD35R,2.641600X2.641600*%
%TD*%
%TA.AperFunction,ComponentPad*%
%ADD36C,3.000000*%
%TD*%
%TA.AperFunction,SMDPad,CuDef*%
%ADD37R,0.700000X0.700000*%
%TD*%
%TA.AperFunction,SMDPad,CuDef*%
%ADD38R,1.450000X1.450000*%
%TD*%
%TA.AperFunction,SMDPad,CuDef*%
%ADD39C,0.100000*%
%TD*%
%TA.AperFunction,SMDPad,CuDef*%
%ADD40R,0.800000X0.400000*%
%TD*%
%TA.AperFunction,SMDPad,CuDef*%
%ADD41R,0.400000X0.800000*%
%TD*%
%TA.AperFunction,SMDPad,CuDef*%
%ADD42R,0.800000X0.900000*%
%TD*%
%TA.AperFunction,SMDPad,CuDef*%
%ADD43R,2.400000X1.050000*%
%TD*%
%TA.AperFunction,SMDPad,CuDef*%
%ADD44R,0.700000X0.600000*%
%TD*%
%TA.AperFunction,ViaPad*%
%ADD45C,0.560000*%
%TD*%
%TA.AperFunction,ViaPad*%
%ADD46C,0.800000*%
%TD*%
%TA.AperFunction,Conductor*%
%ADD47C,0.200000*%
%TD*%
%TA.AperFunction,Conductor*%
%ADD48C,0.279400*%
%TD*%
%TA.AperFunction,Conductor*%
%ADD49C,0.400000*%
%TD*%
%TA.AperFunction,Conductor*%
%ADD50C,4.000000*%
%TD*%
%TA.AperFunction,Conductor*%
%ADD51C,0.152400*%
%TD*%
%TA.AperFunction,Conductor*%
%ADD52C,0.254000*%
%TD*%
%TA.AperFunction,Conductor*%
%ADD53C,0.100000*%
%TD*%
G04 APERTURE END LIST*
D10*
%TO.P,U5,1*%
%TO.N,Net-(SW2-Pad16)*%
X60922400Y-112731000D03*
%TO.P,U5,2*%
%TO.N,Net-(SW2-Pad15)*%
X60922400Y-113230999D03*
%TO.P,U5,3*%
%TO.N,Net-(SW2-Pad14)*%
X60922400Y-113731000D03*
%TO.P,U5,4*%
%TO.N,Net-(SW2-Pad13)*%
X60922400Y-114231000D03*
%TO.P,U5,5*%
%TO.N,Net-(SW2-Pad12)*%
X60922400Y-114731001D03*
%TO.P,U5,6*%
%TO.N,Net-(SW2-Pad11)*%
X60922400Y-115231000D03*
D11*
%TO.P,U5,7*%
%TO.N,Net-(SW2-Pad10)*%
X61615500Y-115924100D03*
%TO.P,U5,8*%
%TO.N,Net-(SW2-Pad9)*%
X62115499Y-115924100D03*
%TO.P,U5,9*%
%TO.N,EP*%
X62615500Y-115924100D03*
%TO.P,U5,10*%
%TO.N,Net-(SW3-Pad8)*%
X63115500Y-115924100D03*
%TO.P,U5,11*%
%TO.N,Net-(SW3-Pad7)*%
X63615501Y-115924100D03*
%TO.P,U5,12*%
%TO.N,Net-(SW3-Pad6)*%
X64115500Y-115924100D03*
D10*
%TO.P,U5,13*%
%TO.N,Net-(SW3-Pad5)*%
X64808600Y-115231000D03*
%TO.P,U5,14*%
%TO.N,/K1*%
X64808600Y-114731001D03*
%TO.P,U5,15*%
%TO.N,/K2*%
X64808600Y-114231000D03*
%TO.P,U5,16*%
%TO.N,/K3*%
X64808600Y-113731000D03*
%TO.P,U5,17*%
%TO.N,/K4*%
X64808600Y-113230999D03*
%TO.P,U5,18*%
%TO.N,EP*%
X64808600Y-112731000D03*
D11*
%TO.P,U5,19*%
%TO.N,/SCL*%
X64115500Y-112037900D03*
%TO.P,U5,20*%
%TO.N,/SDA*%
X63615501Y-112037900D03*
%TO.P,U5,21*%
%TO.N,+3V3*%
X63115500Y-112037900D03*
%TO.P,U5,22*%
%TO.N,Net-(U5-Pad22)*%
X62615500Y-112037900D03*
%TO.P,U5,23*%
%TO.N,EP*%
X62115499Y-112037900D03*
%TO.P,U5,24*%
X61615500Y-112037900D03*
D12*
%TO.P,U5,25*%
X62865500Y-113981000D03*
%TD*%
%TO.P,R26,2*%
%TO.N,/SCL*%
%TA.AperFunction,SMDPad,CuDef*%
G36*
G01*
X39645000Y-110255000D02*
X39095000Y-110255000D01*
G75*
G02*
X38895000Y-110055000I0J200000D01*
G01*
X38895000Y-109655000D01*
G75*
G02*
X39095000Y-109455000I200000J0D01*
G01*
X39645000Y-109455000D01*
G75*
G02*
X39845000Y-109655000I0J-200000D01*
G01*
X39845000Y-110055000D01*
G75*
G02*
X39645000Y-110255000I-200000J0D01*
G01*
G37*
%TD.AperFunction*%
%TO.P,R26,1*%
%TO.N,+3V3*%
%TA.AperFunction,SMDPad,CuDef*%
G36*
G01*
X39645000Y-111905000D02*
X39095000Y-111905000D01*
G75*
G02*
X38895000Y-111705000I0J200000D01*
G01*
X38895000Y-111305000D01*
G75*
G02*
X39095000Y-111105000I200000J0D01*
G01*
X39645000Y-111105000D01*
G75*
G02*
X39845000Y-111305000I0J-200000D01*
G01*
X39845000Y-111705000D01*
G75*
G02*
X39645000Y-111905000I-200000J0D01*
G01*
G37*
%TD.AperFunction*%
%TD*%
%TO.P,R25,2*%
%TO.N,/SDA*%
%TA.AperFunction,SMDPad,CuDef*%
G36*
G01*
X38057500Y-110255000D02*
X37507500Y-110255000D01*
G75*
G02*
X37307500Y-110055000I0J200000D01*
G01*
X37307500Y-109655000D01*
G75*
G02*
X37507500Y-109455000I200000J0D01*
G01*
X38057500Y-109455000D01*
G75*
G02*
X38257500Y-109655000I0J-200000D01*
G01*
X38257500Y-110055000D01*
G75*
G02*
X38057500Y-110255000I-200000J0D01*
G01*
G37*
%TD.AperFunction*%
%TO.P,R25,1*%
%TO.N,+3V3*%
%TA.AperFunction,SMDPad,CuDef*%
G36*
G01*
X38057500Y-111905000D02*
X37507500Y-111905000D01*
G75*
G02*
X37307500Y-111705000I0J200000D01*
G01*
X37307500Y-111305000D01*
G75*
G02*
X37507500Y-111105000I200000J0D01*
G01*
X38057500Y-111105000D01*
G75*
G02*
X38257500Y-111305000I0J-200000D01*
G01*
X38257500Y-111705000D01*
G75*
G02*
X38057500Y-111905000I-200000J0D01*
G01*
G37*
%TD.AperFunction*%
%TD*%
D13*
%TO.P,LED4,1*%
%TO.N,/a*%
X142240000Y-100965000D03*
%TO.P,LED4,2*%
%TO.N,/f*%
X142240000Y-103505000D03*
%TO.P,LED4,3*%
%TO.N,/SEG3SW*%
X142240000Y-106045000D03*
%TO.P,LED4,4*%
%TO.N,/e*%
X142240000Y-108585000D03*
%TO.P,LED4,5*%
%TO.N,/SEG3SW*%
X142240000Y-111125000D03*
%TO.P,LED4,6*%
%TO.N,Net-(LED4-Pad6)*%
X142240000Y-113665000D03*
%TO.P,LED4,9*%
%TO.N,/dp*%
X157480000Y-118745000D03*
%TO.P,LED4,10*%
%TO.N,/d*%
X157480000Y-116205000D03*
%TO.P,LED4,11*%
%TO.N,/SEG3SW*%
X157480000Y-113665000D03*
%TO.P,LED4,12*%
%TO.N,/c*%
X157480000Y-111125000D03*
%TO.P,LED4,13*%
%TO.N,/g*%
X157480000Y-108585000D03*
%TO.P,LED4,14*%
%TO.N,/b*%
X157480000Y-106045000D03*
%TO.P,LED4,16*%
%TO.N,/SEG3SW*%
X157480000Y-100965000D03*
%TD*%
%TO.P,LED3,1*%
%TO.N,/a*%
X121920000Y-100965000D03*
%TO.P,LED3,2*%
%TO.N,/f*%
X121920000Y-103505000D03*
%TO.P,LED3,3*%
%TO.N,/SEG2SW*%
X121920000Y-106045000D03*
%TO.P,LED3,4*%
%TO.N,/e*%
X121920000Y-108585000D03*
%TO.P,LED3,5*%
%TO.N,/SEG2SW*%
X121920000Y-111125000D03*
%TO.P,LED3,6*%
%TO.N,Net-(LED3-Pad6)*%
X121920000Y-113665000D03*
%TO.P,LED3,9*%
%TO.N,/dp*%
X137160000Y-118745000D03*
%TO.P,LED3,10*%
%TO.N,/d*%
X137160000Y-116205000D03*
%TO.P,LED3,11*%
%TO.N,/SEG2SW*%
X137160000Y-113665000D03*
%TO.P,LED3,12*%
%TO.N,/c*%
X137160000Y-111125000D03*
%TO.P,LED3,13*%
%TO.N,/g*%
X137160000Y-108585000D03*
%TO.P,LED3,14*%
%TO.N,/b*%
X137160000Y-106045000D03*
%TO.P,LED3,16*%
%TO.N,/SEG2SW*%
X137160000Y-100965000D03*
%TD*%
%TO.P,LED2,1*%
%TO.N,/a*%
X101600000Y-100965000D03*
%TO.P,LED2,2*%
%TO.N,/f*%
X101600000Y-103505000D03*
%TO.P,LED2,3*%
%TO.N,/SEG1SW*%
X101600000Y-106045000D03*
%TO.P,LED2,4*%
%TO.N,/e*%
X101600000Y-108585000D03*
%TO.P,LED2,5*%
%TO.N,/SEG1SW*%
X101600000Y-111125000D03*
%TO.P,LED2,6*%
%TO.N,Net-(LED2-Pad6)*%
X101600000Y-113665000D03*
%TO.P,LED2,9*%
%TO.N,/dp*%
X116840000Y-118745000D03*
%TO.P,LED2,10*%
%TO.N,/d*%
X116840000Y-116205000D03*
%TO.P,LED2,11*%
%TO.N,/SEG1SW*%
X116840000Y-113665000D03*
%TO.P,LED2,12*%
%TO.N,/c*%
X116840000Y-111125000D03*
%TO.P,LED2,13*%
%TO.N,/g*%
X116840000Y-108585000D03*
%TO.P,LED2,14*%
%TO.N,/b*%
X116840000Y-106045000D03*
%TO.P,LED2,16*%
%TO.N,/SEG1SW*%
X116840000Y-100965000D03*
%TD*%
D14*
%TO.P,D3,1*%
%TO.N,SW*%
X198530000Y-103822500D03*
%TO.P,D3,2*%
%TO.N,EP*%
X195580000Y-103822500D03*
%TD*%
D15*
%TO.P,D2,1*%
%TO.N,Net-(D2-Pad1)*%
X206375000Y-101063000D03*
%TO.P,D2,2*%
%TO.N,/V+*%
X206375000Y-104013000D03*
%TD*%
D16*
%TO.P,L1,2*%
%TO.N,+24V*%
X208482000Y-96794600D03*
%TO.P,L1,3*%
%TO.N,EP*%
X209042000Y-96794600D03*
%TO.P,L1,4*%
%TO.N,GND1*%
X209042000Y-98298000D03*
%TO.P,L1,1*%
%TO.N,Net-(F1-Pad1)*%
X208482000Y-98298000D03*
%TD*%
%TO.P,U3,1*%
%TO.N,Net-(U2-Pad26)*%
%TA.AperFunction,SMDPad,CuDef*%
G36*
G01*
X188981000Y-112821000D02*
X188981000Y-112671000D01*
G75*
G02*
X189056000Y-112596000I75000J0D01*
G01*
X189706000Y-112596000D01*
G75*
G02*
X189781000Y-112671000I0J-75000D01*
G01*
X189781000Y-112821000D01*
G75*
G02*
X189706000Y-112896000I-75000J0D01*
G01*
X189056000Y-112896000D01*
G75*
G02*
X188981000Y-112821000I0J75000D01*
G01*
G37*
%TD.AperFunction*%
%TO.P,U3,2*%
%TO.N,EP*%
%TA.AperFunction,SMDPad,CuDef*%
G36*
G01*
X188981000Y-113471000D02*
X188981000Y-113321000D01*
G75*
G02*
X189056000Y-113246000I75000J0D01*
G01*
X189706000Y-113246000D01*
G75*
G02*
X189781000Y-113321000I0J-75000D01*
G01*
X189781000Y-113471000D01*
G75*
G02*
X189706000Y-113546000I-75000J0D01*
G01*
X189056000Y-113546000D01*
G75*
G02*
X188981000Y-113471000I0J75000D01*
G01*
G37*
%TD.AperFunction*%
%TO.P,U3,3*%
%TO.N,+5V*%
%TA.AperFunction,SMDPad,CuDef*%
G36*
G01*
X188981000Y-114121000D02*
X188981000Y-113971000D01*
G75*
G02*
X189056000Y-113896000I75000J0D01*
G01*
X189706000Y-113896000D01*
G75*
G02*
X189781000Y-113971000I0J-75000D01*
G01*
X189781000Y-114121000D01*
G75*
G02*
X189706000Y-114196000I-75000J0D01*
G01*
X189056000Y-114196000D01*
G75*
G02*
X188981000Y-114121000I0J75000D01*
G01*
G37*
%TD.AperFunction*%
%TO.P,U3,4*%
%TO.N,Net-(U2-Pad27)*%
%TA.AperFunction,SMDPad,CuDef*%
G36*
G01*
X188981000Y-114771000D02*
X188981000Y-114621000D01*
G75*
G02*
X189056000Y-114546000I75000J0D01*
G01*
X189706000Y-114546000D01*
G75*
G02*
X189781000Y-114621000I0J-75000D01*
G01*
X189781000Y-114771000D01*
G75*
G02*
X189706000Y-114846000I-75000J0D01*
G01*
X189056000Y-114846000D01*
G75*
G02*
X188981000Y-114771000I0J75000D01*
G01*
G37*
%TD.AperFunction*%
%TO.P,U3,5*%
%TO.N,+3V3*%
%TA.AperFunction,SMDPad,CuDef*%
G36*
G01*
X191981000Y-114771000D02*
X191981000Y-114621000D01*
G75*
G02*
X192056000Y-114546000I75000J0D01*
G01*
X192706000Y-114546000D01*
G75*
G02*
X192781000Y-114621000I0J-75000D01*
G01*
X192781000Y-114771000D01*
G75*
G02*
X192706000Y-114846000I-75000J0D01*
G01*
X192056000Y-114846000D01*
G75*
G02*
X191981000Y-114771000I0J75000D01*
G01*
G37*
%TD.AperFunction*%
%TO.P,U3,6*%
%TO.N,/CAN-*%
%TA.AperFunction,SMDPad,CuDef*%
G36*
G01*
X191981000Y-114121000D02*
X191981000Y-113971000D01*
G75*
G02*
X192056000Y-113896000I75000J0D01*
G01*
X192706000Y-113896000D01*
G75*
G02*
X192781000Y-113971000I0J-75000D01*
G01*
X192781000Y-114121000D01*
G75*
G02*
X192706000Y-114196000I-75000J0D01*
G01*
X192056000Y-114196000D01*
G75*
G02*
X191981000Y-114121000I0J75000D01*
G01*
G37*
%TD.AperFunction*%
%TO.P,U3,7*%
%TO.N,/CAN+*%
%TA.AperFunction,SMDPad,CuDef*%
G36*
G01*
X191981000Y-113471000D02*
X191981000Y-113321000D01*
G75*
G02*
X192056000Y-113246000I75000J0D01*
G01*
X192706000Y-113246000D01*
G75*
G02*
X192781000Y-113321000I0J-75000D01*
G01*
X192781000Y-113471000D01*
G75*
G02*
X192706000Y-113546000I-75000J0D01*
G01*
X192056000Y-113546000D01*
G75*
G02*
X191981000Y-113471000I0J75000D01*
G01*
G37*
%TD.AperFunction*%
%TO.P,U3,8*%
%TO.N,EP*%
%TA.AperFunction,SMDPad,CuDef*%
G36*
G01*
X191981000Y-112821000D02*
X191981000Y-112671000D01*
G75*
G02*
X192056000Y-112596000I75000J0D01*
G01*
X192706000Y-112596000D01*
G75*
G02*
X192781000Y-112671000I0J-75000D01*
G01*
X192781000Y-112821000D01*
G75*
G02*
X192706000Y-112896000I-75000J0D01*
G01*
X192056000Y-112896000D01*
G75*
G02*
X191981000Y-112821000I0J75000D01*
G01*
G37*
%TD.AperFunction*%
D17*
%TO.P,U3,9*%
%TO.N,N/C*%
X190881000Y-113721000D03*
%TD*%
%TO.P,U6,1*%
%TO.N,SW*%
%TA.AperFunction,SMDPad,CuDef*%
G36*
G01*
X200992500Y-104365000D02*
X200867500Y-104365000D01*
G75*
G02*
X200805000Y-104302500I0J62500D01*
G01*
X200805000Y-103727500D01*
G75*
G02*
X200867500Y-103665000I62500J0D01*
G01*
X200992500Y-103665000D01*
G75*
G02*
X201055000Y-103727500I0J-62500D01*
G01*
X201055000Y-104302500D01*
G75*
G02*
X200992500Y-104365000I-62500J0D01*
G01*
G37*
%TD.AperFunction*%
%TO.P,U6,2*%
%TA.AperFunction,SMDPad,CuDef*%
G36*
G01*
X201492500Y-104365000D02*
X201367500Y-104365000D01*
G75*
G02*
X201305000Y-104302500I0J62500D01*
G01*
X201305000Y-103727500D01*
G75*
G02*
X201367500Y-103665000I62500J0D01*
G01*
X201492500Y-103665000D01*
G75*
G02*
X201555000Y-103727500I0J-62500D01*
G01*
X201555000Y-104302500D01*
G75*
G02*
X201492500Y-104365000I-62500J0D01*
G01*
G37*
%TD.AperFunction*%
%TO.P,U6,3*%
%TO.N,Net-(U6-Pad3)*%
%TA.AperFunction,SMDPad,CuDef*%
G36*
G01*
X201992500Y-104365000D02*
X201867500Y-104365000D01*
G75*
G02*
X201805000Y-104302500I0J62500D01*
G01*
X201805000Y-103727500D01*
G75*
G02*
X201867500Y-103665000I62500J0D01*
G01*
X201992500Y-103665000D01*
G75*
G02*
X202055000Y-103727500I0J-62500D01*
G01*
X202055000Y-104302500D01*
G75*
G02*
X201992500Y-104365000I-62500J0D01*
G01*
G37*
%TD.AperFunction*%
%TO.P,U6,4*%
%TO.N,Net-(C13-Pad1)*%
%TA.AperFunction,SMDPad,CuDef*%
G36*
G01*
X202492500Y-104365000D02*
X202367500Y-104365000D01*
G75*
G02*
X202305000Y-104302500I0J62500D01*
G01*
X202305000Y-103727500D01*
G75*
G02*
X202367500Y-103665000I62500J0D01*
G01*
X202492500Y-103665000D01*
G75*
G02*
X202555000Y-103727500I0J-62500D01*
G01*
X202555000Y-104302500D01*
G75*
G02*
X202492500Y-104365000I-62500J0D01*
G01*
G37*
%TD.AperFunction*%
%TO.P,U6,5*%
%TO.N,Net-(R17-Pad1)*%
%TA.AperFunction,SMDPad,CuDef*%
G36*
G01*
X202992500Y-104365000D02*
X202867500Y-104365000D01*
G75*
G02*
X202805000Y-104302500I0J62500D01*
G01*
X202805000Y-103727500D01*
G75*
G02*
X202867500Y-103665000I62500J0D01*
G01*
X202992500Y-103665000D01*
G75*
G02*
X203055000Y-103727500I0J-62500D01*
G01*
X203055000Y-104302500D01*
G75*
G02*
X202992500Y-104365000I-62500J0D01*
G01*
G37*
%TD.AperFunction*%
%TO.P,U6,6*%
%TO.N,EP*%
%TA.AperFunction,SMDPad,CuDef*%
G36*
G01*
X202992500Y-101440000D02*
X202867500Y-101440000D01*
G75*
G02*
X202805000Y-101377500I0J62500D01*
G01*
X202805000Y-100802500D01*
G75*
G02*
X202867500Y-100740000I62500J0D01*
G01*
X202992500Y-100740000D01*
G75*
G02*
X203055000Y-100802500I0J-62500D01*
G01*
X203055000Y-101377500D01*
G75*
G02*
X202992500Y-101440000I-62500J0D01*
G01*
G37*
%TD.AperFunction*%
%TO.P,U6,7*%
%TO.N,Net-(R19-Pad1)*%
%TA.AperFunction,SMDPad,CuDef*%
G36*
G01*
X202492500Y-101440000D02*
X202367500Y-101440000D01*
G75*
G02*
X202305000Y-101377500I0J62500D01*
G01*
X202305000Y-100802500D01*
G75*
G02*
X202367500Y-100740000I62500J0D01*
G01*
X202492500Y-100740000D01*
G75*
G02*
X202555000Y-100802500I0J-62500D01*
G01*
X202555000Y-101377500D01*
G75*
G02*
X202492500Y-101440000I-62500J0D01*
G01*
G37*
%TD.AperFunction*%
%TO.P,U6,8*%
%TO.N,+24V*%
%TA.AperFunction,SMDPad,CuDef*%
G36*
G01*
X201992500Y-101440000D02*
X201867500Y-101440000D01*
G75*
G02*
X201805000Y-101377500I0J62500D01*
G01*
X201805000Y-100802500D01*
G75*
G02*
X201867500Y-100740000I62500J0D01*
G01*
X201992500Y-100740000D01*
G75*
G02*
X202055000Y-100802500I0J-62500D01*
G01*
X202055000Y-101377500D01*
G75*
G02*
X201992500Y-101440000I-62500J0D01*
G01*
G37*
%TD.AperFunction*%
%TO.P,U6,9*%
%TA.AperFunction,SMDPad,CuDef*%
G36*
G01*
X201492500Y-101440000D02*
X201367500Y-101440000D01*
G75*
G02*
X201305000Y-101377500I0J62500D01*
G01*
X201305000Y-100802500D01*
G75*
G02*
X201367500Y-100740000I62500J0D01*
G01*
X201492500Y-100740000D01*
G75*
G02*
X201555000Y-100802500I0J-62500D01*
G01*
X201555000Y-101377500D01*
G75*
G02*
X201492500Y-101440000I-62500J0D01*
G01*
G37*
%TD.AperFunction*%
%TO.P,U6,10*%
%TO.N,Net-(C8-Pad1)*%
%TA.AperFunction,SMDPad,CuDef*%
G36*
G01*
X200992500Y-101440000D02*
X200867500Y-101440000D01*
G75*
G02*
X200805000Y-101377500I0J62500D01*
G01*
X200805000Y-100802500D01*
G75*
G02*
X200867500Y-100740000I62500J0D01*
G01*
X200992500Y-100740000D01*
G75*
G02*
X201055000Y-100802500I0J-62500D01*
G01*
X201055000Y-101377500D01*
G75*
G02*
X200992500Y-101440000I-62500J0D01*
G01*
G37*
%TD.AperFunction*%
D18*
%TO.P,U6,11*%
%TO.N,EP*%
X201930000Y-102552500D03*
%TD*%
D19*
%TO.P,D5,1*%
%TO.N,/CAN+*%
X208280000Y-110934500D03*
%TO.P,D5,2*%
%TO.N,/CAN-*%
X208280000Y-112834500D03*
%TO.P,D5,3*%
%TO.N,GND1*%
X210280000Y-111884500D03*
%TD*%
%TO.P,U8,8*%
%TO.N,+3V3*%
%TA.AperFunction,SMDPad,CuDef*%
G36*
G01*
X74272500Y-110005000D02*
X74272500Y-109705000D01*
G75*
G02*
X74422500Y-109555000I150000J0D01*
G01*
X76072500Y-109555000D01*
G75*
G02*
X76222500Y-109705000I0J-150000D01*
G01*
X76222500Y-110005000D01*
G75*
G02*
X76072500Y-110155000I-150000J0D01*
G01*
X74422500Y-110155000D01*
G75*
G02*
X74272500Y-110005000I0J150000D01*
G01*
G37*
%TD.AperFunction*%
%TO.P,U8,7*%
%TA.AperFunction,SMDPad,CuDef*%
G36*
G01*
X74272500Y-111275000D02*
X74272500Y-110975000D01*
G75*
G02*
X74422500Y-110825000I150000J0D01*
G01*
X76072500Y-110825000D01*
G75*
G02*
X76222500Y-110975000I0J-150000D01*
G01*
X76222500Y-111275000D01*
G75*
G02*
X76072500Y-111425000I-150000J0D01*
G01*
X74422500Y-111425000D01*
G75*
G02*
X74272500Y-111275000I0J150000D01*
G01*
G37*
%TD.AperFunction*%
%TO.P,U8,6*%
%TO.N,/SCK*%
%TA.AperFunction,SMDPad,CuDef*%
G36*
G01*
X74272500Y-112545000D02*
X74272500Y-112245000D01*
G75*
G02*
X74422500Y-112095000I150000J0D01*
G01*
X76072500Y-112095000D01*
G75*
G02*
X76222500Y-112245000I0J-150000D01*
G01*
X76222500Y-112545000D01*
G75*
G02*
X76072500Y-112695000I-150000J0D01*
G01*
X74422500Y-112695000D01*
G75*
G02*
X74272500Y-112545000I0J150000D01*
G01*
G37*
%TD.AperFunction*%
%TO.P,U8,5*%
%TO.N,/MOSI*%
%TA.AperFunction,SMDPad,CuDef*%
G36*
G01*
X74272500Y-113815000D02*
X74272500Y-113515000D01*
G75*
G02*
X74422500Y-113365000I150000J0D01*
G01*
X76072500Y-113365000D01*
G75*
G02*
X76222500Y-113515000I0J-150000D01*
G01*
X76222500Y-113815000D01*
G75*
G02*
X76072500Y-113965000I-150000J0D01*
G01*
X74422500Y-113965000D01*
G75*
G02*
X74272500Y-113815000I0J150000D01*
G01*
G37*
%TD.AperFunction*%
%TO.P,U8,4*%
%TO.N,EP*%
%TA.AperFunction,SMDPad,CuDef*%
G36*
G01*
X69322500Y-113815000D02*
X69322500Y-113515000D01*
G75*
G02*
X69472500Y-113365000I150000J0D01*
G01*
X71122500Y-113365000D01*
G75*
G02*
X71272500Y-113515000I0J-150000D01*
G01*
X71272500Y-113815000D01*
G75*
G02*
X71122500Y-113965000I-150000J0D01*
G01*
X69472500Y-113965000D01*
G75*
G02*
X69322500Y-113815000I0J150000D01*
G01*
G37*
%TD.AperFunction*%
%TO.P,U8,3*%
%TO.N,+3V3*%
%TA.AperFunction,SMDPad,CuDef*%
G36*
G01*
X69322500Y-112545000D02*
X69322500Y-112245000D01*
G75*
G02*
X69472500Y-112095000I150000J0D01*
G01*
X71122500Y-112095000D01*
G75*
G02*
X71272500Y-112245000I0J-150000D01*
G01*
X71272500Y-112545000D01*
G75*
G02*
X71122500Y-112695000I-150000J0D01*
G01*
X69472500Y-112695000D01*
G75*
G02*
X69322500Y-112545000I0J150000D01*
G01*
G37*
%TD.AperFunction*%
%TO.P,U8,2*%
%TO.N,/MISO*%
%TA.AperFunction,SMDPad,CuDef*%
G36*
G01*
X69322500Y-111275000D02*
X69322500Y-110975000D01*
G75*
G02*
X69472500Y-110825000I150000J0D01*
G01*
X71122500Y-110825000D01*
G75*
G02*
X71272500Y-110975000I0J-150000D01*
G01*
X71272500Y-111275000D01*
G75*
G02*
X71122500Y-111425000I-150000J0D01*
G01*
X69472500Y-111425000D01*
G75*
G02*
X69322500Y-111275000I0J150000D01*
G01*
G37*
%TD.AperFunction*%
%TO.P,U8,1*%
%TO.N,/FRCS*%
%TA.AperFunction,SMDPad,CuDef*%
G36*
G01*
X69322500Y-110005000D02*
X69322500Y-109705000D01*
G75*
G02*
X69472500Y-109555000I150000J0D01*
G01*
X71122500Y-109555000D01*
G75*
G02*
X71272500Y-109705000I0J-150000D01*
G01*
X71272500Y-110005000D01*
G75*
G02*
X71122500Y-110155000I-150000J0D01*
G01*
X69472500Y-110155000D01*
G75*
G02*
X69322500Y-110005000I0J150000D01*
G01*
G37*
%TD.AperFunction*%
%TD*%
%TO.P,C14,2*%
%TO.N,EP*%
%TA.AperFunction,SMDPad,CuDef*%
G36*
G01*
X77537500Y-110955000D02*
X78037500Y-110955000D01*
G75*
G02*
X78262500Y-111180000I0J-225000D01*
G01*
X78262500Y-111630000D01*
G75*
G02*
X78037500Y-111855000I-225000J0D01*
G01*
X77537500Y-111855000D01*
G75*
G02*
X77312500Y-111630000I0J225000D01*
G01*
X77312500Y-111180000D01*
G75*
G02*
X77537500Y-110955000I225000J0D01*
G01*
G37*
%TD.AperFunction*%
%TO.P,C14,1*%
%TO.N,+3V3*%
%TA.AperFunction,SMDPad,CuDef*%
G36*
G01*
X77537500Y-109405000D02*
X78037500Y-109405000D01*
G75*
G02*
X78262500Y-109630000I0J-225000D01*
G01*
X78262500Y-110080000D01*
G75*
G02*
X78037500Y-110305000I-225000J0D01*
G01*
X77537500Y-110305000D01*
G75*
G02*
X77312500Y-110080000I0J225000D01*
G01*
X77312500Y-109630000D01*
G75*
G02*
X77537500Y-109405000I225000J0D01*
G01*
G37*
%TD.AperFunction*%
%TD*%
%TO.P,R24,2*%
%TO.N,Net-(J8-Pad2)*%
%TA.AperFunction,SMDPad,CuDef*%
G36*
G01*
X188360000Y-121010000D02*
X188360000Y-121560000D01*
G75*
G02*
X188160000Y-121760000I-200000J0D01*
G01*
X187760000Y-121760000D01*
G75*
G02*
X187560000Y-121560000I0J200000D01*
G01*
X187560000Y-121010000D01*
G75*
G02*
X187760000Y-120810000I200000J0D01*
G01*
X188160000Y-120810000D01*
G75*
G02*
X188360000Y-121010000I0J-200000D01*
G01*
G37*
%TD.AperFunction*%
%TO.P,R24,1*%
%TO.N,+3V3*%
%TA.AperFunction,SMDPad,CuDef*%
G36*
G01*
X190010000Y-121010000D02*
X190010000Y-121560000D01*
G75*
G02*
X189810000Y-121760000I-200000J0D01*
G01*
X189410000Y-121760000D01*
G75*
G02*
X189210000Y-121560000I0J200000D01*
G01*
X189210000Y-121010000D01*
G75*
G02*
X189410000Y-120810000I200000J0D01*
G01*
X189810000Y-120810000D01*
G75*
G02*
X190010000Y-121010000I0J-200000D01*
G01*
G37*
%TD.AperFunction*%
%TD*%
%TO.P,R23,2*%
%TO.N,Net-(J6-Pad2)*%
%TA.AperFunction,SMDPad,CuDef*%
G36*
G01*
X168992500Y-121010000D02*
X168992500Y-121560000D01*
G75*
G02*
X168792500Y-121760000I-200000J0D01*
G01*
X168392500Y-121760000D01*
G75*
G02*
X168192500Y-121560000I0J200000D01*
G01*
X168192500Y-121010000D01*
G75*
G02*
X168392500Y-120810000I200000J0D01*
G01*
X168792500Y-120810000D01*
G75*
G02*
X168992500Y-121010000I0J-200000D01*
G01*
G37*
%TD.AperFunction*%
%TO.P,R23,1*%
%TO.N,+3V3*%
%TA.AperFunction,SMDPad,CuDef*%
G36*
G01*
X170642500Y-121010000D02*
X170642500Y-121560000D01*
G75*
G02*
X170442500Y-121760000I-200000J0D01*
G01*
X170042500Y-121760000D01*
G75*
G02*
X169842500Y-121560000I0J200000D01*
G01*
X169842500Y-121010000D01*
G75*
G02*
X170042500Y-120810000I200000J0D01*
G01*
X170442500Y-120810000D01*
G75*
G02*
X170642500Y-121010000I0J-200000D01*
G01*
G37*
%TD.AperFunction*%
%TD*%
%TO.P,R22,2*%
%TO.N,Net-(J4-Pad2)*%
%TA.AperFunction,SMDPad,CuDef*%
G36*
G01*
X88347500Y-121010000D02*
X88347500Y-121560000D01*
G75*
G02*
X88147500Y-121760000I-200000J0D01*
G01*
X87747500Y-121760000D01*
G75*
G02*
X87547500Y-121560000I0J200000D01*
G01*
X87547500Y-121010000D01*
G75*
G02*
X87747500Y-120810000I200000J0D01*
G01*
X88147500Y-120810000D01*
G75*
G02*
X88347500Y-121010000I0J-200000D01*
G01*
G37*
%TD.AperFunction*%
%TO.P,R22,1*%
%TO.N,+3V3*%
%TA.AperFunction,SMDPad,CuDef*%
G36*
G01*
X89997500Y-121010000D02*
X89997500Y-121560000D01*
G75*
G02*
X89797500Y-121760000I-200000J0D01*
G01*
X89397500Y-121760000D01*
G75*
G02*
X89197500Y-121560000I0J200000D01*
G01*
X89197500Y-121010000D01*
G75*
G02*
X89397500Y-120810000I200000J0D01*
G01*
X89797500Y-120810000D01*
G75*
G02*
X89997500Y-121010000I0J-200000D01*
G01*
G37*
%TD.AperFunction*%
%TD*%
%TO.P,R21,2*%
%TO.N,Net-(J2-Pad2)*%
%TA.AperFunction,SMDPad,CuDef*%
G36*
G01*
X70505000Y-121010000D02*
X70505000Y-121560000D01*
G75*
G02*
X70305000Y-121760000I-200000J0D01*
G01*
X69905000Y-121760000D01*
G75*
G02*
X69705000Y-121560000I0J200000D01*
G01*
X69705000Y-121010000D01*
G75*
G02*
X69905000Y-120810000I200000J0D01*
G01*
X70305000Y-120810000D01*
G75*
G02*
X70505000Y-121010000I0J-200000D01*
G01*
G37*
%TD.AperFunction*%
%TO.P,R21,1*%
%TO.N,+3V3*%
%TA.AperFunction,SMDPad,CuDef*%
G36*
G01*
X72155000Y-121010000D02*
X72155000Y-121560000D01*
G75*
G02*
X71955000Y-121760000I-200000J0D01*
G01*
X71555000Y-121760000D01*
G75*
G02*
X71355000Y-121560000I0J200000D01*
G01*
X71355000Y-121010000D01*
G75*
G02*
X71555000Y-120810000I200000J0D01*
G01*
X71955000Y-120810000D01*
G75*
G02*
X72155000Y-121010000I0J-200000D01*
G01*
G37*
%TD.AperFunction*%
%TD*%
D20*
%TO.P,J1,1*%
%TO.N,/EN*%
X29210000Y-99695000D03*
%TO.P,J1,2*%
%TO.N,Net-(J1-Pad2)*%
X29210000Y-98425000D03*
%TO.P,J1,3*%
%TO.N,Net-(J1-Pad3)*%
X30480000Y-99695000D03*
%TO.P,J1,4*%
%TO.N,EP*%
X30480000Y-98425000D03*
%TO.P,J1,5*%
%TO.N,Net-(J1-Pad5)*%
X31750000Y-99695000D03*
%TO.P,J1,6*%
%TO.N,Net-(J1-Pad6)*%
X31750000Y-98425000D03*
%TD*%
D21*
%TO.P,BZ1,2*%
%TO.N,Net-(BZ1-Pad2)*%
X204470000Y-120840000D03*
%TO.P,BZ1,1*%
%TO.N,+3V3*%
X204470000Y-116840000D03*
%TD*%
D22*
%TO.P,J10,1*%
%TO.N,/CAN-*%
X213360000Y-114935000D03*
%TO.P,J10,2*%
%TO.N,/CAN+*%
X213360000Y-109855000D03*
%TO.P,J10,3*%
%TO.N,/V+*%
X213360000Y-104775000D03*
%TO.P,J10,4*%
%TO.N,GND1*%
X213360000Y-99695000D03*
%TD*%
D23*
%TO.P,D7,1*%
%TO.N,GND1*%
X210517500Y-99915000D03*
%TO.P,D7,2*%
X209217500Y-99915000D03*
D24*
%TO.P,D7,3*%
%TO.N,Net-(D4-Pad3)*%
X209867500Y-100965000D03*
D25*
%TO.P,D7,4*%
X209867500Y-101690000D03*
%TD*%
D23*
%TO.P,D4,1*%
%TO.N,/V+*%
X209217500Y-104555000D03*
%TO.P,D4,2*%
X210517500Y-104555000D03*
D24*
%TO.P,D4,3*%
%TO.N,Net-(D4-Pad3)*%
X209867500Y-103505000D03*
D25*
%TO.P,D4,4*%
X209867500Y-102780000D03*
%TD*%
%TO.P,R16,2*%
%TO.N,Net-(R16-Pad2)*%
%TA.AperFunction,SMDPad,CuDef*%
G36*
G01*
X199512500Y-111257502D02*
X199512500Y-110357498D01*
G75*
G02*
X199762498Y-110107500I249998J0D01*
G01*
X200287502Y-110107500D01*
G75*
G02*
X200537500Y-110357498I0J-249998D01*
G01*
X200537500Y-111257502D01*
G75*
G02*
X200287502Y-111507500I-249998J0D01*
G01*
X199762498Y-111507500D01*
G75*
G02*
X199512500Y-111257502I0J249998D01*
G01*
G37*
%TD.AperFunction*%
%TO.P,R16,1*%
%TO.N,Net-(C5-Pad1)*%
%TA.AperFunction,SMDPad,CuDef*%
G36*
G01*
X197687500Y-111257502D02*
X197687500Y-110357498D01*
G75*
G02*
X197937498Y-110107500I249998J0D01*
G01*
X198462502Y-110107500D01*
G75*
G02*
X198712500Y-110357498I0J-249998D01*
G01*
X198712500Y-111257502D01*
G75*
G02*
X198462502Y-111507500I-249998J0D01*
G01*
X197937498Y-111507500D01*
G75*
G02*
X197687500Y-111257502I0J249998D01*
G01*
G37*
%TD.AperFunction*%
%TD*%
%TO.P,R15,2*%
%TO.N,Net-(C5-Pad1)*%
%TA.AperFunction,SMDPad,CuDef*%
G36*
G01*
X198712500Y-112579998D02*
X198712500Y-113480002D01*
G75*
G02*
X198462502Y-113730000I-249998J0D01*
G01*
X197937498Y-113730000D01*
G75*
G02*
X197687500Y-113480002I0J249998D01*
G01*
X197687500Y-112579998D01*
G75*
G02*
X197937498Y-112330000I249998J0D01*
G01*
X198462502Y-112330000D01*
G75*
G02*
X198712500Y-112579998I0J-249998D01*
G01*
G37*
%TD.AperFunction*%
%TO.P,R15,1*%
%TO.N,Net-(R15-Pad1)*%
%TA.AperFunction,SMDPad,CuDef*%
G36*
G01*
X200537500Y-112579998D02*
X200537500Y-113480002D01*
G75*
G02*
X200287502Y-113730000I-249998J0D01*
G01*
X199762498Y-113730000D01*
G75*
G02*
X199512500Y-113480002I0J249998D01*
G01*
X199512500Y-112579998D01*
G75*
G02*
X199762498Y-112330000I249998J0D01*
G01*
X200287502Y-112330000D01*
G75*
G02*
X200537500Y-112579998I0J-249998D01*
G01*
G37*
%TD.AperFunction*%
%TD*%
D26*
%TO.P,J9,4*%
%TO.N,Net-(J9-Pad4)*%
X193040000Y-101282500D03*
%TO.P,J9,3*%
%TO.N,Net-(J9-Pad3)*%
X190500000Y-101282500D03*
%TO.P,J9,2*%
%TO.N,EP*%
X187960000Y-101282500D03*
D27*
%TO.P,J9,1*%
%TO.N,Net-(J9-Pad1)*%
X185420000Y-101282500D03*
%TD*%
D26*
%TO.P,J8,4*%
%TO.N,Net-(J8-Pad4)*%
X193040000Y-118427500D03*
%TO.P,J8,3*%
%TO.N,EP*%
X190500000Y-118427500D03*
%TO.P,J8,2*%
%TO.N,Net-(J8-Pad2)*%
X187960000Y-118427500D03*
D27*
%TO.P,J8,1*%
%TO.N,/K4*%
X185420000Y-118427500D03*
%TD*%
D26*
%TO.P,J7,4*%
%TO.N,Net-(J7-Pad4)*%
X173672500Y-101282500D03*
%TO.P,J7,3*%
%TO.N,Net-(J7-Pad3)*%
X171132500Y-101282500D03*
%TO.P,J7,2*%
%TO.N,EP*%
X168592500Y-101282500D03*
D27*
%TO.P,J7,1*%
%TO.N,Net-(J7-Pad1)*%
X166052500Y-101282500D03*
%TD*%
D26*
%TO.P,J6,4*%
%TO.N,Net-(J6-Pad4)*%
X173672500Y-118427500D03*
%TO.P,J6,3*%
%TO.N,EP*%
X171132500Y-118427500D03*
%TO.P,J6,2*%
%TO.N,Net-(J6-Pad2)*%
X168592500Y-118427500D03*
D27*
%TO.P,J6,1*%
%TO.N,/K3*%
X166052500Y-118427500D03*
%TD*%
D26*
%TO.P,J5,4*%
%TO.N,Net-(J5-Pad4)*%
X93027500Y-101282500D03*
%TO.P,J5,3*%
%TO.N,Net-(J5-Pad3)*%
X90487500Y-101282500D03*
%TO.P,J5,2*%
%TO.N,EP*%
X87947500Y-101282500D03*
D27*
%TO.P,J5,1*%
%TO.N,Net-(J5-Pad1)*%
X85407500Y-101282500D03*
%TD*%
D26*
%TO.P,J4,4*%
%TO.N,Net-(J4-Pad4)*%
X93027500Y-118427500D03*
%TO.P,J4,3*%
%TO.N,EP*%
X90487500Y-118427500D03*
%TO.P,J4,2*%
%TO.N,Net-(J4-Pad2)*%
X87947500Y-118427500D03*
D27*
%TO.P,J4,1*%
%TO.N,/K2*%
X85407500Y-118427500D03*
%TD*%
D26*
%TO.P,J3,4*%
%TO.N,Net-(J3-Pad4)*%
X73660000Y-101282500D03*
%TO.P,J3,3*%
%TO.N,Net-(J3-Pad3)*%
X71120000Y-101282500D03*
%TO.P,J3,2*%
%TO.N,EP*%
X68580000Y-101282500D03*
D27*
%TO.P,J3,1*%
%TO.N,Net-(J3-Pad1)*%
X66040000Y-101282500D03*
%TD*%
D26*
%TO.P,J2,4*%
%TO.N,Net-(J2-Pad4)*%
X73660000Y-118427500D03*
%TO.P,J2,3*%
%TO.N,EP*%
X71120000Y-118427500D03*
%TO.P,J2,2*%
%TO.N,Net-(J2-Pad2)*%
X68580000Y-118427500D03*
D27*
%TO.P,J2,1*%
%TO.N,/K1*%
X66040000Y-118427500D03*
%TD*%
D28*
%TO.P,LED1,8*%
%TO.N,N/C*%
X50165000Y-102840000D03*
%TO.P,LED1,7*%
X50165000Y-116840000D03*
D29*
%TO.P,LED1,1*%
%TO.N,/LEDB*%
X52366100Y-111339999D03*
%TO.P,LED1,3*%
%TO.N,/LEDR*%
X52366100Y-109840000D03*
%TO.P,LED1,5*%
%TO.N,/LEDG*%
X52366100Y-108340001D03*
%TO.P,LED1,6*%
%TO.N,+5V*%
X47963900Y-108340001D03*
%TO.P,LED1,4*%
X47963900Y-109840000D03*
%TO.P,LED1,2*%
X47963900Y-111339999D03*
%TD*%
D30*
%TO.P,U7,1*%
%TO.N,+3V3*%
X188023500Y-105727500D03*
%TO.P,U7,2*%
X188023500Y-106997500D03*
%TO.P,U7,3*%
%TO.N,EP*%
X188023500Y-108267500D03*
%TO.P,U7,4*%
%TO.N,Net-(U7-Pad4)*%
X188023500Y-109537500D03*
%TO.P,U7,5*%
%TO.N,+5V*%
X193357500Y-109537500D03*
%TO.P,U7,6*%
%TO.N,Net-(U7-Pad6)*%
X193357500Y-108267500D03*
%TO.P,U7,7*%
%TO.N,Net-(U7-Pad7)*%
X193357500Y-106997500D03*
%TO.P,U7,8*%
%TO.N,+5V*%
X193357500Y-105727500D03*
D31*
%TO.P,U7,9*%
%TO.N,EP*%
X190690500Y-107632500D03*
%TD*%
D32*
%TO.P,SW1,1*%
%TO.N,Net-(R16-Pad2)*%
X201768000Y-111252000D03*
%TO.P,SW1,2*%
%TO.N,Net-(R15-Pad1)*%
X201768000Y-112522000D03*
%TO.P,SW1,3*%
%TO.N,/CAN-*%
X206375000Y-112522000D03*
%TO.P,SW1,4*%
%TO.N,/CAN+*%
X206375000Y-111252000D03*
%TD*%
D33*
%TO.P,SW3,1*%
%TO.N,EP*%
X57785000Y-123034500D03*
%TO.P,SW3,2*%
X59055000Y-123034500D03*
%TO.P,SW3,3*%
X60325000Y-123034500D03*
%TO.P,SW3,4*%
X61595000Y-123034500D03*
%TO.P,SW3,5*%
%TO.N,Net-(SW3-Pad5)*%
X61595000Y-118427500D03*
%TO.P,SW3,6*%
%TO.N,Net-(SW3-Pad6)*%
X60325000Y-118427500D03*
%TO.P,SW3,7*%
%TO.N,Net-(SW3-Pad7)*%
X59055000Y-118427500D03*
%TO.P,SW3,8*%
%TO.N,Net-(SW3-Pad8)*%
X57785000Y-118427500D03*
%TD*%
%TO.P,C12,2*%
%TO.N,EP*%
%TA.AperFunction,SMDPad,CuDef*%
G36*
G01*
X189123500Y-104072500D02*
X189123500Y-103572500D01*
G75*
G02*
X189348500Y-103347500I225000J0D01*
G01*
X189798500Y-103347500D01*
G75*
G02*
X190023500Y-103572500I0J-225000D01*
G01*
X190023500Y-104072500D01*
G75*
G02*
X189798500Y-104297500I-225000J0D01*
G01*
X189348500Y-104297500D01*
G75*
G02*
X189123500Y-104072500I0J225000D01*
G01*
G37*
%TD.AperFunction*%
%TO.P,C12,1*%
%TO.N,+3V3*%
%TA.AperFunction,SMDPad,CuDef*%
G36*
G01*
X187573500Y-104072500D02*
X187573500Y-103572500D01*
G75*
G02*
X187798500Y-103347500I225000J0D01*
G01*
X188248500Y-103347500D01*
G75*
G02*
X188473500Y-103572500I0J-225000D01*
G01*
X188473500Y-104072500D01*
G75*
G02*
X188248500Y-104297500I-225000J0D01*
G01*
X187798500Y-104297500D01*
G75*
G02*
X187573500Y-104072500I0J225000D01*
G01*
G37*
%TD.AperFunction*%
%TD*%
%TO.P,C11,2*%
%TO.N,EP*%
%TA.AperFunction,SMDPad,CuDef*%
G36*
G01*
X192257500Y-103572500D02*
X192257500Y-104072500D01*
G75*
G02*
X192032500Y-104297500I-225000J0D01*
G01*
X191582500Y-104297500D01*
G75*
G02*
X191357500Y-104072500I0J225000D01*
G01*
X191357500Y-103572500D01*
G75*
G02*
X191582500Y-103347500I225000J0D01*
G01*
X192032500Y-103347500D01*
G75*
G02*
X192257500Y-103572500I0J-225000D01*
G01*
G37*
%TD.AperFunction*%
%TO.P,C11,1*%
%TO.N,+5V*%
%TA.AperFunction,SMDPad,CuDef*%
G36*
G01*
X193807500Y-103572500D02*
X193807500Y-104072500D01*
G75*
G02*
X193582500Y-104297500I-225000J0D01*
G01*
X193132500Y-104297500D01*
G75*
G02*
X192907500Y-104072500I0J225000D01*
G01*
X192907500Y-103572500D01*
G75*
G02*
X193132500Y-103347500I225000J0D01*
G01*
X193582500Y-103347500D01*
G75*
G02*
X193807500Y-103572500I0J-225000D01*
G01*
G37*
%TD.AperFunction*%
%TD*%
%TO.P,C10,2*%
%TO.N,EP*%
%TA.AperFunction,SMDPad,CuDef*%
G36*
G01*
X198452501Y-106527500D02*
X197152499Y-106527500D01*
G75*
G02*
X196902500Y-106277501I0J249999D01*
G01*
X196902500Y-105627499D01*
G75*
G02*
X197152499Y-105377500I249999J0D01*
G01*
X198452501Y-105377500D01*
G75*
G02*
X198702500Y-105627499I0J-249999D01*
G01*
X198702500Y-106277501D01*
G75*
G02*
X198452501Y-106527500I-249999J0D01*
G01*
G37*
%TD.AperFunction*%
%TO.P,C10,1*%
%TO.N,+5V*%
%TA.AperFunction,SMDPad,CuDef*%
G36*
G01*
X198452501Y-109477500D02*
X197152499Y-109477500D01*
G75*
G02*
X196902500Y-109227501I0J249999D01*
G01*
X196902500Y-108577499D01*
G75*
G02*
X197152499Y-108327500I249999J0D01*
G01*
X198452501Y-108327500D01*
G75*
G02*
X198702500Y-108577499I0J-249999D01*
G01*
X198702500Y-109227501D01*
G75*
G02*
X198452501Y-109477500I-249999J0D01*
G01*
G37*
%TD.AperFunction*%
%TD*%
%TO.P,C6,2*%
%TO.N,EP*%
%TA.AperFunction,SMDPad,CuDef*%
G36*
G01*
X61447500Y-110303500D02*
X61447500Y-110803500D01*
G75*
G02*
X61222500Y-111028500I-225000J0D01*
G01*
X60772500Y-111028500D01*
G75*
G02*
X60547500Y-110803500I0J225000D01*
G01*
X60547500Y-110303500D01*
G75*
G02*
X60772500Y-110078500I225000J0D01*
G01*
X61222500Y-110078500D01*
G75*
G02*
X61447500Y-110303500I0J-225000D01*
G01*
G37*
%TD.AperFunction*%
%TO.P,C6,1*%
%TO.N,+3V3*%
%TA.AperFunction,SMDPad,CuDef*%
G36*
G01*
X62997500Y-110303500D02*
X62997500Y-110803500D01*
G75*
G02*
X62772500Y-111028500I-225000J0D01*
G01*
X62322500Y-111028500D01*
G75*
G02*
X62097500Y-110803500I0J225000D01*
G01*
X62097500Y-110303500D01*
G75*
G02*
X62322500Y-110078500I225000J0D01*
G01*
X62772500Y-110078500D01*
G75*
G02*
X62997500Y-110303500I0J-225000D01*
G01*
G37*
%TD.AperFunction*%
%TD*%
%TO.P,SW2,1*%
%TO.N,EP*%
X33655000Y-123034500D03*
%TO.P,SW2,2*%
X34925000Y-123034500D03*
%TO.P,SW2,3*%
X36195000Y-123034500D03*
%TO.P,SW2,4*%
X37465000Y-123034500D03*
%TO.P,SW2,5*%
X38735000Y-123034500D03*
%TO.P,SW2,6*%
X40005000Y-123034500D03*
%TO.P,SW2,7*%
X41275000Y-123034500D03*
%TO.P,SW2,8*%
X42545000Y-123034500D03*
%TO.P,SW2,9*%
%TO.N,Net-(SW2-Pad9)*%
X42545000Y-118427500D03*
%TO.P,SW2,10*%
%TO.N,Net-(SW2-Pad10)*%
X41275000Y-118427500D03*
%TO.P,SW2,11*%
%TO.N,Net-(SW2-Pad11)*%
X40005000Y-118427500D03*
%TO.P,SW2,12*%
%TO.N,Net-(SW2-Pad12)*%
X38735000Y-118427500D03*
%TO.P,SW2,13*%
%TO.N,Net-(SW2-Pad13)*%
X37465000Y-118427500D03*
%TO.P,SW2,14*%
%TO.N,Net-(SW2-Pad14)*%
X36195000Y-118427500D03*
%TO.P,SW2,15*%
%TO.N,Net-(SW2-Pad15)*%
X34925000Y-118427500D03*
%TO.P,SW2,16*%
%TO.N,Net-(SW2-Pad16)*%
X33655000Y-118427500D03*
%TD*%
D19*
%TO.P,U1,3*%
%TO.N,+3V3*%
X31464000Y-122113000D03*
%TO.P,U1,2*%
%TO.N,Net-(R10-Pad1)*%
X29464000Y-123063000D03*
%TO.P,U1,1*%
%TO.N,EP*%
X29464000Y-121163000D03*
%TD*%
%TO.P,R10,2*%
%TO.N,/EN*%
%TA.AperFunction,SMDPad,CuDef*%
G36*
G01*
X26689000Y-122788000D02*
X26689000Y-123338000D01*
G75*
G02*
X26489000Y-123538000I-200000J0D01*
G01*
X26089000Y-123538000D01*
G75*
G02*
X25889000Y-123338000I0J200000D01*
G01*
X25889000Y-122788000D01*
G75*
G02*
X26089000Y-122588000I200000J0D01*
G01*
X26489000Y-122588000D01*
G75*
G02*
X26689000Y-122788000I0J-200000D01*
G01*
G37*
%TD.AperFunction*%
%TO.P,R10,1*%
%TO.N,Net-(R10-Pad1)*%
%TA.AperFunction,SMDPad,CuDef*%
G36*
G01*
X28339000Y-122788000D02*
X28339000Y-123338000D01*
G75*
G02*
X28139000Y-123538000I-200000J0D01*
G01*
X27739000Y-123538000D01*
G75*
G02*
X27539000Y-123338000I0J200000D01*
G01*
X27539000Y-122788000D01*
G75*
G02*
X27739000Y-122588000I200000J0D01*
G01*
X28139000Y-122588000D01*
G75*
G02*
X28339000Y-122788000I0J-200000D01*
G01*
G37*
%TD.AperFunction*%
%TD*%
%TO.P,R5,2*%
%TO.N,Net-(J1-Pad2)*%
%TA.AperFunction,SMDPad,CuDef*%
G36*
G01*
X38057500Y-101620000D02*
X37507500Y-101620000D01*
G75*
G02*
X37307500Y-101420000I0J200000D01*
G01*
X37307500Y-101020000D01*
G75*
G02*
X37507500Y-100820000I200000J0D01*
G01*
X38057500Y-100820000D01*
G75*
G02*
X38257500Y-101020000I0J-200000D01*
G01*
X38257500Y-101420000D01*
G75*
G02*
X38057500Y-101620000I-200000J0D01*
G01*
G37*
%TD.AperFunction*%
%TO.P,R5,1*%
%TO.N,+3V3*%
%TA.AperFunction,SMDPad,CuDef*%
G36*
G01*
X38057500Y-103270000D02*
X37507500Y-103270000D01*
G75*
G02*
X37307500Y-103070000I0J200000D01*
G01*
X37307500Y-102670000D01*
G75*
G02*
X37507500Y-102470000I200000J0D01*
G01*
X38057500Y-102470000D01*
G75*
G02*
X38257500Y-102670000I0J-200000D01*
G01*
X38257500Y-103070000D01*
G75*
G02*
X38057500Y-103270000I-200000J0D01*
G01*
G37*
%TD.AperFunction*%
%TD*%
%TO.P,R13,2*%
%TO.N,/FRCS*%
%TA.AperFunction,SMDPad,CuDef*%
G36*
G01*
X37507500Y-106152500D02*
X38057500Y-106152500D01*
G75*
G02*
X38257500Y-106352500I0J-200000D01*
G01*
X38257500Y-106752500D01*
G75*
G02*
X38057500Y-106952500I-200000J0D01*
G01*
X37507500Y-106952500D01*
G75*
G02*
X37307500Y-106752500I0J200000D01*
G01*
X37307500Y-106352500D01*
G75*
G02*
X37507500Y-106152500I200000J0D01*
G01*
G37*
%TD.AperFunction*%
%TO.P,R13,1*%
%TO.N,+3V3*%
%TA.AperFunction,SMDPad,CuDef*%
G36*
G01*
X37507500Y-104502500D02*
X38057500Y-104502500D01*
G75*
G02*
X38257500Y-104702500I0J-200000D01*
G01*
X38257500Y-105102500D01*
G75*
G02*
X38057500Y-105302500I-200000J0D01*
G01*
X37507500Y-105302500D01*
G75*
G02*
X37307500Y-105102500I0J200000D01*
G01*
X37307500Y-104702500D01*
G75*
G02*
X37507500Y-104502500I200000J0D01*
G01*
G37*
%TD.AperFunction*%
%TD*%
%TO.P,C5,2*%
%TO.N,EP*%
%TA.AperFunction,SMDPad,CuDef*%
G36*
G01*
X196282500Y-112225000D02*
X196782500Y-112225000D01*
G75*
G02*
X197007500Y-112450000I0J-225000D01*
G01*
X197007500Y-112900000D01*
G75*
G02*
X196782500Y-113125000I-225000J0D01*
G01*
X196282500Y-113125000D01*
G75*
G02*
X196057500Y-112900000I0J225000D01*
G01*
X196057500Y-112450000D01*
G75*
G02*
X196282500Y-112225000I225000J0D01*
G01*
G37*
%TD.AperFunction*%
%TO.P,C5,1*%
%TO.N,Net-(C5-Pad1)*%
%TA.AperFunction,SMDPad,CuDef*%
G36*
G01*
X196282500Y-110675000D02*
X196782500Y-110675000D01*
G75*
G02*
X197007500Y-110900000I0J-225000D01*
G01*
X197007500Y-111350000D01*
G75*
G02*
X196782500Y-111575000I-225000J0D01*
G01*
X196282500Y-111575000D01*
G75*
G02*
X196057500Y-111350000I0J225000D01*
G01*
X196057500Y-110900000D01*
G75*
G02*
X196282500Y-110675000I225000J0D01*
G01*
G37*
%TD.AperFunction*%
%TD*%
%TO.P,C4,2*%
%TO.N,EP*%
%TA.AperFunction,SMDPad,CuDef*%
G36*
G01*
X186305000Y-113480000D02*
X185805000Y-113480000D01*
G75*
G02*
X185580000Y-113255000I0J225000D01*
G01*
X185580000Y-112805000D01*
G75*
G02*
X185805000Y-112580000I225000J0D01*
G01*
X186305000Y-112580000D01*
G75*
G02*
X186530000Y-112805000I0J-225000D01*
G01*
X186530000Y-113255000D01*
G75*
G02*
X186305000Y-113480000I-225000J0D01*
G01*
G37*
%TD.AperFunction*%
%TO.P,C4,1*%
%TO.N,+5V*%
%TA.AperFunction,SMDPad,CuDef*%
G36*
G01*
X186305000Y-115030000D02*
X185805000Y-115030000D01*
G75*
G02*
X185580000Y-114805000I0J225000D01*
G01*
X185580000Y-114355000D01*
G75*
G02*
X185805000Y-114130000I225000J0D01*
G01*
X186305000Y-114130000D01*
G75*
G02*
X186530000Y-114355000I0J-225000D01*
G01*
X186530000Y-114805000D01*
G75*
G02*
X186305000Y-115030000I-225000J0D01*
G01*
G37*
%TD.AperFunction*%
%TD*%
D34*
%TO.P,Q3,1*%
%TO.N,+5V*%
X89352501Y-108889800D03*
%TO.P,Q3,2*%
%TO.N,Net-(Q3-Pad2)*%
X89852500Y-108889800D03*
%TO.P,Q3,3*%
%TO.N,/SEG1SW*%
X90352499Y-108889800D03*
%TO.P,Q3,4*%
%TO.N,+5V*%
X90352499Y-107315000D03*
%TO.P,Q3,5*%
%TO.N,Net-(Q3-Pad5)*%
X89852500Y-107315000D03*
%TO.P,Q3,6*%
%TO.N,/SEG2SW*%
X89352501Y-107315000D03*
%TD*%
%TO.P,Q1,1*%
%TO.N,+5V*%
X89352501Y-112064800D03*
%TO.P,Q1,2*%
%TO.N,Net-(Q1-Pad2)*%
X89852500Y-112064800D03*
%TO.P,Q1,3*%
%TO.N,/SEG3SW*%
X90352499Y-112064800D03*
%TO.P,Q1,4*%
%TO.N,+5V*%
X90352499Y-110490000D03*
%TO.P,Q1,5*%
%TO.N,Net-(Q1-Pad5)*%
X89852500Y-110490000D03*
%TO.P,Q1,6*%
%TO.N,/SEG4SW*%
X89352501Y-110490000D03*
%TD*%
%TO.P,F1,1*%
%TO.N,Net-(F1-Pad1)*%
%TA.AperFunction,SMDPad,CuDef*%
G36*
G01*
X206118750Y-97365000D02*
X206631250Y-97365000D01*
G75*
G02*
X206850000Y-97583750I0J-218750D01*
G01*
X206850000Y-98021250D01*
G75*
G02*
X206631250Y-98240000I-218750J0D01*
G01*
X206118750Y-98240000D01*
G75*
G02*
X205900000Y-98021250I0J218750D01*
G01*
X205900000Y-97583750D01*
G75*
G02*
X206118750Y-97365000I218750J0D01*
G01*
G37*
%TD.AperFunction*%
%TO.P,F1,2*%
%TO.N,Net-(D2-Pad1)*%
%TA.AperFunction,SMDPad,CuDef*%
G36*
G01*
X206118750Y-98940000D02*
X206631250Y-98940000D01*
G75*
G02*
X206850000Y-99158750I0J-218750D01*
G01*
X206850000Y-99596250D01*
G75*
G02*
X206631250Y-99815000I-218750J0D01*
G01*
X206118750Y-99815000D01*
G75*
G02*
X205900000Y-99596250I0J218750D01*
G01*
X205900000Y-99158750D01*
G75*
G02*
X206118750Y-98940000I218750J0D01*
G01*
G37*
%TD.AperFunction*%
%TD*%
%TO.P,U4,1*%
%TO.N,EP*%
%TA.AperFunction,SMDPad,CuDef*%
G36*
G01*
X61302900Y-104604500D02*
X60617100Y-104604500D01*
G75*
G02*
X60553600Y-104541000I0J63500D01*
G01*
X60553600Y-104414000D01*
G75*
G02*
X60617100Y-104350500I63500J0D01*
G01*
X61302900Y-104350500D01*
G75*
G02*
X61366400Y-104414000I0J-63500D01*
G01*
X61366400Y-104541000D01*
G75*
G02*
X61302900Y-104604500I-63500J0D01*
G01*
G37*
%TD.AperFunction*%
%TO.P,U4,2*%
%TO.N,/SD*%
%TA.AperFunction,SMDPad,CuDef*%
G36*
G01*
X61302900Y-105104499D02*
X60617100Y-105104499D01*
G75*
G02*
X60553600Y-105040999I0J63500D01*
G01*
X60553600Y-104913999D01*
G75*
G02*
X60617100Y-104850499I63500J0D01*
G01*
X61302900Y-104850499D01*
G75*
G02*
X61366400Y-104913999I0J-63500D01*
G01*
X61366400Y-105040999D01*
G75*
G02*
X61302900Y-105104499I-63500J0D01*
G01*
G37*
%TD.AperFunction*%
%TO.P,U4,3*%
%TO.N,/CLK*%
%TA.AperFunction,SMDPad,CuDef*%
G36*
G01*
X61302900Y-105604500D02*
X60617100Y-105604500D01*
G75*
G02*
X60553600Y-105541000I0J63500D01*
G01*
X60553600Y-105414000D01*
G75*
G02*
X60617100Y-105350500I63500J0D01*
G01*
X61302900Y-105350500D01*
G75*
G02*
X61366400Y-105414000I0J-63500D01*
G01*
X61366400Y-105541000D01*
G75*
G02*
X61302900Y-105604500I-63500J0D01*
G01*
G37*
%TD.AperFunction*%
%TO.P,U4,4*%
%TO.N,/LE*%
%TA.AperFunction,SMDPad,CuDef*%
G36*
G01*
X61302900Y-106104500D02*
X60617100Y-106104500D01*
G75*
G02*
X60553600Y-106041000I0J63500D01*
G01*
X60553600Y-105914000D01*
G75*
G02*
X60617100Y-105850500I63500J0D01*
G01*
X61302900Y-105850500D01*
G75*
G02*
X61366400Y-105914000I0J-63500D01*
G01*
X61366400Y-106041000D01*
G75*
G02*
X61302900Y-106104500I-63500J0D01*
G01*
G37*
%TD.AperFunction*%
%TO.P,U4,5*%
%TO.N,/LEDG*%
%TA.AperFunction,SMDPad,CuDef*%
G36*
G01*
X61302900Y-106604501D02*
X60617100Y-106604501D01*
G75*
G02*
X60553600Y-106541001I0J63500D01*
G01*
X60553600Y-106414001D01*
G75*
G02*
X60617100Y-106350501I63500J0D01*
G01*
X61302900Y-106350501D01*
G75*
G02*
X61366400Y-106414001I0J-63500D01*
G01*
X61366400Y-106541001D01*
G75*
G02*
X61302900Y-106604501I-63500J0D01*
G01*
G37*
%TD.AperFunction*%
%TO.P,U4,6*%
%TO.N,/LEDR*%
%TA.AperFunction,SMDPad,CuDef*%
G36*
G01*
X61302900Y-107104500D02*
X60617100Y-107104500D01*
G75*
G02*
X60553600Y-107041000I0J63500D01*
G01*
X60553600Y-106914000D01*
G75*
G02*
X60617100Y-106850500I63500J0D01*
G01*
X61302900Y-106850500D01*
G75*
G02*
X61366400Y-106914000I0J-63500D01*
G01*
X61366400Y-107041000D01*
G75*
G02*
X61302900Y-107104500I-63500J0D01*
G01*
G37*
%TD.AperFunction*%
%TO.P,U4,7*%
%TO.N,/LEDB*%
%TA.AperFunction,SMDPad,CuDef*%
G36*
G01*
X61488000Y-107975400D02*
X61488000Y-107289600D01*
G75*
G02*
X61551500Y-107226100I63500J0D01*
G01*
X61678500Y-107226100D01*
G75*
G02*
X61742000Y-107289600I0J-63500D01*
G01*
X61742000Y-107975400D01*
G75*
G02*
X61678500Y-108038900I-63500J0D01*
G01*
X61551500Y-108038900D01*
G75*
G02*
X61488000Y-107975400I0J63500D01*
G01*
G37*
%TD.AperFunction*%
%TO.P,U4,8*%
%TO.N,Net-(U4-Pad8)*%
%TA.AperFunction,SMDPad,CuDef*%
G36*
G01*
X61987999Y-107975400D02*
X61987999Y-107289600D01*
G75*
G02*
X62051499Y-107226100I63500J0D01*
G01*
X62178499Y-107226100D01*
G75*
G02*
X62241999Y-107289600I0J-63500D01*
G01*
X62241999Y-107975400D01*
G75*
G02*
X62178499Y-108038900I-63500J0D01*
G01*
X62051499Y-108038900D01*
G75*
G02*
X61987999Y-107975400I0J63500D01*
G01*
G37*
%TD.AperFunction*%
%TO.P,U4,9*%
%TO.N,/SEG4*%
%TA.AperFunction,SMDPad,CuDef*%
G36*
G01*
X62488000Y-107975400D02*
X62488000Y-107289600D01*
G75*
G02*
X62551500Y-107226100I63500J0D01*
G01*
X62678500Y-107226100D01*
G75*
G02*
X62742000Y-107289600I0J-63500D01*
G01*
X62742000Y-107975400D01*
G75*
G02*
X62678500Y-108038900I-63500J0D01*
G01*
X62551500Y-108038900D01*
G75*
G02*
X62488000Y-107975400I0J63500D01*
G01*
G37*
%TD.AperFunction*%
%TO.P,U4,10*%
%TO.N,/SEG3*%
%TA.AperFunction,SMDPad,CuDef*%
G36*
G01*
X62988000Y-107975400D02*
X62988000Y-107289600D01*
G75*
G02*
X63051500Y-107226100I63500J0D01*
G01*
X63178500Y-107226100D01*
G75*
G02*
X63242000Y-107289600I0J-63500D01*
G01*
X63242000Y-107975400D01*
G75*
G02*
X63178500Y-108038900I-63500J0D01*
G01*
X63051500Y-108038900D01*
G75*
G02*
X62988000Y-107975400I0J63500D01*
G01*
G37*
%TD.AperFunction*%
%TO.P,U4,11*%
%TO.N,/SEG2*%
%TA.AperFunction,SMDPad,CuDef*%
G36*
G01*
X63488001Y-107975400D02*
X63488001Y-107289600D01*
G75*
G02*
X63551501Y-107226100I63500J0D01*
G01*
X63678501Y-107226100D01*
G75*
G02*
X63742001Y-107289600I0J-63500D01*
G01*
X63742001Y-107975400D01*
G75*
G02*
X63678501Y-108038900I-63500J0D01*
G01*
X63551501Y-108038900D01*
G75*
G02*
X63488001Y-107975400I0J63500D01*
G01*
G37*
%TD.AperFunction*%
%TO.P,U4,12*%
%TO.N,/SEG1*%
%TA.AperFunction,SMDPad,CuDef*%
G36*
G01*
X63988000Y-107975400D02*
X63988000Y-107289600D01*
G75*
G02*
X64051500Y-107226100I63500J0D01*
G01*
X64178500Y-107226100D01*
G75*
G02*
X64242000Y-107289600I0J-63500D01*
G01*
X64242000Y-107975400D01*
G75*
G02*
X64178500Y-108038900I-63500J0D01*
G01*
X64051500Y-108038900D01*
G75*
G02*
X63988000Y-107975400I0J63500D01*
G01*
G37*
%TD.AperFunction*%
%TO.P,U4,13*%
%TO.N,/dp*%
%TA.AperFunction,SMDPad,CuDef*%
G36*
G01*
X65112900Y-107104500D02*
X64427100Y-107104500D01*
G75*
G02*
X64363600Y-107041000I0J63500D01*
G01*
X64363600Y-106914000D01*
G75*
G02*
X64427100Y-106850500I63500J0D01*
G01*
X65112900Y-106850500D01*
G75*
G02*
X65176400Y-106914000I0J-63500D01*
G01*
X65176400Y-107041000D01*
G75*
G02*
X65112900Y-107104500I-63500J0D01*
G01*
G37*
%TD.AperFunction*%
%TO.P,U4,14*%
%TO.N,/d*%
%TA.AperFunction,SMDPad,CuDef*%
G36*
G01*
X65112900Y-106604501D02*
X64427100Y-106604501D01*
G75*
G02*
X64363600Y-106541001I0J63500D01*
G01*
X64363600Y-106414001D01*
G75*
G02*
X64427100Y-106350501I63500J0D01*
G01*
X65112900Y-106350501D01*
G75*
G02*
X65176400Y-106414001I0J-63500D01*
G01*
X65176400Y-106541001D01*
G75*
G02*
X65112900Y-106604501I-63500J0D01*
G01*
G37*
%TD.AperFunction*%
%TO.P,U4,15*%
%TO.N,/c*%
%TA.AperFunction,SMDPad,CuDef*%
G36*
G01*
X65112900Y-106104500D02*
X64427100Y-106104500D01*
G75*
G02*
X64363600Y-106041000I0J63500D01*
G01*
X64363600Y-105914000D01*
G75*
G02*
X64427100Y-105850500I63500J0D01*
G01*
X65112900Y-105850500D01*
G75*
G02*
X65176400Y-105914000I0J-63500D01*
G01*
X65176400Y-106041000D01*
G75*
G02*
X65112900Y-106104500I-63500J0D01*
G01*
G37*
%TD.AperFunction*%
%TO.P,U4,16*%
%TO.N,/g*%
%TA.AperFunction,SMDPad,CuDef*%
G36*
G01*
X65112900Y-105604500D02*
X64427100Y-105604500D01*
G75*
G02*
X64363600Y-105541000I0J63500D01*
G01*
X64363600Y-105414000D01*
G75*
G02*
X64427100Y-105350500I63500J0D01*
G01*
X65112900Y-105350500D01*
G75*
G02*
X65176400Y-105414000I0J-63500D01*
G01*
X65176400Y-105541000D01*
G75*
G02*
X65112900Y-105604500I-63500J0D01*
G01*
G37*
%TD.AperFunction*%
%TO.P,U4,17*%
%TO.N,/e*%
%TA.AperFunction,SMDPad,CuDef*%
G36*
G01*
X65112900Y-105104499D02*
X64427100Y-105104499D01*
G75*
G02*
X64363600Y-105040999I0J63500D01*
G01*
X64363600Y-104913999D01*
G75*
G02*
X64427100Y-104850499I63500J0D01*
G01*
X65112900Y-104850499D01*
G75*
G02*
X65176400Y-104913999I0J-63500D01*
G01*
X65176400Y-105040999D01*
G75*
G02*
X65112900Y-105104499I-63500J0D01*
G01*
G37*
%TD.AperFunction*%
%TO.P,U4,18*%
%TO.N,/b*%
%TA.AperFunction,SMDPad,CuDef*%
G36*
G01*
X65112900Y-104604500D02*
X64427100Y-104604500D01*
G75*
G02*
X64363600Y-104541000I0J63500D01*
G01*
X64363600Y-104414000D01*
G75*
G02*
X64427100Y-104350500I63500J0D01*
G01*
X65112900Y-104350500D01*
G75*
G02*
X65176400Y-104414000I0J-63500D01*
G01*
X65176400Y-104541000D01*
G75*
G02*
X65112900Y-104604500I-63500J0D01*
G01*
G37*
%TD.AperFunction*%
%TO.P,U4,19*%
%TO.N,/f*%
%TA.AperFunction,SMDPad,CuDef*%
G36*
G01*
X63988000Y-104165400D02*
X63988000Y-103479600D01*
G75*
G02*
X64051500Y-103416100I63500J0D01*
G01*
X64178500Y-103416100D01*
G75*
G02*
X64242000Y-103479600I0J-63500D01*
G01*
X64242000Y-104165400D01*
G75*
G02*
X64178500Y-104228900I-63500J0D01*
G01*
X64051500Y-104228900D01*
G75*
G02*
X63988000Y-104165400I0J63500D01*
G01*
G37*
%TD.AperFunction*%
%TO.P,U4,20*%
%TO.N,/a*%
%TA.AperFunction,SMDPad,CuDef*%
G36*
G01*
X63488001Y-104165400D02*
X63488001Y-103479600D01*
G75*
G02*
X63551501Y-103416100I63500J0D01*
G01*
X63678501Y-103416100D01*
G75*
G02*
X63742001Y-103479600I0J-63500D01*
G01*
X63742001Y-104165400D01*
G75*
G02*
X63678501Y-104228900I-63500J0D01*
G01*
X63551501Y-104228900D01*
G75*
G02*
X63488001Y-104165400I0J63500D01*
G01*
G37*
%TD.AperFunction*%
%TO.P,U4,21*%
%TO.N,EP*%
%TA.AperFunction,SMDPad,CuDef*%
G36*
G01*
X62988000Y-104165400D02*
X62988000Y-103479600D01*
G75*
G02*
X63051500Y-103416100I63500J0D01*
G01*
X63178500Y-103416100D01*
G75*
G02*
X63242000Y-103479600I0J-63500D01*
G01*
X63242000Y-104165400D01*
G75*
G02*
X63178500Y-104228900I-63500J0D01*
G01*
X63051500Y-104228900D01*
G75*
G02*
X62988000Y-104165400I0J63500D01*
G01*
G37*
%TD.AperFunction*%
%TO.P,U4,22*%
%TO.N,Net-(U4-Pad22)*%
%TA.AperFunction,SMDPad,CuDef*%
G36*
G01*
X62488000Y-104165400D02*
X62488000Y-103479600D01*
G75*
G02*
X62551500Y-103416100I63500J0D01*
G01*
X62678500Y-103416100D01*
G75*
G02*
X62742000Y-103479600I0J-63500D01*
G01*
X62742000Y-104165400D01*
G75*
G02*
X62678500Y-104228900I-63500J0D01*
G01*
X62551500Y-104228900D01*
G75*
G02*
X62488000Y-104165400I0J63500D01*
G01*
G37*
%TD.AperFunction*%
%TO.P,U4,23*%
%TO.N,Net-(R14-Pad1)*%
%TA.AperFunction,SMDPad,CuDef*%
G36*
G01*
X61987999Y-104165400D02*
X61987999Y-103479600D01*
G75*
G02*
X62051499Y-103416100I63500J0D01*
G01*
X62178499Y-103416100D01*
G75*
G02*
X62241999Y-103479600I0J-63500D01*
G01*
X62241999Y-104165400D01*
G75*
G02*
X62178499Y-104228900I-63500J0D01*
G01*
X62051499Y-104228900D01*
G75*
G02*
X61987999Y-104165400I0J63500D01*
G01*
G37*
%TD.AperFunction*%
%TO.P,U4,24*%
%TO.N,+3V3*%
%TA.AperFunction,SMDPad,CuDef*%
G36*
G01*
X61488000Y-104165400D02*
X61488000Y-103479600D01*
G75*
G02*
X61551500Y-103416100I63500J0D01*
G01*
X61678500Y-103416100D01*
G75*
G02*
X61742000Y-103479600I0J-63500D01*
G01*
X61742000Y-104165400D01*
G75*
G02*
X61678500Y-104228900I-63500J0D01*
G01*
X61551500Y-104228900D01*
G75*
G02*
X61488000Y-104165400I0J63500D01*
G01*
G37*
%TD.AperFunction*%
D35*
%TO.P,U4,25*%
%TO.N,EP*%
X62865000Y-105727500D03*
%TD*%
D36*
%TO.P,H1,1*%
%TO.N,N/C*%
X220980000Y-121920000D03*
%TD*%
D37*
%TO.P,U2,50*%
%TO.N,EP*%
X25336500Y-103905000D03*
%TO.P,U2,51*%
X35236500Y-103905000D03*
%TO.P,U2,52*%
X35236500Y-115805000D03*
%TO.P,U2,53*%
X25336500Y-115805000D03*
D38*
%TO.P,U2,49_4*%
X30286500Y-107880000D03*
%TO.P,U2,49_5*%
X32261500Y-107880000D03*
%TO.P,U2,49_6*%
X32261500Y-109855000D03*
%TO.P,U2,49_7*%
X32261500Y-111830000D03*
%TO.P,U2,49_8*%
X30286500Y-111830000D03*
%TA.AperFunction,SMDPad,CuDef*%
D39*
%TO.P,U2,49_1*%
G36*
X27581596Y-111104025D02*
G01*
X27581881Y-111103087D01*
X27582343Y-111102222D01*
X27582964Y-111101464D01*
X27583722Y-111100843D01*
X27584587Y-111100381D01*
X27585525Y-111100096D01*
X27586500Y-111100000D01*
X29036500Y-111100000D01*
X29037475Y-111100096D01*
X29038413Y-111100381D01*
X29039278Y-111100843D01*
X29040036Y-111101464D01*
X29040657Y-111102222D01*
X29041119Y-111103087D01*
X29041404Y-111104025D01*
X29041500Y-111105000D01*
X29041500Y-112555000D01*
X29041404Y-112555975D01*
X29041119Y-112556913D01*
X29040657Y-112557778D01*
X29040036Y-112558536D01*
X29039278Y-112559157D01*
X29038413Y-112559619D01*
X29037475Y-112559904D01*
X29036500Y-112560000D01*
X28186500Y-112560000D01*
X28185525Y-112559904D01*
X28184587Y-112559619D01*
X28183722Y-112559157D01*
X28182964Y-112558536D01*
X27582964Y-111958536D01*
X27582343Y-111957778D01*
X27581881Y-111956913D01*
X27581596Y-111955975D01*
X27581500Y-111955000D01*
X27581500Y-111105000D01*
X27581596Y-111104025D01*
G37*
%TD.AperFunction*%
D38*
%TO.P,U2,49_2*%
X28311500Y-109855000D03*
%TO.P,U2,49_3*%
X28311500Y-107880000D03*
%TO.P,U2,49_9*%
X30286500Y-109855000D03*
D40*
%TO.P,U2,48*%
X25386500Y-114655000D03*
%TO.P,U2,47*%
X25386500Y-113855000D03*
%TO.P,U2,46*%
X25386500Y-113055000D03*
%TO.P,U2,45*%
X25386500Y-112255000D03*
%TO.P,U2,44*%
X25386500Y-111455000D03*
%TO.P,U2,43*%
X25386500Y-110655000D03*
%TO.P,U2,42*%
X25386500Y-109855000D03*
%TO.P,U2,41*%
X25386500Y-109055000D03*
%TO.P,U2,40*%
X25386500Y-108255000D03*
%TO.P,U2,39*%
X25386500Y-107455000D03*
%TO.P,U2,38*%
X25386500Y-106655000D03*
%TO.P,U2,37*%
X25386500Y-105855000D03*
%TO.P,U2,36*%
X25386500Y-105055000D03*
D41*
%TO.P,U2,35*%
%TO.N,Net-(U2-Pad35)*%
X26286500Y-103955000D03*
%TO.P,U2,34*%
%TO.N,Net-(U2-Pad34)*%
X27086500Y-103955000D03*
%TO.P,U2,33*%
%TO.N,Net-(U2-Pad33)*%
X27886500Y-103955000D03*
%TO.P,U2,32*%
%TO.N,Net-(U2-Pad32)*%
X28686500Y-103955000D03*
%TO.P,U2,31*%
%TO.N,Net-(J1-Pad3)*%
X29486500Y-103955000D03*
%TO.P,U2,30*%
%TO.N,Net-(J1-Pad5)*%
X30286500Y-103955000D03*
%TO.P,U2,29*%
%TO.N,Net-(U2-Pad29)*%
X31086500Y-103955000D03*
%TO.P,U2,28*%
%TO.N,Net-(U2-Pad28)*%
X31886500Y-103955000D03*
%TO.P,U2,27*%
%TO.N,Net-(U2-Pad27)*%
X32686500Y-103955000D03*
%TO.P,U2,26*%
%TO.N,Net-(U2-Pad26)*%
X33486500Y-103955000D03*
%TO.P,U2,25*%
%TO.N,Net-(U2-Pad25)*%
X34286500Y-103955000D03*
D40*
%TO.P,U2,24*%
%TO.N,Net-(U2-Pad24)*%
X35186500Y-105055000D03*
%TO.P,U2,23*%
%TO.N,Net-(J1-Pad6)*%
X35186500Y-105855000D03*
%TO.P,U2,22*%
%TO.N,/FRCS*%
X35186500Y-106655000D03*
%TO.P,U2,21*%
%TO.N,/SCL*%
X35186500Y-107455000D03*
%TO.P,U2,20*%
%TO.N,/SD*%
X35186500Y-108255000D03*
%TO.P,U2,19*%
%TO.N,/CLK*%
X35186500Y-109055000D03*
%TO.P,U2,18*%
%TO.N,/LE*%
X35186500Y-109855000D03*
%TO.P,U2,17*%
%TO.N,Net-(U2-Pad17)*%
X35186500Y-110655000D03*
%TO.P,U2,16*%
%TO.N,/SDA*%
X35186500Y-111455000D03*
%TO.P,U2,15*%
%TO.N,Net-(U2-Pad15)*%
X35186500Y-112255000D03*
%TO.P,U2,14*%
%TO.N,EP*%
X35186500Y-113055000D03*
%TO.P,U2,13*%
%TO.N,/SCK*%
X35186500Y-113855000D03*
%TO.P,U2,12*%
%TO.N,/MISO*%
X35186500Y-114655000D03*
D41*
%TO.P,U2,11*%
%TO.N,EP*%
X34286500Y-115755000D03*
%TO.P,U2,10*%
%TO.N,Net-(U2-Pad10)*%
X33486500Y-115755000D03*
%TO.P,U2,9*%
%TO.N,Net-(U2-Pad9)*%
X32686500Y-115755000D03*
%TO.P,U2,8*%
%TO.N,/EN*%
X31886500Y-115755000D03*
%TO.P,U2,7*%
%TO.N,Net-(U2-Pad7)*%
X31086500Y-115755000D03*
%TO.P,U2,6*%
%TO.N,/MOSI*%
X30286500Y-115755000D03*
%TO.P,U2,5*%
%TO.N,/Buzzer*%
X29486500Y-115755000D03*
%TO.P,U2,4*%
%TO.N,Net-(U2-Pad4)*%
X28686500Y-115755000D03*
%TO.P,U2,3*%
%TO.N,+3V3*%
X27886500Y-115755000D03*
%TO.P,U2,2*%
%TO.N,EP*%
X27086500Y-115755000D03*
%TO.P,U2,1*%
X26286500Y-115755000D03*
%TD*%
%TO.P,R20,2*%
%TO.N,EP*%
%TA.AperFunction,SMDPad,CuDef*%
G36*
G01*
X206735000Y-108501500D02*
X207285000Y-108501500D01*
G75*
G02*
X207485000Y-108701500I0J-200000D01*
G01*
X207485000Y-109101500D01*
G75*
G02*
X207285000Y-109301500I-200000J0D01*
G01*
X206735000Y-109301500D01*
G75*
G02*
X206535000Y-109101500I0J200000D01*
G01*
X206535000Y-108701500D01*
G75*
G02*
X206735000Y-108501500I200000J0D01*
G01*
G37*
%TD.AperFunction*%
%TO.P,R20,1*%
%TO.N,Net-(R17-Pad1)*%
%TA.AperFunction,SMDPad,CuDef*%
G36*
G01*
X206735000Y-106851500D02*
X207285000Y-106851500D01*
G75*
G02*
X207485000Y-107051500I0J-200000D01*
G01*
X207485000Y-107451500D01*
G75*
G02*
X207285000Y-107651500I-200000J0D01*
G01*
X206735000Y-107651500D01*
G75*
G02*
X206535000Y-107451500I0J200000D01*
G01*
X206535000Y-107051500D01*
G75*
G02*
X206735000Y-106851500I200000J0D01*
G01*
G37*
%TD.AperFunction*%
%TD*%
%TO.P,R19,2*%
%TO.N,EP*%
%TA.AperFunction,SMDPad,CuDef*%
G36*
G01*
X204450000Y-98065000D02*
X204450000Y-97515000D01*
G75*
G02*
X204650000Y-97315000I200000J0D01*
G01*
X205050000Y-97315000D01*
G75*
G02*
X205250000Y-97515000I0J-200000D01*
G01*
X205250000Y-98065000D01*
G75*
G02*
X205050000Y-98265000I-200000J0D01*
G01*
X204650000Y-98265000D01*
G75*
G02*
X204450000Y-98065000I0J200000D01*
G01*
G37*
%TD.AperFunction*%
%TO.P,R19,1*%
%TO.N,Net-(R19-Pad1)*%
%TA.AperFunction,SMDPad,CuDef*%
G36*
G01*
X202800000Y-98065000D02*
X202800000Y-97515000D01*
G75*
G02*
X203000000Y-97315000I200000J0D01*
G01*
X203400000Y-97315000D01*
G75*
G02*
X203600000Y-97515000I0J-200000D01*
G01*
X203600000Y-98065000D01*
G75*
G02*
X203400000Y-98265000I-200000J0D01*
G01*
X203000000Y-98265000D01*
G75*
G02*
X202800000Y-98065000I0J200000D01*
G01*
G37*
%TD.AperFunction*%
%TD*%
%TO.P,R18,2*%
%TO.N,EP*%
%TA.AperFunction,SMDPad,CuDef*%
G36*
G01*
X205697500Y-107652500D02*
X205147500Y-107652500D01*
G75*
G02*
X204947500Y-107452500I0J200000D01*
G01*
X204947500Y-107052500D01*
G75*
G02*
X205147500Y-106852500I200000J0D01*
G01*
X205697500Y-106852500D01*
G75*
G02*
X205897500Y-107052500I0J-200000D01*
G01*
X205897500Y-107452500D01*
G75*
G02*
X205697500Y-107652500I-200000J0D01*
G01*
G37*
%TD.AperFunction*%
%TO.P,R18,1*%
%TO.N,Net-(C13-Pad2)*%
%TA.AperFunction,SMDPad,CuDef*%
G36*
G01*
X205697500Y-109302500D02*
X205147500Y-109302500D01*
G75*
G02*
X204947500Y-109102500I0J200000D01*
G01*
X204947500Y-108702500D01*
G75*
G02*
X205147500Y-108502500I200000J0D01*
G01*
X205697500Y-108502500D01*
G75*
G02*
X205897500Y-108702500I0J-200000D01*
G01*
X205897500Y-109102500D01*
G75*
G02*
X205697500Y-109302500I-200000J0D01*
G01*
G37*
%TD.AperFunction*%
%TD*%
%TO.P,R17,2*%
%TO.N,+5V*%
%TA.AperFunction,SMDPad,CuDef*%
G36*
G01*
X207117500Y-106002500D02*
X207117500Y-105452500D01*
G75*
G02*
X207317500Y-105252500I200000J0D01*
G01*
X207717500Y-105252500D01*
G75*
G02*
X207917500Y-105452500I0J-200000D01*
G01*
X207917500Y-106002500D01*
G75*
G02*
X207717500Y-106202500I-200000J0D01*
G01*
X207317500Y-106202500D01*
G75*
G02*
X207117500Y-106002500I0J200000D01*
G01*
G37*
%TD.AperFunction*%
%TO.P,R17,1*%
%TO.N,Net-(R17-Pad1)*%
%TA.AperFunction,SMDPad,CuDef*%
G36*
G01*
X205467500Y-106002500D02*
X205467500Y-105452500D01*
G75*
G02*
X205667500Y-105252500I200000J0D01*
G01*
X206067500Y-105252500D01*
G75*
G02*
X206267500Y-105452500I0J-200000D01*
G01*
X206267500Y-106002500D01*
G75*
G02*
X206067500Y-106202500I-200000J0D01*
G01*
X205667500Y-106202500D01*
G75*
G02*
X205467500Y-106002500I0J200000D01*
G01*
G37*
%TD.AperFunction*%
%TD*%
%TO.P,R14,2*%
%TO.N,EP*%
%TA.AperFunction,SMDPad,CuDef*%
G36*
G01*
X62822500Y-100858000D02*
X62272500Y-100858000D01*
G75*
G02*
X62072500Y-100658000I0J200000D01*
G01*
X62072500Y-100258000D01*
G75*
G02*
X62272500Y-100058000I200000J0D01*
G01*
X62822500Y-100058000D01*
G75*
G02*
X63022500Y-100258000I0J-200000D01*
G01*
X63022500Y-100658000D01*
G75*
G02*
X62822500Y-100858000I-200000J0D01*
G01*
G37*
%TD.AperFunction*%
%TO.P,R14,1*%
%TO.N,Net-(R14-Pad1)*%
%TA.AperFunction,SMDPad,CuDef*%
G36*
G01*
X62822500Y-102508000D02*
X62272500Y-102508000D01*
G75*
G02*
X62072500Y-102308000I0J200000D01*
G01*
X62072500Y-101908000D01*
G75*
G02*
X62272500Y-101708000I200000J0D01*
G01*
X62822500Y-101708000D01*
G75*
G02*
X63022500Y-101908000I0J-200000D01*
G01*
X63022500Y-102308000D01*
G75*
G02*
X62822500Y-102508000I-200000J0D01*
G01*
G37*
%TD.AperFunction*%
%TD*%
%TO.P,R12,2*%
%TO.N,Net-(Q3-Pad5)*%
%TA.AperFunction,SMDPad,CuDef*%
G36*
G01*
X87292500Y-107590000D02*
X87292500Y-107040000D01*
G75*
G02*
X87492500Y-106840000I200000J0D01*
G01*
X87892500Y-106840000D01*
G75*
G02*
X88092500Y-107040000I0J-200000D01*
G01*
X88092500Y-107590000D01*
G75*
G02*
X87892500Y-107790000I-200000J0D01*
G01*
X87492500Y-107790000D01*
G75*
G02*
X87292500Y-107590000I0J200000D01*
G01*
G37*
%TD.AperFunction*%
%TO.P,R12,1*%
%TO.N,/SEG1*%
%TA.AperFunction,SMDPad,CuDef*%
G36*
G01*
X85642500Y-107590000D02*
X85642500Y-107040000D01*
G75*
G02*
X85842500Y-106840000I200000J0D01*
G01*
X86242500Y-106840000D01*
G75*
G02*
X86442500Y-107040000I0J-200000D01*
G01*
X86442500Y-107590000D01*
G75*
G02*
X86242500Y-107790000I-200000J0D01*
G01*
X85842500Y-107790000D01*
G75*
G02*
X85642500Y-107590000I0J200000D01*
G01*
G37*
%TD.AperFunction*%
%TD*%
%TO.P,R11,2*%
%TO.N,Net-(Q3-Pad2)*%
%TA.AperFunction,SMDPad,CuDef*%
G36*
G01*
X87292500Y-109177500D02*
X87292500Y-108627500D01*
G75*
G02*
X87492500Y-108427500I200000J0D01*
G01*
X87892500Y-108427500D01*
G75*
G02*
X88092500Y-108627500I0J-200000D01*
G01*
X88092500Y-109177500D01*
G75*
G02*
X87892500Y-109377500I-200000J0D01*
G01*
X87492500Y-109377500D01*
G75*
G02*
X87292500Y-109177500I0J200000D01*
G01*
G37*
%TD.AperFunction*%
%TO.P,R11,1*%
%TO.N,/SEG2*%
%TA.AperFunction,SMDPad,CuDef*%
G36*
G01*
X85642500Y-109177500D02*
X85642500Y-108627500D01*
G75*
G02*
X85842500Y-108427500I200000J0D01*
G01*
X86242500Y-108427500D01*
G75*
G02*
X86442500Y-108627500I0J-200000D01*
G01*
X86442500Y-109177500D01*
G75*
G02*
X86242500Y-109377500I-200000J0D01*
G01*
X85842500Y-109377500D01*
G75*
G02*
X85642500Y-109177500I0J200000D01*
G01*
G37*
%TD.AperFunction*%
%TD*%
%TO.P,R9,2*%
%TO.N,/EN*%
%TA.AperFunction,SMDPad,CuDef*%
G36*
G01*
X26689000Y-119486000D02*
X26689000Y-120036000D01*
G75*
G02*
X26489000Y-120236000I-200000J0D01*
G01*
X26089000Y-120236000D01*
G75*
G02*
X25889000Y-120036000I0J200000D01*
G01*
X25889000Y-119486000D01*
G75*
G02*
X26089000Y-119286000I200000J0D01*
G01*
X26489000Y-119286000D01*
G75*
G02*
X26689000Y-119486000I0J-200000D01*
G01*
G37*
%TD.AperFunction*%
%TO.P,R9,1*%
%TO.N,+3V3*%
%TA.AperFunction,SMDPad,CuDef*%
G36*
G01*
X28339000Y-119486000D02*
X28339000Y-120036000D01*
G75*
G02*
X28139000Y-120236000I-200000J0D01*
G01*
X27739000Y-120236000D01*
G75*
G02*
X27539000Y-120036000I0J200000D01*
G01*
X27539000Y-119486000D01*
G75*
G02*
X27739000Y-119286000I200000J0D01*
G01*
X28139000Y-119286000D01*
G75*
G02*
X28339000Y-119486000I0J-200000D01*
G01*
G37*
%TD.AperFunction*%
%TD*%
%TO.P,R8,2*%
%TO.N,Net-(Q2-Pad1)*%
%TA.AperFunction,SMDPad,CuDef*%
G36*
G01*
X198037500Y-119337500D02*
X198037500Y-118787500D01*
G75*
G02*
X198237500Y-118587500I200000J0D01*
G01*
X198637500Y-118587500D01*
G75*
G02*
X198837500Y-118787500I0J-200000D01*
G01*
X198837500Y-119337500D01*
G75*
G02*
X198637500Y-119537500I-200000J0D01*
G01*
X198237500Y-119537500D01*
G75*
G02*
X198037500Y-119337500I0J200000D01*
G01*
G37*
%TD.AperFunction*%
%TO.P,R8,1*%
%TO.N,/Buzzer*%
%TA.AperFunction,SMDPad,CuDef*%
G36*
G01*
X196387500Y-119337500D02*
X196387500Y-118787500D01*
G75*
G02*
X196587500Y-118587500I200000J0D01*
G01*
X196987500Y-118587500D01*
G75*
G02*
X197187500Y-118787500I0J-200000D01*
G01*
X197187500Y-119337500D01*
G75*
G02*
X196987500Y-119537500I-200000J0D01*
G01*
X196587500Y-119537500D01*
G75*
G02*
X196387500Y-119337500I0J200000D01*
G01*
G37*
%TD.AperFunction*%
%TD*%
%TO.P,R7,2*%
%TO.N,Net-(Q1-Pad5)*%
%TA.AperFunction,SMDPad,CuDef*%
G36*
G01*
X87292500Y-110765000D02*
X87292500Y-110215000D01*
G75*
G02*
X87492500Y-110015000I200000J0D01*
G01*
X87892500Y-110015000D01*
G75*
G02*
X88092500Y-110215000I0J-200000D01*
G01*
X88092500Y-110765000D01*
G75*
G02*
X87892500Y-110965000I-200000J0D01*
G01*
X87492500Y-110965000D01*
G75*
G02*
X87292500Y-110765000I0J200000D01*
G01*
G37*
%TD.AperFunction*%
%TO.P,R7,1*%
%TO.N,/SEG3*%
%TA.AperFunction,SMDPad,CuDef*%
G36*
G01*
X85642500Y-110765000D02*
X85642500Y-110215000D01*
G75*
G02*
X85842500Y-110015000I200000J0D01*
G01*
X86242500Y-110015000D01*
G75*
G02*
X86442500Y-110215000I0J-200000D01*
G01*
X86442500Y-110765000D01*
G75*
G02*
X86242500Y-110965000I-200000J0D01*
G01*
X85842500Y-110965000D01*
G75*
G02*
X85642500Y-110765000I0J200000D01*
G01*
G37*
%TD.AperFunction*%
%TD*%
%TO.P,R6,2*%
%TO.N,Net-(Q1-Pad2)*%
%TA.AperFunction,SMDPad,CuDef*%
G36*
G01*
X87292500Y-112352500D02*
X87292500Y-111802500D01*
G75*
G02*
X87492500Y-111602500I200000J0D01*
G01*
X87892500Y-111602500D01*
G75*
G02*
X88092500Y-111802500I0J-200000D01*
G01*
X88092500Y-112352500D01*
G75*
G02*
X87892500Y-112552500I-200000J0D01*
G01*
X87492500Y-112552500D01*
G75*
G02*
X87292500Y-112352500I0J200000D01*
G01*
G37*
%TD.AperFunction*%
%TO.P,R6,1*%
%TO.N,/SEG4*%
%TA.AperFunction,SMDPad,CuDef*%
G36*
G01*
X85642500Y-112352500D02*
X85642500Y-111802500D01*
G75*
G02*
X85842500Y-111602500I200000J0D01*
G01*
X86242500Y-111602500D01*
G75*
G02*
X86442500Y-111802500I0J-200000D01*
G01*
X86442500Y-112352500D01*
G75*
G02*
X86242500Y-112552500I-200000J0D01*
G01*
X85842500Y-112552500D01*
G75*
G02*
X85642500Y-112352500I0J200000D01*
G01*
G37*
%TD.AperFunction*%
%TD*%
%TO.P,R4,2*%
%TO.N,+5V*%
%TA.AperFunction,SMDPad,CuDef*%
G36*
G01*
X83420000Y-112352500D02*
X83420000Y-111802500D01*
G75*
G02*
X83620000Y-111602500I200000J0D01*
G01*
X84020000Y-111602500D01*
G75*
G02*
X84220000Y-111802500I0J-200000D01*
G01*
X84220000Y-112352500D01*
G75*
G02*
X84020000Y-112552500I-200000J0D01*
G01*
X83620000Y-112552500D01*
G75*
G02*
X83420000Y-112352500I0J200000D01*
G01*
G37*
%TD.AperFunction*%
%TO.P,R4,1*%
%TO.N,/SEG4*%
%TA.AperFunction,SMDPad,CuDef*%
G36*
G01*
X81770000Y-112352500D02*
X81770000Y-111802500D01*
G75*
G02*
X81970000Y-111602500I200000J0D01*
G01*
X82370000Y-111602500D01*
G75*
G02*
X82570000Y-111802500I0J-200000D01*
G01*
X82570000Y-112352500D01*
G75*
G02*
X82370000Y-112552500I-200000J0D01*
G01*
X81970000Y-112552500D01*
G75*
G02*
X81770000Y-112352500I0J200000D01*
G01*
G37*
%TD.AperFunction*%
%TD*%
%TO.P,R3,2*%
%TO.N,+5V*%
%TA.AperFunction,SMDPad,CuDef*%
G36*
G01*
X83420000Y-110765000D02*
X83420000Y-110215000D01*
G75*
G02*
X83620000Y-110015000I200000J0D01*
G01*
X84020000Y-110015000D01*
G75*
G02*
X84220000Y-110215000I0J-200000D01*
G01*
X84220000Y-110765000D01*
G75*
G02*
X84020000Y-110965000I-200000J0D01*
G01*
X83620000Y-110965000D01*
G75*
G02*
X83420000Y-110765000I0J200000D01*
G01*
G37*
%TD.AperFunction*%
%TO.P,R3,1*%
%TO.N,/SEG3*%
%TA.AperFunction,SMDPad,CuDef*%
G36*
G01*
X81770000Y-110765000D02*
X81770000Y-110215000D01*
G75*
G02*
X81970000Y-110015000I200000J0D01*
G01*
X82370000Y-110015000D01*
G75*
G02*
X82570000Y-110215000I0J-200000D01*
G01*
X82570000Y-110765000D01*
G75*
G02*
X82370000Y-110965000I-200000J0D01*
G01*
X81970000Y-110965000D01*
G75*
G02*
X81770000Y-110765000I0J200000D01*
G01*
G37*
%TD.AperFunction*%
%TD*%
%TO.P,R2,2*%
%TO.N,+5V*%
%TA.AperFunction,SMDPad,CuDef*%
G36*
G01*
X83420000Y-109177500D02*
X83420000Y-108627500D01*
G75*
G02*
X83620000Y-108427500I200000J0D01*
G01*
X84020000Y-108427500D01*
G75*
G02*
X84220000Y-108627500I0J-200000D01*
G01*
X84220000Y-109177500D01*
G75*
G02*
X84020000Y-109377500I-200000J0D01*
G01*
X83620000Y-109377500D01*
G75*
G02*
X83420000Y-109177500I0J200000D01*
G01*
G37*
%TD.AperFunction*%
%TO.P,R2,1*%
%TO.N,/SEG2*%
%TA.AperFunction,SMDPad,CuDef*%
G36*
G01*
X81770000Y-109177500D02*
X81770000Y-108627500D01*
G75*
G02*
X81970000Y-108427500I200000J0D01*
G01*
X82370000Y-108427500D01*
G75*
G02*
X82570000Y-108627500I0J-200000D01*
G01*
X82570000Y-109177500D01*
G75*
G02*
X82370000Y-109377500I-200000J0D01*
G01*
X81970000Y-109377500D01*
G75*
G02*
X81770000Y-109177500I0J200000D01*
G01*
G37*
%TD.AperFunction*%
%TD*%
%TO.P,R1,2*%
%TO.N,+5V*%
%TA.AperFunction,SMDPad,CuDef*%
G36*
G01*
X83420000Y-107590000D02*
X83420000Y-107040000D01*
G75*
G02*
X83620000Y-106840000I200000J0D01*
G01*
X84020000Y-106840000D01*
G75*
G02*
X84220000Y-107040000I0J-200000D01*
G01*
X84220000Y-107590000D01*
G75*
G02*
X84020000Y-107790000I-200000J0D01*
G01*
X83620000Y-107790000D01*
G75*
G02*
X83420000Y-107590000I0J200000D01*
G01*
G37*
%TD.AperFunction*%
%TO.P,R1,1*%
%TO.N,/SEG1*%
%TA.AperFunction,SMDPad,CuDef*%
G36*
G01*
X81770000Y-107590000D02*
X81770000Y-107040000D01*
G75*
G02*
X81970000Y-106840000I200000J0D01*
G01*
X82370000Y-106840000D01*
G75*
G02*
X82570000Y-107040000I0J-200000D01*
G01*
X82570000Y-107590000D01*
G75*
G02*
X82370000Y-107790000I-200000J0D01*
G01*
X81970000Y-107790000D01*
G75*
G02*
X81770000Y-107590000I0J200000D01*
G01*
G37*
%TD.AperFunction*%
%TD*%
D42*
%TO.P,Q2,3*%
%TO.N,Net-(BZ1-Pad2)*%
X197485000Y-122872500D03*
%TO.P,Q2,2*%
%TO.N,EP*%
X196535000Y-120872500D03*
%TO.P,Q2,1*%
%TO.N,Net-(Q2-Pad1)*%
X198435000Y-120872500D03*
%TD*%
D43*
%TO.P,L2,1*%
%TO.N,SW*%
X200342500Y-107052500D03*
%TO.P,L2,2*%
%TO.N,+5V*%
X200342500Y-108902500D03*
%TD*%
D44*
%TO.P,D1,1*%
%TO.N,+3V3*%
X210185000Y-118297500D03*
%TO.P,D1,2*%
%TO.N,Net-(BZ1-Pad2)*%
X210185000Y-119697500D03*
%TD*%
%TO.P,C13,2*%
%TO.N,Net-(C13-Pad2)*%
%TA.AperFunction,SMDPad,CuDef*%
G36*
G01*
X203585000Y-108415000D02*
X204085000Y-108415000D01*
G75*
G02*
X204310000Y-108640000I0J-225000D01*
G01*
X204310000Y-109090000D01*
G75*
G02*
X204085000Y-109315000I-225000J0D01*
G01*
X203585000Y-109315000D01*
G75*
G02*
X203360000Y-109090000I0J225000D01*
G01*
X203360000Y-108640000D01*
G75*
G02*
X203585000Y-108415000I225000J0D01*
G01*
G37*
%TD.AperFunction*%
%TO.P,C13,1*%
%TO.N,Net-(C13-Pad1)*%
%TA.AperFunction,SMDPad,CuDef*%
G36*
G01*
X203585000Y-106865000D02*
X204085000Y-106865000D01*
G75*
G02*
X204310000Y-107090000I0J-225000D01*
G01*
X204310000Y-107540000D01*
G75*
G02*
X204085000Y-107765000I-225000J0D01*
G01*
X203585000Y-107765000D01*
G75*
G02*
X203360000Y-107540000I0J225000D01*
G01*
X203360000Y-107090000D01*
G75*
G02*
X203585000Y-106865000I225000J0D01*
G01*
G37*
%TD.AperFunction*%
%TD*%
%TO.P,C9,2*%
%TO.N,EP*%
%TA.AperFunction,SMDPad,CuDef*%
G36*
G01*
X196230001Y-106527500D02*
X194929999Y-106527500D01*
G75*
G02*
X194680000Y-106277501I0J249999D01*
G01*
X194680000Y-105627499D01*
G75*
G02*
X194929999Y-105377500I249999J0D01*
G01*
X196230001Y-105377500D01*
G75*
G02*
X196480000Y-105627499I0J-249999D01*
G01*
X196480000Y-106277501D01*
G75*
G02*
X196230001Y-106527500I-249999J0D01*
G01*
G37*
%TD.AperFunction*%
%TO.P,C9,1*%
%TO.N,+5V*%
%TA.AperFunction,SMDPad,CuDef*%
G36*
G01*
X196230001Y-109477500D02*
X194929999Y-109477500D01*
G75*
G02*
X194680000Y-109227501I0J249999D01*
G01*
X194680000Y-108577499D01*
G75*
G02*
X194929999Y-108327500I249999J0D01*
G01*
X196230001Y-108327500D01*
G75*
G02*
X196480000Y-108577499I0J-249999D01*
G01*
X196480000Y-109227501D01*
G75*
G02*
X196230001Y-109477500I-249999J0D01*
G01*
G37*
%TD.AperFunction*%
%TD*%
%TO.P,C8,2*%
%TO.N,SW*%
%TA.AperFunction,SMDPad,CuDef*%
G36*
G01*
X198187500Y-100832500D02*
X198687500Y-100832500D01*
G75*
G02*
X198912500Y-101057500I0J-225000D01*
G01*
X198912500Y-101507500D01*
G75*
G02*
X198687500Y-101732500I-225000J0D01*
G01*
X198187500Y-101732500D01*
G75*
G02*
X197962500Y-101507500I0J225000D01*
G01*
X197962500Y-101057500D01*
G75*
G02*
X198187500Y-100832500I225000J0D01*
G01*
G37*
%TD.AperFunction*%
%TO.P,C8,1*%
%TO.N,Net-(C8-Pad1)*%
%TA.AperFunction,SMDPad,CuDef*%
G36*
G01*
X198187500Y-99282500D02*
X198687500Y-99282500D01*
G75*
G02*
X198912500Y-99507500I0J-225000D01*
G01*
X198912500Y-99957500D01*
G75*
G02*
X198687500Y-100182500I-225000J0D01*
G01*
X198187500Y-100182500D01*
G75*
G02*
X197962500Y-99957500I0J225000D01*
G01*
X197962500Y-99507500D01*
G75*
G02*
X198187500Y-99282500I225000J0D01*
G01*
G37*
%TD.AperFunction*%
%TD*%
%TO.P,C7,2*%
%TO.N,EP*%
%TA.AperFunction,SMDPad,CuDef*%
G36*
G01*
X199237500Y-96822499D02*
X199237500Y-98122501D01*
G75*
G02*
X198987501Y-98372500I-249999J0D01*
G01*
X198337499Y-98372500D01*
G75*
G02*
X198087500Y-98122501I0J249999D01*
G01*
X198087500Y-96822499D01*
G75*
G02*
X198337499Y-96572500I249999J0D01*
G01*
X198987501Y-96572500D01*
G75*
G02*
X199237500Y-96822499I0J-249999D01*
G01*
G37*
%TD.AperFunction*%
%TO.P,C7,1*%
%TO.N,+24V*%
%TA.AperFunction,SMDPad,CuDef*%
G36*
G01*
X202187500Y-96822499D02*
X202187500Y-98122501D01*
G75*
G02*
X201937501Y-98372500I-249999J0D01*
G01*
X201287499Y-98372500D01*
G75*
G02*
X201037500Y-98122501I0J249999D01*
G01*
X201037500Y-96822499D01*
G75*
G02*
X201287499Y-96572500I249999J0D01*
G01*
X201937501Y-96572500D01*
G75*
G02*
X202187500Y-96822499I0J-249999D01*
G01*
G37*
%TD.AperFunction*%
%TD*%
%TO.P,C3,2*%
%TO.N,EP*%
%TA.AperFunction,SMDPad,CuDef*%
G36*
G01*
X27389000Y-121662000D02*
X27389000Y-121162000D01*
G75*
G02*
X27614000Y-120937000I225000J0D01*
G01*
X28064000Y-120937000D01*
G75*
G02*
X28289000Y-121162000I0J-225000D01*
G01*
X28289000Y-121662000D01*
G75*
G02*
X28064000Y-121887000I-225000J0D01*
G01*
X27614000Y-121887000D01*
G75*
G02*
X27389000Y-121662000I0J225000D01*
G01*
G37*
%TD.AperFunction*%
%TO.P,C3,1*%
%TO.N,/EN*%
%TA.AperFunction,SMDPad,CuDef*%
G36*
G01*
X25839000Y-121662000D02*
X25839000Y-121162000D01*
G75*
G02*
X26064000Y-120937000I225000J0D01*
G01*
X26514000Y-120937000D01*
G75*
G02*
X26739000Y-121162000I0J-225000D01*
G01*
X26739000Y-121662000D01*
G75*
G02*
X26514000Y-121887000I-225000J0D01*
G01*
X26064000Y-121887000D01*
G75*
G02*
X25839000Y-121662000I0J225000D01*
G01*
G37*
%TD.AperFunction*%
%TD*%
%TO.P,C2,2*%
%TO.N,EP*%
%TA.AperFunction,SMDPad,CuDef*%
G36*
G01*
X61210000Y-100957500D02*
X60710000Y-100957500D01*
G75*
G02*
X60485000Y-100732500I0J225000D01*
G01*
X60485000Y-100282500D01*
G75*
G02*
X60710000Y-100057500I225000J0D01*
G01*
X61210000Y-100057500D01*
G75*
G02*
X61435000Y-100282500I0J-225000D01*
G01*
X61435000Y-100732500D01*
G75*
G02*
X61210000Y-100957500I-225000J0D01*
G01*
G37*
%TD.AperFunction*%
%TO.P,C2,1*%
%TO.N,+3V3*%
%TA.AperFunction,SMDPad,CuDef*%
G36*
G01*
X61210000Y-102507500D02*
X60710000Y-102507500D01*
G75*
G02*
X60485000Y-102282500I0J225000D01*
G01*
X60485000Y-101832500D01*
G75*
G02*
X60710000Y-101607500I225000J0D01*
G01*
X61210000Y-101607500D01*
G75*
G02*
X61435000Y-101832500I0J-225000D01*
G01*
X61435000Y-102282500D01*
G75*
G02*
X61210000Y-102507500I-225000J0D01*
G01*
G37*
%TD.AperFunction*%
%TD*%
%TO.P,C1,2*%
%TO.N,EP*%
%TA.AperFunction,SMDPad,CuDef*%
G36*
G01*
X26840000Y-117860000D02*
X26840000Y-118360000D01*
G75*
G02*
X26615000Y-118585000I-225000J0D01*
G01*
X26165000Y-118585000D01*
G75*
G02*
X25940000Y-118360000I0J225000D01*
G01*
X25940000Y-117860000D01*
G75*
G02*
X26165000Y-117635000I225000J0D01*
G01*
X26615000Y-117635000D01*
G75*
G02*
X26840000Y-117860000I0J-225000D01*
G01*
G37*
%TD.AperFunction*%
%TO.P,C1,1*%
%TO.N,+3V3*%
%TA.AperFunction,SMDPad,CuDef*%
G36*
G01*
X28390000Y-117860000D02*
X28390000Y-118360000D01*
G75*
G02*
X28165000Y-118585000I-225000J0D01*
G01*
X27715000Y-118585000D01*
G75*
G02*
X27490000Y-118360000I0J225000D01*
G01*
X27490000Y-117860000D01*
G75*
G02*
X27715000Y-117635000I225000J0D01*
G01*
X28165000Y-117635000D01*
G75*
G02*
X28390000Y-117860000I0J-225000D01*
G01*
G37*
%TD.AperFunction*%
%TD*%
D45*
%TO.N,+3V3*%
X38608000Y-111506000D03*
X187007500Y-104140000D03*
X186055000Y-103187500D03*
X186055000Y-104140000D03*
X187007500Y-103187500D03*
X28892500Y-118110000D03*
X193357500Y-115887500D03*
X37147500Y-120015000D03*
X60007500Y-102044500D03*
D46*
X73025000Y-121285000D03*
X90805000Y-121285000D03*
X171450000Y-121285000D03*
X190817500Y-121285000D03*
D45*
X77152500Y-108585000D03*
X60960000Y-111633000D03*
D46*
X38925500Y-104902000D03*
D45*
%TO.N,EP*%
X191617600Y-106680000D03*
X190690500Y-106680000D03*
X189763400Y-106680000D03*
X189763400Y-107632500D03*
X190690500Y-107632500D03*
X191617600Y-107632500D03*
X191617600Y-108585000D03*
X190690500Y-108585000D03*
X189763400Y-108585000D03*
X63817500Y-114935000D03*
X62865000Y-114935000D03*
X61912500Y-114935000D03*
X61912500Y-113030000D03*
X62865000Y-113030000D03*
X63817500Y-113030000D03*
X63817500Y-113982500D03*
X62865000Y-113982500D03*
X61912500Y-113982500D03*
X63817500Y-104775000D03*
X62865000Y-104775000D03*
X61912500Y-104775000D03*
X61912500Y-105727500D03*
X63817500Y-105727500D03*
X62865000Y-105727500D03*
X61912500Y-106680000D03*
X62865000Y-106680000D03*
X63817500Y-106680000D03*
X203835000Y-103060500D03*
X202882500Y-102997000D03*
X203835000Y-101155500D03*
X203835000Y-102108000D03*
X202882500Y-102108000D03*
X200977500Y-102108000D03*
X201930000Y-102108000D03*
X201930000Y-102997000D03*
X200977500Y-102997000D03*
X209867500Y-96520000D03*
X210820000Y-96520000D03*
X210820000Y-97472500D03*
X209867500Y-97472500D03*
X60007500Y-100520500D03*
X204787500Y-103060500D03*
X204787500Y-102108000D03*
X204787500Y-101155500D03*
X195008500Y-96202500D03*
X196151500Y-97409000D03*
X195008500Y-97409000D03*
X195008500Y-102235000D03*
X196151500Y-102235000D03*
X196151500Y-101028500D03*
X195008500Y-101028500D03*
X195008500Y-99822000D03*
X195008500Y-98615500D03*
X196151500Y-96202500D03*
X197294500Y-96202500D03*
X197294500Y-97409000D03*
X25400000Y-118110000D03*
X35242500Y-102870000D03*
X28575000Y-102870000D03*
X27622500Y-102870000D03*
X26670000Y-102870000D03*
X25717500Y-102870000D03*
X26352500Y-105092500D03*
X27305000Y-105092500D03*
X28257500Y-105092500D03*
X29210000Y-105092500D03*
X30162500Y-105092500D03*
X31115000Y-105092500D03*
X32067500Y-105092500D03*
X33020000Y-105092500D03*
X33972500Y-105092500D03*
X33972500Y-106045000D03*
X33020000Y-106045000D03*
X32067500Y-106045000D03*
X31115000Y-106045000D03*
X30162500Y-106045000D03*
X29210000Y-106045000D03*
X28257500Y-106045000D03*
X27305000Y-106045000D03*
X26352500Y-106045000D03*
X26352500Y-106997500D03*
X26352500Y-107950000D03*
X33972500Y-106997500D03*
X33972500Y-107950000D03*
X33972500Y-108902500D03*
X33972500Y-109855000D03*
X33972500Y-110807500D03*
X33972500Y-111760000D03*
X33972500Y-112712500D03*
X33972500Y-113665000D03*
X33972500Y-114617500D03*
X33020000Y-114617500D03*
X32067500Y-114617500D03*
X31115000Y-114617500D03*
X30162500Y-114617500D03*
X29210000Y-114617500D03*
X28257500Y-114617500D03*
X27305000Y-114617500D03*
X26352500Y-114617500D03*
X33020000Y-113665000D03*
X32067500Y-113665000D03*
X31115000Y-113665000D03*
X30162500Y-113665000D03*
X195580000Y-121920000D03*
X60007500Y-104140000D03*
X30480000Y-121158000D03*
X32702500Y-122999500D03*
X56515000Y-122999500D03*
D46*
X185870659Y-111944341D03*
D45*
X206184500Y-108077000D03*
X196151500Y-99822000D03*
X196151500Y-98615500D03*
X190690500Y-103822500D03*
D46*
X104775000Y-106045000D03*
X107950000Y-106045000D03*
X106362500Y-106045000D03*
X111125000Y-106045000D03*
X109537500Y-106045000D03*
X112712500Y-106045000D03*
X125412500Y-106045000D03*
X127000000Y-106045000D03*
X128587500Y-106045000D03*
X130175000Y-106045000D03*
X131762500Y-106045000D03*
X133350000Y-106045000D03*
X145097500Y-106045000D03*
X146685000Y-106045000D03*
X148272500Y-106045000D03*
X149860000Y-106045000D03*
X151447500Y-106045000D03*
X153035000Y-106045000D03*
X154622500Y-106045000D03*
X125412500Y-111125000D03*
X127000000Y-111125000D03*
X128587500Y-111125000D03*
X130175000Y-111125000D03*
X131762500Y-111125000D03*
X133350000Y-111125000D03*
X145097500Y-111125000D03*
X146685000Y-111125000D03*
X148272500Y-111125000D03*
X149860000Y-111125000D03*
X151447500Y-111125000D03*
X153035000Y-111125000D03*
X154622500Y-111125000D03*
X125412500Y-114300000D03*
X127000000Y-114300000D03*
X128587500Y-114300000D03*
X130175000Y-114300000D03*
X131762500Y-114300000D03*
X133350000Y-114300000D03*
X145097500Y-114300000D03*
X146685000Y-114300000D03*
X148272500Y-114300000D03*
X149860000Y-114300000D03*
X151447500Y-114300000D03*
X153035000Y-114300000D03*
X154622500Y-114300000D03*
X161925000Y-101282500D03*
X161925000Y-102870000D03*
X161925000Y-104457500D03*
X161925000Y-106045000D03*
X161925000Y-107632500D03*
X161925000Y-109220000D03*
X161925000Y-110807500D03*
X161925000Y-112395000D03*
X161925000Y-113982500D03*
X161925000Y-115570000D03*
X154622500Y-101282500D03*
X153035000Y-101282500D03*
X151447500Y-101282500D03*
X149860000Y-101282500D03*
X148272500Y-101282500D03*
X146685000Y-101282500D03*
X145097500Y-101282500D03*
X133350000Y-101282500D03*
X131762500Y-101282500D03*
X130175000Y-101282500D03*
X128587500Y-101282500D03*
X127000000Y-101282500D03*
X125412500Y-101282500D03*
X112712500Y-101282500D03*
X111125000Y-101282500D03*
X109537500Y-101282500D03*
X107950000Y-101282500D03*
X106362500Y-101282500D03*
X104775000Y-101282500D03*
X95885000Y-101282500D03*
X95885000Y-108267500D03*
X104775000Y-119697500D03*
X106362500Y-119697500D03*
X107950000Y-119697500D03*
X109537500Y-119697500D03*
X111125000Y-119697500D03*
X112712500Y-119697500D03*
X114300000Y-119697500D03*
X125412500Y-119697500D03*
X127000000Y-119697500D03*
X128587500Y-119697500D03*
X130175000Y-119697500D03*
X131762500Y-119697500D03*
X133350000Y-119697500D03*
X134937500Y-119697500D03*
X123825000Y-119697500D03*
X122237500Y-119697500D03*
X120650000Y-119697500D03*
X119062500Y-119697500D03*
X145097500Y-119697500D03*
X143510000Y-119697500D03*
X141922500Y-119697500D03*
X146685000Y-119697500D03*
X148272500Y-119697500D03*
X149860000Y-119697500D03*
X151447500Y-119697500D03*
X153035000Y-119697500D03*
X154622500Y-119697500D03*
X160655000Y-116840000D03*
X159385000Y-118110000D03*
X93980000Y-106362500D03*
D45*
X72390000Y-113030000D03*
X77787500Y-112395000D03*
D46*
X194945000Y-112712500D03*
D45*
X60134500Y-110553500D03*
%TO.N,Net-(J1-Pad2)*%
X37782500Y-100330000D03*
%TO.N,Net-(J1-Pad6)*%
X36830000Y-98697210D03*
D46*
%TO.N,/SEG1SW*%
X94297500Y-111125000D03*
%TO.N,/SEG2SW*%
X96837500Y-112395000D03*
%TO.N,/SEG3SW*%
X98425000Y-115252500D03*
D45*
%TO.N,/EN*%
X31886500Y-117167000D03*
X25400000Y-119761000D03*
%TO.N,+5V*%
X195580000Y-107950000D03*
X196532500Y-107950000D03*
X197485000Y-107950000D03*
X84772500Y-107315000D03*
X84772500Y-108902500D03*
X84772500Y-110490000D03*
X84772500Y-112077500D03*
X88582500Y-108915799D03*
X88582500Y-112090799D03*
X91122500Y-107315000D03*
X91122500Y-110490000D03*
X208216500Y-105727500D03*
X45720000Y-108267500D03*
X45720000Y-109855000D03*
X45744499Y-111339999D03*
X198945500Y-108902500D03*
X192405000Y-102870000D03*
D46*
X186055000Y-115570000D03*
D45*
%TO.N,Net-(SW3-Pad6)*%
X62865000Y-118110000D03*
X60325000Y-120332500D03*
%TO.N,Net-(U2-Pad27)*%
X188277500Y-114635700D03*
X188277500Y-110807500D03*
%TO.N,/FRCS*%
X70167500Y-108267500D03*
X69850000Y-99504500D03*
%TO.N,/MISO*%
X65087500Y-109918500D03*
X62103000Y-108521500D03*
%TO.N,/SCK*%
X66992500Y-110934500D03*
X60833000Y-108140500D03*
%TO.N,/SDA*%
X41275000Y-110744000D03*
X41275000Y-113432501D03*
%TO.N,/SCL*%
X40005000Y-108902500D03*
X40005000Y-105981500D03*
X42672000Y-109918500D03*
X42672000Y-112903000D03*
%TD*%
D47*
%TO.N,Net-(BZ1-Pad2)*%
X204342500Y-120967500D02*
X204470000Y-120840000D01*
D48*
X205612500Y-119697500D02*
X204470000Y-120840000D01*
X210185000Y-119697500D02*
X205612500Y-119697500D01*
D47*
X202437500Y-122872500D02*
X204470000Y-120840000D01*
X197485000Y-122872500D02*
X202437500Y-122872500D01*
%TO.N,+3V3*%
X61615000Y-102712500D02*
X60960000Y-102057500D01*
D48*
X205927500Y-118297500D02*
X204470000Y-116840000D01*
X210185000Y-118297500D02*
X205927500Y-118297500D01*
D49*
X27886500Y-118056500D02*
X27940000Y-118110000D01*
X27886500Y-115755000D02*
X27886500Y-118056500D01*
X37782500Y-102870000D02*
X37782500Y-104902500D01*
X27940000Y-118110000D02*
X28892500Y-118110000D01*
X27940000Y-119760000D02*
X27939000Y-119761000D01*
X27940000Y-118110000D02*
X27940000Y-119760000D01*
X27939000Y-119761000D02*
X30861000Y-119761000D01*
X31464000Y-120364000D02*
X31464000Y-122113000D01*
X30861000Y-119761000D02*
X31464000Y-120364000D01*
X188023500Y-105727500D02*
X188023500Y-106997500D01*
X188023500Y-103822500D02*
X188023500Y-105727500D01*
D47*
X61615000Y-103822500D02*
X61615000Y-102712500D01*
X60020500Y-102057500D02*
X60007500Y-102044500D01*
X60960000Y-102057500D02*
X60020500Y-102057500D01*
D49*
X71817500Y-121285000D02*
X73025000Y-121285000D01*
X89597500Y-121285000D02*
X90805000Y-121285000D01*
X170242500Y-121285000D02*
X171450000Y-121285000D01*
X189610000Y-121285000D02*
X190817500Y-121285000D01*
X77787500Y-109855000D02*
X75247500Y-109855000D01*
X75247500Y-109855000D02*
X75247500Y-111125000D01*
X72542500Y-111125000D02*
X75247500Y-111125000D01*
X71272500Y-112395000D02*
X72542500Y-111125000D01*
X70297500Y-112395000D02*
X71272500Y-112395000D01*
X77787500Y-109220000D02*
X77152500Y-108585000D01*
X77787500Y-109855000D02*
X77787500Y-109220000D01*
D48*
X192381000Y-114696000D02*
X193118500Y-114696000D01*
X193357500Y-114935000D02*
X193357500Y-115887500D01*
X193118500Y-114696000D02*
X193357500Y-114935000D01*
D47*
X38609000Y-111505000D02*
X38608000Y-111506000D01*
X39370000Y-111505000D02*
X38609000Y-111505000D01*
X38607000Y-111505000D02*
X38608000Y-111506000D01*
X37782500Y-111505000D02*
X38607000Y-111505000D01*
D48*
X63115500Y-111121500D02*
X62547500Y-110553500D01*
X63115500Y-112037900D02*
X63115500Y-111121500D01*
D47*
X61294490Y-111298510D02*
X60960000Y-111633000D01*
X62277490Y-111298510D02*
X61294490Y-111298510D01*
X62547500Y-111028500D02*
X62277490Y-111298510D01*
X62547500Y-110553500D02*
X62547500Y-111028500D01*
D49*
X38925000Y-104902500D02*
X38925500Y-104902000D01*
X37782500Y-104902500D02*
X38925000Y-104902500D01*
D47*
%TO.N,EP*%
X62498000Y-100507500D02*
X62547500Y-100458000D01*
X60960000Y-100507500D02*
X62498000Y-100507500D01*
D49*
X26390000Y-118110000D02*
X25400000Y-118110000D01*
D50*
X28311500Y-111830000D02*
X28311500Y-109855000D01*
D49*
X196535000Y-120965000D02*
X195580000Y-121920000D01*
X196535000Y-120872500D02*
X196535000Y-120965000D01*
D47*
X60960000Y-104477500D02*
X60345000Y-104477500D01*
X60345000Y-104477500D02*
X60007500Y-104140000D01*
D49*
X186120000Y-113095000D02*
X186055000Y-113030000D01*
X28088000Y-121163000D02*
X27839000Y-121412000D01*
X29464000Y-121163000D02*
X28088000Y-121163000D01*
X30475000Y-121163000D02*
X30480000Y-121158000D01*
X29464000Y-121163000D02*
X30475000Y-121163000D01*
X42545000Y-123034500D02*
X41275000Y-123034500D01*
X41275000Y-123034500D02*
X40005000Y-123034500D01*
X40005000Y-123034500D02*
X38735000Y-123034500D01*
X38735000Y-123034500D02*
X37465000Y-123034500D01*
X37465000Y-123034500D02*
X36195000Y-123034500D01*
X36195000Y-123034500D02*
X34925000Y-123034500D01*
X34925000Y-123034500D02*
X33655000Y-123034500D01*
X32737500Y-123034500D02*
X32702500Y-122999500D01*
X33655000Y-123034500D02*
X32737500Y-123034500D01*
D47*
X62615000Y-115185000D02*
X62865000Y-114935000D01*
X62615000Y-115925600D02*
X62615000Y-115185000D01*
D49*
X61595000Y-123034500D02*
X60325000Y-123034500D01*
X60325000Y-123034500D02*
X59055000Y-123034500D01*
X59055000Y-123034500D02*
X57785000Y-123034500D01*
X56550000Y-123034500D02*
X56515000Y-122999500D01*
X57785000Y-123034500D02*
X56550000Y-123034500D01*
X186055000Y-113030000D02*
X186055000Y-112128682D01*
X186055000Y-112128682D02*
X185870659Y-111944341D01*
X190055500Y-108267500D02*
X190690500Y-107632500D01*
X188023500Y-108267500D02*
X190055500Y-108267500D01*
X189573500Y-103822500D02*
X190690500Y-103822500D01*
X190690500Y-103822500D02*
X191807500Y-103822500D01*
D47*
X60020500Y-100507500D02*
X60007500Y-100520500D01*
X60960000Y-100507500D02*
X60020500Y-100507500D01*
X207010000Y-108901500D02*
X207010000Y-108840000D01*
X205422500Y-107315000D02*
X206184500Y-108077000D01*
X205422500Y-107252500D02*
X205422500Y-107315000D01*
X207009000Y-108901500D02*
X206184500Y-108077000D01*
X207010000Y-108901500D02*
X207009000Y-108901500D01*
D49*
X71755000Y-113665000D02*
X72390000Y-113030000D01*
X70297500Y-113665000D02*
X71755000Y-113665000D01*
X77787500Y-111405000D02*
X77787500Y-112395000D01*
X194982500Y-112675000D02*
X194945000Y-112712500D01*
X196532500Y-112675000D02*
X194982500Y-112675000D01*
D47*
X194911500Y-112746000D02*
X194945000Y-112712500D01*
D48*
X192381000Y-112746000D02*
X194911500Y-112746000D01*
X186421000Y-113396000D02*
X186055000Y-113030000D01*
X189381000Y-113396000D02*
X186421000Y-113396000D01*
D47*
X63115000Y-104525000D02*
X62865000Y-104775000D01*
X63115000Y-103822500D02*
X63115000Y-104525000D01*
X61615500Y-112733000D02*
X61912500Y-113030000D01*
X61615500Y-112037900D02*
X61615500Y-112733000D01*
X62115499Y-112827001D02*
X61912500Y-113030000D01*
X62115499Y-112037900D02*
X62115499Y-112827001D01*
X64116500Y-112731000D02*
X63817500Y-113030000D01*
X64808600Y-112731000D02*
X64116500Y-112731000D01*
X60997500Y-110553500D02*
X60134500Y-110553500D01*
D51*
%TO.N,Net-(C5-Pad1)*%
X197341500Y-111934000D02*
X196532500Y-111125000D01*
X198200000Y-111934000D02*
X197341500Y-111934000D01*
X198200000Y-113030000D02*
X198200000Y-111934000D01*
X198200000Y-111934000D02*
X198200000Y-110807500D01*
D48*
%TO.N,Net-(J1-Pad2)*%
X37782500Y-101220000D02*
X37782500Y-100330000D01*
D47*
%TO.N,Net-(J1-Pad3)*%
X29486500Y-103955000D02*
X29486500Y-101958500D01*
X30480000Y-100965000D02*
X30480000Y-99695000D01*
X29486500Y-101958500D02*
X30480000Y-100965000D01*
%TO.N,Net-(J1-Pad5)*%
X30286500Y-103955000D02*
X30286500Y-102428500D01*
X31750000Y-100965000D02*
X31750000Y-99695000D01*
X30286500Y-102428500D02*
X31750000Y-100965000D01*
%TO.N,Net-(J1-Pad6)*%
X36385000Y-105855000D02*
X36830000Y-105410000D01*
X36830000Y-105410000D02*
X36830000Y-98697210D01*
X35186500Y-105855000D02*
X36385000Y-105855000D01*
%TO.N,/K1*%
X65414500Y-114732501D02*
X65722500Y-115040501D01*
X64808100Y-114732501D02*
X65414500Y-114732501D01*
X65722500Y-118110000D02*
X66040000Y-118427500D01*
X65722500Y-115040501D02*
X65722500Y-118110000D01*
%TO.N,/K2*%
X67996338Y-116522502D02*
X83502502Y-116522502D01*
X83502502Y-116522502D02*
X85407500Y-118427500D01*
X64808100Y-114232500D02*
X65706336Y-114232500D01*
X65706336Y-114232500D02*
X67996338Y-116522502D01*
%TO.N,/K3*%
X163512500Y-120967500D02*
X98107500Y-120967500D01*
X166052500Y-118427500D02*
X163512500Y-120967500D01*
X65729610Y-113732500D02*
X64808100Y-113732500D01*
X98107500Y-120967500D02*
X93292491Y-116152491D01*
X93292491Y-116152491D02*
X68149601Y-116152491D01*
X68149601Y-116152491D02*
X65729610Y-113732500D01*
%TO.N,/K4*%
X64808100Y-113232499D02*
X65752883Y-113232499D01*
X98293651Y-120518090D02*
X160786910Y-120518090D01*
X164782500Y-116522500D02*
X183515000Y-116522500D01*
X160786910Y-120518090D02*
X164782500Y-116522500D01*
X93558041Y-115782480D02*
X98293651Y-120518090D01*
X68302864Y-115782480D02*
X93558041Y-115782480D01*
X65752883Y-113232499D02*
X68302864Y-115782480D01*
X183515000Y-116522500D02*
X185420000Y-118427500D01*
D51*
%TO.N,/CAN+*%
X208230000Y-110934500D02*
X207534000Y-111630500D01*
X208280000Y-110934500D02*
X208230000Y-110934500D01*
X206753500Y-111630500D02*
X206375000Y-111252000D01*
X207534000Y-111630500D02*
X206753500Y-111630500D01*
D48*
X212280500Y-110934500D02*
X213360000Y-109855000D01*
X208280000Y-110934500D02*
X212280500Y-110934500D01*
D51*
X192381000Y-113396000D02*
X192452000Y-113467000D01*
X205574900Y-111633000D02*
X205955900Y-111252000D01*
X192452000Y-113467000D02*
X195423712Y-113467000D01*
X195423712Y-113467000D02*
X196637712Y-114681000D01*
X196637712Y-114681000D02*
X201824788Y-114681000D01*
X201824788Y-114681000D02*
X204872788Y-111633000D01*
X204872788Y-111633000D02*
X205574900Y-111633000D01*
X205955900Y-111252000D02*
X206375000Y-111252000D01*
D49*
%TO.N,/CAN-*%
X213360000Y-114540000D02*
X213360000Y-114935000D01*
D51*
X208230000Y-112834500D02*
X207534000Y-112138500D01*
X208280000Y-112834500D02*
X208230000Y-112834500D01*
X206758500Y-112138500D02*
X206375000Y-112522000D01*
X207534000Y-112138500D02*
X206758500Y-112138500D01*
D48*
X213360000Y-113982500D02*
X213360000Y-114935000D01*
X212212000Y-112834500D02*
X213360000Y-113982500D01*
X208280000Y-112834500D02*
X212212000Y-112834500D01*
D51*
X205955900Y-112522000D02*
X206375000Y-112522000D01*
X205574900Y-112141000D02*
X205955900Y-112522000D01*
X205083212Y-112141000D02*
X205574900Y-112141000D01*
X192381000Y-114046000D02*
X192452000Y-113975000D01*
X192452000Y-113975000D02*
X195213288Y-113975000D01*
X195213288Y-113975000D02*
X196427288Y-115189000D01*
X196427288Y-115189000D02*
X202035212Y-115189000D01*
X202035212Y-115189000D02*
X205083212Y-112141000D01*
D47*
%TO.N,/LEDG*%
X60960000Y-106477501D02*
X60757500Y-106477500D01*
X55489999Y-108340001D02*
X52366100Y-108340001D01*
X57352499Y-106477501D02*
X55489999Y-108340001D01*
X60960000Y-106477501D02*
X57352499Y-106477501D01*
%TO.N,/LEDR*%
X54625000Y-109840000D02*
X52366100Y-109840000D01*
X57487500Y-106977500D02*
X54625000Y-109840000D01*
X60960000Y-106977500D02*
X57487500Y-106977500D01*
%TO.N,/LEDB*%
X61615000Y-107632500D02*
X61488000Y-107505500D01*
X57594500Y-107505500D02*
X53760001Y-111339999D01*
X53760001Y-111339999D02*
X52366100Y-111339999D01*
X61488000Y-107505500D02*
X57594500Y-107505500D01*
%TO.N,/a*%
X120650000Y-99695000D02*
X121920000Y-100965000D01*
X102870000Y-99695000D02*
X120650000Y-99695000D01*
X101600000Y-100965000D02*
X102870000Y-99695000D01*
X121920000Y-100965000D02*
X123190000Y-99695000D01*
X140970000Y-99695000D02*
X142240000Y-100965000D01*
X123190000Y-99695000D02*
X140970000Y-99695000D01*
X63935444Y-103124000D02*
X63615001Y-103444443D01*
X95631000Y-103124000D02*
X63935444Y-103124000D01*
X63615001Y-103444443D02*
X63615001Y-103822500D01*
X97790000Y-100965000D02*
X95631000Y-103124000D01*
X101600000Y-100965000D02*
X97790000Y-100965000D01*
%TO.N,/f*%
X101600000Y-103505000D02*
X121920000Y-103505000D01*
X121920000Y-103505000D02*
X142240000Y-103505000D01*
X65669990Y-103557510D02*
X101547490Y-103557510D01*
X64115000Y-103822500D02*
X65405000Y-103822500D01*
X101547490Y-103557510D02*
X101600000Y-103505000D01*
X65405000Y-103822500D02*
X65669990Y-103557510D01*
D48*
%TO.N,/SEG1SW*%
X90365199Y-108902500D02*
X90352499Y-108889800D01*
X90551000Y-108902500D02*
X90365199Y-108902500D01*
D49*
X90551000Y-108902500D02*
X93144192Y-108902500D01*
X94297500Y-110055808D02*
X94297500Y-111125000D01*
X93144192Y-108902500D02*
X94297500Y-110055808D01*
D47*
%TO.N,/e*%
X140970000Y-107315000D02*
X142240000Y-108585000D01*
X123190000Y-107315000D02*
X140970000Y-107315000D01*
X121920000Y-108585000D02*
X123190000Y-107315000D01*
X120650000Y-107315000D02*
X121920000Y-108585000D01*
X102870000Y-107315000D02*
X120650000Y-107315000D01*
X101600000Y-108585000D02*
X102870000Y-107315000D01*
X95090031Y-104297529D02*
X66173870Y-104297529D01*
X101600000Y-108585000D02*
X99377502Y-108585000D01*
X99377502Y-108585000D02*
X95090031Y-104297529D01*
X64770000Y-104977499D02*
X65493900Y-104977499D01*
X65493900Y-104977499D02*
X66173870Y-104297529D01*
%TO.N,/dp*%
X116840000Y-118745000D02*
X137160000Y-118745000D01*
X137160000Y-118745000D02*
X157480000Y-118745000D01*
X64790000Y-106977500D02*
X64770000Y-106977500D01*
X66817272Y-105791000D02*
X91503500Y-105791000D01*
X104457500Y-118745000D02*
X116840000Y-118745000D01*
X64770000Y-106977500D02*
X65630772Y-106977500D01*
X65630772Y-106977500D02*
X66817272Y-105791000D01*
X91503500Y-105791000D02*
X104457500Y-118745000D01*
%TO.N,/d*%
X116840000Y-116205000D02*
X137160000Y-116205000D01*
X137160000Y-116205000D02*
X157480000Y-116205000D01*
X65607497Y-106477501D02*
X64770000Y-106477501D01*
X91656763Y-105420989D02*
X66664009Y-105420989D01*
X116840000Y-116205000D02*
X102440774Y-116205000D01*
X102440774Y-116205000D02*
X91656763Y-105420989D01*
X66664009Y-105420989D02*
X65607497Y-106477501D01*
%TO.N,/c*%
X116840000Y-111125000D02*
X118110000Y-112395000D01*
X135890000Y-112395000D02*
X137160000Y-111125000D01*
X118110000Y-112395000D02*
X135890000Y-112395000D01*
X137160000Y-111125000D02*
X138430000Y-112395000D01*
X156210000Y-112395000D02*
X157480000Y-111125000D01*
X138430000Y-112395000D02*
X156210000Y-112395000D01*
X66510745Y-105050979D02*
X65584224Y-105977500D01*
X94017412Y-105050978D02*
X66510745Y-105050979D01*
X101361434Y-112395000D02*
X94017412Y-105050978D01*
X115570000Y-112395000D02*
X101361434Y-112395000D01*
X65584224Y-105977500D02*
X64770000Y-105977500D01*
X116840000Y-111125000D02*
X115570000Y-112395000D01*
%TO.N,/g*%
X135890000Y-109855000D02*
X137160000Y-108585000D01*
X118110000Y-109855000D02*
X135890000Y-109855000D01*
X116840000Y-108585000D02*
X118110000Y-109855000D01*
X156210000Y-109855000D02*
X157480000Y-108585000D01*
X138430000Y-109855000D02*
X156210000Y-109855000D01*
X137160000Y-108585000D02*
X138430000Y-109855000D01*
X100124228Y-109855000D02*
X115570000Y-109855000D01*
X94950197Y-104680969D02*
X100124228Y-109855000D01*
X66357483Y-104680969D02*
X94950197Y-104680969D01*
X65560950Y-105477500D02*
X66357483Y-104680969D01*
X115570000Y-109855000D02*
X116840000Y-108585000D01*
X64770000Y-105477500D02*
X65560950Y-105477500D01*
%TO.N,/b*%
X156210000Y-104775000D02*
X157480000Y-106045000D01*
X138430000Y-104775000D02*
X156210000Y-104775000D01*
X137160000Y-106045000D02*
X138430000Y-104775000D01*
X135890000Y-104775000D02*
X137160000Y-106045000D01*
X118110000Y-104775000D02*
X135890000Y-104775000D01*
X116840000Y-106045000D02*
X118110000Y-104775000D01*
X96202500Y-104775000D02*
X95355020Y-103927520D01*
X116840000Y-106045000D02*
X115570000Y-104775000D01*
X115570000Y-104775000D02*
X96202500Y-104775000D01*
X95355020Y-103927520D02*
X65944980Y-103927520D01*
X64770000Y-104477500D02*
X65395000Y-104477500D01*
X65395000Y-104477500D02*
X65944980Y-103927520D01*
D48*
%TO.N,/SEG2SW*%
X89352501Y-107315000D02*
X89352501Y-106680000D01*
D49*
X89352501Y-106680000D02*
X89670001Y-106362500D01*
X89670001Y-106362500D02*
X91410306Y-106362500D01*
X96837500Y-111789694D02*
X96837500Y-112395000D01*
X91410306Y-106362500D02*
X96837500Y-111789694D01*
D48*
%TO.N,/SEG3SW*%
X90614500Y-112064800D02*
X90474800Y-112064800D01*
D49*
X95237300Y-112064800D02*
X98425000Y-115252500D01*
X90614500Y-112064800D02*
X95237300Y-112064800D01*
D47*
%TO.N,Net-(Q1-Pad2)*%
X88259201Y-111510799D02*
X87692500Y-112077500D01*
X89752499Y-111510799D02*
X88259201Y-111510799D01*
X89852500Y-111610800D02*
X89752499Y-111510799D01*
X89852500Y-112064800D02*
X89852500Y-111610800D01*
%TO.N,Net-(Q1-Pad5)*%
X88246501Y-111044001D02*
X87692500Y-110490000D01*
X89752499Y-111044001D02*
X88246501Y-111044001D01*
X89852500Y-110944000D02*
X89752499Y-111044001D01*
X89852500Y-110490000D02*
X89852500Y-110944000D01*
%TO.N,Net-(Q2-Pad1)*%
X198437500Y-120870000D02*
X198435000Y-120872500D01*
X198437500Y-119062500D02*
X198437500Y-120870000D01*
%TO.N,Net-(Q3-Pad2)*%
X89852500Y-108456097D02*
X89852500Y-108889800D01*
X89732202Y-108335799D02*
X89852500Y-108456097D01*
X88259201Y-108335799D02*
X89732202Y-108335799D01*
X87692500Y-108902500D02*
X88259201Y-108335799D01*
%TO.N,Net-(Q3-Pad5)*%
X88246501Y-107869001D02*
X87692500Y-107315000D01*
X89752499Y-107869001D02*
X88246501Y-107869001D01*
X89852500Y-107769000D02*
X89752499Y-107869001D01*
X89852500Y-107315000D02*
X89852500Y-107769000D01*
%TO.N,/SEG4*%
X82945010Y-111302490D02*
X82170000Y-112077500D01*
X85267490Y-111302490D02*
X82945010Y-111302490D01*
X86042500Y-112077500D02*
X85267490Y-111302490D01*
X62615000Y-108062170D02*
X63866370Y-109313540D01*
X62615000Y-107632500D02*
X62615000Y-108062170D01*
X66898960Y-109313540D02*
X68897500Y-107315000D01*
X81770000Y-112077500D02*
X82170000Y-112077500D01*
X63866370Y-109313540D02*
X66898960Y-109313540D01*
X68897500Y-107315000D02*
X77007500Y-107315000D01*
X77007500Y-107315000D02*
X81770000Y-112077500D01*
%TO.N,/SEG3*%
X85267490Y-109714990D02*
X82945010Y-109714990D01*
X82945010Y-109714990D02*
X82170000Y-110490000D01*
X86042500Y-110490000D02*
X85267490Y-109714990D01*
X82170000Y-110490000D02*
X78624989Y-106944989D01*
X68744237Y-106944989D02*
X66745697Y-108943529D01*
X64019629Y-108943529D02*
X63115000Y-108038900D01*
X63115000Y-108038900D02*
X63115000Y-107632500D01*
X78624989Y-106944989D02*
X68744237Y-106944989D01*
X66745697Y-108943529D02*
X64019629Y-108943529D01*
%TO.N,/SEG2*%
X82945010Y-108127490D02*
X82170000Y-108902500D01*
X85267490Y-108127490D02*
X82945010Y-108127490D01*
X86042500Y-108902500D02*
X85267490Y-108127490D01*
X64177962Y-108573518D02*
X66592434Y-108573518D01*
X68590974Y-106574978D02*
X79842478Y-106574978D01*
X63615001Y-108010557D02*
X64177962Y-108573518D01*
X63615001Y-107632500D02*
X63615001Y-108010557D01*
X79842478Y-106574978D02*
X82170000Y-108902500D01*
X66592434Y-108573518D02*
X68590974Y-106574978D01*
%TO.N,/SEG1*%
X82945010Y-106539990D02*
X82170000Y-107315000D01*
X85267490Y-106539990D02*
X82945010Y-106539990D01*
X86042500Y-107315000D02*
X85267490Y-106539990D01*
X81059967Y-106204967D02*
X82170000Y-107315000D01*
X68437711Y-106204967D02*
X81059967Y-106204967D01*
X67010178Y-107632500D02*
X68437711Y-106204967D01*
X64115000Y-107632500D02*
X67010178Y-107632500D01*
%TO.N,/Buzzer*%
X192660000Y-123190000D02*
X196787500Y-119062500D01*
X64770000Y-123190000D02*
X192660000Y-123190000D01*
X63500000Y-121920000D02*
X64770000Y-123190000D01*
X33972500Y-121920000D02*
X63500000Y-121920000D01*
X29486500Y-117434000D02*
X33972500Y-121920000D01*
X29486500Y-115755000D02*
X29486500Y-117434000D01*
%TO.N,Net-(R14-Pad1)*%
X62114999Y-102540501D02*
X62547500Y-102108000D01*
X62114999Y-102985001D02*
X62114999Y-103822500D01*
X62114999Y-102540501D02*
X62114999Y-102985001D01*
%TO.N,/LE*%
X36646478Y-108995022D02*
X35786500Y-109855000D01*
X35786500Y-109855000D02*
X35186500Y-109855000D01*
X38959978Y-108995022D02*
X36646478Y-108995022D01*
X40957500Y-106997500D02*
X38959978Y-108995022D01*
X53975000Y-106997500D02*
X40957500Y-106997500D01*
X54995000Y-105977500D02*
X53975000Y-106997500D01*
X60960000Y-105977500D02*
X54995000Y-105977500D01*
%TO.N,/CLK*%
X35786500Y-109055000D02*
X35186500Y-109055000D01*
X36216489Y-108625011D02*
X35786500Y-109055000D01*
X60960000Y-105477500D02*
X54971726Y-105477500D01*
X54971726Y-105477500D02*
X53851736Y-106597490D01*
X53851736Y-106597490D02*
X40834236Y-106597490D01*
X40834236Y-106597490D02*
X38806715Y-108625011D01*
X38806715Y-108625011D02*
X36216489Y-108625011D01*
%TO.N,/SD*%
X54948454Y-104977499D02*
X54630953Y-105295000D01*
X60960000Y-104977499D02*
X54948454Y-104977499D01*
X38653452Y-108255000D02*
X35186500Y-108255000D01*
X40710972Y-106197480D02*
X38653452Y-108255000D01*
X53728472Y-106197480D02*
X40710972Y-106197480D01*
X54630953Y-105294999D02*
X53728472Y-106197480D01*
%TO.N,/EN*%
X31886500Y-115755000D02*
X31886500Y-117167000D01*
D48*
X26289000Y-119761000D02*
X26289000Y-121412000D01*
X26289000Y-121412000D02*
X26289000Y-123063000D01*
X26289000Y-119761000D02*
X25400000Y-119761000D01*
D51*
%TO.N,Net-(R16-Pad2)*%
X200469500Y-111252000D02*
X200025000Y-110807500D01*
X201768000Y-111252000D02*
X200469500Y-111252000D01*
D47*
%TO.N,+5V*%
X83820000Y-107315000D02*
X84772500Y-107315000D01*
X83820000Y-108902500D02*
X84772500Y-108902500D01*
X83820000Y-110490000D02*
X84772500Y-110490000D01*
X83820000Y-112077500D02*
X84772500Y-112077500D01*
X88608499Y-108889800D02*
X88582500Y-108915799D01*
D48*
X89352501Y-108889800D02*
X88608499Y-108889800D01*
D47*
X88608499Y-112064800D02*
X88582500Y-112090799D01*
D48*
X89352501Y-112064800D02*
X88608499Y-112064800D01*
X90352499Y-107315000D02*
X91122500Y-107315000D01*
X90352499Y-110490000D02*
X91122500Y-110490000D01*
D49*
X45792501Y-108340001D02*
X45720000Y-108267500D01*
X47963900Y-108340001D02*
X45792501Y-108340001D01*
X45735000Y-109840000D02*
X45720000Y-109855000D01*
X47963900Y-109840000D02*
X45735000Y-109840000D01*
X47963900Y-111339999D02*
X45744499Y-111339999D01*
X45744499Y-111339999D02*
X45744499Y-111339999D01*
X193357500Y-103822500D02*
X193357500Y-105727500D01*
D47*
X193357500Y-109537500D02*
X193992500Y-109537500D01*
X193992500Y-109537500D02*
X194313301Y-109216699D01*
X193992500Y-105727500D02*
X193357500Y-105727500D01*
X194313301Y-106048301D02*
X193992500Y-105727500D01*
X194313301Y-109216699D02*
X194313301Y-106048301D01*
D49*
X193357500Y-103822500D02*
X192405000Y-102870000D01*
X186055000Y-114580000D02*
X186055000Y-115570000D01*
D47*
X208216500Y-105727500D02*
X207517500Y-105727500D01*
D48*
X186589000Y-114046000D02*
X186055000Y-114580000D01*
X189381000Y-114046000D02*
X186589000Y-114046000D01*
D47*
%TO.N,Net-(R17-Pad1)*%
X207010000Y-106870000D02*
X205867500Y-105727500D01*
X207010000Y-107251500D02*
X207010000Y-106870000D01*
X202930000Y-104015000D02*
X202930000Y-105140000D01*
X203517500Y-105727500D02*
X205867500Y-105727500D01*
X202930000Y-105140000D02*
X203517500Y-105727500D01*
%TO.N,Net-(C8-Pad1)*%
X200930000Y-101090000D02*
X200930000Y-100600000D01*
X200062500Y-99732500D02*
X198437500Y-99732500D01*
X200930000Y-100600000D02*
X200062500Y-99732500D01*
%TO.N,Net-(C13-Pad2)*%
X203872500Y-108902500D02*
X203835000Y-108865000D01*
X205422500Y-108902500D02*
X203872500Y-108902500D01*
%TO.N,Net-(C13-Pad1)*%
X203835000Y-107315000D02*
X203200000Y-107315000D01*
X202430000Y-106545000D02*
X202430000Y-104015000D01*
X203200000Y-107315000D02*
X202430000Y-106545000D01*
D48*
%TO.N,Net-(R10-Pad1)*%
X29464000Y-123063000D02*
X27939000Y-123063000D01*
D51*
%TO.N,Net-(R15-Pad1)*%
X200533000Y-112522000D02*
X200025000Y-113030000D01*
X201768000Y-112522000D02*
X200533000Y-112522000D01*
D47*
%TO.N,Net-(R19-Pad1)*%
X202430000Y-101090000D02*
X202430000Y-99766500D01*
X203200000Y-98996500D02*
X203200000Y-97790000D01*
X202430000Y-99766500D02*
X203200000Y-98996500D01*
%TO.N,Net-(SW2-Pad9)*%
X62114999Y-116445003D02*
X61958001Y-116602001D01*
X62114999Y-115925600D02*
X62114999Y-116445003D01*
X42545000Y-118427500D02*
X42545000Y-119062500D01*
X42545000Y-119062500D02*
X43497500Y-120015000D01*
X43497500Y-120015000D02*
X54292500Y-120015000D01*
X57705499Y-116602001D02*
X59292999Y-116602001D01*
X54292500Y-120015000D02*
X57705499Y-116602001D01*
X59292999Y-116602001D02*
X59169859Y-116602001D01*
X61958001Y-116602001D02*
X59292999Y-116602001D01*
%TO.N,Net-(SW2-Pad10)*%
X41275000Y-117729000D02*
X41275000Y-118427500D01*
X41656000Y-117348000D02*
X41275000Y-117729000D01*
X42929402Y-117348000D02*
X41656000Y-117348000D01*
X45226391Y-119644989D02*
X42929402Y-117348000D01*
X54139238Y-119644990D02*
X45226391Y-119644989D01*
X57858628Y-115925600D02*
X54139238Y-119644990D01*
X61615000Y-115925600D02*
X57858628Y-115925600D01*
%TO.N,Net-(SW2-Pad11)*%
X40005000Y-117529000D02*
X40005000Y-118427500D01*
X40556011Y-116977989D02*
X40005000Y-117529000D01*
X43082665Y-116977989D02*
X40556011Y-116977989D01*
X60921900Y-115232500D02*
X57970458Y-115232500D01*
X57970458Y-115232500D02*
X53927979Y-119274979D01*
X53927979Y-119274979D02*
X45379655Y-119274979D01*
X45379655Y-119274979D02*
X43082665Y-116977989D01*
%TO.N,Net-(SW2-Pad12)*%
X60921900Y-114732501D02*
X57809812Y-114732501D01*
X38735000Y-117529000D02*
X38735000Y-118427500D01*
X39656021Y-116607979D02*
X38735000Y-117529000D01*
X43235927Y-116607979D02*
X39656021Y-116607979D01*
X45532918Y-118904968D02*
X43235927Y-116607979D01*
X53637345Y-118904968D02*
X45532918Y-118904968D01*
X57809812Y-114732501D02*
X53637345Y-118904968D01*
%TO.N,Net-(SW2-Pad13)*%
X37465000Y-117529000D02*
X37465000Y-118427500D01*
X38756031Y-116237969D02*
X37465000Y-117529000D01*
X43389189Y-116237969D02*
X38756031Y-116237969D01*
X45686181Y-118534957D02*
X43389189Y-116237969D01*
X53308913Y-118534957D02*
X45686181Y-118534957D01*
X57611370Y-114232500D02*
X53308913Y-118534957D01*
X60921900Y-114232500D02*
X57611370Y-114232500D01*
%TO.N,Net-(SW2-Pad14)*%
X36195000Y-118008400D02*
X36195000Y-118427500D01*
X39141400Y-115062000D02*
X36195000Y-118008400D01*
X56258596Y-115062000D02*
X39141400Y-115062000D01*
X57588096Y-113732500D02*
X56258596Y-115062000D01*
X60921900Y-113732500D02*
X57588096Y-113732500D01*
%TO.N,Net-(SW2-Pad15)*%
X34925000Y-118315774D02*
X34925000Y-118427500D01*
X34925000Y-118315772D02*
X34925000Y-118427500D01*
X60921900Y-113232499D02*
X60757501Y-113232499D01*
X57564823Y-113232499D02*
X60921900Y-113232499D01*
X56116322Y-114681000D02*
X57564823Y-113232499D01*
X38989000Y-114681000D02*
X56116322Y-114681000D01*
X36211001Y-117458999D02*
X38989000Y-114681000D01*
X35258501Y-117458999D02*
X36211001Y-117458999D01*
X34925000Y-117792500D02*
X35258501Y-117458999D01*
X34925000Y-118427500D02*
X34925000Y-117792500D01*
%TO.N,Net-(SW2-Pad16)*%
X33655000Y-117529000D02*
X33655000Y-118427500D01*
X34095012Y-117088988D02*
X33655000Y-117529000D01*
X36002586Y-117088988D02*
X34095012Y-117088988D01*
X38791574Y-114300000D02*
X36002586Y-117088988D01*
X55974048Y-114300000D02*
X38791574Y-114300000D01*
X57541548Y-112732500D02*
X55974048Y-114300000D01*
X60921900Y-112732500D02*
X57541548Y-112732500D01*
X60901900Y-112712500D02*
X60921900Y-112732500D01*
%TO.N,Net-(SW3-Pad5)*%
X64808100Y-115232500D02*
X65067500Y-115232500D01*
X64808100Y-119341900D02*
X64808100Y-115232500D01*
X64452500Y-119697500D02*
X64808100Y-119341900D01*
X61912500Y-119697500D02*
X64452500Y-119697500D01*
X61595000Y-119380000D02*
X61912500Y-119697500D01*
X61595000Y-118427500D02*
X61595000Y-119380000D01*
%TO.N,Net-(SW3-Pad6)*%
X64115000Y-116736402D02*
X62741402Y-118110000D01*
X64115000Y-115925600D02*
X64115000Y-116736402D01*
X60325000Y-120332500D02*
X60325000Y-118427500D01*
%TO.N,Net-(SW3-Pad7)*%
X59055000Y-117709950D02*
X59055000Y-118427500D01*
X59422929Y-117342021D02*
X59055000Y-117709950D01*
X62804980Y-117342021D02*
X59422929Y-117342021D01*
X63615001Y-116532000D02*
X62804980Y-117342021D01*
X63615001Y-115925600D02*
X63615001Y-116532000D01*
%TO.N,Net-(SW3-Pad8)*%
X57785000Y-117411500D02*
X57785000Y-118427500D01*
X58224489Y-116972011D02*
X57785000Y-117411500D01*
X62587991Y-116972011D02*
X58224489Y-116972011D01*
X63115000Y-116445002D02*
X62587991Y-116972011D01*
X63115000Y-115925600D02*
X63115000Y-116445002D01*
D48*
%TO.N,Net-(U2-Pad27)*%
X188337800Y-114696000D02*
X188277500Y-114635700D01*
X189381000Y-114696000D02*
X188337800Y-114696000D01*
X187388500Y-110807500D02*
X188277500Y-110807500D01*
X173604090Y-97023090D02*
X187388500Y-110807500D01*
X35691910Y-97023090D02*
X173604090Y-97023090D01*
X32702500Y-100012500D02*
X35691910Y-97023090D01*
X32702500Y-103939000D02*
X32702500Y-100012500D01*
X32686500Y-103955000D02*
X32702500Y-103939000D01*
%TO.N,Net-(U2-Pad26)*%
X173164500Y-97790000D02*
X188120500Y-112746000D01*
X188120500Y-112746000D02*
X189381000Y-112746000D01*
X36195000Y-97790000D02*
X173164500Y-97790000D01*
X33486500Y-100498500D02*
X36195000Y-97790000D01*
X33486500Y-103955000D02*
X33486500Y-100498500D01*
D49*
%TO.N,Net-(J2-Pad2)*%
X68580000Y-119760000D02*
X70105000Y-121285000D01*
X68580000Y-118427500D02*
X68580000Y-119760000D01*
%TO.N,Net-(J4-Pad2)*%
X87947500Y-118427500D02*
X87947500Y-121285000D01*
%TO.N,Net-(J6-Pad2)*%
X168592500Y-118427500D02*
X168592500Y-121285000D01*
%TO.N,Net-(J8-Pad2)*%
X187960000Y-118427500D02*
X187960000Y-121285000D01*
D47*
%TO.N,/FRCS*%
X37680000Y-106655000D02*
X37782500Y-106552500D01*
X35186500Y-106655000D02*
X37680000Y-106655000D01*
X70297500Y-108397500D02*
X70167500Y-108267500D01*
X70297500Y-109855000D02*
X70297500Y-108397500D01*
X45466000Y-99504500D02*
X69850000Y-99504500D01*
X38418000Y-106552500D02*
X45466000Y-99504500D01*
X37782500Y-106552500D02*
X38418000Y-106552500D01*
D51*
%TO.N,/MISO*%
X69151500Y-111125000D02*
X70297500Y-111125000D01*
X67945000Y-109918500D02*
X69151500Y-111125000D01*
X67945000Y-109918500D02*
X65087500Y-109918500D01*
X58076501Y-108801499D02*
X61823001Y-108801499D01*
X61823001Y-108801499D02*
X62103000Y-108521500D01*
X35186500Y-114655000D02*
X37491000Y-114655000D01*
X38832120Y-113313880D02*
X39709662Y-113313880D01*
X39709662Y-113313880D02*
X41204953Y-111818589D01*
X45116515Y-112669057D02*
X54208943Y-112669057D01*
X41204953Y-111818589D02*
X44266047Y-111818589D01*
X44266047Y-111818589D02*
X45116515Y-112669057D01*
X54208943Y-112669057D02*
X58076501Y-108801499D01*
X37491000Y-114655000D02*
X38832120Y-113313880D01*
%TO.N,/MOSI*%
X35888958Y-116713000D02*
X33947727Y-116713000D01*
X38965667Y-113636291D02*
X35888958Y-116713000D01*
X39843209Y-113636291D02*
X38965667Y-113636291D01*
X63205416Y-109156500D02*
X58198192Y-109156500D01*
X69301416Y-115252500D02*
X63205416Y-109156500D01*
X73660000Y-115252500D02*
X69301416Y-115252500D01*
X31559500Y-117919500D02*
X30286500Y-116646500D01*
X44132500Y-112141000D02*
X41338500Y-112141000D01*
X30286500Y-116646500D02*
X30286500Y-115755000D01*
X41338500Y-112141000D02*
X39843209Y-113636291D01*
X33947727Y-116713000D02*
X32741227Y-117919500D01*
X44982968Y-112991468D02*
X44132500Y-112141000D01*
X32741227Y-117919500D02*
X31559500Y-117919500D01*
X58198192Y-109156500D02*
X54363224Y-112991468D01*
X54363224Y-112991468D02*
X44982968Y-112991468D01*
X75247500Y-113665000D02*
X73660000Y-115252500D01*
%TO.N,/SCK*%
X66992500Y-112487626D02*
X66992500Y-110934500D01*
X75247500Y-112395000D02*
X73977500Y-112395000D01*
X69434963Y-114930089D02*
X66992500Y-112487626D01*
X71442411Y-114930089D02*
X69434963Y-114930089D01*
X73977500Y-112395000D02*
X71442411Y-114930089D01*
X39576115Y-112991469D02*
X41071406Y-111496178D01*
X54075396Y-112346646D02*
X58281542Y-108140500D01*
X38698573Y-112991469D02*
X39576115Y-112991469D01*
X35186500Y-113855000D02*
X37835042Y-113855000D01*
X41071406Y-111496178D02*
X44399595Y-111496179D01*
X44399595Y-111496179D02*
X45250062Y-112346646D01*
X45250062Y-112346646D02*
X54075396Y-112346646D01*
X37835042Y-113855000D02*
X38698573Y-112991469D01*
X58281542Y-108140500D02*
X60833000Y-108140500D01*
%TO.N,/SDA*%
X35386500Y-111455000D02*
X35186500Y-111455000D01*
X36182500Y-111455000D02*
X37782500Y-109855000D01*
X35186500Y-111455000D02*
X36182500Y-111455000D01*
X40640000Y-110744000D02*
X40640000Y-110744000D01*
X38671500Y-110744000D02*
X41275000Y-110744000D01*
X37782500Y-109855000D02*
X38671500Y-110744000D01*
X62938322Y-109801322D02*
X63615501Y-110478501D01*
X58465286Y-109801322D02*
X62938322Y-109801322D01*
X54554108Y-113712500D02*
X58465286Y-109801322D01*
X41275000Y-113432501D02*
X41554999Y-113712500D01*
X63615501Y-110478501D02*
X63615501Y-112037900D01*
X41554999Y-113712500D02*
X54554108Y-113712500D01*
%TO.N,/SCL*%
X40005000Y-109220000D02*
X39370000Y-109855000D01*
X40005000Y-108902500D02*
X40005000Y-109220000D01*
X38531500Y-107455000D02*
X40005000Y-105981500D01*
X35186500Y-107455000D02*
X38531500Y-107455000D01*
X40005000Y-108902500D02*
X41021000Y-109918500D01*
X41021000Y-109918500D02*
X42672000Y-109918500D01*
X58331739Y-109478911D02*
X54496771Y-113313879D01*
X43082879Y-113313879D02*
X42672000Y-112903000D01*
X54496771Y-113313879D02*
X43082879Y-113313879D01*
X64115500Y-112037900D02*
X64115500Y-110522542D01*
X64115500Y-110522542D02*
X63071869Y-109478911D01*
X63071869Y-109478911D02*
X58331739Y-109478911D01*
%TD*%
D52*
%TO.N,EP*%
X211328000Y-96572606D02*
X211328000Y-97419894D01*
X211084894Y-97663000D01*
X209539106Y-97663000D01*
X209042000Y-97165894D01*
X209042000Y-96255106D01*
X209285106Y-96012000D01*
X210767394Y-96012000D01*
X211328000Y-96572606D01*
%TA.AperFunction,Conductor*%
D53*
G36*
X211328000Y-96572606D02*
G01*
X211328000Y-97419894D01*
X211084894Y-97663000D01*
X209539106Y-97663000D01*
X209042000Y-97165894D01*
X209042000Y-96255106D01*
X209285106Y-96012000D01*
X210767394Y-96012000D01*
X211328000Y-96572606D01*
G37*
%TD.AperFunction*%
%TD*%
D52*
%TO.N,GND1*%
X222758000Y-98477606D02*
X222758000Y-111707394D01*
X222197394Y-112268000D01*
X209677000Y-112268000D01*
X209677000Y-111569500D01*
X216217500Y-111569500D01*
X216242276Y-111567060D01*
X216266101Y-111559833D01*
X216288057Y-111548097D01*
X216307303Y-111532303D01*
X216624803Y-111214803D01*
X216640597Y-111195557D01*
X216652333Y-111173601D01*
X216659560Y-111149776D01*
X216662000Y-111125000D01*
X216662000Y-102235000D01*
X216659560Y-102210224D01*
X216652333Y-102186399D01*
X216640597Y-102164443D01*
X216624803Y-102145197D01*
X215989803Y-101510197D01*
X215970557Y-101494403D01*
X215948601Y-101482667D01*
X215924776Y-101475440D01*
X215900000Y-101473000D01*
X212142606Y-101473000D01*
X211899500Y-101229894D01*
X211899500Y-100796535D01*
X212438070Y-100796535D01*
X212528098Y-101056081D01*
X212809616Y-101192224D01*
X213112286Y-101270829D01*
X213424474Y-101288877D01*
X213734185Y-101245672D01*
X214029516Y-101142877D01*
X214191902Y-101056081D01*
X214281930Y-100796535D01*
X213360000Y-99874605D01*
X212438070Y-100796535D01*
X211899500Y-100796535D01*
X211899500Y-100457000D01*
X211897060Y-100432224D01*
X211889833Y-100408399D01*
X211878097Y-100386443D01*
X211862303Y-100367197D01*
X211544803Y-100049697D01*
X211525557Y-100033903D01*
X211503601Y-100022167D01*
X211479776Y-100014940D01*
X211455000Y-100012500D01*
X209094606Y-100012500D01*
X209042000Y-99959894D01*
X209042000Y-99759474D01*
X211766123Y-99759474D01*
X211809328Y-100069185D01*
X211912123Y-100364516D01*
X211998919Y-100526902D01*
X212258465Y-100616930D01*
X213180395Y-99695000D01*
X213539605Y-99695000D01*
X214461535Y-100616930D01*
X214721081Y-100526902D01*
X214857224Y-100245384D01*
X214935829Y-99942714D01*
X214953877Y-99630526D01*
X214910672Y-99320815D01*
X214807877Y-99025484D01*
X214721081Y-98863098D01*
X214461535Y-98773070D01*
X213539605Y-99695000D01*
X213180395Y-99695000D01*
X212258465Y-98773070D01*
X211998919Y-98863098D01*
X211862776Y-99144616D01*
X211784171Y-99447286D01*
X211766123Y-99759474D01*
X209042000Y-99759474D01*
X209042000Y-98593465D01*
X212438070Y-98593465D01*
X213360000Y-99515395D01*
X214281930Y-98593465D01*
X214191902Y-98333919D01*
X213910384Y-98197776D01*
X213607714Y-98119171D01*
X213295526Y-98101123D01*
X212985815Y-98144328D01*
X212690484Y-98247123D01*
X212528098Y-98333919D01*
X212438070Y-98593465D01*
X209042000Y-98593465D01*
X209042000Y-98044000D01*
X209116394Y-98044000D01*
X209206197Y-98133803D01*
X209225443Y-98149597D01*
X209247399Y-98161333D01*
X209271224Y-98168560D01*
X209296000Y-98171000D01*
X212407500Y-98171000D01*
X212432276Y-98168560D01*
X212456101Y-98161333D01*
X212486836Y-98143170D01*
X212769549Y-97917000D01*
X222197394Y-97917000D01*
X222758000Y-98477606D01*
%TA.AperFunction,Conductor*%
D53*
G36*
X222758000Y-98477606D02*
G01*
X222758000Y-111707394D01*
X222197394Y-112268000D01*
X209677000Y-112268000D01*
X209677000Y-111569500D01*
X216217500Y-111569500D01*
X216242276Y-111567060D01*
X216266101Y-111559833D01*
X216288057Y-111548097D01*
X216307303Y-111532303D01*
X216624803Y-111214803D01*
X216640597Y-111195557D01*
X216652333Y-111173601D01*
X216659560Y-111149776D01*
X216662000Y-111125000D01*
X216662000Y-102235000D01*
X216659560Y-102210224D01*
X216652333Y-102186399D01*
X216640597Y-102164443D01*
X216624803Y-102145197D01*
X215989803Y-101510197D01*
X215970557Y-101494403D01*
X215948601Y-101482667D01*
X215924776Y-101475440D01*
X215900000Y-101473000D01*
X212142606Y-101473000D01*
X211899500Y-101229894D01*
X211899500Y-100796535D01*
X212438070Y-100796535D01*
X212528098Y-101056081D01*
X212809616Y-101192224D01*
X213112286Y-101270829D01*
X213424474Y-101288877D01*
X213734185Y-101245672D01*
X214029516Y-101142877D01*
X214191902Y-101056081D01*
X214281930Y-100796535D01*
X213360000Y-99874605D01*
X212438070Y-100796535D01*
X211899500Y-100796535D01*
X211899500Y-100457000D01*
X211897060Y-100432224D01*
X211889833Y-100408399D01*
X211878097Y-100386443D01*
X211862303Y-100367197D01*
X211544803Y-100049697D01*
X211525557Y-100033903D01*
X211503601Y-100022167D01*
X211479776Y-100014940D01*
X211455000Y-100012500D01*
X209094606Y-100012500D01*
X209042000Y-99959894D01*
X209042000Y-99759474D01*
X211766123Y-99759474D01*
X211809328Y-100069185D01*
X211912123Y-100364516D01*
X211998919Y-100526902D01*
X212258465Y-100616930D01*
X213180395Y-99695000D01*
X213539605Y-99695000D01*
X214461535Y-100616930D01*
X214721081Y-100526902D01*
X214857224Y-100245384D01*
X214935829Y-99942714D01*
X214953877Y-99630526D01*
X214910672Y-99320815D01*
X214807877Y-99025484D01*
X214721081Y-98863098D01*
X214461535Y-98773070D01*
X213539605Y-99695000D01*
X213180395Y-99695000D01*
X212258465Y-98773070D01*
X211998919Y-98863098D01*
X211862776Y-99144616D01*
X211784171Y-99447286D01*
X211766123Y-99759474D01*
X209042000Y-99759474D01*
X209042000Y-98593465D01*
X212438070Y-98593465D01*
X213360000Y-99515395D01*
X214281930Y-98593465D01*
X214191902Y-98333919D01*
X213910384Y-98197776D01*
X213607714Y-98119171D01*
X213295526Y-98101123D01*
X212985815Y-98144328D01*
X212690484Y-98247123D01*
X212528098Y-98333919D01*
X212438070Y-98593465D01*
X209042000Y-98593465D01*
X209042000Y-98044000D01*
X209116394Y-98044000D01*
X209206197Y-98133803D01*
X209225443Y-98149597D01*
X209247399Y-98161333D01*
X209271224Y-98168560D01*
X209296000Y-98171000D01*
X212407500Y-98171000D01*
X212432276Y-98168560D01*
X212456101Y-98161333D01*
X212486836Y-98143170D01*
X212769549Y-97917000D01*
X222197394Y-97917000D01*
X222758000Y-98477606D01*
G37*
%TD.AperFunction*%
%TD*%
D52*
%TO.N,Net-(D4-Pad3)*%
X210502500Y-103883648D02*
X209232500Y-103883648D01*
X209232500Y-100581648D01*
X210502500Y-100581648D01*
X210502500Y-103883648D01*
%TA.AperFunction,Conductor*%
D53*
G36*
X210502500Y-103883648D02*
G01*
X209232500Y-103883648D01*
X209232500Y-100581648D01*
X210502500Y-100581648D01*
X210502500Y-103883648D01*
G37*
%TD.AperFunction*%
%TD*%
D52*
%TO.N,/V+*%
X215138000Y-103240106D02*
X215138000Y-106309894D01*
X214894894Y-106553000D01*
X212777606Y-106553000D01*
X212101141Y-105876535D01*
X212438070Y-105876535D01*
X212528098Y-106136081D01*
X212809616Y-106272224D01*
X213112286Y-106350829D01*
X213424474Y-106368877D01*
X213734185Y-106325672D01*
X214029516Y-106222877D01*
X214191902Y-106136081D01*
X214281930Y-105876535D01*
X213360000Y-104954605D01*
X212438070Y-105876535D01*
X212101141Y-105876535D01*
X211544803Y-105320197D01*
X211525557Y-105304403D01*
X211503601Y-105292667D01*
X211479776Y-105285440D01*
X211455000Y-105283000D01*
X208706795Y-105283000D01*
X208637863Y-105214068D01*
X208529601Y-105141730D01*
X208494153Y-105127047D01*
X208206580Y-104839474D01*
X211766123Y-104839474D01*
X211809328Y-105149185D01*
X211912123Y-105444516D01*
X211998919Y-105606902D01*
X212258465Y-105696930D01*
X213180395Y-104775000D01*
X213539605Y-104775000D01*
X214461535Y-105696930D01*
X214721081Y-105606902D01*
X214857224Y-105325384D01*
X214935829Y-105022714D01*
X214953877Y-104710526D01*
X214910672Y-104400815D01*
X214807877Y-104105484D01*
X214721081Y-103943098D01*
X214461535Y-103853070D01*
X213539605Y-104775000D01*
X213180395Y-104775000D01*
X212258465Y-103853070D01*
X211998919Y-103943098D01*
X211862776Y-104224616D01*
X211784171Y-104527286D01*
X211766123Y-104839474D01*
X208206580Y-104839474D01*
X207925303Y-104558197D01*
X207906057Y-104542403D01*
X207884101Y-104530667D01*
X207860276Y-104523440D01*
X207835500Y-104521000D01*
X205856106Y-104521000D01*
X205803500Y-104468394D01*
X205803500Y-103557606D01*
X205856106Y-103505000D01*
X207973394Y-103505000D01*
X208888697Y-104420303D01*
X208907943Y-104436097D01*
X208929899Y-104447833D01*
X208953724Y-104455060D01*
X208978500Y-104457500D01*
X211264500Y-104457500D01*
X211289276Y-104455060D01*
X211313101Y-104447833D01*
X211335057Y-104436097D01*
X211354303Y-104420303D01*
X212101141Y-103673465D01*
X212438070Y-103673465D01*
X213360000Y-104595395D01*
X214281930Y-103673465D01*
X214191902Y-103413919D01*
X213910384Y-103277776D01*
X213607714Y-103199171D01*
X213295526Y-103181123D01*
X212985815Y-103224328D01*
X212690484Y-103327123D01*
X212528098Y-103413919D01*
X212438070Y-103673465D01*
X212101141Y-103673465D01*
X212777606Y-102997000D01*
X214894894Y-102997000D01*
X215138000Y-103240106D01*
%TA.AperFunction,Conductor*%
D53*
G36*
X215138000Y-103240106D02*
G01*
X215138000Y-106309894D01*
X214894894Y-106553000D01*
X212777606Y-106553000D01*
X212101141Y-105876535D01*
X212438070Y-105876535D01*
X212528098Y-106136081D01*
X212809616Y-106272224D01*
X213112286Y-106350829D01*
X213424474Y-106368877D01*
X213734185Y-106325672D01*
X214029516Y-106222877D01*
X214191902Y-106136081D01*
X214281930Y-105876535D01*
X213360000Y-104954605D01*
X212438070Y-105876535D01*
X212101141Y-105876535D01*
X211544803Y-105320197D01*
X211525557Y-105304403D01*
X211503601Y-105292667D01*
X211479776Y-105285440D01*
X211455000Y-105283000D01*
X208706795Y-105283000D01*
X208637863Y-105214068D01*
X208529601Y-105141730D01*
X208494153Y-105127047D01*
X208206580Y-104839474D01*
X211766123Y-104839474D01*
X211809328Y-105149185D01*
X211912123Y-105444516D01*
X211998919Y-105606902D01*
X212258465Y-105696930D01*
X213180395Y-104775000D01*
X213539605Y-104775000D01*
X214461535Y-105696930D01*
X214721081Y-105606902D01*
X214857224Y-105325384D01*
X214935829Y-105022714D01*
X214953877Y-104710526D01*
X214910672Y-104400815D01*
X214807877Y-104105484D01*
X214721081Y-103943098D01*
X214461535Y-103853070D01*
X213539605Y-104775000D01*
X213180395Y-104775000D01*
X212258465Y-103853070D01*
X211998919Y-103943098D01*
X211862776Y-104224616D01*
X211784171Y-104527286D01*
X211766123Y-104839474D01*
X208206580Y-104839474D01*
X207925303Y-104558197D01*
X207906057Y-104542403D01*
X207884101Y-104530667D01*
X207860276Y-104523440D01*
X207835500Y-104521000D01*
X205856106Y-104521000D01*
X205803500Y-104468394D01*
X205803500Y-103557606D01*
X205856106Y-103505000D01*
X207973394Y-103505000D01*
X208888697Y-104420303D01*
X208907943Y-104436097D01*
X208929899Y-104447833D01*
X208953724Y-104455060D01*
X208978500Y-104457500D01*
X211264500Y-104457500D01*
X211289276Y-104455060D01*
X211313101Y-104447833D01*
X211335057Y-104436097D01*
X211354303Y-104420303D01*
X212101141Y-103673465D01*
X212438070Y-103673465D01*
X213360000Y-104595395D01*
X214281930Y-103673465D01*
X214191902Y-103413919D01*
X213910384Y-103277776D01*
X213607714Y-103199171D01*
X213295526Y-103181123D01*
X212985815Y-103224328D01*
X212690484Y-103327123D01*
X212528098Y-103413919D01*
X212438070Y-103673465D01*
X212101141Y-103673465D01*
X212777606Y-102997000D01*
X214894894Y-102997000D01*
X215138000Y-103240106D01*
G37*
%TD.AperFunction*%
%TD*%
D52*
%TO.N,Net-(F1-Pad1)*%
X208470500Y-98096606D02*
X208470500Y-98679000D01*
X207697606Y-98679000D01*
X207163303Y-98144697D01*
X207144057Y-98128903D01*
X207122101Y-98117167D01*
X207098276Y-98109940D01*
X207073500Y-98107500D01*
X206057500Y-98107500D01*
X206057500Y-97472500D01*
X207846394Y-97472500D01*
X208470500Y-98096606D01*
%TA.AperFunction,Conductor*%
D53*
G36*
X208470500Y-98096606D02*
G01*
X208470500Y-98679000D01*
X207697606Y-98679000D01*
X207163303Y-98144697D01*
X207144057Y-98128903D01*
X207122101Y-98117167D01*
X207098276Y-98109940D01*
X207073500Y-98107500D01*
X206057500Y-98107500D01*
X206057500Y-97472500D01*
X207846394Y-97472500D01*
X208470500Y-98096606D01*
G37*
%TD.AperFunction*%
%TD*%
D52*
%TO.N,Net-(D2-Pad1)*%
X206629000Y-100226141D02*
X206631440Y-100250917D01*
X206638667Y-100274742D01*
X206650403Y-100296698D01*
X206670581Y-100320123D01*
X206883000Y-100513189D01*
X206883000Y-101536500D01*
X205867000Y-101536500D01*
X205867000Y-100513189D01*
X206079419Y-100320123D01*
X206096113Y-100301652D01*
X206108882Y-100280280D01*
X206117237Y-100256827D01*
X206121000Y-100226141D01*
X206121000Y-99210141D01*
X206629000Y-99210141D01*
X206629000Y-100226141D01*
%TA.AperFunction,Conductor*%
D53*
G36*
X206629000Y-100226141D02*
G01*
X206631440Y-100250917D01*
X206638667Y-100274742D01*
X206650403Y-100296698D01*
X206670581Y-100320123D01*
X206883000Y-100513189D01*
X206883000Y-101536500D01*
X205867000Y-101536500D01*
X205867000Y-100513189D01*
X206079419Y-100320123D01*
X206096113Y-100301652D01*
X206108882Y-100280280D01*
X206117237Y-100256827D01*
X206121000Y-100226141D01*
X206121000Y-99210141D01*
X206629000Y-99210141D01*
X206629000Y-100226141D01*
G37*
%TD.AperFunction*%
%TD*%
D52*
%TO.N,+24V*%
X208470500Y-96255106D02*
X208470500Y-97155000D01*
X208332606Y-97155000D01*
X208115803Y-96938197D01*
X208096557Y-96922403D01*
X208074601Y-96910667D01*
X208050776Y-96903440D01*
X208026000Y-96901000D01*
X205665606Y-96901000D01*
X205512303Y-96747697D01*
X205493057Y-96731903D01*
X205471101Y-96720167D01*
X205447276Y-96712940D01*
X205422500Y-96710500D01*
X202565000Y-96710500D01*
X202540224Y-96712940D01*
X202516399Y-96720167D01*
X202494443Y-96731903D01*
X202475197Y-96747697D01*
X202157697Y-97065197D01*
X202141903Y-97084443D01*
X202130167Y-97106399D01*
X202122940Y-97130224D01*
X202120500Y-97155000D01*
X202120500Y-99395764D01*
X202106589Y-99409675D01*
X202088237Y-99424736D01*
X202073176Y-99443088D01*
X202028129Y-99497978D01*
X201983465Y-99581539D01*
X201955960Y-99672208D01*
X201946673Y-99766500D01*
X201949001Y-99790136D01*
X201949000Y-100454438D01*
X201939667Y-100471899D01*
X201932440Y-100495724D01*
X201930000Y-100520500D01*
X201930000Y-100722867D01*
X201922157Y-100802500D01*
X201922157Y-101282500D01*
X201437843Y-101282500D01*
X201437843Y-100802500D01*
X201429286Y-100715618D01*
X201422000Y-100691600D01*
X201422000Y-100520500D01*
X201419560Y-100495724D01*
X201412333Y-100471899D01*
X201400597Y-100449943D01*
X201384803Y-100430697D01*
X201379754Y-100425648D01*
X201376536Y-100415039D01*
X201331872Y-100331478D01*
X201271764Y-100258236D01*
X201253411Y-100243175D01*
X201104500Y-100094264D01*
X201104500Y-96255106D01*
X201347606Y-96012000D01*
X208227394Y-96012000D01*
X208470500Y-96255106D01*
%TA.AperFunction,Conductor*%
D53*
G36*
X208470500Y-96255106D02*
G01*
X208470500Y-97155000D01*
X208332606Y-97155000D01*
X208115803Y-96938197D01*
X208096557Y-96922403D01*
X208074601Y-96910667D01*
X208050776Y-96903440D01*
X208026000Y-96901000D01*
X205665606Y-96901000D01*
X205512303Y-96747697D01*
X205493057Y-96731903D01*
X205471101Y-96720167D01*
X205447276Y-96712940D01*
X205422500Y-96710500D01*
X202565000Y-96710500D01*
X202540224Y-96712940D01*
X202516399Y-96720167D01*
X202494443Y-96731903D01*
X202475197Y-96747697D01*
X202157697Y-97065197D01*
X202141903Y-97084443D01*
X202130167Y-97106399D01*
X202122940Y-97130224D01*
X202120500Y-97155000D01*
X202120500Y-99395764D01*
X202106589Y-99409675D01*
X202088237Y-99424736D01*
X202073176Y-99443088D01*
X202028129Y-99497978D01*
X201983465Y-99581539D01*
X201955960Y-99672208D01*
X201946673Y-99766500D01*
X201949001Y-99790136D01*
X201949000Y-100454438D01*
X201939667Y-100471899D01*
X201932440Y-100495724D01*
X201930000Y-100520500D01*
X201930000Y-100722867D01*
X201922157Y-100802500D01*
X201922157Y-101282500D01*
X201437843Y-101282500D01*
X201437843Y-100802500D01*
X201429286Y-100715618D01*
X201422000Y-100691600D01*
X201422000Y-100520500D01*
X201419560Y-100495724D01*
X201412333Y-100471899D01*
X201400597Y-100449943D01*
X201384803Y-100430697D01*
X201379754Y-100425648D01*
X201376536Y-100415039D01*
X201331872Y-100331478D01*
X201271764Y-100258236D01*
X201253411Y-100243175D01*
X201104500Y-100094264D01*
X201104500Y-96255106D01*
X201347606Y-96012000D01*
X208227394Y-96012000D01*
X208470500Y-96255106D01*
G37*
%TD.AperFunction*%
%TD*%
D52*
%TO.N,EP*%
X205168500Y-97525106D02*
X205168500Y-102944394D01*
X204861894Y-103251000D01*
X200787000Y-103251000D01*
X200787000Y-101854000D01*
X202628500Y-101854000D01*
X202653276Y-101851560D01*
X202677101Y-101844333D01*
X202699057Y-101832597D01*
X202718303Y-101816803D01*
X202908803Y-101626303D01*
X202924597Y-101607057D01*
X202936333Y-101585101D01*
X202943560Y-101561276D01*
X202946000Y-101536500D01*
X202946000Y-99930736D01*
X203523411Y-99353326D01*
X203541764Y-99338264D01*
X203601872Y-99265022D01*
X203646536Y-99181461D01*
X203674040Y-99090792D01*
X203674884Y-99082222D01*
X203924803Y-98832303D01*
X203940597Y-98813057D01*
X203952333Y-98791101D01*
X203959560Y-98767276D01*
X203962000Y-98742500D01*
X203962000Y-98210499D01*
X203971644Y-98178707D01*
X203982843Y-98065000D01*
X203982843Y-97515000D01*
X203981880Y-97505226D01*
X204205106Y-97282000D01*
X204925394Y-97282000D01*
X205168500Y-97525106D01*
%TA.AperFunction,Conductor*%
D53*
G36*
X205168500Y-97525106D02*
G01*
X205168500Y-102944394D01*
X204861894Y-103251000D01*
X200787000Y-103251000D01*
X200787000Y-101854000D01*
X202628500Y-101854000D01*
X202653276Y-101851560D01*
X202677101Y-101844333D01*
X202699057Y-101832597D01*
X202718303Y-101816803D01*
X202908803Y-101626303D01*
X202924597Y-101607057D01*
X202936333Y-101585101D01*
X202943560Y-101561276D01*
X202946000Y-101536500D01*
X202946000Y-99930736D01*
X203523411Y-99353326D01*
X203541764Y-99338264D01*
X203601872Y-99265022D01*
X203646536Y-99181461D01*
X203674040Y-99090792D01*
X203674884Y-99082222D01*
X203924803Y-98832303D01*
X203940597Y-98813057D01*
X203952333Y-98791101D01*
X203959560Y-98767276D01*
X203962000Y-98742500D01*
X203962000Y-98210499D01*
X203971644Y-98178707D01*
X203982843Y-98065000D01*
X203982843Y-97515000D01*
X203981880Y-97505226D01*
X204205106Y-97282000D01*
X204925394Y-97282000D01*
X205168500Y-97525106D01*
G37*
%TD.AperFunction*%
%TD*%
D52*
%TO.N,EP*%
X199263000Y-96255106D02*
X199263000Y-98054894D01*
X199019894Y-98298000D01*
X196850000Y-98298000D01*
X196825224Y-98300440D01*
X196801399Y-98307667D01*
X196779443Y-98319403D01*
X196760197Y-98335197D01*
X196442697Y-98652697D01*
X196426903Y-98671943D01*
X196415167Y-98693899D01*
X196407940Y-98717724D01*
X196405500Y-98742500D01*
X196405500Y-104775000D01*
X196407940Y-104799776D01*
X196415167Y-104823601D01*
X196426903Y-104845557D01*
X196442697Y-104864803D01*
X196760197Y-105182303D01*
X196779443Y-105198097D01*
X196801399Y-105209833D01*
X196825224Y-105217060D01*
X196850000Y-105219500D01*
X198384894Y-105219500D01*
X198628000Y-105462606D01*
X198628000Y-106309894D01*
X198384894Y-106553000D01*
X194997606Y-106553000D01*
X194794301Y-106349695D01*
X194794301Y-106071927D01*
X194796628Y-106048300D01*
X194787341Y-105954008D01*
X194778997Y-105926504D01*
X194759837Y-105863340D01*
X194754500Y-105853355D01*
X194754500Y-96255106D01*
X194997606Y-96012000D01*
X199019894Y-96012000D01*
X199263000Y-96255106D01*
%TA.AperFunction,Conductor*%
D53*
G36*
X199263000Y-96255106D02*
G01*
X199263000Y-98054894D01*
X199019894Y-98298000D01*
X196850000Y-98298000D01*
X196825224Y-98300440D01*
X196801399Y-98307667D01*
X196779443Y-98319403D01*
X196760197Y-98335197D01*
X196442697Y-98652697D01*
X196426903Y-98671943D01*
X196415167Y-98693899D01*
X196407940Y-98717724D01*
X196405500Y-98742500D01*
X196405500Y-104775000D01*
X196407940Y-104799776D01*
X196415167Y-104823601D01*
X196426903Y-104845557D01*
X196442697Y-104864803D01*
X196760197Y-105182303D01*
X196779443Y-105198097D01*
X196801399Y-105209833D01*
X196825224Y-105217060D01*
X196850000Y-105219500D01*
X198384894Y-105219500D01*
X198628000Y-105462606D01*
X198628000Y-106309894D01*
X198384894Y-106553000D01*
X194997606Y-106553000D01*
X194794301Y-106349695D01*
X194794301Y-106071927D01*
X194796628Y-106048300D01*
X194787341Y-105954008D01*
X194778997Y-105926504D01*
X194759837Y-105863340D01*
X194754500Y-105853355D01*
X194754500Y-96255106D01*
X194997606Y-96012000D01*
X199019894Y-96012000D01*
X199263000Y-96255106D01*
G37*
%TD.AperFunction*%
%TD*%
D52*
%TO.N,EP*%
X29005500Y-103192955D02*
X28961189Y-103179513D01*
X28886500Y-103172157D01*
X28486500Y-103172157D01*
X28411811Y-103179513D01*
X28339992Y-103201299D01*
X28286500Y-103229892D01*
X28233008Y-103201299D01*
X28161189Y-103179513D01*
X28086500Y-103172157D01*
X27686500Y-103172157D01*
X27611811Y-103179513D01*
X27539992Y-103201299D01*
X27486500Y-103229892D01*
X27433008Y-103201299D01*
X27361189Y-103179513D01*
X27286500Y-103172157D01*
X26886500Y-103172157D01*
X26811811Y-103179513D01*
X26739992Y-103201299D01*
X26686500Y-103229892D01*
X26633008Y-103201299D01*
X26561189Y-103179513D01*
X26486500Y-103172157D01*
X26086500Y-103172157D01*
X26011811Y-103179513D01*
X25939992Y-103201299D01*
X25873804Y-103236678D01*
X25815789Y-103284289D01*
X25768178Y-103342304D01*
X25732799Y-103408492D01*
X25711013Y-103480311D01*
X25703657Y-103555000D01*
X25703657Y-104355000D01*
X25711013Y-104429689D01*
X25732799Y-104501508D01*
X25768178Y-104567696D01*
X25815789Y-104625711D01*
X25873804Y-104673322D01*
X25939992Y-104708701D01*
X26011811Y-104730487D01*
X26086500Y-104737843D01*
X26486500Y-104737843D01*
X26561189Y-104730487D01*
X26633008Y-104708701D01*
X26686500Y-104680108D01*
X26739992Y-104708701D01*
X26811811Y-104730487D01*
X26886500Y-104737843D01*
X27286500Y-104737843D01*
X27361189Y-104730487D01*
X27433008Y-104708701D01*
X27486500Y-104680108D01*
X27539992Y-104708701D01*
X27611811Y-104730487D01*
X27686500Y-104737843D01*
X28086500Y-104737843D01*
X28161189Y-104730487D01*
X28233008Y-104708701D01*
X28286500Y-104680108D01*
X28339992Y-104708701D01*
X28411811Y-104730487D01*
X28486500Y-104737843D01*
X28886500Y-104737843D01*
X28961189Y-104730487D01*
X29033008Y-104708701D01*
X29086500Y-104680108D01*
X29139992Y-104708701D01*
X29211811Y-104730487D01*
X29286500Y-104737843D01*
X29686500Y-104737843D01*
X29761189Y-104730487D01*
X29833008Y-104708701D01*
X29886500Y-104680108D01*
X29939992Y-104708701D01*
X30011811Y-104730487D01*
X30086500Y-104737843D01*
X30486500Y-104737843D01*
X30561189Y-104730487D01*
X30633008Y-104708701D01*
X30686500Y-104680108D01*
X30739992Y-104708701D01*
X30811811Y-104730487D01*
X30886500Y-104737843D01*
X31286500Y-104737843D01*
X31361189Y-104730487D01*
X31433008Y-104708701D01*
X31486500Y-104680108D01*
X31539992Y-104708701D01*
X31611811Y-104730487D01*
X31686500Y-104737843D01*
X32086500Y-104737843D01*
X32161189Y-104730487D01*
X32233008Y-104708701D01*
X32286500Y-104680108D01*
X32339992Y-104708701D01*
X32411811Y-104730487D01*
X32486500Y-104737843D01*
X32886500Y-104737843D01*
X32961189Y-104730487D01*
X33033008Y-104708701D01*
X33086500Y-104680108D01*
X33139992Y-104708701D01*
X33211811Y-104730487D01*
X33286500Y-104737843D01*
X33686500Y-104737843D01*
X33761189Y-104730487D01*
X33833008Y-104708701D01*
X33886500Y-104680108D01*
X33939992Y-104708701D01*
X34011811Y-104730487D01*
X34086500Y-104737843D01*
X34423895Y-104737843D01*
X34411013Y-104780311D01*
X34403657Y-104855000D01*
X34403657Y-105255000D01*
X34411013Y-105329689D01*
X34432799Y-105401508D01*
X34461392Y-105455000D01*
X34432799Y-105508492D01*
X34411013Y-105580311D01*
X34403657Y-105655000D01*
X34403657Y-106055000D01*
X34411013Y-106129689D01*
X34432799Y-106201508D01*
X34461392Y-106255000D01*
X34432799Y-106308492D01*
X34411013Y-106380311D01*
X34403657Y-106455000D01*
X34403657Y-106855000D01*
X34411013Y-106929689D01*
X34432799Y-107001508D01*
X34461392Y-107055000D01*
X34432799Y-107108492D01*
X34411013Y-107180311D01*
X34403657Y-107255000D01*
X34403657Y-107655000D01*
X34411013Y-107729689D01*
X34432799Y-107801508D01*
X34461392Y-107855000D01*
X34432799Y-107908492D01*
X34411013Y-107980311D01*
X34403657Y-108055000D01*
X34403657Y-108455000D01*
X34411013Y-108529689D01*
X34432799Y-108601508D01*
X34461392Y-108655000D01*
X34432799Y-108708492D01*
X34411013Y-108780311D01*
X34403657Y-108855000D01*
X34403657Y-109255000D01*
X34411013Y-109329689D01*
X34432799Y-109401508D01*
X34461392Y-109455000D01*
X34432799Y-109508492D01*
X34411013Y-109580311D01*
X34403657Y-109655000D01*
X34403657Y-110055000D01*
X34411013Y-110129689D01*
X34432799Y-110201508D01*
X34461392Y-110255000D01*
X34432799Y-110308492D01*
X34411013Y-110380311D01*
X34403657Y-110455000D01*
X34403657Y-110855000D01*
X34411013Y-110929689D01*
X34432799Y-111001508D01*
X34461392Y-111055000D01*
X34432799Y-111108492D01*
X34411013Y-111180311D01*
X34403657Y-111255000D01*
X34403657Y-111655000D01*
X34411013Y-111729689D01*
X34432799Y-111801508D01*
X34461392Y-111855000D01*
X34432799Y-111908492D01*
X34411013Y-111980311D01*
X34403657Y-112055000D01*
X34403657Y-112455000D01*
X34411013Y-112529689D01*
X34432799Y-112601508D01*
X34468178Y-112667696D01*
X34515789Y-112725711D01*
X34573804Y-112773322D01*
X34639992Y-112808701D01*
X34711811Y-112830487D01*
X34786500Y-112837843D01*
X35586500Y-112837843D01*
X35661189Y-112830487D01*
X35733008Y-112808701D01*
X35799196Y-112773322D01*
X35857211Y-112725711D01*
X35904822Y-112667696D01*
X35940201Y-112601508D01*
X35961987Y-112529689D01*
X35969343Y-112455000D01*
X35969343Y-112055000D01*
X35961987Y-111980311D01*
X35941326Y-111912200D01*
X36160050Y-111912200D01*
X36182500Y-111914411D01*
X36204950Y-111912200D01*
X36204960Y-111912200D01*
X36272127Y-111905585D01*
X36358309Y-111879441D01*
X36385500Y-111864907D01*
X36385500Y-113397800D01*
X35868299Y-113397800D01*
X35857211Y-113384289D01*
X35799196Y-113336678D01*
X35733008Y-113301299D01*
X35661189Y-113279513D01*
X35586500Y-113272157D01*
X34786500Y-113272157D01*
X34711811Y-113279513D01*
X34639992Y-113301299D01*
X34573804Y-113336678D01*
X34515789Y-113384289D01*
X34468178Y-113442304D01*
X34432799Y-113508492D01*
X34411013Y-113580311D01*
X34403657Y-113655000D01*
X34403657Y-114055000D01*
X34411013Y-114129689D01*
X34432799Y-114201508D01*
X34461392Y-114255000D01*
X34432799Y-114308492D01*
X34411013Y-114380311D01*
X34403657Y-114455000D01*
X34403657Y-114855000D01*
X34411013Y-114929689D01*
X34432799Y-115001508D01*
X34468178Y-115067696D01*
X34515789Y-115125711D01*
X34573804Y-115173322D01*
X34639992Y-115208701D01*
X34711811Y-115230487D01*
X34786500Y-115237843D01*
X35586500Y-115237843D01*
X35661189Y-115230487D01*
X35733008Y-115208701D01*
X35799196Y-115173322D01*
X35857211Y-115125711D01*
X35868299Y-115112200D01*
X36385500Y-115112200D01*
X36385500Y-115569880D01*
X35699581Y-116255800D01*
X34054066Y-116255800D01*
X34061987Y-116229689D01*
X34069343Y-116155000D01*
X34069343Y-115355000D01*
X34061987Y-115280311D01*
X34040201Y-115208492D01*
X34004822Y-115142304D01*
X33957211Y-115084289D01*
X33899196Y-115036678D01*
X33833008Y-115001299D01*
X33761189Y-114979513D01*
X33686500Y-114972157D01*
X33286500Y-114972157D01*
X33211811Y-114979513D01*
X33139992Y-115001299D01*
X33086500Y-115029892D01*
X33033008Y-115001299D01*
X32961189Y-114979513D01*
X32886500Y-114972157D01*
X32486500Y-114972157D01*
X32411811Y-114979513D01*
X32339992Y-115001299D01*
X32286500Y-115029892D01*
X32233008Y-115001299D01*
X32161189Y-114979513D01*
X32086500Y-114972157D01*
X31686500Y-114972157D01*
X31611811Y-114979513D01*
X31539992Y-115001299D01*
X31486500Y-115029892D01*
X31433008Y-115001299D01*
X31361189Y-114979513D01*
X31286500Y-114972157D01*
X30886500Y-114972157D01*
X30811811Y-114979513D01*
X30739992Y-115001299D01*
X30686500Y-115029892D01*
X30633008Y-115001299D01*
X30561189Y-114979513D01*
X30486500Y-114972157D01*
X30086500Y-114972157D01*
X30011811Y-114979513D01*
X29939992Y-115001299D01*
X29886500Y-115029892D01*
X29833008Y-115001299D01*
X29761189Y-114979513D01*
X29686500Y-114972157D01*
X29286500Y-114972157D01*
X29211811Y-114979513D01*
X29139992Y-115001299D01*
X29086500Y-115029892D01*
X29033008Y-115001299D01*
X28961189Y-114979513D01*
X28886500Y-114972157D01*
X28486500Y-114972157D01*
X28411811Y-114979513D01*
X28339992Y-115001299D01*
X28286500Y-115029892D01*
X28233008Y-115001299D01*
X28161189Y-114979513D01*
X28086500Y-114972157D01*
X27686500Y-114972157D01*
X27611811Y-114979513D01*
X27539992Y-115001299D01*
X27473804Y-115036678D01*
X27415789Y-115084289D01*
X27368178Y-115142304D01*
X27332799Y-115208492D01*
X27311013Y-115280311D01*
X27303657Y-115355000D01*
X27303657Y-116155000D01*
X27305500Y-116173715D01*
X27305501Y-117413522D01*
X27285190Y-117430190D01*
X27209597Y-117522301D01*
X27153426Y-117627389D01*
X27118837Y-117741416D01*
X27107157Y-117860000D01*
X27107157Y-118360000D01*
X27118837Y-118478584D01*
X27153426Y-118592611D01*
X27166997Y-118618000D01*
X25770106Y-118618000D01*
X25209500Y-118057394D01*
X25209500Y-111105000D01*
X26943428Y-111105000D01*
X26943428Y-111955000D01*
X26946499Y-112017523D01*
X26946595Y-112018498D01*
X26971083Y-112141472D01*
X26971368Y-112142410D01*
X27019057Y-112257520D01*
X27019519Y-112258385D01*
X27088764Y-112362148D01*
X27089385Y-112362906D01*
X27131779Y-112409721D01*
X27731779Y-113009721D01*
X27778594Y-113052115D01*
X27779352Y-113052736D01*
X27883115Y-113121981D01*
X27883980Y-113122443D01*
X27999090Y-113170132D01*
X28000028Y-113170417D01*
X28123002Y-113194905D01*
X28123977Y-113195001D01*
X28186500Y-113198072D01*
X29036500Y-113198072D01*
X29099023Y-113195001D01*
X29099998Y-113194905D01*
X29222972Y-113170417D01*
X29223910Y-113170132D01*
X29339020Y-113122443D01*
X29339885Y-113121981D01*
X29443648Y-113052736D01*
X29444406Y-113052115D01*
X29533615Y-112962906D01*
X29534236Y-112962148D01*
X29603481Y-112858385D01*
X29603943Y-112857520D01*
X29651632Y-112742410D01*
X29651917Y-112741472D01*
X29676405Y-112618498D01*
X29676501Y-112617523D01*
X29679572Y-112555000D01*
X29679572Y-111105000D01*
X29676501Y-111042477D01*
X29676405Y-111041502D01*
X29651917Y-110918528D01*
X29651632Y-110917590D01*
X29603943Y-110802480D01*
X29603481Y-110801615D01*
X29534236Y-110697852D01*
X29533615Y-110697094D01*
X29444406Y-110607885D01*
X29443648Y-110607264D01*
X29339885Y-110538019D01*
X29339020Y-110537557D01*
X29223910Y-110489868D01*
X29222972Y-110489583D01*
X29099998Y-110465095D01*
X29099023Y-110464999D01*
X29036500Y-110461928D01*
X27586500Y-110461928D01*
X27523977Y-110464999D01*
X27523002Y-110465095D01*
X27400028Y-110489583D01*
X27399090Y-110489868D01*
X27283980Y-110537557D01*
X27283115Y-110538019D01*
X27179352Y-110607264D01*
X27178594Y-110607885D01*
X27089385Y-110697094D01*
X27088764Y-110697852D01*
X27019519Y-110801615D01*
X27019057Y-110802480D01*
X26971368Y-110917590D01*
X26971083Y-110918528D01*
X26946595Y-111041502D01*
X26946499Y-111042477D01*
X26943428Y-111105000D01*
X25209500Y-111105000D01*
X25209500Y-102922606D01*
X25770106Y-102362000D01*
X29005501Y-102362000D01*
X29005500Y-103192955D01*
%TA.AperFunction,Conductor*%
D53*
G36*
X29005500Y-103192955D02*
G01*
X28961189Y-103179513D01*
X28886500Y-103172157D01*
X28486500Y-103172157D01*
X28411811Y-103179513D01*
X28339992Y-103201299D01*
X28286500Y-103229892D01*
X28233008Y-103201299D01*
X28161189Y-103179513D01*
X28086500Y-103172157D01*
X27686500Y-103172157D01*
X27611811Y-103179513D01*
X27539992Y-103201299D01*
X27486500Y-103229892D01*
X27433008Y-103201299D01*
X27361189Y-103179513D01*
X27286500Y-103172157D01*
X26886500Y-103172157D01*
X26811811Y-103179513D01*
X26739992Y-103201299D01*
X26686500Y-103229892D01*
X26633008Y-103201299D01*
X26561189Y-103179513D01*
X26486500Y-103172157D01*
X26086500Y-103172157D01*
X26011811Y-103179513D01*
X25939992Y-103201299D01*
X25873804Y-103236678D01*
X25815789Y-103284289D01*
X25768178Y-103342304D01*
X25732799Y-103408492D01*
X25711013Y-103480311D01*
X25703657Y-103555000D01*
X25703657Y-104355000D01*
X25711013Y-104429689D01*
X25732799Y-104501508D01*
X25768178Y-104567696D01*
X25815789Y-104625711D01*
X25873804Y-104673322D01*
X25939992Y-104708701D01*
X26011811Y-104730487D01*
X26086500Y-104737843D01*
X26486500Y-104737843D01*
X26561189Y-104730487D01*
X26633008Y-104708701D01*
X26686500Y-104680108D01*
X26739992Y-104708701D01*
X26811811Y-104730487D01*
X26886500Y-104737843D01*
X27286500Y-104737843D01*
X27361189Y-104730487D01*
X27433008Y-104708701D01*
X27486500Y-104680108D01*
X27539992Y-104708701D01*
X27611811Y-104730487D01*
X27686500Y-104737843D01*
X28086500Y-104737843D01*
X28161189Y-104730487D01*
X28233008Y-104708701D01*
X28286500Y-104680108D01*
X28339992Y-104708701D01*
X28411811Y-104730487D01*
X28486500Y-104737843D01*
X28886500Y-104737843D01*
X28961189Y-104730487D01*
X29033008Y-104708701D01*
X29086500Y-104680108D01*
X29139992Y-104708701D01*
X29211811Y-104730487D01*
X29286500Y-104737843D01*
X29686500Y-104737843D01*
X29761189Y-104730487D01*
X29833008Y-104708701D01*
X29886500Y-104680108D01*
X29939992Y-104708701D01*
X30011811Y-104730487D01*
X30086500Y-104737843D01*
X30486500Y-104737843D01*
X30561189Y-104730487D01*
X30633008Y-104708701D01*
X30686500Y-104680108D01*
X30739992Y-104708701D01*
X30811811Y-104730487D01*
X30886500Y-104737843D01*
X31286500Y-104737843D01*
X31361189Y-104730487D01*
X31433008Y-104708701D01*
X31486500Y-104680108D01*
X31539992Y-104708701D01*
X31611811Y-104730487D01*
X31686500Y-104737843D01*
X32086500Y-104737843D01*
X32161189Y-104730487D01*
X32233008Y-104708701D01*
X32286500Y-104680108D01*
X32339992Y-104708701D01*
X32411811Y-104730487D01*
X32486500Y-104737843D01*
X32886500Y-104737843D01*
X32961189Y-104730487D01*
X33033008Y-104708701D01*
X33086500Y-104680108D01*
X33139992Y-104708701D01*
X33211811Y-104730487D01*
X33286500Y-104737843D01*
X33686500Y-104737843D01*
X33761189Y-104730487D01*
X33833008Y-104708701D01*
X33886500Y-104680108D01*
X33939992Y-104708701D01*
X34011811Y-104730487D01*
X34086500Y-104737843D01*
X34423895Y-104737843D01*
X34411013Y-104780311D01*
X34403657Y-104855000D01*
X34403657Y-105255000D01*
X34411013Y-105329689D01*
X34432799Y-105401508D01*
X34461392Y-105455000D01*
X34432799Y-105508492D01*
X34411013Y-105580311D01*
X34403657Y-105655000D01*
X34403657Y-106055000D01*
X34411013Y-106129689D01*
X34432799Y-106201508D01*
X34461392Y-106255000D01*
X34432799Y-106308492D01*
X34411013Y-106380311D01*
X34403657Y-106455000D01*
X34403657Y-106855000D01*
X34411013Y-106929689D01*
X34432799Y-107001508D01*
X34461392Y-107055000D01*
X34432799Y-107108492D01*
X34411013Y-107180311D01*
X34403657Y-107255000D01*
X34403657Y-107655000D01*
X34411013Y-107729689D01*
X34432799Y-107801508D01*
X34461392Y-107855000D01*
X34432799Y-107908492D01*
X34411013Y-107980311D01*
X34403657Y-108055000D01*
X34403657Y-108455000D01*
X34411013Y-108529689D01*
X34432799Y-108601508D01*
X34461392Y-108655000D01*
X34432799Y-108708492D01*
X34411013Y-108780311D01*
X34403657Y-108855000D01*
X34403657Y-109255000D01*
X34411013Y-109329689D01*
X34432799Y-109401508D01*
X34461392Y-109455000D01*
X34432799Y-109508492D01*
X34411013Y-109580311D01*
X34403657Y-109655000D01*
X34403657Y-110055000D01*
X34411013Y-110129689D01*
X34432799Y-110201508D01*
X34461392Y-110255000D01*
X34432799Y-110308492D01*
X34411013Y-110380311D01*
X34403657Y-110455000D01*
X34403657Y-110855000D01*
X34411013Y-110929689D01*
X34432799Y-111001508D01*
X34461392Y-111055000D01*
X34432799Y-111108492D01*
X34411013Y-111180311D01*
X34403657Y-111255000D01*
X34403657Y-111655000D01*
X34411013Y-111729689D01*
X34432799Y-111801508D01*
X34461392Y-111855000D01*
X34432799Y-111908492D01*
X34411013Y-111980311D01*
X34403657Y-112055000D01*
X34403657Y-112455000D01*
X34411013Y-112529689D01*
X34432799Y-112601508D01*
X34468178Y-112667696D01*
X34515789Y-112725711D01*
X34573804Y-112773322D01*
X34639992Y-112808701D01*
X34711811Y-112830487D01*
X34786500Y-112837843D01*
X35586500Y-112837843D01*
X35661189Y-112830487D01*
X35733008Y-112808701D01*
X35799196Y-112773322D01*
X35857211Y-112725711D01*
X35904822Y-112667696D01*
X35940201Y-112601508D01*
X35961987Y-112529689D01*
X35969343Y-112455000D01*
X35969343Y-112055000D01*
X35961987Y-111980311D01*
X35941326Y-111912200D01*
X36160050Y-111912200D01*
X36182500Y-111914411D01*
X36204950Y-111912200D01*
X36204960Y-111912200D01*
X36272127Y-111905585D01*
X36358309Y-111879441D01*
X36385500Y-111864907D01*
X36385500Y-113397800D01*
X35868299Y-113397800D01*
X35857211Y-113384289D01*
X35799196Y-113336678D01*
X35733008Y-113301299D01*
X35661189Y-113279513D01*
X35586500Y-113272157D01*
X34786500Y-113272157D01*
X34711811Y-113279513D01*
X34639992Y-113301299D01*
X34573804Y-113336678D01*
X34515789Y-113384289D01*
X34468178Y-113442304D01*
X34432799Y-113508492D01*
X34411013Y-113580311D01*
X34403657Y-113655000D01*
X34403657Y-114055000D01*
X34411013Y-114129689D01*
X34432799Y-114201508D01*
X34461392Y-114255000D01*
X34432799Y-114308492D01*
X34411013Y-114380311D01*
X34403657Y-114455000D01*
X34403657Y-114855000D01*
X34411013Y-114929689D01*
X34432799Y-115001508D01*
X34468178Y-115067696D01*
X34515789Y-115125711D01*
X34573804Y-115173322D01*
X34639992Y-115208701D01*
X34711811Y-115230487D01*
X34786500Y-115237843D01*
X35586500Y-115237843D01*
X35661189Y-115230487D01*
X35733008Y-115208701D01*
X35799196Y-115173322D01*
X35857211Y-115125711D01*
X35868299Y-115112200D01*
X36385500Y-115112200D01*
X36385500Y-115569880D01*
X35699581Y-116255800D01*
X34054066Y-116255800D01*
X34061987Y-116229689D01*
X34069343Y-116155000D01*
X34069343Y-115355000D01*
X34061987Y-115280311D01*
X34040201Y-115208492D01*
X34004822Y-115142304D01*
X33957211Y-115084289D01*
X33899196Y-115036678D01*
X33833008Y-115001299D01*
X33761189Y-114979513D01*
X33686500Y-114972157D01*
X33286500Y-114972157D01*
X33211811Y-114979513D01*
X33139992Y-115001299D01*
X33086500Y-115029892D01*
X33033008Y-115001299D01*
X32961189Y-114979513D01*
X32886500Y-114972157D01*
X32486500Y-114972157D01*
X32411811Y-114979513D01*
X32339992Y-115001299D01*
X32286500Y-115029892D01*
X32233008Y-115001299D01*
X32161189Y-114979513D01*
X32086500Y-114972157D01*
X31686500Y-114972157D01*
X31611811Y-114979513D01*
X31539992Y-115001299D01*
X31486500Y-115029892D01*
X31433008Y-115001299D01*
X31361189Y-114979513D01*
X31286500Y-114972157D01*
X30886500Y-114972157D01*
X30811811Y-114979513D01*
X30739992Y-115001299D01*
X30686500Y-115029892D01*
X30633008Y-115001299D01*
X30561189Y-114979513D01*
X30486500Y-114972157D01*
X30086500Y-114972157D01*
X30011811Y-114979513D01*
X29939992Y-115001299D01*
X29886500Y-115029892D01*
X29833008Y-115001299D01*
X29761189Y-114979513D01*
X29686500Y-114972157D01*
X29286500Y-114972157D01*
X29211811Y-114979513D01*
X29139992Y-115001299D01*
X29086500Y-115029892D01*
X29033008Y-115001299D01*
X28961189Y-114979513D01*
X28886500Y-114972157D01*
X28486500Y-114972157D01*
X28411811Y-114979513D01*
X28339992Y-115001299D01*
X28286500Y-115029892D01*
X28233008Y-115001299D01*
X28161189Y-114979513D01*
X28086500Y-114972157D01*
X27686500Y-114972157D01*
X27611811Y-114979513D01*
X27539992Y-115001299D01*
X27473804Y-115036678D01*
X27415789Y-115084289D01*
X27368178Y-115142304D01*
X27332799Y-115208492D01*
X27311013Y-115280311D01*
X27303657Y-115355000D01*
X27303657Y-116155000D01*
X27305500Y-116173715D01*
X27305501Y-117413522D01*
X27285190Y-117430190D01*
X27209597Y-117522301D01*
X27153426Y-117627389D01*
X27118837Y-117741416D01*
X27107157Y-117860000D01*
X27107157Y-118360000D01*
X27118837Y-118478584D01*
X27153426Y-118592611D01*
X27166997Y-118618000D01*
X25770106Y-118618000D01*
X25209500Y-118057394D01*
X25209500Y-111105000D01*
X26943428Y-111105000D01*
X26943428Y-111955000D01*
X26946499Y-112017523D01*
X26946595Y-112018498D01*
X26971083Y-112141472D01*
X26971368Y-112142410D01*
X27019057Y-112257520D01*
X27019519Y-112258385D01*
X27088764Y-112362148D01*
X27089385Y-112362906D01*
X27131779Y-112409721D01*
X27731779Y-113009721D01*
X27778594Y-113052115D01*
X27779352Y-113052736D01*
X27883115Y-113121981D01*
X27883980Y-113122443D01*
X27999090Y-113170132D01*
X28000028Y-113170417D01*
X28123002Y-113194905D01*
X28123977Y-113195001D01*
X28186500Y-113198072D01*
X29036500Y-113198072D01*
X29099023Y-113195001D01*
X29099998Y-113194905D01*
X29222972Y-113170417D01*
X29223910Y-113170132D01*
X29339020Y-113122443D01*
X29339885Y-113121981D01*
X29443648Y-113052736D01*
X29444406Y-113052115D01*
X29533615Y-112962906D01*
X29534236Y-112962148D01*
X29603481Y-112858385D01*
X29603943Y-112857520D01*
X29651632Y-112742410D01*
X29651917Y-112741472D01*
X29676405Y-112618498D01*
X29676501Y-112617523D01*
X29679572Y-112555000D01*
X29679572Y-111105000D01*
X29676501Y-111042477D01*
X29676405Y-111041502D01*
X29651917Y-110918528D01*
X29651632Y-110917590D01*
X29603943Y-110802480D01*
X29603481Y-110801615D01*
X29534236Y-110697852D01*
X29533615Y-110697094D01*
X29444406Y-110607885D01*
X29443648Y-110607264D01*
X29339885Y-110538019D01*
X29339020Y-110537557D01*
X29223910Y-110489868D01*
X29222972Y-110489583D01*
X29099998Y-110465095D01*
X29099023Y-110464999D01*
X29036500Y-110461928D01*
X27586500Y-110461928D01*
X27523977Y-110464999D01*
X27523002Y-110465095D01*
X27400028Y-110489583D01*
X27399090Y-110489868D01*
X27283980Y-110537557D01*
X27283115Y-110538019D01*
X27179352Y-110607264D01*
X27178594Y-110607885D01*
X27089385Y-110697094D01*
X27088764Y-110697852D01*
X27019519Y-110801615D01*
X27019057Y-110802480D01*
X26971368Y-110917590D01*
X26971083Y-110918528D01*
X26946595Y-111041502D01*
X26946499Y-111042477D01*
X26943428Y-111105000D01*
X25209500Y-111105000D01*
X25209500Y-102922606D01*
X25770106Y-102362000D01*
X29005501Y-102362000D01*
X29005500Y-103192955D01*
G37*
%TD.AperFunction*%
D52*
X36349000Y-102886106D02*
X36349000Y-105210763D01*
X36185764Y-105374000D01*
X35948545Y-105374000D01*
X35961987Y-105329689D01*
X35969343Y-105255000D01*
X35969343Y-104855000D01*
X35961987Y-104780311D01*
X35940201Y-104708492D01*
X35904822Y-104642304D01*
X35857211Y-104584289D01*
X35799196Y-104536678D01*
X35733008Y-104501299D01*
X35661189Y-104479513D01*
X35586500Y-104472157D01*
X34849105Y-104472157D01*
X34861987Y-104429689D01*
X34869343Y-104355000D01*
X34869343Y-103555000D01*
X34861987Y-103480311D01*
X34840201Y-103408492D01*
X34804822Y-103342304D01*
X34757211Y-103284289D01*
X34699196Y-103236678D01*
X34633008Y-103201299D01*
X34561189Y-103179513D01*
X34486500Y-103172157D01*
X34086500Y-103172157D01*
X34011811Y-103179513D01*
X34007200Y-103180912D01*
X34007200Y-102362000D01*
X35824894Y-102362000D01*
X36349000Y-102886106D01*
%TA.AperFunction,Conductor*%
D53*
G36*
X36349000Y-102886106D02*
G01*
X36349000Y-105210763D01*
X36185764Y-105374000D01*
X35948545Y-105374000D01*
X35961987Y-105329689D01*
X35969343Y-105255000D01*
X35969343Y-104855000D01*
X35961987Y-104780311D01*
X35940201Y-104708492D01*
X35904822Y-104642304D01*
X35857211Y-104584289D01*
X35799196Y-104536678D01*
X35733008Y-104501299D01*
X35661189Y-104479513D01*
X35586500Y-104472157D01*
X34849105Y-104472157D01*
X34861987Y-104429689D01*
X34869343Y-104355000D01*
X34869343Y-103555000D01*
X34861987Y-103480311D01*
X34840201Y-103408492D01*
X34804822Y-103342304D01*
X34757211Y-103284289D01*
X34699196Y-103236678D01*
X34633008Y-103201299D01*
X34561189Y-103179513D01*
X34486500Y-103172157D01*
X34086500Y-103172157D01*
X34011811Y-103179513D01*
X34007200Y-103180912D01*
X34007200Y-102362000D01*
X35824894Y-102362000D01*
X36349000Y-102886106D01*
G37*
%TD.AperFunction*%
%TD*%
D52*
%TO.N,+3V3*%
X187235197Y-102959803D02*
X187254443Y-102975597D01*
X187276399Y-102987333D01*
X187300224Y-102994560D01*
X187325000Y-102997000D01*
X188224894Y-102997000D01*
X188468000Y-103240106D01*
X188468000Y-104087394D01*
X188224894Y-104330500D01*
X187325000Y-104330500D01*
X187300224Y-104332940D01*
X187276399Y-104340167D01*
X187254443Y-104351903D01*
X187235197Y-104367697D01*
X186954894Y-104648000D01*
X185790106Y-104648000D01*
X185547000Y-104404894D01*
X185547000Y-102922606D01*
X185790106Y-102679500D01*
X186954894Y-102679500D01*
X187235197Y-102959803D01*
%TA.AperFunction,Conductor*%
D53*
G36*
X187235197Y-102959803D02*
G01*
X187254443Y-102975597D01*
X187276399Y-102987333D01*
X187300224Y-102994560D01*
X187325000Y-102997000D01*
X188224894Y-102997000D01*
X188468000Y-103240106D01*
X188468000Y-104087394D01*
X188224894Y-104330500D01*
X187325000Y-104330500D01*
X187300224Y-104332940D01*
X187276399Y-104340167D01*
X187254443Y-104351903D01*
X187235197Y-104367697D01*
X186954894Y-104648000D01*
X185790106Y-104648000D01*
X185547000Y-104404894D01*
X185547000Y-102922606D01*
X185790106Y-102679500D01*
X186954894Y-102679500D01*
X187235197Y-102959803D01*
G37*
%TD.AperFunction*%
%TD*%
D52*
%TO.N,+5V*%
X197993000Y-107685106D02*
X197993000Y-107950000D01*
X197995440Y-107974776D01*
X198002667Y-107998601D01*
X198014403Y-108020557D01*
X198030197Y-108039803D01*
X198347697Y-108357303D01*
X198366943Y-108373097D01*
X198388899Y-108384833D01*
X198412724Y-108392060D01*
X198437500Y-108394500D01*
X201559894Y-108394500D01*
X201803000Y-108637606D01*
X201803000Y-109167394D01*
X201559894Y-109410500D01*
X194997606Y-109410500D01*
X194754500Y-109167394D01*
X194754500Y-107685106D01*
X194997606Y-107442000D01*
X197749894Y-107442000D01*
X197993000Y-107685106D01*
%TA.AperFunction,Conductor*%
D53*
G36*
X197993000Y-107685106D02*
G01*
X197993000Y-107950000D01*
X197995440Y-107974776D01*
X198002667Y-107998601D01*
X198014403Y-108020557D01*
X198030197Y-108039803D01*
X198347697Y-108357303D01*
X198366943Y-108373097D01*
X198388899Y-108384833D01*
X198412724Y-108392060D01*
X198437500Y-108394500D01*
X201559894Y-108394500D01*
X201803000Y-108637606D01*
X201803000Y-109167394D01*
X201559894Y-109410500D01*
X194997606Y-109410500D01*
X194754500Y-109167394D01*
X194754500Y-107685106D01*
X194997606Y-107442000D01*
X197749894Y-107442000D01*
X197993000Y-107685106D01*
G37*
%TD.AperFunction*%
%TD*%
D52*
%TO.N,SW*%
X199263000Y-101208106D02*
X199263000Y-102870000D01*
X199265440Y-102894776D01*
X199272667Y-102918601D01*
X199284403Y-102940557D01*
X199300197Y-102959803D01*
X200125697Y-103785303D01*
X200144943Y-103801097D01*
X200166899Y-103812833D01*
X200190724Y-103820060D01*
X200215500Y-103822500D01*
X201422000Y-103822500D01*
X201422000Y-107505500D01*
X199442606Y-107505500D01*
X199199500Y-107262394D01*
X199199500Y-105092500D01*
X199197060Y-105067724D01*
X199189833Y-105043899D01*
X199178097Y-105021943D01*
X199162303Y-105002697D01*
X198844803Y-104685197D01*
X198825557Y-104669403D01*
X198803601Y-104657667D01*
X198779776Y-104650440D01*
X198755000Y-104648000D01*
X197220106Y-104648000D01*
X196977000Y-104404894D01*
X196977000Y-101208106D01*
X197220106Y-100965000D01*
X199019894Y-100965000D01*
X199263000Y-101208106D01*
%TA.AperFunction,Conductor*%
D53*
G36*
X199263000Y-101208106D02*
G01*
X199263000Y-102870000D01*
X199265440Y-102894776D01*
X199272667Y-102918601D01*
X199284403Y-102940557D01*
X199300197Y-102959803D01*
X200125697Y-103785303D01*
X200144943Y-103801097D01*
X200166899Y-103812833D01*
X200190724Y-103820060D01*
X200215500Y-103822500D01*
X201422000Y-103822500D01*
X201422000Y-107505500D01*
X199442606Y-107505500D01*
X199199500Y-107262394D01*
X199199500Y-105092500D01*
X199197060Y-105067724D01*
X199189833Y-105043899D01*
X199178097Y-105021943D01*
X199162303Y-105002697D01*
X198844803Y-104685197D01*
X198825557Y-104669403D01*
X198803601Y-104657667D01*
X198779776Y-104650440D01*
X198755000Y-104648000D01*
X197220106Y-104648000D01*
X196977000Y-104404894D01*
X196977000Y-101208106D01*
X197220106Y-100965000D01*
X199019894Y-100965000D01*
X199263000Y-101208106D01*
G37*
%TD.AperFunction*%
%TD*%
M02*
