%TF.GenerationSoftware,KiCad,Pcbnew,(5.1.8)-1*%
%TF.CreationDate,2022-03-17T10:23:42+02:00*%
%TF.ProjectId,Hardware,48617264-7761-4726-952e-6b696361645f,rev?*%
%TF.SameCoordinates,Original*%
%TF.FileFunction,Paste,Top*%
%TF.FilePolarity,Positive*%
%FSLAX46Y46*%
G04 Gerber Fmt 4.6, Leading zero omitted, Abs format (unit mm)*
G04 Created by KiCad (PCBNEW (5.1.8)-1) date 2022-03-17 10:23:42*
%MOMM*%
%LPD*%
G01*
G04 APERTURE LIST*
%ADD10C,0.100000*%
%ADD11C,0.010000*%
%ADD12R,0.320000X0.400000*%
%ADD13R,1.280000X0.880000*%
%ADD14R,0.320000X0.280000*%
%ADD15R,1.168400X0.426720*%
%ADD16R,0.650240X0.203200*%
%ADD17R,0.203200X0.650240*%
%ADD18R,2.072640X2.072640*%
%ADD19R,2.240000X0.800000*%
%ADD20R,1.097280X0.386080*%
%ADD21R,1.117600X0.447040*%
%ADD22R,0.447040X1.117600*%
%ADD23R,0.720000X0.640000*%
%ADD24R,0.223520X0.406400*%
%ADD25R,0.320000X0.600000*%
%ADD26R,1.920000X1.120000*%
%ADD27R,0.720000X1.120000*%
%ADD28R,0.560000X0.560000*%
%ADD29R,1.160000X1.160000*%
%ADD30R,0.640000X0.320000*%
%ADD31R,0.320000X0.640000*%
%ADD32R,0.640000X0.720000*%
%ADD33R,1.920000X0.840000*%
%ADD34R,1.120000X1.920000*%
%ADD35R,1.120000X0.720000*%
%ADD36R,0.560000X0.480000*%
G04 APERTURE END LIST*
D10*
%TO.C,U7*%
G36*
X189584000Y-107732500D02*
G01*
X189584000Y-109132700D01*
X191797000Y-109132700D01*
X191797000Y-107732500D01*
X189584000Y-107732500D01*
G37*
X189584000Y-107732500D02*
X189584000Y-109132700D01*
X191797000Y-109132700D01*
X191797000Y-107732500D01*
X189584000Y-107732500D01*
G36*
X189584000Y-106132300D02*
G01*
X189584000Y-107532500D01*
X191797000Y-107532500D01*
X191797000Y-106132300D01*
X189584000Y-106132300D01*
G37*
X189584000Y-106132300D02*
X189584000Y-107532500D01*
X191797000Y-107532500D01*
X191797000Y-106132300D01*
X189584000Y-106132300D01*
%TO.C,U4*%
G36*
X61644200Y-104506700D02*
G01*
X61644200Y-105627500D01*
X62765000Y-105627500D01*
X62765000Y-104506700D01*
X61644200Y-104506700D01*
G37*
X61644200Y-104506700D02*
X61644200Y-105627500D01*
X62765000Y-105627500D01*
X62765000Y-104506700D01*
X61644200Y-104506700D01*
G36*
X61644200Y-105827500D02*
G01*
X61644200Y-106948300D01*
X62765000Y-106948300D01*
X62765000Y-105827500D01*
X61644200Y-105827500D01*
G37*
X61644200Y-105827500D02*
X61644200Y-106948300D01*
X62765000Y-106948300D01*
X62765000Y-105827500D01*
X61644200Y-105827500D01*
G36*
X62965000Y-104506700D02*
G01*
X62965000Y-105627500D01*
X64085800Y-105627500D01*
X64085800Y-104506700D01*
X62965000Y-104506700D01*
G37*
X62965000Y-104506700D02*
X62965000Y-105627500D01*
X64085800Y-105627500D01*
X64085800Y-104506700D01*
X62965000Y-104506700D01*
G36*
X62965000Y-105827500D02*
G01*
X62965000Y-106948300D01*
X64085800Y-106948300D01*
X64085800Y-105827500D01*
X62965000Y-105827500D01*
G37*
X62965000Y-105827500D02*
X62965000Y-106948300D01*
X64085800Y-106948300D01*
X64085800Y-105827500D01*
X62965000Y-105827500D01*
D11*
%TO.C,U6*%
G36*
X201167500Y-103162500D02*
G01*
X201167500Y-101812500D01*
X203327500Y-101812500D01*
X203327500Y-103162500D01*
X201167500Y-103162500D01*
G37*
X201167500Y-103162500D02*
X201167500Y-101812500D01*
X203327500Y-101812500D01*
X203327500Y-103162500D01*
X201167500Y-103162500D01*
%TO.C,U2*%
G36*
X29036500Y-111105000D02*
G01*
X29036500Y-112555000D01*
X28186500Y-112555000D01*
X27586500Y-111955000D01*
X27586500Y-111105000D01*
X29036500Y-111105000D01*
G37*
X29036500Y-111105000D02*
X29036500Y-112555000D01*
X28186500Y-112555000D01*
X27586500Y-111955000D01*
X27586500Y-111105000D01*
X29036500Y-111105000D01*
%TD*%
%TO.C,R24*%
G36*
G01*
X188280000Y-121065000D02*
X188280000Y-121505000D01*
G75*
G02*
X188120000Y-121665000I-160000J0D01*
G01*
X187800000Y-121665000D01*
G75*
G02*
X187640000Y-121505000I0J160000D01*
G01*
X187640000Y-121065000D01*
G75*
G02*
X187800000Y-120905000I160000J0D01*
G01*
X188120000Y-120905000D01*
G75*
G02*
X188280000Y-121065000I0J-160000D01*
G01*
G37*
G36*
G01*
X189930000Y-121065000D02*
X189930000Y-121505000D01*
G75*
G02*
X189770000Y-121665000I-160000J0D01*
G01*
X189450000Y-121665000D01*
G75*
G02*
X189290000Y-121505000I0J160000D01*
G01*
X189290000Y-121065000D01*
G75*
G02*
X189450000Y-120905000I160000J0D01*
G01*
X189770000Y-120905000D01*
G75*
G02*
X189930000Y-121065000I0J-160000D01*
G01*
G37*
%TD*%
%TO.C,R23*%
G36*
G01*
X168912500Y-121065000D02*
X168912500Y-121505000D01*
G75*
G02*
X168752500Y-121665000I-160000J0D01*
G01*
X168432500Y-121665000D01*
G75*
G02*
X168272500Y-121505000I0J160000D01*
G01*
X168272500Y-121065000D01*
G75*
G02*
X168432500Y-120905000I160000J0D01*
G01*
X168752500Y-120905000D01*
G75*
G02*
X168912500Y-121065000I0J-160000D01*
G01*
G37*
G36*
G01*
X170562500Y-121065000D02*
X170562500Y-121505000D01*
G75*
G02*
X170402500Y-121665000I-160000J0D01*
G01*
X170082500Y-121665000D01*
G75*
G02*
X169922500Y-121505000I0J160000D01*
G01*
X169922500Y-121065000D01*
G75*
G02*
X170082500Y-120905000I160000J0D01*
G01*
X170402500Y-120905000D01*
G75*
G02*
X170562500Y-121065000I0J-160000D01*
G01*
G37*
%TD*%
%TO.C,R22*%
G36*
G01*
X88267500Y-121065000D02*
X88267500Y-121505000D01*
G75*
G02*
X88107500Y-121665000I-160000J0D01*
G01*
X87787500Y-121665000D01*
G75*
G02*
X87627500Y-121505000I0J160000D01*
G01*
X87627500Y-121065000D01*
G75*
G02*
X87787500Y-120905000I160000J0D01*
G01*
X88107500Y-120905000D01*
G75*
G02*
X88267500Y-121065000I0J-160000D01*
G01*
G37*
G36*
G01*
X89917500Y-121065000D02*
X89917500Y-121505000D01*
G75*
G02*
X89757500Y-121665000I-160000J0D01*
G01*
X89437500Y-121665000D01*
G75*
G02*
X89277500Y-121505000I0J160000D01*
G01*
X89277500Y-121065000D01*
G75*
G02*
X89437500Y-120905000I160000J0D01*
G01*
X89757500Y-120905000D01*
G75*
G02*
X89917500Y-121065000I0J-160000D01*
G01*
G37*
%TD*%
%TO.C,R21*%
G36*
G01*
X68900000Y-121065000D02*
X68900000Y-121505000D01*
G75*
G02*
X68740000Y-121665000I-160000J0D01*
G01*
X68420000Y-121665000D01*
G75*
G02*
X68260000Y-121505000I0J160000D01*
G01*
X68260000Y-121065000D01*
G75*
G02*
X68420000Y-120905000I160000J0D01*
G01*
X68740000Y-120905000D01*
G75*
G02*
X68900000Y-121065000I0J-160000D01*
G01*
G37*
G36*
G01*
X70550000Y-121065000D02*
X70550000Y-121505000D01*
G75*
G02*
X70390000Y-121665000I-160000J0D01*
G01*
X70070000Y-121665000D01*
G75*
G02*
X69910000Y-121505000I0J160000D01*
G01*
X69910000Y-121065000D01*
G75*
G02*
X70070000Y-120905000I160000J0D01*
G01*
X70390000Y-120905000D01*
G75*
G02*
X70550000Y-121065000I0J-160000D01*
G01*
G37*
%TD*%
D12*
%TO.C,D9*%
X209217500Y-116620000D03*
X210517500Y-116620000D03*
D13*
X209867500Y-115570000D03*
D14*
X209867500Y-114845000D03*
%TD*%
D12*
%TO.C,D8*%
X210517500Y-106773000D03*
X209217500Y-106773000D03*
D13*
X209867500Y-107823000D03*
D14*
X209867500Y-108548000D03*
%TD*%
D12*
%TO.C,D7*%
X210517500Y-99915000D03*
X209217500Y-99915000D03*
D13*
X209867500Y-100965000D03*
D14*
X209867500Y-101690000D03*
%TD*%
D12*
%TO.C,D6*%
X210517500Y-112297500D03*
X209217500Y-112297500D03*
D13*
X209867500Y-113347500D03*
D14*
X209867500Y-114072500D03*
%TD*%
D12*
%TO.C,D5*%
X209202500Y-111125000D03*
X210502500Y-111125000D03*
D13*
X209852500Y-110075000D03*
D14*
X209852500Y-109350000D03*
%TD*%
D12*
%TO.C,D4*%
X209217500Y-104555000D03*
X210517500Y-104555000D03*
D13*
X209867500Y-103505000D03*
D14*
X209867500Y-102780000D03*
%TD*%
D15*
%TO.C,U3*%
X187909200Y-111823500D03*
X187909200Y-113093500D03*
X187909200Y-114363500D03*
X187909200Y-115633500D03*
X193357500Y-115633500D03*
X193357500Y-114363500D03*
X193357500Y-113093500D03*
X193357500Y-111823500D03*
%TD*%
D16*
%TO.C,U5*%
X60921900Y-112732500D03*
X60921900Y-113232499D03*
X60921900Y-113732500D03*
X60921900Y-114232500D03*
X60921900Y-114732501D03*
X60921900Y-115232500D03*
D17*
X61615000Y-115925600D03*
X62114999Y-115925600D03*
X62615000Y-115925600D03*
X63115000Y-115925600D03*
X63615001Y-115925600D03*
X64115000Y-115925600D03*
D16*
X64808100Y-115232500D03*
X64808100Y-114732501D03*
X64808100Y-114232500D03*
X64808100Y-113732500D03*
X64808100Y-113232499D03*
X64808100Y-112732500D03*
D17*
X64115000Y-112039400D03*
X63615001Y-112039400D03*
X63115000Y-112039400D03*
X62615000Y-112039400D03*
X62114999Y-112039400D03*
X61615000Y-112039400D03*
D18*
X62865000Y-113982500D03*
%TD*%
%TO.C,R16*%
G36*
G01*
X199615000Y-111167502D02*
X199615000Y-110447498D01*
G75*
G02*
X199814998Y-110247500I199998J0D01*
G01*
X200235002Y-110247500D01*
G75*
G02*
X200435000Y-110447498I0J-199998D01*
G01*
X200435000Y-111167502D01*
G75*
G02*
X200235002Y-111367500I-199998J0D01*
G01*
X199814998Y-111367500D01*
G75*
G02*
X199615000Y-111167502I0J199998D01*
G01*
G37*
G36*
G01*
X197790000Y-111167502D02*
X197790000Y-110447498D01*
G75*
G02*
X197989998Y-110247500I199998J0D01*
G01*
X198410002Y-110247500D01*
G75*
G02*
X198610000Y-110447498I0J-199998D01*
G01*
X198610000Y-111167502D01*
G75*
G02*
X198410002Y-111367500I-199998J0D01*
G01*
X197989998Y-111367500D01*
G75*
G02*
X197790000Y-111167502I0J199998D01*
G01*
G37*
%TD*%
%TO.C,R15*%
G36*
G01*
X198610000Y-112669998D02*
X198610000Y-113390002D01*
G75*
G02*
X198410002Y-113590000I-199998J0D01*
G01*
X197989998Y-113590000D01*
G75*
G02*
X197790000Y-113390002I0J199998D01*
G01*
X197790000Y-112669998D01*
G75*
G02*
X197989998Y-112470000I199998J0D01*
G01*
X198410002Y-112470000D01*
G75*
G02*
X198610000Y-112669998I0J-199998D01*
G01*
G37*
G36*
G01*
X200435000Y-112669998D02*
X200435000Y-113390002D01*
G75*
G02*
X200235002Y-113590000I-199998J0D01*
G01*
X199814998Y-113590000D01*
G75*
G02*
X199615000Y-113390002I0J199998D01*
G01*
X199615000Y-112669998D01*
G75*
G02*
X199814998Y-112470000I199998J0D01*
G01*
X200235002Y-112470000D01*
G75*
G02*
X200435000Y-112669998I0J-199998D01*
G01*
G37*
%TD*%
D19*
%TO.C,LED1*%
X47963900Y-111339999D03*
X47963900Y-109840000D03*
X47963900Y-108340001D03*
X52366100Y-108340001D03*
X52366100Y-109840000D03*
X52366100Y-111339999D03*
%TD*%
D20*
%TO.C,U7*%
X188023500Y-105727500D03*
X188023500Y-106997500D03*
X188023500Y-108267500D03*
X188023500Y-109537500D03*
X193357500Y-109537500D03*
X193357500Y-108267500D03*
X193357500Y-106997500D03*
X193357500Y-105727500D03*
%TD*%
D21*
%TO.C,SW1*%
X201768000Y-111252000D03*
X201768000Y-112522000D03*
X206375000Y-112522000D03*
X206375000Y-111252000D03*
%TD*%
D22*
%TO.C,SW3*%
X57785000Y-123034500D03*
X59055000Y-123034500D03*
X60325000Y-123034500D03*
X61595000Y-123034500D03*
X61595000Y-118427500D03*
X60325000Y-118427500D03*
X59055000Y-118427500D03*
X57785000Y-118427500D03*
%TD*%
%TO.C,C12*%
G36*
G01*
X189213500Y-104022500D02*
X189213500Y-103622500D01*
G75*
G02*
X189393500Y-103442500I180000J0D01*
G01*
X189753500Y-103442500D01*
G75*
G02*
X189933500Y-103622500I0J-180000D01*
G01*
X189933500Y-104022500D01*
G75*
G02*
X189753500Y-104202500I-180000J0D01*
G01*
X189393500Y-104202500D01*
G75*
G02*
X189213500Y-104022500I0J180000D01*
G01*
G37*
G36*
G01*
X187663500Y-104022500D02*
X187663500Y-103622500D01*
G75*
G02*
X187843500Y-103442500I180000J0D01*
G01*
X188203500Y-103442500D01*
G75*
G02*
X188383500Y-103622500I0J-180000D01*
G01*
X188383500Y-104022500D01*
G75*
G02*
X188203500Y-104202500I-180000J0D01*
G01*
X187843500Y-104202500D01*
G75*
G02*
X187663500Y-104022500I0J180000D01*
G01*
G37*
%TD*%
%TO.C,C11*%
G36*
G01*
X192167500Y-103622500D02*
X192167500Y-104022500D01*
G75*
G02*
X191987500Y-104202500I-180000J0D01*
G01*
X191627500Y-104202500D01*
G75*
G02*
X191447500Y-104022500I0J180000D01*
G01*
X191447500Y-103622500D01*
G75*
G02*
X191627500Y-103442500I180000J0D01*
G01*
X191987500Y-103442500D01*
G75*
G02*
X192167500Y-103622500I0J-180000D01*
G01*
G37*
G36*
G01*
X193717500Y-103622500D02*
X193717500Y-104022500D01*
G75*
G02*
X193537500Y-104202500I-180000J0D01*
G01*
X193177500Y-104202500D01*
G75*
G02*
X192997500Y-104022500I0J180000D01*
G01*
X192997500Y-103622500D01*
G75*
G02*
X193177500Y-103442500I180000J0D01*
G01*
X193537500Y-103442500D01*
G75*
G02*
X193717500Y-103622500I0J-180000D01*
G01*
G37*
%TD*%
%TO.C,C10*%
G36*
G01*
X198322501Y-106412500D02*
X197282499Y-106412500D01*
G75*
G02*
X197082500Y-106212501I0J199999D01*
G01*
X197082500Y-105692499D01*
G75*
G02*
X197282499Y-105492500I199999J0D01*
G01*
X198322501Y-105492500D01*
G75*
G02*
X198522500Y-105692499I0J-199999D01*
G01*
X198522500Y-106212501D01*
G75*
G02*
X198322501Y-106412500I-199999J0D01*
G01*
G37*
G36*
G01*
X198322501Y-109362500D02*
X197282499Y-109362500D01*
G75*
G02*
X197082500Y-109162501I0J199999D01*
G01*
X197082500Y-108642499D01*
G75*
G02*
X197282499Y-108442500I199999J0D01*
G01*
X198322501Y-108442500D01*
G75*
G02*
X198522500Y-108642499I0J-199999D01*
G01*
X198522500Y-109162501D01*
G75*
G02*
X198322501Y-109362500I-199999J0D01*
G01*
G37*
%TD*%
%TO.C,C6*%
G36*
G01*
X61294000Y-110290000D02*
X61294000Y-110690000D01*
G75*
G02*
X61114000Y-110870000I-180000J0D01*
G01*
X60754000Y-110870000D01*
G75*
G02*
X60574000Y-110690000I0J180000D01*
G01*
X60574000Y-110290000D01*
G75*
G02*
X60754000Y-110110000I180000J0D01*
G01*
X61114000Y-110110000D01*
G75*
G02*
X61294000Y-110290000I0J-180000D01*
G01*
G37*
G36*
G01*
X62844000Y-110290000D02*
X62844000Y-110690000D01*
G75*
G02*
X62664000Y-110870000I-180000J0D01*
G01*
X62304000Y-110870000D01*
G75*
G02*
X62124000Y-110690000I0J180000D01*
G01*
X62124000Y-110290000D01*
G75*
G02*
X62304000Y-110110000I180000J0D01*
G01*
X62664000Y-110110000D01*
G75*
G02*
X62844000Y-110290000I0J-180000D01*
G01*
G37*
%TD*%
%TO.C,SW2*%
X33655000Y-123034500D03*
X34925000Y-123034500D03*
X36195000Y-123034500D03*
X37465000Y-123034500D03*
X38735000Y-123034500D03*
X40005000Y-123034500D03*
X41275000Y-123034500D03*
X42545000Y-123034500D03*
X42545000Y-118427500D03*
X41275000Y-118427500D03*
X40005000Y-118427500D03*
X38735000Y-118427500D03*
X37465000Y-118427500D03*
X36195000Y-118427500D03*
X34925000Y-118427500D03*
X33655000Y-118427500D03*
%TD*%
D23*
%TO.C,U1*%
X31464000Y-122113000D03*
X29464000Y-123063000D03*
X29464000Y-121163000D03*
%TD*%
%TO.C,R10*%
G36*
G01*
X26609000Y-122843000D02*
X26609000Y-123283000D01*
G75*
G02*
X26449000Y-123443000I-160000J0D01*
G01*
X26129000Y-123443000D01*
G75*
G02*
X25969000Y-123283000I0J160000D01*
G01*
X25969000Y-122843000D01*
G75*
G02*
X26129000Y-122683000I160000J0D01*
G01*
X26449000Y-122683000D01*
G75*
G02*
X26609000Y-122843000I0J-160000D01*
G01*
G37*
G36*
G01*
X28259000Y-122843000D02*
X28259000Y-123283000D01*
G75*
G02*
X28099000Y-123443000I-160000J0D01*
G01*
X27779000Y-123443000D01*
G75*
G02*
X27619000Y-123283000I0J160000D01*
G01*
X27619000Y-122843000D01*
G75*
G02*
X27779000Y-122683000I160000J0D01*
G01*
X28099000Y-122683000D01*
G75*
G02*
X28259000Y-122843000I0J-160000D01*
G01*
G37*
%TD*%
%TO.C,R5*%
G36*
G01*
X38002500Y-101540000D02*
X37562500Y-101540000D01*
G75*
G02*
X37402500Y-101380000I0J160000D01*
G01*
X37402500Y-101060000D01*
G75*
G02*
X37562500Y-100900000I160000J0D01*
G01*
X38002500Y-100900000D01*
G75*
G02*
X38162500Y-101060000I0J-160000D01*
G01*
X38162500Y-101380000D01*
G75*
G02*
X38002500Y-101540000I-160000J0D01*
G01*
G37*
G36*
G01*
X38002500Y-103190000D02*
X37562500Y-103190000D01*
G75*
G02*
X37402500Y-103030000I0J160000D01*
G01*
X37402500Y-102710000D01*
G75*
G02*
X37562500Y-102550000I160000J0D01*
G01*
X38002500Y-102550000D01*
G75*
G02*
X38162500Y-102710000I0J-160000D01*
G01*
X38162500Y-103030000D01*
G75*
G02*
X38002500Y-103190000I-160000J0D01*
G01*
G37*
%TD*%
%TO.C,R13*%
G36*
G01*
X37562500Y-106232500D02*
X38002500Y-106232500D01*
G75*
G02*
X38162500Y-106392500I0J-160000D01*
G01*
X38162500Y-106712500D01*
G75*
G02*
X38002500Y-106872500I-160000J0D01*
G01*
X37562500Y-106872500D01*
G75*
G02*
X37402500Y-106712500I0J160000D01*
G01*
X37402500Y-106392500D01*
G75*
G02*
X37562500Y-106232500I160000J0D01*
G01*
G37*
G36*
G01*
X37562500Y-104582500D02*
X38002500Y-104582500D01*
G75*
G02*
X38162500Y-104742500I0J-160000D01*
G01*
X38162500Y-105062500D01*
G75*
G02*
X38002500Y-105222500I-160000J0D01*
G01*
X37562500Y-105222500D01*
G75*
G02*
X37402500Y-105062500I0J160000D01*
G01*
X37402500Y-104742500D01*
G75*
G02*
X37562500Y-104582500I160000J0D01*
G01*
G37*
%TD*%
%TO.C,C5*%
G36*
G01*
X196332500Y-112315000D02*
X196732500Y-112315000D01*
G75*
G02*
X196912500Y-112495000I0J-180000D01*
G01*
X196912500Y-112855000D01*
G75*
G02*
X196732500Y-113035000I-180000J0D01*
G01*
X196332500Y-113035000D01*
G75*
G02*
X196152500Y-112855000I0J180000D01*
G01*
X196152500Y-112495000D01*
G75*
G02*
X196332500Y-112315000I180000J0D01*
G01*
G37*
G36*
G01*
X196332500Y-110765000D02*
X196732500Y-110765000D01*
G75*
G02*
X196912500Y-110945000I0J-180000D01*
G01*
X196912500Y-111305000D01*
G75*
G02*
X196732500Y-111485000I-180000J0D01*
G01*
X196332500Y-111485000D01*
G75*
G02*
X196152500Y-111305000I0J180000D01*
G01*
X196152500Y-110945000D01*
G75*
G02*
X196332500Y-110765000I180000J0D01*
G01*
G37*
%TD*%
%TO.C,C4*%
G36*
G01*
X186255000Y-113390000D02*
X185855000Y-113390000D01*
G75*
G02*
X185675000Y-113210000I0J180000D01*
G01*
X185675000Y-112850000D01*
G75*
G02*
X185855000Y-112670000I180000J0D01*
G01*
X186255000Y-112670000D01*
G75*
G02*
X186435000Y-112850000I0J-180000D01*
G01*
X186435000Y-113210000D01*
G75*
G02*
X186255000Y-113390000I-180000J0D01*
G01*
G37*
G36*
G01*
X186255000Y-114940000D02*
X185855000Y-114940000D01*
G75*
G02*
X185675000Y-114760000I0J180000D01*
G01*
X185675000Y-114400000D01*
G75*
G02*
X185855000Y-114220000I180000J0D01*
G01*
X186255000Y-114220000D01*
G75*
G02*
X186435000Y-114400000I0J-180000D01*
G01*
X186435000Y-114760000D01*
G75*
G02*
X186255000Y-114940000I-180000J0D01*
G01*
G37*
%TD*%
D24*
%TO.C,Q3*%
X89352501Y-108889800D03*
X89852500Y-108889800D03*
X90352499Y-108889800D03*
X90352499Y-107315000D03*
X89852500Y-107315000D03*
X89352501Y-107315000D03*
%TD*%
%TO.C,Q1*%
X89352501Y-112064800D03*
X89852500Y-112064800D03*
X90352499Y-112064800D03*
X90352499Y-110490000D03*
X89852500Y-110490000D03*
X89352501Y-110490000D03*
%TD*%
D25*
%TO.C,L1*%
X209232500Y-98425000D03*
X209232500Y-96550300D03*
X208332500Y-96550300D03*
X208332500Y-98425000D03*
%TD*%
%TO.C,F1*%
G36*
G01*
X206170000Y-99027500D02*
X206580000Y-99027500D01*
G75*
G02*
X206755000Y-99202500I0J-175000D01*
G01*
X206755000Y-99552500D01*
G75*
G02*
X206580000Y-99727500I-175000J0D01*
G01*
X206170000Y-99727500D01*
G75*
G02*
X205995000Y-99552500I0J175000D01*
G01*
X205995000Y-99202500D01*
G75*
G02*
X206170000Y-99027500I175000J0D01*
G01*
G37*
G36*
G01*
X206170000Y-97452500D02*
X206580000Y-97452500D01*
G75*
G02*
X206755000Y-97627500I0J-175000D01*
G01*
X206755000Y-97977500D01*
G75*
G02*
X206580000Y-98152500I-175000J0D01*
G01*
X206170000Y-98152500D01*
G75*
G02*
X205995000Y-97977500I0J175000D01*
G01*
X205995000Y-97627500D01*
G75*
G02*
X206170000Y-97452500I175000J0D01*
G01*
G37*
%TD*%
D26*
%TO.C,D3*%
X197929500Y-103822500D03*
D27*
X195579500Y-103822500D03*
%TD*%
%TO.C,U4*%
G36*
G01*
X61234320Y-104579100D02*
X60685680Y-104579100D01*
G75*
G02*
X60634880Y-104528300I0J50800D01*
G01*
X60634880Y-104426700D01*
G75*
G02*
X60685680Y-104375900I50800J0D01*
G01*
X61234320Y-104375900D01*
G75*
G02*
X61285120Y-104426700I0J-50800D01*
G01*
X61285120Y-104528300D01*
G75*
G02*
X61234320Y-104579100I-50800J0D01*
G01*
G37*
G36*
G01*
X61234320Y-105079099D02*
X60685680Y-105079099D01*
G75*
G02*
X60634880Y-105028299I0J50800D01*
G01*
X60634880Y-104926699D01*
G75*
G02*
X60685680Y-104875899I50800J0D01*
G01*
X61234320Y-104875899D01*
G75*
G02*
X61285120Y-104926699I0J-50800D01*
G01*
X61285120Y-105028299D01*
G75*
G02*
X61234320Y-105079099I-50800J0D01*
G01*
G37*
G36*
G01*
X61234320Y-105579100D02*
X60685680Y-105579100D01*
G75*
G02*
X60634880Y-105528300I0J50800D01*
G01*
X60634880Y-105426700D01*
G75*
G02*
X60685680Y-105375900I50800J0D01*
G01*
X61234320Y-105375900D01*
G75*
G02*
X61285120Y-105426700I0J-50800D01*
G01*
X61285120Y-105528300D01*
G75*
G02*
X61234320Y-105579100I-50800J0D01*
G01*
G37*
G36*
G01*
X61234320Y-106079100D02*
X60685680Y-106079100D01*
G75*
G02*
X60634880Y-106028300I0J50800D01*
G01*
X60634880Y-105926700D01*
G75*
G02*
X60685680Y-105875900I50800J0D01*
G01*
X61234320Y-105875900D01*
G75*
G02*
X61285120Y-105926700I0J-50800D01*
G01*
X61285120Y-106028300D01*
G75*
G02*
X61234320Y-106079100I-50800J0D01*
G01*
G37*
G36*
G01*
X61234320Y-106579101D02*
X60685680Y-106579101D01*
G75*
G02*
X60634880Y-106528301I0J50800D01*
G01*
X60634880Y-106426701D01*
G75*
G02*
X60685680Y-106375901I50800J0D01*
G01*
X61234320Y-106375901D01*
G75*
G02*
X61285120Y-106426701I0J-50800D01*
G01*
X61285120Y-106528301D01*
G75*
G02*
X61234320Y-106579101I-50800J0D01*
G01*
G37*
G36*
G01*
X61234320Y-107079100D02*
X60685680Y-107079100D01*
G75*
G02*
X60634880Y-107028300I0J50800D01*
G01*
X60634880Y-106926700D01*
G75*
G02*
X60685680Y-106875900I50800J0D01*
G01*
X61234320Y-106875900D01*
G75*
G02*
X61285120Y-106926700I0J-50800D01*
G01*
X61285120Y-107028300D01*
G75*
G02*
X61234320Y-107079100I-50800J0D01*
G01*
G37*
G36*
G01*
X61513400Y-107906820D02*
X61513400Y-107358180D01*
G75*
G02*
X61564200Y-107307380I50800J0D01*
G01*
X61665800Y-107307380D01*
G75*
G02*
X61716600Y-107358180I0J-50800D01*
G01*
X61716600Y-107906820D01*
G75*
G02*
X61665800Y-107957620I-50800J0D01*
G01*
X61564200Y-107957620D01*
G75*
G02*
X61513400Y-107906820I0J50800D01*
G01*
G37*
G36*
G01*
X62013399Y-107906820D02*
X62013399Y-107358180D01*
G75*
G02*
X62064199Y-107307380I50800J0D01*
G01*
X62165799Y-107307380D01*
G75*
G02*
X62216599Y-107358180I0J-50800D01*
G01*
X62216599Y-107906820D01*
G75*
G02*
X62165799Y-107957620I-50800J0D01*
G01*
X62064199Y-107957620D01*
G75*
G02*
X62013399Y-107906820I0J50800D01*
G01*
G37*
G36*
G01*
X62513400Y-107906820D02*
X62513400Y-107358180D01*
G75*
G02*
X62564200Y-107307380I50800J0D01*
G01*
X62665800Y-107307380D01*
G75*
G02*
X62716600Y-107358180I0J-50800D01*
G01*
X62716600Y-107906820D01*
G75*
G02*
X62665800Y-107957620I-50800J0D01*
G01*
X62564200Y-107957620D01*
G75*
G02*
X62513400Y-107906820I0J50800D01*
G01*
G37*
G36*
G01*
X63013400Y-107906820D02*
X63013400Y-107358180D01*
G75*
G02*
X63064200Y-107307380I50800J0D01*
G01*
X63165800Y-107307380D01*
G75*
G02*
X63216600Y-107358180I0J-50800D01*
G01*
X63216600Y-107906820D01*
G75*
G02*
X63165800Y-107957620I-50800J0D01*
G01*
X63064200Y-107957620D01*
G75*
G02*
X63013400Y-107906820I0J50800D01*
G01*
G37*
G36*
G01*
X63513401Y-107906820D02*
X63513401Y-107358180D01*
G75*
G02*
X63564201Y-107307380I50800J0D01*
G01*
X63665801Y-107307380D01*
G75*
G02*
X63716601Y-107358180I0J-50800D01*
G01*
X63716601Y-107906820D01*
G75*
G02*
X63665801Y-107957620I-50800J0D01*
G01*
X63564201Y-107957620D01*
G75*
G02*
X63513401Y-107906820I0J50800D01*
G01*
G37*
G36*
G01*
X64013400Y-107906820D02*
X64013400Y-107358180D01*
G75*
G02*
X64064200Y-107307380I50800J0D01*
G01*
X64165800Y-107307380D01*
G75*
G02*
X64216600Y-107358180I0J-50800D01*
G01*
X64216600Y-107906820D01*
G75*
G02*
X64165800Y-107957620I-50800J0D01*
G01*
X64064200Y-107957620D01*
G75*
G02*
X64013400Y-107906820I0J50800D01*
G01*
G37*
G36*
G01*
X65044320Y-107079100D02*
X64495680Y-107079100D01*
G75*
G02*
X64444880Y-107028300I0J50800D01*
G01*
X64444880Y-106926700D01*
G75*
G02*
X64495680Y-106875900I50800J0D01*
G01*
X65044320Y-106875900D01*
G75*
G02*
X65095120Y-106926700I0J-50800D01*
G01*
X65095120Y-107028300D01*
G75*
G02*
X65044320Y-107079100I-50800J0D01*
G01*
G37*
G36*
G01*
X65044320Y-106579101D02*
X64495680Y-106579101D01*
G75*
G02*
X64444880Y-106528301I0J50800D01*
G01*
X64444880Y-106426701D01*
G75*
G02*
X64495680Y-106375901I50800J0D01*
G01*
X65044320Y-106375901D01*
G75*
G02*
X65095120Y-106426701I0J-50800D01*
G01*
X65095120Y-106528301D01*
G75*
G02*
X65044320Y-106579101I-50800J0D01*
G01*
G37*
G36*
G01*
X65044320Y-106079100D02*
X64495680Y-106079100D01*
G75*
G02*
X64444880Y-106028300I0J50800D01*
G01*
X64444880Y-105926700D01*
G75*
G02*
X64495680Y-105875900I50800J0D01*
G01*
X65044320Y-105875900D01*
G75*
G02*
X65095120Y-105926700I0J-50800D01*
G01*
X65095120Y-106028300D01*
G75*
G02*
X65044320Y-106079100I-50800J0D01*
G01*
G37*
G36*
G01*
X65044320Y-105579100D02*
X64495680Y-105579100D01*
G75*
G02*
X64444880Y-105528300I0J50800D01*
G01*
X64444880Y-105426700D01*
G75*
G02*
X64495680Y-105375900I50800J0D01*
G01*
X65044320Y-105375900D01*
G75*
G02*
X65095120Y-105426700I0J-50800D01*
G01*
X65095120Y-105528300D01*
G75*
G02*
X65044320Y-105579100I-50800J0D01*
G01*
G37*
G36*
G01*
X65044320Y-105079099D02*
X64495680Y-105079099D01*
G75*
G02*
X64444880Y-105028299I0J50800D01*
G01*
X64444880Y-104926699D01*
G75*
G02*
X64495680Y-104875899I50800J0D01*
G01*
X65044320Y-104875899D01*
G75*
G02*
X65095120Y-104926699I0J-50800D01*
G01*
X65095120Y-105028299D01*
G75*
G02*
X65044320Y-105079099I-50800J0D01*
G01*
G37*
G36*
G01*
X65044320Y-104579100D02*
X64495680Y-104579100D01*
G75*
G02*
X64444880Y-104528300I0J50800D01*
G01*
X64444880Y-104426700D01*
G75*
G02*
X64495680Y-104375900I50800J0D01*
G01*
X65044320Y-104375900D01*
G75*
G02*
X65095120Y-104426700I0J-50800D01*
G01*
X65095120Y-104528300D01*
G75*
G02*
X65044320Y-104579100I-50800J0D01*
G01*
G37*
G36*
G01*
X64013400Y-104096820D02*
X64013400Y-103548180D01*
G75*
G02*
X64064200Y-103497380I50800J0D01*
G01*
X64165800Y-103497380D01*
G75*
G02*
X64216600Y-103548180I0J-50800D01*
G01*
X64216600Y-104096820D01*
G75*
G02*
X64165800Y-104147620I-50800J0D01*
G01*
X64064200Y-104147620D01*
G75*
G02*
X64013400Y-104096820I0J50800D01*
G01*
G37*
G36*
G01*
X63513401Y-104096820D02*
X63513401Y-103548180D01*
G75*
G02*
X63564201Y-103497380I50800J0D01*
G01*
X63665801Y-103497380D01*
G75*
G02*
X63716601Y-103548180I0J-50800D01*
G01*
X63716601Y-104096820D01*
G75*
G02*
X63665801Y-104147620I-50800J0D01*
G01*
X63564201Y-104147620D01*
G75*
G02*
X63513401Y-104096820I0J50800D01*
G01*
G37*
G36*
G01*
X63013400Y-104096820D02*
X63013400Y-103548180D01*
G75*
G02*
X63064200Y-103497380I50800J0D01*
G01*
X63165800Y-103497380D01*
G75*
G02*
X63216600Y-103548180I0J-50800D01*
G01*
X63216600Y-104096820D01*
G75*
G02*
X63165800Y-104147620I-50800J0D01*
G01*
X63064200Y-104147620D01*
G75*
G02*
X63013400Y-104096820I0J50800D01*
G01*
G37*
G36*
G01*
X62513400Y-104096820D02*
X62513400Y-103548180D01*
G75*
G02*
X62564200Y-103497380I50800J0D01*
G01*
X62665800Y-103497380D01*
G75*
G02*
X62716600Y-103548180I0J-50800D01*
G01*
X62716600Y-104096820D01*
G75*
G02*
X62665800Y-104147620I-50800J0D01*
G01*
X62564200Y-104147620D01*
G75*
G02*
X62513400Y-104096820I0J50800D01*
G01*
G37*
G36*
G01*
X62013399Y-104096820D02*
X62013399Y-103548180D01*
G75*
G02*
X62064199Y-103497380I50800J0D01*
G01*
X62165799Y-103497380D01*
G75*
G02*
X62216599Y-103548180I0J-50800D01*
G01*
X62216599Y-104096820D01*
G75*
G02*
X62165799Y-104147620I-50800J0D01*
G01*
X62064199Y-104147620D01*
G75*
G02*
X62013399Y-104096820I0J50800D01*
G01*
G37*
G36*
G01*
X61513400Y-104096820D02*
X61513400Y-103548180D01*
G75*
G02*
X61564200Y-103497380I50800J0D01*
G01*
X61665800Y-103497380D01*
G75*
G02*
X61716600Y-103548180I0J-50800D01*
G01*
X61716600Y-104096820D01*
G75*
G02*
X61665800Y-104147620I-50800J0D01*
G01*
X61564200Y-104147620D01*
G75*
G02*
X61513400Y-104096820I0J50800D01*
G01*
G37*
%TD*%
%TO.C,U6*%
G36*
G01*
X200548900Y-105750500D02*
X200136100Y-105750500D01*
G75*
G02*
X200102500Y-105716900I0J33600D01*
G01*
X200102500Y-104208100D01*
G75*
G02*
X200136100Y-104174500I33600J0D01*
G01*
X200548900Y-104174500D01*
G75*
G02*
X200582500Y-104208100I0J-33600D01*
G01*
X200582500Y-105716900D01*
G75*
G02*
X200548900Y-105750500I-33600J0D01*
G01*
G37*
G36*
G01*
X201818900Y-105750500D02*
X201406100Y-105750500D01*
G75*
G02*
X201372500Y-105716900I0J33600D01*
G01*
X201372500Y-104208100D01*
G75*
G02*
X201406100Y-104174500I33600J0D01*
G01*
X201818900Y-104174500D01*
G75*
G02*
X201852500Y-104208100I0J-33600D01*
G01*
X201852500Y-105716900D01*
G75*
G02*
X201818900Y-105750500I-33600J0D01*
G01*
G37*
G36*
G01*
X203088900Y-105750500D02*
X202676100Y-105750500D01*
G75*
G02*
X202642500Y-105716900I0J33600D01*
G01*
X202642500Y-104208100D01*
G75*
G02*
X202676100Y-104174500I33600J0D01*
G01*
X203088900Y-104174500D01*
G75*
G02*
X203122500Y-104208100I0J-33600D01*
G01*
X203122500Y-105716900D01*
G75*
G02*
X203088900Y-105750500I-33600J0D01*
G01*
G37*
G36*
G01*
X204358900Y-105750500D02*
X203946100Y-105750500D01*
G75*
G02*
X203912500Y-105716900I0J33600D01*
G01*
X203912500Y-104208100D01*
G75*
G02*
X203946100Y-104174500I33600J0D01*
G01*
X204358900Y-104174500D01*
G75*
G02*
X204392500Y-104208100I0J-33600D01*
G01*
X204392500Y-105716900D01*
G75*
G02*
X204358900Y-105750500I-33600J0D01*
G01*
G37*
G36*
G01*
X204358900Y-100800500D02*
X203946100Y-100800500D01*
G75*
G02*
X203912500Y-100766900I0J33600D01*
G01*
X203912500Y-99258100D01*
G75*
G02*
X203946100Y-99224500I33600J0D01*
G01*
X204358900Y-99224500D01*
G75*
G02*
X204392500Y-99258100I0J-33600D01*
G01*
X204392500Y-100766900D01*
G75*
G02*
X204358900Y-100800500I-33600J0D01*
G01*
G37*
G36*
G01*
X203088900Y-100800500D02*
X202676100Y-100800500D01*
G75*
G02*
X202642500Y-100766900I0J33600D01*
G01*
X202642500Y-99258100D01*
G75*
G02*
X202676100Y-99224500I33600J0D01*
G01*
X203088900Y-99224500D01*
G75*
G02*
X203122500Y-99258100I0J-33600D01*
G01*
X203122500Y-100766900D01*
G75*
G02*
X203088900Y-100800500I-33600J0D01*
G01*
G37*
G36*
G01*
X201818900Y-100800500D02*
X201406100Y-100800500D01*
G75*
G02*
X201372500Y-100766900I0J33600D01*
G01*
X201372500Y-99258100D01*
G75*
G02*
X201406100Y-99224500I33600J0D01*
G01*
X201818900Y-99224500D01*
G75*
G02*
X201852500Y-99258100I0J-33600D01*
G01*
X201852500Y-100766900D01*
G75*
G02*
X201818900Y-100800500I-33600J0D01*
G01*
G37*
G36*
G01*
X200548900Y-100800500D02*
X200136100Y-100800500D01*
G75*
G02*
X200102500Y-100766900I0J33600D01*
G01*
X200102500Y-99258100D01*
G75*
G02*
X200136100Y-99224500I33600J0D01*
G01*
X200548900Y-99224500D01*
G75*
G02*
X200582500Y-99258100I0J-33600D01*
G01*
X200582500Y-100766900D01*
G75*
G02*
X200548900Y-100800500I-33600J0D01*
G01*
G37*
%TD*%
D28*
%TO.C,U2*%
X25336500Y-103905000D03*
X35236500Y-103905000D03*
X35236500Y-115805000D03*
X25336500Y-115805000D03*
D29*
X30286500Y-107880000D03*
X32261500Y-107880000D03*
X32261500Y-109855000D03*
X32261500Y-111830000D03*
X30286500Y-111830000D03*
X28311500Y-109855000D03*
X28311500Y-107880000D03*
X30286500Y-109855000D03*
D30*
X25386500Y-114655000D03*
X25386500Y-113855000D03*
X25386500Y-113055000D03*
X25386500Y-112255000D03*
X25386500Y-111455000D03*
X25386500Y-110655000D03*
X25386500Y-109855000D03*
X25386500Y-109055000D03*
X25386500Y-108255000D03*
X25386500Y-107455000D03*
X25386500Y-106655000D03*
X25386500Y-105855000D03*
X25386500Y-105055000D03*
D31*
X26286500Y-103955000D03*
X27086500Y-103955000D03*
X27886500Y-103955000D03*
X28686500Y-103955000D03*
X29486500Y-103955000D03*
X30286500Y-103955000D03*
X31086500Y-103955000D03*
X31886500Y-103955000D03*
X32686500Y-103955000D03*
X33486500Y-103955000D03*
X34286500Y-103955000D03*
D30*
X35186500Y-105055000D03*
X35186500Y-105855000D03*
X35186500Y-106655000D03*
X35186500Y-107455000D03*
X35186500Y-108255000D03*
X35186500Y-109055000D03*
X35186500Y-109855000D03*
X35186500Y-110655000D03*
X35186500Y-111455000D03*
X35186500Y-112255000D03*
X35186500Y-113055000D03*
X35186500Y-113855000D03*
X35186500Y-114655000D03*
D31*
X34286500Y-115755000D03*
X33486500Y-115755000D03*
X32686500Y-115755000D03*
X31886500Y-115755000D03*
X31086500Y-115755000D03*
X30286500Y-115755000D03*
X29486500Y-115755000D03*
X28686500Y-115755000D03*
X27886500Y-115755000D03*
X27086500Y-115755000D03*
X26286500Y-115755000D03*
%TD*%
%TO.C,R20*%
G36*
G01*
X206790000Y-108581500D02*
X207230000Y-108581500D01*
G75*
G02*
X207390000Y-108741500I0J-160000D01*
G01*
X207390000Y-109061500D01*
G75*
G02*
X207230000Y-109221500I-160000J0D01*
G01*
X206790000Y-109221500D01*
G75*
G02*
X206630000Y-109061500I0J160000D01*
G01*
X206630000Y-108741500D01*
G75*
G02*
X206790000Y-108581500I160000J0D01*
G01*
G37*
G36*
G01*
X206790000Y-106931500D02*
X207230000Y-106931500D01*
G75*
G02*
X207390000Y-107091500I0J-160000D01*
G01*
X207390000Y-107411500D01*
G75*
G02*
X207230000Y-107571500I-160000J0D01*
G01*
X206790000Y-107571500D01*
G75*
G02*
X206630000Y-107411500I0J160000D01*
G01*
X206630000Y-107091500D01*
G75*
G02*
X206790000Y-106931500I160000J0D01*
G01*
G37*
%TD*%
%TO.C,R19*%
G36*
G01*
X204530000Y-98010000D02*
X204530000Y-97570000D01*
G75*
G02*
X204690000Y-97410000I160000J0D01*
G01*
X205010000Y-97410000D01*
G75*
G02*
X205170000Y-97570000I0J-160000D01*
G01*
X205170000Y-98010000D01*
G75*
G02*
X205010000Y-98170000I-160000J0D01*
G01*
X204690000Y-98170000D01*
G75*
G02*
X204530000Y-98010000I0J160000D01*
G01*
G37*
G36*
G01*
X202880000Y-98010000D02*
X202880000Y-97570000D01*
G75*
G02*
X203040000Y-97410000I160000J0D01*
G01*
X203360000Y-97410000D01*
G75*
G02*
X203520000Y-97570000I0J-160000D01*
G01*
X203520000Y-98010000D01*
G75*
G02*
X203360000Y-98170000I-160000J0D01*
G01*
X203040000Y-98170000D01*
G75*
G02*
X202880000Y-98010000I0J160000D01*
G01*
G37*
%TD*%
%TO.C,R18*%
G36*
G01*
X205642500Y-107572500D02*
X205202500Y-107572500D01*
G75*
G02*
X205042500Y-107412500I0J160000D01*
G01*
X205042500Y-107092500D01*
G75*
G02*
X205202500Y-106932500I160000J0D01*
G01*
X205642500Y-106932500D01*
G75*
G02*
X205802500Y-107092500I0J-160000D01*
G01*
X205802500Y-107412500D01*
G75*
G02*
X205642500Y-107572500I-160000J0D01*
G01*
G37*
G36*
G01*
X205642500Y-109222500D02*
X205202500Y-109222500D01*
G75*
G02*
X205042500Y-109062500I0J160000D01*
G01*
X205042500Y-108742500D01*
G75*
G02*
X205202500Y-108582500I160000J0D01*
G01*
X205642500Y-108582500D01*
G75*
G02*
X205802500Y-108742500I0J-160000D01*
G01*
X205802500Y-109062500D01*
G75*
G02*
X205642500Y-109222500I-160000J0D01*
G01*
G37*
%TD*%
%TO.C,R17*%
G36*
G01*
X207197500Y-105947500D02*
X207197500Y-105507500D01*
G75*
G02*
X207357500Y-105347500I160000J0D01*
G01*
X207677500Y-105347500D01*
G75*
G02*
X207837500Y-105507500I0J-160000D01*
G01*
X207837500Y-105947500D01*
G75*
G02*
X207677500Y-106107500I-160000J0D01*
G01*
X207357500Y-106107500D01*
G75*
G02*
X207197500Y-105947500I0J160000D01*
G01*
G37*
G36*
G01*
X205547500Y-105947500D02*
X205547500Y-105507500D01*
G75*
G02*
X205707500Y-105347500I160000J0D01*
G01*
X206027500Y-105347500D01*
G75*
G02*
X206187500Y-105507500I0J-160000D01*
G01*
X206187500Y-105947500D01*
G75*
G02*
X206027500Y-106107500I-160000J0D01*
G01*
X205707500Y-106107500D01*
G75*
G02*
X205547500Y-105947500I0J160000D01*
G01*
G37*
%TD*%
%TO.C,R14*%
G36*
G01*
X62767500Y-100778000D02*
X62327500Y-100778000D01*
G75*
G02*
X62167500Y-100618000I0J160000D01*
G01*
X62167500Y-100298000D01*
G75*
G02*
X62327500Y-100138000I160000J0D01*
G01*
X62767500Y-100138000D01*
G75*
G02*
X62927500Y-100298000I0J-160000D01*
G01*
X62927500Y-100618000D01*
G75*
G02*
X62767500Y-100778000I-160000J0D01*
G01*
G37*
G36*
G01*
X62767500Y-102428000D02*
X62327500Y-102428000D01*
G75*
G02*
X62167500Y-102268000I0J160000D01*
G01*
X62167500Y-101948000D01*
G75*
G02*
X62327500Y-101788000I160000J0D01*
G01*
X62767500Y-101788000D01*
G75*
G02*
X62927500Y-101948000I0J-160000D01*
G01*
X62927500Y-102268000D01*
G75*
G02*
X62767500Y-102428000I-160000J0D01*
G01*
G37*
%TD*%
%TO.C,R12*%
G36*
G01*
X87372500Y-107535000D02*
X87372500Y-107095000D01*
G75*
G02*
X87532500Y-106935000I160000J0D01*
G01*
X87852500Y-106935000D01*
G75*
G02*
X88012500Y-107095000I0J-160000D01*
G01*
X88012500Y-107535000D01*
G75*
G02*
X87852500Y-107695000I-160000J0D01*
G01*
X87532500Y-107695000D01*
G75*
G02*
X87372500Y-107535000I0J160000D01*
G01*
G37*
G36*
G01*
X85722500Y-107535000D02*
X85722500Y-107095000D01*
G75*
G02*
X85882500Y-106935000I160000J0D01*
G01*
X86202500Y-106935000D01*
G75*
G02*
X86362500Y-107095000I0J-160000D01*
G01*
X86362500Y-107535000D01*
G75*
G02*
X86202500Y-107695000I-160000J0D01*
G01*
X85882500Y-107695000D01*
G75*
G02*
X85722500Y-107535000I0J160000D01*
G01*
G37*
%TD*%
%TO.C,R11*%
G36*
G01*
X87372500Y-109122500D02*
X87372500Y-108682500D01*
G75*
G02*
X87532500Y-108522500I160000J0D01*
G01*
X87852500Y-108522500D01*
G75*
G02*
X88012500Y-108682500I0J-160000D01*
G01*
X88012500Y-109122500D01*
G75*
G02*
X87852500Y-109282500I-160000J0D01*
G01*
X87532500Y-109282500D01*
G75*
G02*
X87372500Y-109122500I0J160000D01*
G01*
G37*
G36*
G01*
X85722500Y-109122500D02*
X85722500Y-108682500D01*
G75*
G02*
X85882500Y-108522500I160000J0D01*
G01*
X86202500Y-108522500D01*
G75*
G02*
X86362500Y-108682500I0J-160000D01*
G01*
X86362500Y-109122500D01*
G75*
G02*
X86202500Y-109282500I-160000J0D01*
G01*
X85882500Y-109282500D01*
G75*
G02*
X85722500Y-109122500I0J160000D01*
G01*
G37*
%TD*%
%TO.C,R9*%
G36*
G01*
X26609000Y-119541000D02*
X26609000Y-119981000D01*
G75*
G02*
X26449000Y-120141000I-160000J0D01*
G01*
X26129000Y-120141000D01*
G75*
G02*
X25969000Y-119981000I0J160000D01*
G01*
X25969000Y-119541000D01*
G75*
G02*
X26129000Y-119381000I160000J0D01*
G01*
X26449000Y-119381000D01*
G75*
G02*
X26609000Y-119541000I0J-160000D01*
G01*
G37*
G36*
G01*
X28259000Y-119541000D02*
X28259000Y-119981000D01*
G75*
G02*
X28099000Y-120141000I-160000J0D01*
G01*
X27779000Y-120141000D01*
G75*
G02*
X27619000Y-119981000I0J160000D01*
G01*
X27619000Y-119541000D01*
G75*
G02*
X27779000Y-119381000I160000J0D01*
G01*
X28099000Y-119381000D01*
G75*
G02*
X28259000Y-119541000I0J-160000D01*
G01*
G37*
%TD*%
%TO.C,R8*%
G36*
G01*
X198117500Y-119282500D02*
X198117500Y-118842500D01*
G75*
G02*
X198277500Y-118682500I160000J0D01*
G01*
X198597500Y-118682500D01*
G75*
G02*
X198757500Y-118842500I0J-160000D01*
G01*
X198757500Y-119282500D01*
G75*
G02*
X198597500Y-119442500I-160000J0D01*
G01*
X198277500Y-119442500D01*
G75*
G02*
X198117500Y-119282500I0J160000D01*
G01*
G37*
G36*
G01*
X196467500Y-119282500D02*
X196467500Y-118842500D01*
G75*
G02*
X196627500Y-118682500I160000J0D01*
G01*
X196947500Y-118682500D01*
G75*
G02*
X197107500Y-118842500I0J-160000D01*
G01*
X197107500Y-119282500D01*
G75*
G02*
X196947500Y-119442500I-160000J0D01*
G01*
X196627500Y-119442500D01*
G75*
G02*
X196467500Y-119282500I0J160000D01*
G01*
G37*
%TD*%
%TO.C,R7*%
G36*
G01*
X87372500Y-110710000D02*
X87372500Y-110270000D01*
G75*
G02*
X87532500Y-110110000I160000J0D01*
G01*
X87852500Y-110110000D01*
G75*
G02*
X88012500Y-110270000I0J-160000D01*
G01*
X88012500Y-110710000D01*
G75*
G02*
X87852500Y-110870000I-160000J0D01*
G01*
X87532500Y-110870000D01*
G75*
G02*
X87372500Y-110710000I0J160000D01*
G01*
G37*
G36*
G01*
X85722500Y-110710000D02*
X85722500Y-110270000D01*
G75*
G02*
X85882500Y-110110000I160000J0D01*
G01*
X86202500Y-110110000D01*
G75*
G02*
X86362500Y-110270000I0J-160000D01*
G01*
X86362500Y-110710000D01*
G75*
G02*
X86202500Y-110870000I-160000J0D01*
G01*
X85882500Y-110870000D01*
G75*
G02*
X85722500Y-110710000I0J160000D01*
G01*
G37*
%TD*%
%TO.C,R6*%
G36*
G01*
X87372500Y-112297500D02*
X87372500Y-111857500D01*
G75*
G02*
X87532500Y-111697500I160000J0D01*
G01*
X87852500Y-111697500D01*
G75*
G02*
X88012500Y-111857500I0J-160000D01*
G01*
X88012500Y-112297500D01*
G75*
G02*
X87852500Y-112457500I-160000J0D01*
G01*
X87532500Y-112457500D01*
G75*
G02*
X87372500Y-112297500I0J160000D01*
G01*
G37*
G36*
G01*
X85722500Y-112297500D02*
X85722500Y-111857500D01*
G75*
G02*
X85882500Y-111697500I160000J0D01*
G01*
X86202500Y-111697500D01*
G75*
G02*
X86362500Y-111857500I0J-160000D01*
G01*
X86362500Y-112297500D01*
G75*
G02*
X86202500Y-112457500I-160000J0D01*
G01*
X85882500Y-112457500D01*
G75*
G02*
X85722500Y-112297500I0J160000D01*
G01*
G37*
%TD*%
%TO.C,R4*%
G36*
G01*
X83500000Y-112297500D02*
X83500000Y-111857500D01*
G75*
G02*
X83660000Y-111697500I160000J0D01*
G01*
X83980000Y-111697500D01*
G75*
G02*
X84140000Y-111857500I0J-160000D01*
G01*
X84140000Y-112297500D01*
G75*
G02*
X83980000Y-112457500I-160000J0D01*
G01*
X83660000Y-112457500D01*
G75*
G02*
X83500000Y-112297500I0J160000D01*
G01*
G37*
G36*
G01*
X81850000Y-112297500D02*
X81850000Y-111857500D01*
G75*
G02*
X82010000Y-111697500I160000J0D01*
G01*
X82330000Y-111697500D01*
G75*
G02*
X82490000Y-111857500I0J-160000D01*
G01*
X82490000Y-112297500D01*
G75*
G02*
X82330000Y-112457500I-160000J0D01*
G01*
X82010000Y-112457500D01*
G75*
G02*
X81850000Y-112297500I0J160000D01*
G01*
G37*
%TD*%
%TO.C,R3*%
G36*
G01*
X83500000Y-110710000D02*
X83500000Y-110270000D01*
G75*
G02*
X83660000Y-110110000I160000J0D01*
G01*
X83980000Y-110110000D01*
G75*
G02*
X84140000Y-110270000I0J-160000D01*
G01*
X84140000Y-110710000D01*
G75*
G02*
X83980000Y-110870000I-160000J0D01*
G01*
X83660000Y-110870000D01*
G75*
G02*
X83500000Y-110710000I0J160000D01*
G01*
G37*
G36*
G01*
X81850000Y-110710000D02*
X81850000Y-110270000D01*
G75*
G02*
X82010000Y-110110000I160000J0D01*
G01*
X82330000Y-110110000D01*
G75*
G02*
X82490000Y-110270000I0J-160000D01*
G01*
X82490000Y-110710000D01*
G75*
G02*
X82330000Y-110870000I-160000J0D01*
G01*
X82010000Y-110870000D01*
G75*
G02*
X81850000Y-110710000I0J160000D01*
G01*
G37*
%TD*%
%TO.C,R2*%
G36*
G01*
X83500000Y-109122500D02*
X83500000Y-108682500D01*
G75*
G02*
X83660000Y-108522500I160000J0D01*
G01*
X83980000Y-108522500D01*
G75*
G02*
X84140000Y-108682500I0J-160000D01*
G01*
X84140000Y-109122500D01*
G75*
G02*
X83980000Y-109282500I-160000J0D01*
G01*
X83660000Y-109282500D01*
G75*
G02*
X83500000Y-109122500I0J160000D01*
G01*
G37*
G36*
G01*
X81850000Y-109122500D02*
X81850000Y-108682500D01*
G75*
G02*
X82010000Y-108522500I160000J0D01*
G01*
X82330000Y-108522500D01*
G75*
G02*
X82490000Y-108682500I0J-160000D01*
G01*
X82490000Y-109122500D01*
G75*
G02*
X82330000Y-109282500I-160000J0D01*
G01*
X82010000Y-109282500D01*
G75*
G02*
X81850000Y-109122500I0J160000D01*
G01*
G37*
%TD*%
%TO.C,R1*%
G36*
G01*
X83500000Y-107535000D02*
X83500000Y-107095000D01*
G75*
G02*
X83660000Y-106935000I160000J0D01*
G01*
X83980000Y-106935000D01*
G75*
G02*
X84140000Y-107095000I0J-160000D01*
G01*
X84140000Y-107535000D01*
G75*
G02*
X83980000Y-107695000I-160000J0D01*
G01*
X83660000Y-107695000D01*
G75*
G02*
X83500000Y-107535000I0J160000D01*
G01*
G37*
G36*
G01*
X81850000Y-107535000D02*
X81850000Y-107095000D01*
G75*
G02*
X82010000Y-106935000I160000J0D01*
G01*
X82330000Y-106935000D01*
G75*
G02*
X82490000Y-107095000I0J-160000D01*
G01*
X82490000Y-107535000D01*
G75*
G02*
X82330000Y-107695000I-160000J0D01*
G01*
X82010000Y-107695000D01*
G75*
G02*
X81850000Y-107535000I0J160000D01*
G01*
G37*
%TD*%
D32*
%TO.C,Q2*%
X197485000Y-122872500D03*
X196535000Y-120872500D03*
X198435000Y-120872500D03*
%TD*%
D33*
%TO.C,L2*%
X200342500Y-107052500D03*
X200342500Y-108902500D03*
%TD*%
D34*
%TO.C,D2*%
X206375000Y-101727000D03*
D35*
X206375000Y-104077000D03*
%TD*%
D36*
%TO.C,D1*%
X210185000Y-118297500D03*
X210185000Y-119697500D03*
%TD*%
%TO.C,C13*%
G36*
G01*
X203635000Y-108505000D02*
X204035000Y-108505000D01*
G75*
G02*
X204215000Y-108685000I0J-180000D01*
G01*
X204215000Y-109045000D01*
G75*
G02*
X204035000Y-109225000I-180000J0D01*
G01*
X203635000Y-109225000D01*
G75*
G02*
X203455000Y-109045000I0J180000D01*
G01*
X203455000Y-108685000D01*
G75*
G02*
X203635000Y-108505000I180000J0D01*
G01*
G37*
G36*
G01*
X203635000Y-106955000D02*
X204035000Y-106955000D01*
G75*
G02*
X204215000Y-107135000I0J-180000D01*
G01*
X204215000Y-107495000D01*
G75*
G02*
X204035000Y-107675000I-180000J0D01*
G01*
X203635000Y-107675000D01*
G75*
G02*
X203455000Y-107495000I0J180000D01*
G01*
X203455000Y-107135000D01*
G75*
G02*
X203635000Y-106955000I180000J0D01*
G01*
G37*
%TD*%
%TO.C,C9*%
G36*
G01*
X196100001Y-106412500D02*
X195059999Y-106412500D01*
G75*
G02*
X194860000Y-106212501I0J199999D01*
G01*
X194860000Y-105692499D01*
G75*
G02*
X195059999Y-105492500I199999J0D01*
G01*
X196100001Y-105492500D01*
G75*
G02*
X196300000Y-105692499I0J-199999D01*
G01*
X196300000Y-106212501D01*
G75*
G02*
X196100001Y-106412500I-199999J0D01*
G01*
G37*
G36*
G01*
X196100001Y-109362500D02*
X195059999Y-109362500D01*
G75*
G02*
X194860000Y-109162501I0J199999D01*
G01*
X194860000Y-108642499D01*
G75*
G02*
X195059999Y-108442500I199999J0D01*
G01*
X196100001Y-108442500D01*
G75*
G02*
X196300000Y-108642499I0J-199999D01*
G01*
X196300000Y-109162501D01*
G75*
G02*
X196100001Y-109362500I-199999J0D01*
G01*
G37*
%TD*%
%TO.C,C8*%
G36*
G01*
X198237500Y-100922500D02*
X198637500Y-100922500D01*
G75*
G02*
X198817500Y-101102500I0J-180000D01*
G01*
X198817500Y-101462500D01*
G75*
G02*
X198637500Y-101642500I-180000J0D01*
G01*
X198237500Y-101642500D01*
G75*
G02*
X198057500Y-101462500I0J180000D01*
G01*
X198057500Y-101102500D01*
G75*
G02*
X198237500Y-100922500I180000J0D01*
G01*
G37*
G36*
G01*
X198237500Y-99372500D02*
X198637500Y-99372500D01*
G75*
G02*
X198817500Y-99552500I0J-180000D01*
G01*
X198817500Y-99912500D01*
G75*
G02*
X198637500Y-100092500I-180000J0D01*
G01*
X198237500Y-100092500D01*
G75*
G02*
X198057500Y-99912500I0J180000D01*
G01*
X198057500Y-99552500D01*
G75*
G02*
X198237500Y-99372500I180000J0D01*
G01*
G37*
%TD*%
%TO.C,C7*%
G36*
G01*
X199122500Y-96952499D02*
X199122500Y-97992501D01*
G75*
G02*
X198922501Y-98192500I-199999J0D01*
G01*
X198402499Y-98192500D01*
G75*
G02*
X198202500Y-97992501I0J199999D01*
G01*
X198202500Y-96952499D01*
G75*
G02*
X198402499Y-96752500I199999J0D01*
G01*
X198922501Y-96752500D01*
G75*
G02*
X199122500Y-96952499I0J-199999D01*
G01*
G37*
G36*
G01*
X202072500Y-96952499D02*
X202072500Y-97992501D01*
G75*
G02*
X201872501Y-98192500I-199999J0D01*
G01*
X201352499Y-98192500D01*
G75*
G02*
X201152500Y-97992501I0J199999D01*
G01*
X201152500Y-96952499D01*
G75*
G02*
X201352499Y-96752500I199999J0D01*
G01*
X201872501Y-96752500D01*
G75*
G02*
X202072500Y-96952499I0J-199999D01*
G01*
G37*
%TD*%
%TO.C,C3*%
G36*
G01*
X27479000Y-121612000D02*
X27479000Y-121212000D01*
G75*
G02*
X27659000Y-121032000I180000J0D01*
G01*
X28019000Y-121032000D01*
G75*
G02*
X28199000Y-121212000I0J-180000D01*
G01*
X28199000Y-121612000D01*
G75*
G02*
X28019000Y-121792000I-180000J0D01*
G01*
X27659000Y-121792000D01*
G75*
G02*
X27479000Y-121612000I0J180000D01*
G01*
G37*
G36*
G01*
X25929000Y-121612000D02*
X25929000Y-121212000D01*
G75*
G02*
X26109000Y-121032000I180000J0D01*
G01*
X26469000Y-121032000D01*
G75*
G02*
X26649000Y-121212000I0J-180000D01*
G01*
X26649000Y-121612000D01*
G75*
G02*
X26469000Y-121792000I-180000J0D01*
G01*
X26109000Y-121792000D01*
G75*
G02*
X25929000Y-121612000I0J180000D01*
G01*
G37*
%TD*%
%TO.C,C2*%
G36*
G01*
X61160000Y-100867500D02*
X60760000Y-100867500D01*
G75*
G02*
X60580000Y-100687500I0J180000D01*
G01*
X60580000Y-100327500D01*
G75*
G02*
X60760000Y-100147500I180000J0D01*
G01*
X61160000Y-100147500D01*
G75*
G02*
X61340000Y-100327500I0J-180000D01*
G01*
X61340000Y-100687500D01*
G75*
G02*
X61160000Y-100867500I-180000J0D01*
G01*
G37*
G36*
G01*
X61160000Y-102417500D02*
X60760000Y-102417500D01*
G75*
G02*
X60580000Y-102237500I0J180000D01*
G01*
X60580000Y-101877500D01*
G75*
G02*
X60760000Y-101697500I180000J0D01*
G01*
X61160000Y-101697500D01*
G75*
G02*
X61340000Y-101877500I0J-180000D01*
G01*
X61340000Y-102237500D01*
G75*
G02*
X61160000Y-102417500I-180000J0D01*
G01*
G37*
%TD*%
%TO.C,C1*%
G36*
G01*
X26750000Y-117910000D02*
X26750000Y-118310000D01*
G75*
G02*
X26570000Y-118490000I-180000J0D01*
G01*
X26210000Y-118490000D01*
G75*
G02*
X26030000Y-118310000I0J180000D01*
G01*
X26030000Y-117910000D01*
G75*
G02*
X26210000Y-117730000I180000J0D01*
G01*
X26570000Y-117730000D01*
G75*
G02*
X26750000Y-117910000I0J-180000D01*
G01*
G37*
G36*
G01*
X28300000Y-117910000D02*
X28300000Y-118310000D01*
G75*
G02*
X28120000Y-118490000I-180000J0D01*
G01*
X27760000Y-118490000D01*
G75*
G02*
X27580000Y-118310000I0J180000D01*
G01*
X27580000Y-117910000D01*
G75*
G02*
X27760000Y-117730000I180000J0D01*
G01*
X28120000Y-117730000D01*
G75*
G02*
X28300000Y-117910000I0J-180000D01*
G01*
G37*
%TD*%
M02*
